<?xml version="1.0" encoding="UTF-8"?>
<svg id="_レイヤー_1" data-name="レイヤー 1" xmlns="http://www.w3.org/2000/svg" xmlns:xlink="http://www.w3.org/1999/xlink" viewBox="0 0 300 50">
  <defs>
    <style>
      .cls-1 {
        fill: none;
      }

      .cls-2 {
        fill: #b9e1f2;
      }

      .cls-3 {
        fill: #242e50;
      }
    </style>
  </defs>
  <rect class="cls-2" x="-1.77" y="-2.17" width="305.11" height="54.38"/>
  <g>
    <rect class="cls-1" x="80.55" y="9.66" width="138.89" height="33.36"/>
    <path class="cls-3" d="M82.2,32.17v-11.48c0-.48.24-.72.72-.72h4.57c.34,0,.63.13.88.38l.58.58c.24.24.36.53.36.88v3.35c0,.34-.12.64-.36.9-.14.14-.22.29-.22.45,0,.14.06.28.18.4l.04.04c.24.24.36.54.36.9v3.22c.02.34-.1.64-.36.9l-.58.58c-.24.24-.53.36-.88.36h-4.57c-.48,0-.72-.24-.72-.72ZM84.56,25.67h2.39c.48,0,.72-.24.72-.72v-2.63c0-.48-.24-.72-.72-.72h-2.39c-.48,0-.72.24-.72.72v2.63c0,.48.24.72.72.72ZM84.56,31.25h2.41c.48,0,.72-.24.72-.72v-2.5c0-.48-.24-.72-.72-.72h-2.41c-.48,0-.72.24-.72.72v2.5c0,.48.24.72.72.72Z"/>
    <path class="cls-3" d="M91.11,31.06v-9.29c-.01-.35.11-.65.36-.9l.58-.58c.24-.24.53-.36.88-.36h3.49c.34,0,.63.13.88.38l.58.58c.24.24.36.53.36.88v9.29c.02.34-.1.64-.36.9l-.58.58c-.24.24-.53.36-.88.36h-3.47c-.35,0-.64-.12-.88-.36l-.59-.59c-.24-.24-.36-.53-.36-.88ZM93.47,31.25h2.41c.48,0,.72-.24.72-.72v-8.24c0-.48-.24-.72-.72-.72h-2.41c-.48,0-.72.24-.72.72v8.24c0,.48.24.72.72.72Z"/>
    <path class="cls-3" d="M100.04,31.06v-9.29c-.01-.35.11-.65.36-.9l.58-.58c.24-.24.53-.36.88-.36h3.49c.34,0,.63.13.88.38l.58.58c.24.24.36.53.36.88v9.29c.02.34-.1.64-.36.9l-.58.58c-.24.24-.53.36-.88.36h-3.47c-.35,0-.64-.12-.88-.36l-.59-.59c-.24-.24-.36-.53-.36-.88ZM102.4,31.25h2.41c.48,0,.72-.24.72-.72v-8.24c0-.48-.24-.72-.72-.72h-2.41c-.48,0-.72.24-.72.72v8.24c0,.48.24.72.72.72Z"/>
    <path class="cls-3" d="M110.86,22.31c0-.48-.24-.72-.72-.72h-1.31c-.48,0-.72-.24-.72-.72v-.2c0-.48.24-.72.72-.72h5.69c.48,0,.72.24.72.72v.2c0,.48-.24.72-.72.72h-1.3c-.48,0-.72.24-.72.72v9.85c0,.48-.24.72-.72.72h-.2c-.48,0-.72-.24-.72-.72v-9.85Z"/>
    <path class="cls-3" d="M116.17,32.17v-11.52c0-.48.24-.72.72-.72h.2c.48,0,.72.24.72.72v3.74c0,.48.24.72.72.72h2.41c.48,0,.72-.24.72-.72v-3.74c0-.48.24-.72.72-.72h.2c.48,0,.72.24.72.72v11.52c0,.48-.24.72-.72.72h-.2c-.48,0-.72-.24-.72-.72v-4.7c0-.48-.24-.72-.72-.72h-2.41c-.48,0-.72.24-.72.72v4.7c0,.48-.24.72-.72.72h-.2c-.48,0-.72-.24-.72-.72Z"/>
    <path class="cls-3" d="M128.32,30.3c-.05-.24-.08-.56-.11-.96-.03-.4-.04-.84-.05-1.32-.01-.48-.01-.99,0-1.5,0-.52.03-1.03.05-1.52.03-.49.06-.95.11-1.36.04-.42.09-.76.15-1.02l.63.15c-.07.25-.12.57-.17.96-.05.39-.08.83-.11,1.3-.03.48-.05.97-.06,1.47,0,.5,0,.99,0,1.46.01.47.04.9.06,1.29.03.39.07.7.12.94l-.63.11ZM131.75,30.11c-.45-.01-.8-.13-1.04-.35s-.36-.48-.35-.78c0-.19.06-.38.19-.55.13-.17.31-.31.56-.42s.56-.17.92-.17c.15,0,.31,0,.47.02.16.01.31.03.46.06,0-.33-.02-.75-.04-1.25s-.04-1.06-.05-1.69c-.45.03-.9.04-1.32.06-.43,0-.79,0-1.08,0l-.05-.66c.27.03.63.04,1.08.04s.9-.01,1.38-.04c0-.29-.01-.58-.02-.88,0-.3,0-.61,0-.94h.63c-.01.63-.01,1.22,0,1.78.43-.03.83-.07,1.19-.11s.63-.09.8-.14v.65c-.19.03-.46.07-.81.1-.35.04-.74.07-1.17.1.01.67.03,1.28.06,1.82.02.54.04.98.06,1.33.71.23,1.43.62,2.17,1.19-.03.02-.07.07-.13.16-.06.08-.12.17-.17.25-.05.08-.09.14-.1.17-.31-.27-.6-.5-.89-.68-.29-.18-.57-.33-.85-.45v.1c0,.46-.17.79-.51,1-.34.2-.79.3-1.34.29ZM131.79,29.54c.38,0,.67-.06.88-.19.21-.12.31-.32.31-.58,0-.03,0-.07,0-.11,0-.04,0-.09,0-.15-.16-.04-.32-.07-.48-.08s-.32-.03-.49-.04c-.35,0-.61.06-.78.18-.18.12-.27.26-.27.42,0,.15.07.28.21.39.14.11.35.17.63.17Z"/>
    <path class="cls-3" d="M141.08,29.68c-.63,0-1.15-.12-1.54-.34-.39-.23-.69-.63-.88-1.2l.6-.27c.09.37.29.66.59.86.3.2.71.3,1.23.3.45,0,.89-.02,1.33-.06s.85-.1,1.23-.17.69-.15.94-.24c0,.04,0,.11.01.21,0,.1.02.2.03.3.02.1.03.16.04.2-.26.09-.58.16-.97.22-.39.06-.81.11-1.26.14-.45.03-.9.05-1.35.05ZM139.78,23.78l-.02-.66c.21.07.49.13.83.16s.71.05,1.1.04c.39,0,.75-.03,1.1-.07s.63-.09.84-.16l.02.66c-.21.07-.49.12-.83.16-.34.04-.7.06-1.08.06s-.74,0-1.09-.04c-.35-.03-.64-.08-.87-.15Z"/>
    <path class="cls-3" d="M150.66,30.53c-.01-.09-.05-.21-.1-.35s-.11-.25-.16-.32c.73.05,1.37.03,1.93-.08.56-.11,1-.3,1.32-.57s.48-.63.48-1.06c0-.39-.15-.68-.44-.88-.29-.19-.65-.29-1.08-.29-.45,0-.93.1-1.44.3-.51.2-1.01.53-1.49,1h-.01s-.5-.39-.5-.39c.23-.22.44-.5.62-.86.18-.35.33-.74.46-1.16.13-.43.23-.86.31-1.31-.98.04-1.84.04-2.57,0l-.05-.65c.33.04.74.06,1.21.07.47,0,.97,0,1.5-.03.05-.34.08-.67.1-.99.02-.32.02-.63,0-.92h.67c.01.25,0,.54,0,.86-.02.32-.05.66-.1,1.01.46-.03.91-.07,1.35-.12.44-.05.84-.1,1.2-.16s.66-.12.9-.19v.64c-.43.1-.96.19-1.59.26-.63.08-1.29.14-1.96.18-.07.45-.17.89-.3,1.33-.13.44-.29.86-.47,1.25.78-.48,1.51-.72,2.2-.72.4,0,.76.06,1.09.19.32.14.58.34.77.6s.29.59.29.97c0,.49-.15.92-.45,1.29-.3.37-.75.65-1.36.85-.61.19-1.38.27-2.32.24Z"/>
    <path class="cls-3" d="M161.02,30.39s-.03-.09-.06-.18c-.03-.09-.06-.18-.1-.27s-.07-.15-.1-.18c1.07,0,1.88-.15,2.43-.48.55-.32.83-.77.83-1.34,0-.41-.15-.71-.46-.9-.31-.19-.69-.29-1.14-.29-.31,0-.64.05-1,.16-.36.11-.71.27-1.04.49-.33.22-.61.49-.83.83l-.56-.27c.13-.23.24-.52.33-.87.1-.34.18-.71.24-1.09s.11-.75.13-1.08.03-.62.02-.84l.68.07c0,.23-.02.51-.06.84-.04.33-.09.69-.16,1.05-.07.37-.16.73-.27,1.08.39-.31.81-.55,1.26-.72.45-.17.87-.25,1.26-.25.69,0,1.24.16,1.65.49.41.33.61.76.61,1.3,0,.73-.3,1.3-.91,1.73s-1.53.67-2.77.72ZM162.7,24c-.14-.11-.32-.23-.54-.35-.22-.12-.45-.24-.69-.35-.24-.11-.48-.21-.71-.29-.23-.08-.42-.14-.59-.18l.32-.58c.15.05.34.12.57.21s.46.19.71.31.48.23.7.34c.22.11.41.22.55.31l-.33.59Z"/>
    <path class="cls-3" d="M173.86,30.14c-.52-.49-.93-1.06-1.22-1.7-.29-.64-.44-1.34-.44-2.1s.15-1.46.44-2.1c.29-.65.7-1.21,1.22-1.7l.26.27c-.5.47-.88,1-1.14,1.59-.27.59-.4,1.24-.4,1.94s.13,1.34.4,1.93c.27.59.65,1.12,1.14,1.6l-.26.27Z"/>
    <path class="cls-3" d="M176.96,29.72c-.31,0-.53-.06-.68-.17-.14-.11-.21-.29-.21-.54v-4.03h2.6c.12-.15.25-.32.38-.5.13-.18.25-.34.34-.48h-2.13c-.29.26-.61.5-.95.73-.34.22-.69.42-1.04.58-.04-.07-.08-.15-.14-.23-.05-.08-.1-.15-.15-.2.41-.17.8-.37,1.17-.62s.7-.52,1-.81c.3-.29.55-.58.74-.87l.45.22c-.18.26-.38.5-.6.74h2.27l.21.18c-.12.18-.27.38-.46.62s-.35.45-.52.64h2.06v2.33h-4.74v1.52c0,.27.17.4.5.4h3.47c.25,0,.44-.03.59-.08.15-.06.26-.16.34-.32s.13-.38.16-.69c.06.04.14.07.23.11.1.03.18.07.25.09-.04.39-.12.68-.23.88s-.28.33-.48.4c-.2.07-.45.1-.75.1h-3.71ZM176.58,26.86h1.88v-1.41h-1.88v1.41ZM178.98,26.86h1.83v-1.41h-1.83v1.41Z"/>
    <path class="cls-3" d="M187.89,29.17c-.13-.17-.29-.35-.48-.55s-.41-.4-.63-.6c-.23-.2-.45-.39-.68-.56-.22-.17-.43-.32-.62-.43l.34-.32c.16.1.34.22.53.36.19.14.39.29.59.45.18-.18.37-.4.58-.64.2-.25.4-.5.58-.77.19-.26.34-.51.47-.73-.17,0-.36.01-.59.02s-.46,0-.7.01c-.24,0-.46,0-.66.01-.2,0-.36,0-.47,0-.31.41-.66.79-1.05,1.16-.38.37-.78.69-1.18.96-.02-.02-.05-.06-.1-.11-.05-.05-.1-.11-.15-.16-.05-.05-.09-.09-.12-.1.33-.19.64-.42.96-.69.31-.27.61-.57.88-.89s.53-.65.74-.98.39-.66.53-.96l.47.18c-.16.37-.37.75-.64,1.14.21,0,.45,0,.71,0,.27,0,.53-.01.79-.02.26,0,.48-.01.66-.02s.28-.01.3-.02l.32.24c-.13.29-.31.6-.54.93-.23.33-.46.65-.72.96-.25.31-.49.58-.7.82.19.17.37.33.54.5s.31.32.43.46c-.03.02-.07.05-.12.1-.06.05-.11.1-.16.15-.05.05-.09.09-.11.12Z"/>
    <path class="cls-3" d="M191.43,29.65v-4.98h.94v-1.14h-1.22v-.45h3.64v.45h-1.24v1.14h1.05v4.98h-3.17ZM191.86,27.92h2.31v-.84h-.49c-.19,0-.33-.02-.4-.07-.08-.05-.12-.13-.12-.24v-1.64h-.38c0,.4-.02.73-.07.98-.05.25-.12.47-.21.65s-.22.36-.37.56c-.03-.03-.07-.06-.12-.09-.05-.04-.1-.07-.15-.09v.79ZM191.86,26.98c.13-.15.24-.31.31-.48.08-.16.13-.35.16-.58.03-.22.05-.49.05-.8h-.52v1.86ZM191.86,29.2h2.31v-.87h-2.31v.87ZM192.78,24.67h.38v-1.14h-.38v1.14ZM193.79,26.66h.38v-1.54h-.62v1.35c0,.08.02.12.05.15.03.02.1.04.19.04ZM195.88,29.64c-.25,0-.42-.04-.52-.12-.1-.08-.15-.2-.15-.37v-3.74h2.21v-1.87h-2.22v-.46h2.72v2.81h-2.23v3.06c0,.08.02.14.06.17.04.03.13.05.25.05h1.14c.15,0,.28-.03.38-.08.1-.05.17-.15.23-.3s.09-.37.12-.66c.06.03.13.07.23.1.09.04.17.06.24.08-.04.37-.1.66-.19.85-.09.19-.21.32-.35.39-.14.07-.32.1-.53.1h-1.38Z"/>
    <path class="cls-3" d="M202.82,29.99v-3.69h-1.57v3.1h-.52v-3.3c-.45.52-.93.96-1.43,1.34-.02-.03-.05-.07-.1-.12s-.1-.11-.16-.16c-.05-.05-.09-.09-.12-.1.31-.2.61-.44.89-.72.29-.28.55-.58.8-.91.25-.33.47-.66.66-1h-2.12v-.47h2.37c.11-.23.2-.45.28-.66s.15-.41.19-.6l.52.09c-.05.2-.12.39-.19.59-.07.2-.15.39-.24.58h4.22v.47h-4.46c-.27.51-.57.98-.92,1.42h1.87v-1.13h.51v1.13h2.18v2.86c0,.2-.06.37-.18.49s-.31.18-.56.18h-.56c0-.07-.02-.16-.05-.27-.03-.1-.05-.19-.08-.24h.59c.12,0,.2-.02.25-.06.05-.04.07-.11.07-.22v-2.26h-1.66v3.69h-.51Z"/>
    <path class="cls-3" d="M210.43,29.98v-2.77h-2.96v-2.81h2.96v-1.7h.53v1.7h2.97v2.81h-2.97v2.77h-.53ZM208.01,26.71h2.42v-1.82h-2.42v1.82ZM210.96,26.71h2.44v-1.82h-2.44v1.82Z"/>
    <path class="cls-3" d="M215.54,30.14l-.26-.27c.5-.47.88-1.01,1.14-1.6.27-.59.4-1.24.4-1.93s-.13-1.34-.4-1.94c-.27-.59-.65-1.12-1.14-1.59l.26-.27c.52.49.93,1.05,1.22,1.7.29.65.44,1.35.44,2.1s-.15,1.46-.44,2.1c-.29.64-.7,1.21-1.22,1.7Z"/>
  </g>
  <image width="900" height="1200" transform="translate(215.7 .13) scale(.1)" xlink:href="../../annko-officialsite/img/fukami/fukami/WebP/puppet02.webp"/>
  <image width="1080" height="566" transform="translate(9.45 10.21) scale(.05)" xlink:href="logo-fukami03.png"/>
</svg>