<?xml version="1.0" encoding="UTF-8"?>
<svg id="_レイヤー_1" data-name="レイヤー 1" xmlns="http://www.w3.org/2000/svg" viewBox="0 0 1080 566">
  <defs>
    <style>
      .cls-1 {
        fill: #f5b570;
      }

      .cls-2 {
        fill: #d73666;
      }

      .cls-3 {
        stroke: #242e50;
        stroke-width: 120px;
      }

      .cls-3, .cls-4 {
        fill: none;
        stroke-linecap: round;
        stroke-linejoin: round;
      }

      .cls-4 {
        stroke: #f2f2f2;
        stroke-width: 90px;
      }

      .cls-5 {
        fill: #242e50;
      }
    </style>
  </defs>
  <g>
    <g>
      <path class="cls-3" d="M354.85,389.23v-1.8c0-1.49.62-2.64,1.87-3.46l3.67-2.3c.67-.43,1.32-.65,1.94-.65.72,0,1.39.24,2.02.72l7.7,5.33c.62.48,1.27.72,1.94.72.77,0,1.46-.24,2.09-.72l1.8-1.3c.67-.48,1.27-.72,1.8-.72,1.15,0,1.73.82,1.73,2.45v1.8c0,1.44-.65,2.59-1.94,3.46l-3.6,2.23c-.62.43-1.3.65-2.02.65-.62,0-1.3-.22-2.02-.65l-7.63-5.11c-.62-.48-1.32-.72-2.09-.72-.58,0-1.22.22-1.94.65l-1.87,1.22c-.62.38-1.18.58-1.66.58-1.2,0-1.8-.79-1.8-2.38Z"/>
      <path class="cls-3" d="M403.01,410.4c-.96-.96-1.44-2.13-1.44-3.53v-20.81c0-1.39.48-2.57,1.44-3.53l2.38-2.38c.96-.96,2.14-1.44,3.53-1.44h13.18c1.92,0,2.88.96,2.88,2.88v.79c0,1.92-.96,2.88-2.88,2.88h-11.09c-1.92,0-2.88.96-2.88,2.88v16.63c0,1.92.96,2.88,2.88,2.88h11.09c1.92,0,2.88.96,2.88,2.88v.79c0,1.92-.96,2.88-2.88,2.88h-13.18c-1.39,0-2.57-.48-3.53-1.44l-2.38-2.38Z"/>
      <path class="cls-3" d="M446.57,410.47c-.96-.96-1.44-2.14-1.44-3.53v-20.88c0-1.39.48-2.57,1.44-3.53l2.38-2.38c.96-.96,2.14-1.44,3.53-1.44h8.93c1.39,0,2.57.48,3.53,1.44l2.3,2.3c.96,1.06,1.44,2.26,1.44,3.6v20.88c.1,1.34-.38,2.54-1.44,3.6l-2.3,2.3c-.96.96-2.14,1.44-3.53,1.44h-8.93c-1.39,0-2.57-.48-3.53-1.44l-2.38-2.38ZM454.56,407.74h4.68c1.92,0,2.88-.96,2.88-2.88v-16.7c0-1.92-.96-2.88-2.88-2.88h-4.68c-1.92,0-2.88.96-2.88,2.88v16.7c0,1.92.96,2.88,2.88,2.88Z"/>
      <path class="cls-3" d="M491,411.48v-25.42c0-1.39.48-2.57,1.44-3.53l2.38-2.38c.96-.96,2.14-1.44,3.53-1.44h8.93c1.34,0,2.52.5,3.53,1.51l2.3,2.3c.96.96,1.44,2.14,1.44,3.53v25.42c0,1.92-.96,2.88-2.88,2.88h-.72c-1.92,0-2.88-.96-2.88-2.88v-23.33c0-1.92-.96-2.88-2.88-2.88h-4.75c-1.92,0-2.88.96-2.88,2.88v23.33c0,1.92-.96,2.88-2.88,2.88h-.79c-1.92,0-2.88-.96-2.88-2.88Z"/>
      <path class="cls-3" d="M541.11,406.94v-18.86c0-1.92-.94-2.88-2.81-2.88s-2.88-.96-2.88-2.88v-.72c0-1.92.96-2.88,2.88-2.88s2.81-.96,2.81-2.88v-3.74c0-1.92.96-2.88,2.88-2.88h.79c1.92,0,2.88.96,2.88,2.88v3.74c0,1.92.96,2.88,2.88,2.88h2.88c1.92,0,2.88.96,2.88,2.88v.72c0,1.92-.96,2.88-2.88,2.88h-2.88c-1.92,0-2.88.96-2.88,2.88v16.78c0,1.92.96,2.88,2.88,2.88h2.88c1.92,0,2.88.96,2.88,2.88v.79c0,1.92-.96,2.88-2.88,2.88h-4.97c-1.39,0-2.57-.48-3.53-1.44l-2.38-2.38c-.96-.96-1.44-2.14-1.44-3.53Z"/>
      <path class="cls-3" d="M577.18,410.4c-.96-.96-1.44-2.13-1.44-3.53v-8.35c0-1.34.5-2.52,1.51-3.53l2.3-2.3c.96-.96,2.13-1.44,3.53-1.44h6.84c1.92,0,2.88-.96,2.88-2.88v-.22c0-1.92-.96-2.88-2.88-2.88h-11.09c-1.92,0-2.88-.96-2.88-2.88v-.79c0-1.92.96-2.88,2.88-2.88h13.18c1.39,0,2.57.48,3.53,1.44l2.38,2.38c.96.96,1.44,2.14,1.44,3.53v25.27c0,1.92-.96,2.88-2.88,2.88h-13.39c-1.39,0-2.57-.48-3.53-1.44l-2.38-2.38ZM585.17,408.31h4.75c1.92,0,2.88-.96,2.88-2.88v-5.4c0-1.92-.96-2.88-2.88-2.88h-4.75c-1.92,0-2.88.96-2.88,2.88v5.4c0,1.92.96,2.88,2.88,2.88Z"/>
      <path class="cls-3" d="M623.11,410.4c-.96-.96-1.44-2.13-1.44-3.53v-20.81c0-1.39.48-2.57,1.44-3.53l2.38-2.38c.96-.96,2.13-1.44,3.53-1.44h13.18c1.92,0,2.88.96,2.88,2.88v.79c0,1.92-.96,2.88-2.88,2.88h-11.09c-1.92,0-2.88.96-2.88,2.88v16.63c0,1.92.96,2.88,2.88,2.88h11.09c1.92,0,2.88.96,2.88,2.88v.79c0,1.92-.96,2.88-2.88,2.88h-13.18c-1.39,0-2.57-.48-3.53-1.44l-2.38-2.38Z"/>
      <path class="cls-3" d="M669.48,406.94v-18.86c0-1.92-.94-2.88-2.81-2.88s-2.88-.96-2.88-2.88v-.72c0-1.92.96-2.88,2.88-2.88s2.81-.96,2.81-2.88v-3.74c0-1.92.96-2.88,2.88-2.88h.79c1.92,0,2.88.96,2.88,2.88v3.74c0,1.92.96,2.88,2.88,2.88h2.88c1.92,0,2.88.96,2.88,2.88v.72c0,1.92-.96,2.88-2.88,2.88h-2.88c-1.92,0-2.88.96-2.88,2.88v16.78c0,1.92.96,2.88,2.88,2.88h2.88c1.92,0,2.88.96,2.88,2.88v.79c0,1.92-.96,2.88-2.88,2.88h-4.97c-1.39,0-2.57-.48-3.53-1.44l-2.38-2.38c-.96-.96-1.44-2.14-1.44-3.53Z"/>
      <path class="cls-3" d="M702.67,389.23v-1.8c0-1.49.62-2.64,1.87-3.46l3.67-2.3c.67-.43,1.32-.65,1.94-.65.72,0,1.39.24,2.02.72l7.7,5.33c.62.48,1.27.72,1.94.72.77,0,1.46-.24,2.09-.72l1.8-1.3c.67-.48,1.27-.72,1.8-.72,1.15,0,1.73.82,1.73,2.45v1.8c0,1.44-.65,2.59-1.94,3.46l-3.6,2.23c-.62.43-1.3.65-2.02.65-.62,0-1.3-.22-2.02-.65l-7.63-5.11c-.62-.48-1.32-.72-2.09-.72-.58,0-1.22.22-1.94.65l-1.87,1.22c-.62.38-1.18.58-1.66.58-1.2,0-1.8-.79-1.8-2.38Z"/>
    </g>
    <g>
      <g>
        <path class="cls-3" d="M148.36,318.3h15.4c2.13,0,3.97-.77,5.5-2.3,1.53-1.53,2.3-3.37,2.3-5.5v-49.8c0-2-.67-3.67-2-5-1.33-1.33-3-2-5-2h-31.6c-2,0-3.67.67-5,2-1.33,1.33-2,3-2,5v55.4c0,4.53-1.6,8.53-4.8,12-1.33,1.47-2.73,2.9-4.2,4.3-1.47,1.4-3.33,2.57-5.6,3.5-2,.93-4.13,1.4-6.4,1.4h-19.2c-2,0-4.1-.5-6.3-1.5s-4.03-2.17-5.5-3.5c-1.47-1.47-2.9-2.9-4.3-4.3-1.4-1.4-2.57-3.23-3.5-5.5-.93-2-1.4-4.13-1.4-6.4v-60.2c0-2,.5-4.1,1.5-6.3s2.17-4.03,3.5-5.5c1.47-1.47,2.93-2.93,4.4-4.4,1.47-1.47,3.27-2.67,5.4-3.6,2-.93,4.07-1.4,6.2-1.4h14.2c2,0,3.67-.67,5-2,1.33-1.33,2-3,2-5v-13.8c0-1.87-.67-3.5-2-4.9-1.33-1.4-3-2.1-5-2.1h-28.2c-2,0-3.67-.67-5-2-1.33-1.33-2-3-2-5v-4.6c0-2,.67-3.67,2-5,1.33-1.33,3-2,5-2h28.2c2,0,3.67-.67,5-2s2-3,2-5v-11.2c0-2,.67-3.67,2-5,1.33-1.33,3-2,5-2h5c2,0,3.67.67,5,2,1.33,1.33,2,3,2,5v11.2c0,2,.67,3.67,2,5,1.33,1.33,3,2,5,2h12.2c2,0,3.67.67,5,2,1.33,1.33,2,3,2,5v4.6c0,2-.67,3.67-2,5s-3,2-5,2h-12.2c-2,0-3.67.7-5,2.1-1.33,1.4-2,3.03-2,4.9v13.8c0,2,.67,3.67,2,5,1.33,1.33,3,2,5,2h36.2c4.53,0,8.47,1.67,11.8,5,1.47,1.47,2.9,2.87,4.3,4.2,1.4,1.33,2.57,3.13,3.5,5.4.93,2.27,1.4,4.47,1.4,6.6v57.6c0,2.27-.53,4.67-1.6,7.2-1.07,2.53-2.33,4.6-3.8,6.2-1.6,1.73-3.2,3.4-4.8,5-1.6,1.6-3.6,2.93-6,4-2.8,1.07-5.2,1.6-7.2,1.6h-18.4c-5.2-.67-7.8-3.27-7.8-7.8v-3.6c.67-5.2,3.27-7.8,7.8-7.8ZM85.36,316.3c1.33,1.33,3,2,5,2h9.6c2,0,3.67-.67,5-2,1.33-1.33,2-3,2-5v-50.6c0-2-.67-3.67-2-5-1.33-1.33-3-2-5-2h-9.6c-2,0-3.67.67-5,2-1.33,1.33-2,3-2,5v50.6c0,2,.67,3.67,2,5ZM160.26,182.2c-1.4-7.4-2.1-11.17-2.1-11.3,0-1.2.4-2.3,1.2-3.3.8-1,1.93-1.5,3.4-1.5h6.4c1.87,0,3.5.57,4.9,1.7,1.4,1.13,2.23,2.5,2.5,4.1l5,25c.4,1.6,1.07,3.03,2,4.3.93,1.27,1.93,1.9,3,1.9s2,.57,2.8,1.7c.8,1.13,1.2,2.57,1.2,4.3v6c0,1.6-.6,3.17-1.8,4.7-1.2,1.53-2.6,2.3-4.2,2.3h-10.6c-1.6,0-3.1-.73-4.5-2.2-1.4-1.47-2.3-3.07-2.7-4.8-2.93-14.53-5.1-25.5-6.5-32.9Z"/>
        <path class="cls-3" d="M274.7,246c-2,.87-3.8,1.3-5.4,1.3h-18.6c-1.6,0-3,.57-4.2,1.7-1.2,1.13-1.8,2.57-1.8,4.3v77.8c0,1.73-.53,3.2-1.6,4.4-1.07,1.2-2.47,1.8-4.2,1.8h-6.2c-1.6,0-3-.6-4.2-1.8-1.2-1.2-1.8-2.67-1.8-4.4v-171.4c0-1.73.6-3.17,1.8-4.3,1.2-1.13,2.6-1.7,4.2-1.7h50.8c1.6,0,3,.57,4.2,1.7,1.2,1.13,1.8,2.57,1.8,4.3v66.6c0,1.87-.43,3.8-1.3,5.8-.87,2-1.83,3.53-2.9,4.6l-5.8,6.4c-1.2,1.07-2.8,2.03-4.8,2.9ZM265.5,191.29c1.6,0,3-.63,4.2-1.9,1.2-1.27,1.8-2.7,1.8-4.3v-6.6c0-1.73-.6-3.23-1.8-4.5-1.2-1.27-2.6-1.9-4.2-1.9h-14.8c-1.6,0-3,.63-4.2,1.9-1.2,1.27-1.8,2.77-1.8,4.5v6.6c0,1.6.6,3.03,1.8,4.3,1.2,1.27,2.6,1.9,4.2,1.9h14.8ZM265.5,228.9c1.6,0,3-.6,4.2-1.8s1.8-2.67,1.8-4.4v-6.8c0-1.87-.6-3.4-1.8-4.6s-2.6-1.8-4.2-1.8h-14.8c-1.6,0-3,.6-4.2,1.8s-1.8,2.73-1.8,4.6v6.8c0,1.73.6,3.2,1.8,4.4s2.6,1.8,4.2,1.8h14.8ZM321.3,324.9c0-1.73.6-3.2,1.8-4.4,1.2-1.2,2.6-1.8,4.2-1.8h8.8c1.73,0,3.17-.57,4.3-1.7,1.13-1.13,1.7-2.57,1.7-4.3v-59.4c0-1.73-.57-3.17-1.7-4.3-1.13-1.13-2.57-1.7-4.3-1.7h-32.4c-1.73,0-3.13-.6-4.2-1.8-1.07-1.2-1.6-2.67-1.6-4.4v-81.4c0-1.73.53-3.17,1.6-4.3,1.07-1.13,2.47-1.7,4.2-1.7h50.4c1.6,0,3,.57,4.2,1.7,1.2,1.13,1.8,2.57,1.8,4.3v156.8c0,1.73-.43,3.63-1.3,5.7-.87,2.07-1.83,3.63-2.9,4.7l-5.8,6c-1.2,1.2-2.8,2.23-4.8,3.1-2,.87-3.8,1.3-5.4,1.3h-12.6c-1.6,0-3-.6-4.2-1.8-1.2-1.2-1.8-2.67-1.8-4.4v-6.2ZM336.1,191.29c1.73,0,3.17-.63,4.3-1.9,1.13-1.27,1.7-2.7,1.7-4.3v-6.6c0-1.73-.57-3.23-1.7-4.5-1.13-1.27-2.57-1.9-4.3-1.9h-14.6c-1.6,0-2.93.63-4,1.9-1.07,1.27-1.6,2.77-1.6,4.5v6.6c0,1.6.53,3.03,1.6,4.3,1.07,1.27,2.4,1.9,4,1.9h14.6ZM336.1,228.9c1.73,0,3.17-.6,4.3-1.8,1.13-1.2,1.7-2.67,1.7-4.4v-6.8c0-1.87-.57-3.4-1.7-4.6-1.13-1.2-2.57-1.8-4.3-1.8h-14.6c-1.6,0-2.93.6-4,1.8-1.07,1.2-1.6,2.73-1.6,4.6v6.8c0,1.73.53,3.2,1.6,4.4,1.07,1.2,2.4,1.8,4,1.8h14.6Z"/>
        <path class="cls-3" d="M401.63,317.1v-135.8c0-4.4,2.27-6.6,6.8-6.6h4.8c4.53,0,6.8,2.2,6.8,6.6v130.8c0,4.53,2.2,6.8,6.6,6.8h26.6c4.53,0,6.8,2.2,6.8,6.6v5.4c0,4.13-2.27,6.2-6.8,6.2h-31.6c-4.4,0-8.13-1.53-11.2-4.6l-4-4c-3.2-3.2-4.8-7-4.8-11.4ZM498.83,320.3v-125c-.4-4.4-2.6-6.6-6.6-6.6h-14.6c-4.53,0-6.8-2.27-6.8-6.8v-4.8c0-4.4,2.27-6.6,6.8-6.6h19.6c4.4,0,8.13,1.53,11.2,4.6l4,4c3.2,3.2,4.8,6.93,4.8,11.2v130.4c0,4.13-2.27,6.2-6.8,6.2h-4.8c-4.53-.4-6.8-2.6-6.8-6.6Z"/>
        <path class="cls-3" d="M559.67,210.2c-1.13-1.27-1.7-2.9-1.7-4.9v-4.6c0-2,.4-3.7,1.2-5.1s1.87-2.1,3.2-2.1c1.07,0,2-.7,2.8-2.1s1.2-3.1,1.2-5.1v-25.8c0-1.87.7-3.47,2.1-4.8,1.4-1.33,3.1-2,5.1-2h102.4c1.87,0,3.47.67,4.8,2,1.33,1.33,2,2.93,2,4.8v25.8c0,2,.4,3.7,1.2,5.1s1.73,2.1,2.8,2.1c1.33,0,2.4.7,3.2,2.1s1.2,3.1,1.2,5.1v4.6c.13,2.13-.43,3.77-1.7,4.9-1.27,1.13-2.9,1.7-4.9,1.7-3.87,0-7.33-1.53-10.4-4.6l-5-5c-1.47-1.47-2.67-3.37-3.6-5.7-.93-2.33-1.4-4.5-1.4-6.5v-10.8c0-2-.7-3.7-2.1-5.1-1.4-1.4-3.04-2.1-4.9-2.1h-65.4c-1.87,0-3.5.7-4.9,2.1-1.4,1.4-2.1,3.1-2.1,5.1v10.8c0,2-.43,4.17-1.3,6.5-.87,2.33-2.03,4.23-3.5,5.7l-5,5c-1.33,1.33-3.07,2.47-5.2,3.4-2.13.93-4,1.4-5.6,1.4-1.87,0-3.37-.63-4.5-1.9ZM563.57,239c-1.33-1.4-2-3.03-2-4.9v-4.4c0-2,.67-3.67,2-5,1.33-1.33,3-2,5-2h112c1.87,0,3.5.67,4.9,2,1.4,1.33,2.1,3,2.1,5v4.4c0,1.87-.7,3.5-2.1,4.9-1.4,1.4-3.03,2.1-4.9,2.1h-112c-2,0-3.67-.7-5-2.1Z"/>
        <path class="cls-3" d="M728.5,308.6c-1.07-1.27-1.6-2.83-1.6-4.7v-20.8c0-2,.33-4,1-6,.67-2,1.73-3.93,3.2-5.8l21.8-25.8c2.8-3.47,4.2-7.4,4.2-11.8v-18c0-2.27-.63-3.97-1.9-5.1-1.27-1.13-2.83-1.7-4.7-1.7h-17c-4.4,0-6.6-2.2-6.6-6.6v-4c0-2.27.63-3.97,1.9-5.1,1.27-1.13,2.83-1.7,4.7-1.7h17c4.4,0,6.6-2.2,6.6-6.6v-15.6c0-1.87.63-3.43,1.9-4.7s2.83-1.9,4.7-1.9h4.4c1.73,0,3.27.63,4.6,1.9,1.33,1.27,2,2.83,2,4.7v43.4c0,2.4.53,3.6,1.6,3.6.93,0,1.87-.67,2.8-2l16.8-20.6c1.46-1.87,3.17-3.2,5.1-4,1.93-.8,3.9-1.2,5.9-1.2h26.8c1.87,0,3.8.3,5.8.9s3.87,1.83,5.6,3.7l3.8,4c3.2,3.33,4.8,7.13,4.8,11.4v108.4c0,4.53-1.6,8.4-4.8,11.6l-4,4c-3.2,3.2-7.07,4.8-11.6,4.8h-32.2c-1.87,0-3.43-.63-4.7-1.9s-1.9-2.83-1.9-4.7v-4.6c0-2.27.63-3.93,1.9-5,1.27-1.07,2.83-1.6,4.7-1.6h28.2c2.27,0,3.97-.63,5.1-1.9,1.13-1.27,1.7-2.9,1.7-4.9v-100.2c0-2.27-.63-3.93-1.9-5-1.27-1.07-2.9-1.6-4.9-1.6h-13.4c-4.27,0-7.93,1.73-11,5.2l-25.8,30.6c-1.6,1.87-2.73,3.77-3.4,5.7-.67,1.93-1,3.97-1,6.1v77.2c0,4.4-2.2,6.6-6.6,6.6h-4.4c-2.27,0-3.93-.63-5-1.9-1.07-1.27-1.6-2.83-1.6-4.7v-56c0-2.13-.2-3.27-.6-3.4-.27-.13-.6-.2-1-.2-.53,0-1.47.77-2.8,2.3-1.33,1.54-2.67,3.1-4,4.7-2.93,3.73-4.4,7.67-4.4,11.8v14c0,4.4-2.2,6.6-6.6,6.6h-4.2c-2.27,0-3.93-.63-5-1.9Z"/>
        <path class="cls-3" d="M969.44,205.5h-36.4c-2.27,0-4,.67-5.2,2-1.2,1.33-1.8,3.07-1.8,5.2v99c0,2.27.63,4,1.9,5.2,1.27,1.2,2.97,1.8,5.1,1.8h64.8c2.27,0,4,.63,5.2,1.9,1.2,1.27,1.8,2.97,1.8,5.1v4.4c0,2.27-.63,4-1.9,5.2-1.27,1.2-2.97,1.8-5.1,1.8h-69.2c-2.13,0-4.2-.37-6.2-1.1-2-.73-3.93-2.03-5.8-3.9l-4-4c-1.87-1.87-3.17-3.8-3.9-5.8-.73-2-1.1-4.07-1.1-6.2v-103.4c0-2.4-.63-4.2-1.9-5.4-1.27-1.2-2.97-1.8-5.1-1.8h-6c-2.27,0-4-.63-5.2-1.9-1.2-1.27-1.8-2.97-1.8-5.1v-4.4c0-2.27.63-4,1.9-5.2,1.27-1.2,2.97-1.8,5.1-1.8h6c2.27,0,4-.63,5.2-1.9,1.2-1.27,1.8-2.97,1.8-5.1v-10c0-2.27.63-4,1.9-5.2,1.27-1.2,2.97-1.8,5.1-1.8h4.4c2.27,0,4,.63,5.2,1.9,1.2,1.27,1.8,2.97,1.8,5.1v10c0,2.27.63,4,1.9,5.2,1.27,1.2,2.97,1.8,5.1,1.8h76.8c2.27,0,4,.63,5.2,1.9,1.2,1.27,1.8,2.97,1.8,5.1v4.4c0,2.27-.63,4-1.9,5.2-1.27,1.2-2.97,1.8-5.1,1.8h-8"/>
        <path class="cls-3" d="M997.73,106.75h-25.03c-3.56,0-6.32,4.04-5.86,8.6l5.8,58.03c.38,3.8,2.89,6.65,5.86,6.65h13.9c2.99,0,5.52-2.89,5.87-6.72l5.33-58.03c.42-4.53-2.33-8.52-5.87-8.52Z"/>
        <rect class="cls-3" x="976.66" y="216.79" width="20" height="20" rx="10" ry="10"/>
      </g>
      <g>
        <ellipse class="cls-3" cx="625.43" cy="298.45" rx="58.47" ry="48.89"/>
        <g>
          <path class="cls-3" d="M609.58,264.8c-6.59,4.99-9,12.32-7.19,19.03.37-1.01,3.54-2.35,3.68-.41.07.96,3.48.34,3.56-.7.12-1.71.07-4.88.98-9.67,2.05-10.74,20.5-9.12,26.64-3.77,6.15,5.35,4.99,15.59-4.38,23.13-3.89,3.13-8.34,5.26-12.65,6.31.09.78.09.69.16,1.56.04.49,9.23-1.32,11.03-1.71,3.78-.82,7.37-2.45,10.39-4.87,9.67-7.78,9.71-20.78-.13-28.59-8.9-7.06-23-7.19-32.09-.3Z"/>
          <path class="cls-3" d="M629.2,324.64h-8.28c-.58,0-1.05-.39-1.05-.88v-24.02c0-.48.47-.88,1.05-.88l8.78-.95c.58,0,1.28.16,1.28.65l-.73,25.2c0,.48-.47.88-1.05.88Z"/>
          <ellipse class="cls-3" cx="625.43" cy="332.52" rx="5.57" ry="4.65"/>
        </g>
      </g>
      <g>
        <circle class="cls-3" cx="292.57" cy="290.41" r="40.21"/>
        <g>
          <path class="cls-3" d="M281.67,262.74c-4.53,4.1-6.19,10.13-4.94,15.65.25-.83,2.44-1.93,2.53-.34.05.79,2.4.28,2.45-.58.08-1.41.05-4.02.67-7.96,1.41-8.84,14.1-7.5,18.33-3.1s3.44,12.83-3.02,19.03c-2.68,2.57-5.74,4.33-8.7,5.19.07.64.07.57.11,1.28.03.4,6.35-1.08,7.59-1.41,2.6-.68,5.07-2.01,7.14-4.01,6.65-6.4,6.68-17.09-.09-23.51-6.12-5.81-15.82-5.91-22.07-.25Z"/>
          <path class="cls-3" d="M295.17,311.95h-5.7c-.4,0-.72-.32-.72-.72v-19.76c0-.4.32-.72.72-.72l6.04-.78c.4,0,.88.13.88.53l-.5,20.73c0,.4-.32.72-.72.72Z"/>
          <circle class="cls-3" cx="292.57" cy="318.44" r="3.83"/>
        </g>
      </g>
    </g>
  </g>
  <g>
    <g>
      <path class="cls-4" d="M354.85,389.23v-1.8c0-1.49.62-2.64,1.87-3.46l3.67-2.3c.67-.43,1.32-.65,1.94-.65.72,0,1.39.24,2.02.72l7.7,5.33c.62.48,1.27.72,1.94.72.77,0,1.46-.24,2.09-.72l1.8-1.3c.67-.48,1.27-.72,1.8-.72,1.15,0,1.73.82,1.73,2.45v1.8c0,1.44-.65,2.59-1.94,3.46l-3.6,2.23c-.62.43-1.3.65-2.02.65-.62,0-1.3-.22-2.02-.65l-7.63-5.11c-.62-.48-1.32-.72-2.09-.72-.58,0-1.22.22-1.94.65l-1.87,1.22c-.62.38-1.18.58-1.66.58-1.2,0-1.8-.79-1.8-2.38Z"/>
      <path class="cls-4" d="M403.01,410.4c-.96-.96-1.44-2.13-1.44-3.53v-20.81c0-1.39.48-2.57,1.44-3.53l2.38-2.38c.96-.96,2.14-1.44,3.53-1.44h13.18c1.92,0,2.88.96,2.88,2.88v.79c0,1.92-.96,2.88-2.88,2.88h-11.09c-1.92,0-2.88.96-2.88,2.88v16.63c0,1.92.96,2.88,2.88,2.88h11.09c1.92,0,2.88.96,2.88,2.88v.79c0,1.92-.96,2.88-2.88,2.88h-13.18c-1.39,0-2.57-.48-3.53-1.44l-2.38-2.38Z"/>
      <path class="cls-4" d="M446.57,410.47c-.96-.96-1.44-2.14-1.44-3.53v-20.88c0-1.39.48-2.57,1.44-3.53l2.38-2.38c.96-.96,2.14-1.44,3.53-1.44h8.93c1.39,0,2.57.48,3.53,1.44l2.3,2.3c.96,1.06,1.44,2.26,1.44,3.6v20.88c.1,1.34-.38,2.54-1.44,3.6l-2.3,2.3c-.96.96-2.14,1.44-3.53,1.44h-8.93c-1.39,0-2.57-.48-3.53-1.44l-2.38-2.38ZM454.56,407.74h4.68c1.92,0,2.88-.96,2.88-2.88v-16.7c0-1.92-.96-2.88-2.88-2.88h-4.68c-1.92,0-2.88.96-2.88,2.88v16.7c0,1.92.96,2.88,2.88,2.88Z"/>
      <path class="cls-4" d="M491,411.48v-25.42c0-1.39.48-2.57,1.44-3.53l2.38-2.38c.96-.96,2.14-1.44,3.53-1.44h8.93c1.34,0,2.52.5,3.53,1.51l2.3,2.3c.96.96,1.44,2.14,1.44,3.53v25.42c0,1.92-.96,2.88-2.88,2.88h-.72c-1.92,0-2.88-.96-2.88-2.88v-23.33c0-1.92-.96-2.88-2.88-2.88h-4.75c-1.92,0-2.88.96-2.88,2.88v23.33c0,1.92-.96,2.88-2.88,2.88h-.79c-1.92,0-2.88-.96-2.88-2.88Z"/>
      <path class="cls-4" d="M541.11,406.94v-18.86c0-1.92-.94-2.88-2.81-2.88s-2.88-.96-2.88-2.88v-.72c0-1.92.96-2.88,2.88-2.88s2.81-.96,2.81-2.88v-3.74c0-1.92.96-2.88,2.88-2.88h.79c1.92,0,2.88.96,2.88,2.88v3.74c0,1.92.96,2.88,2.88,2.88h2.88c1.92,0,2.88.96,2.88,2.88v.72c0,1.92-.96,2.88-2.88,2.88h-2.88c-1.92,0-2.88.96-2.88,2.88v16.78c0,1.92.96,2.88,2.88,2.88h2.88c1.92,0,2.88.96,2.88,2.88v.79c0,1.92-.96,2.88-2.88,2.88h-4.97c-1.39,0-2.57-.48-3.53-1.44l-2.38-2.38c-.96-.96-1.44-2.14-1.44-3.53Z"/>
      <path class="cls-4" d="M577.18,410.4c-.96-.96-1.44-2.13-1.44-3.53v-8.35c0-1.34.5-2.52,1.51-3.53l2.3-2.3c.96-.96,2.13-1.44,3.53-1.44h6.84c1.92,0,2.88-.96,2.88-2.88v-.22c0-1.92-.96-2.88-2.88-2.88h-11.09c-1.92,0-2.88-.96-2.88-2.88v-.79c0-1.92.96-2.88,2.88-2.88h13.18c1.39,0,2.57.48,3.53,1.44l2.38,2.38c.96.96,1.44,2.14,1.44,3.53v25.27c0,1.92-.96,2.88-2.88,2.88h-13.39c-1.39,0-2.57-.48-3.53-1.44l-2.38-2.38ZM585.17,408.31h4.75c1.92,0,2.88-.96,2.88-2.88v-5.4c0-1.92-.96-2.88-2.88-2.88h-4.75c-1.92,0-2.88.96-2.88,2.88v5.4c0,1.92.96,2.88,2.88,2.88Z"/>
      <path class="cls-4" d="M623.11,410.4c-.96-.96-1.44-2.13-1.44-3.53v-20.81c0-1.39.48-2.57,1.44-3.53l2.38-2.38c.96-.96,2.13-1.44,3.53-1.44h13.18c1.92,0,2.88.96,2.88,2.88v.79c0,1.92-.96,2.88-2.88,2.88h-11.09c-1.92,0-2.88.96-2.88,2.88v16.63c0,1.92.96,2.88,2.88,2.88h11.09c1.92,0,2.88.96,2.88,2.88v.79c0,1.92-.96,2.88-2.88,2.88h-13.18c-1.39,0-2.57-.48-3.53-1.44l-2.38-2.38Z"/>
      <path class="cls-4" d="M669.48,406.94v-18.86c0-1.92-.94-2.88-2.81-2.88s-2.88-.96-2.88-2.88v-.72c0-1.92.96-2.88,2.88-2.88s2.81-.96,2.81-2.88v-3.74c0-1.92.96-2.88,2.88-2.88h.79c1.92,0,2.88.96,2.88,2.88v3.74c0,1.92.96,2.88,2.88,2.88h2.88c1.92,0,2.88.96,2.88,2.88v.72c0,1.92-.96,2.88-2.88,2.88h-2.88c-1.92,0-2.88.96-2.88,2.88v16.78c0,1.92.96,2.88,2.88,2.88h2.88c1.92,0,2.88.96,2.88,2.88v.79c0,1.92-.96,2.88-2.88,2.88h-4.97c-1.39,0-2.57-.48-3.53-1.44l-2.38-2.38c-.96-.96-1.44-2.14-1.44-3.53Z"/>
      <path class="cls-4" d="M702.67,389.23v-1.8c0-1.49.62-2.64,1.87-3.46l3.67-2.3c.67-.43,1.32-.65,1.94-.65.72,0,1.39.24,2.02.72l7.7,5.33c.62.48,1.27.72,1.94.72.77,0,1.46-.24,2.09-.72l1.8-1.3c.67-.48,1.27-.72,1.8-.72,1.15,0,1.73.82,1.73,2.45v1.8c0,1.44-.65,2.59-1.94,3.46l-3.6,2.23c-.62.43-1.3.65-2.02.65-.62,0-1.3-.22-2.02-.65l-7.63-5.11c-.62-.48-1.32-.72-2.09-.72-.58,0-1.22.22-1.94.65l-1.87,1.22c-.62.38-1.18.58-1.66.58-1.2,0-1.8-.79-1.8-2.38Z"/>
    </g>
    <g>
      <g>
        <path class="cls-4" d="M148.36,318.3h15.4c2.13,0,3.97-.77,5.5-2.3,1.53-1.53,2.3-3.37,2.3-5.5v-49.8c0-2-.67-3.67-2-5-1.33-1.33-3-2-5-2h-31.6c-2,0-3.67.67-5,2-1.33,1.33-2,3-2,5v55.4c0,4.53-1.6,8.53-4.8,12-1.33,1.47-2.73,2.9-4.2,4.3-1.47,1.4-3.33,2.57-5.6,3.5-2,.93-4.13,1.4-6.4,1.4h-19.2c-2,0-4.1-.5-6.3-1.5s-4.03-2.17-5.5-3.5c-1.47-1.47-2.9-2.9-4.3-4.3-1.4-1.4-2.57-3.23-3.5-5.5-.93-2-1.4-4.13-1.4-6.4v-60.2c0-2,.5-4.1,1.5-6.3s2.17-4.03,3.5-5.5c1.47-1.47,2.93-2.93,4.4-4.4,1.47-1.47,3.27-2.67,5.4-3.6,2-.93,4.07-1.4,6.2-1.4h14.2c2,0,3.67-.67,5-2,1.33-1.33,2-3,2-5v-13.8c0-1.87-.67-3.5-2-4.9-1.33-1.4-3-2.1-5-2.1h-28.2c-2,0-3.67-.67-5-2-1.33-1.33-2-3-2-5v-4.6c0-2,.67-3.67,2-5,1.33-1.33,3-2,5-2h28.2c2,0,3.67-.67,5-2s2-3,2-5v-11.2c0-2,.67-3.67,2-5,1.33-1.33,3-2,5-2h5c2,0,3.67.67,5,2,1.33,1.33,2,3,2,5v11.2c0,2,.67,3.67,2,5,1.33,1.33,3,2,5,2h12.2c2,0,3.67.67,5,2,1.33,1.33,2,3,2,5v4.6c0,2-.67,3.67-2,5s-3,2-5,2h-12.2c-2,0-3.67.7-5,2.1-1.33,1.4-2,3.03-2,4.9v13.8c0,2,.67,3.67,2,5,1.33,1.33,3,2,5,2h36.2c4.53,0,8.47,1.67,11.8,5,1.47,1.47,2.9,2.87,4.3,4.2,1.4,1.33,2.57,3.13,3.5,5.4.93,2.27,1.4,4.47,1.4,6.6v57.6c0,2.27-.53,4.67-1.6,7.2-1.07,2.53-2.33,4.6-3.8,6.2-1.6,1.73-3.2,3.4-4.8,5-1.6,1.6-3.6,2.93-6,4-2.8,1.07-5.2,1.6-7.2,1.6h-18.4c-5.2-.67-7.8-3.27-7.8-7.8v-3.6c.67-5.2,3.27-7.8,7.8-7.8ZM85.36,316.3c1.33,1.33,3,2,5,2h9.6c2,0,3.67-.67,5-2,1.33-1.33,2-3,2-5v-50.6c0-2-.67-3.67-2-5-1.33-1.33-3-2-5-2h-9.6c-2,0-3.67.67-5,2-1.33,1.33-2,3-2,5v50.6c0,2,.67,3.67,2,5ZM160.26,182.2c-1.4-7.4-2.1-11.17-2.1-11.3,0-1.2.4-2.3,1.2-3.3.8-1,1.93-1.5,3.4-1.5h6.4c1.87,0,3.5.57,4.9,1.7,1.4,1.13,2.23,2.5,2.5,4.1l5,25c.4,1.6,1.07,3.03,2,4.3.93,1.27,1.93,1.9,3,1.9s2,.57,2.8,1.7c.8,1.13,1.2,2.57,1.2,4.3v6c0,1.6-.6,3.17-1.8,4.7-1.2,1.53-2.6,2.3-4.2,2.3h-10.6c-1.6,0-3.1-.73-4.5-2.2-1.4-1.47-2.3-3.07-2.7-4.8-2.93-14.53-5.1-25.5-6.5-32.9Z"/>
        <path class="cls-4" d="M274.7,246c-2,.87-3.8,1.3-5.4,1.3h-18.6c-1.6,0-3,.57-4.2,1.7-1.2,1.13-1.8,2.57-1.8,4.3v77.8c0,1.73-.53,3.2-1.6,4.4-1.07,1.2-2.47,1.8-4.2,1.8h-6.2c-1.6,0-3-.6-4.2-1.8-1.2-1.2-1.8-2.67-1.8-4.4v-171.4c0-1.73.6-3.17,1.8-4.3,1.2-1.13,2.6-1.7,4.2-1.7h50.8c1.6,0,3,.57,4.2,1.7,1.2,1.13,1.8,2.57,1.8,4.3v66.6c0,1.87-.43,3.8-1.3,5.8-.87,2-1.83,3.53-2.9,4.6l-5.8,6.4c-1.2,1.07-2.8,2.03-4.8,2.9ZM265.5,191.29c1.6,0,3-.63,4.2-1.9,1.2-1.27,1.8-2.7,1.8-4.3v-6.6c0-1.73-.6-3.23-1.8-4.5-1.2-1.27-2.6-1.9-4.2-1.9h-14.8c-1.6,0-3,.63-4.2,1.9-1.2,1.27-1.8,2.77-1.8,4.5v6.6c0,1.6.6,3.03,1.8,4.3,1.2,1.27,2.6,1.9,4.2,1.9h14.8ZM265.5,228.9c1.6,0,3-.6,4.2-1.8s1.8-2.67,1.8-4.4v-6.8c0-1.87-.6-3.4-1.8-4.6s-2.6-1.8-4.2-1.8h-14.8c-1.6,0-3,.6-4.2,1.8s-1.8,2.73-1.8,4.6v6.8c0,1.73.6,3.2,1.8,4.4s2.6,1.8,4.2,1.8h14.8ZM321.3,324.9c0-1.73.6-3.2,1.8-4.4,1.2-1.2,2.6-1.8,4.2-1.8h8.8c1.73,0,3.17-.57,4.3-1.7,1.13-1.13,1.7-2.57,1.7-4.3v-59.4c0-1.73-.57-3.17-1.7-4.3-1.13-1.13-2.57-1.7-4.3-1.7h-32.4c-1.73,0-3.13-.6-4.2-1.8-1.07-1.2-1.6-2.67-1.6-4.4v-81.4c0-1.73.53-3.17,1.6-4.3,1.07-1.13,2.47-1.7,4.2-1.7h50.4c1.6,0,3,.57,4.2,1.7,1.2,1.13,1.8,2.57,1.8,4.3v156.8c0,1.73-.43,3.63-1.3,5.7-.87,2.07-1.83,3.63-2.9,4.7l-5.8,6c-1.2,1.2-2.8,2.23-4.8,3.1-2,.87-3.8,1.3-5.4,1.3h-12.6c-1.6,0-3-.6-4.2-1.8-1.2-1.2-1.8-2.67-1.8-4.4v-6.2ZM336.1,191.29c1.73,0,3.17-.63,4.3-1.9,1.13-1.27,1.7-2.7,1.7-4.3v-6.6c0-1.73-.57-3.23-1.7-4.5-1.13-1.27-2.57-1.9-4.3-1.9h-14.6c-1.6,0-2.93.63-4,1.9-1.07,1.27-1.6,2.77-1.6,4.5v6.6c0,1.6.53,3.03,1.6,4.3,1.07,1.27,2.4,1.9,4,1.9h14.6ZM336.1,228.9c1.73,0,3.17-.6,4.3-1.8,1.13-1.2,1.7-2.67,1.7-4.4v-6.8c0-1.87-.57-3.4-1.7-4.6-1.13-1.2-2.57-1.8-4.3-1.8h-14.6c-1.6,0-2.93.6-4,1.8-1.07,1.2-1.6,2.73-1.6,4.6v6.8c0,1.73.53,3.2,1.6,4.4,1.07,1.2,2.4,1.8,4,1.8h14.6Z"/>
        <path class="cls-4" d="M401.63,317.1v-135.8c0-4.4,2.27-6.6,6.8-6.6h4.8c4.53,0,6.8,2.2,6.8,6.6v130.8c0,4.53,2.2,6.8,6.6,6.8h26.6c4.53,0,6.8,2.2,6.8,6.6v5.4c0,4.13-2.27,6.2-6.8,6.2h-31.6c-4.4,0-8.13-1.53-11.2-4.6l-4-4c-3.2-3.2-4.8-7-4.8-11.4ZM498.83,320.3v-125c-.4-4.4-2.6-6.6-6.6-6.6h-14.6c-4.53,0-6.8-2.27-6.8-6.8v-4.8c0-4.4,2.27-6.6,6.8-6.6h19.6c4.4,0,8.13,1.53,11.2,4.6l4,4c3.2,3.2,4.8,6.93,4.8,11.2v130.4c0,4.13-2.27,6.2-6.8,6.2h-4.8c-4.53-.4-6.8-2.6-6.8-6.6Z"/>
        <path class="cls-4" d="M559.67,210.2c-1.13-1.27-1.7-2.9-1.7-4.9v-4.6c0-2,.4-3.7,1.2-5.1s1.87-2.1,3.2-2.1c1.07,0,2-.7,2.8-2.1s1.2-3.1,1.2-5.1v-25.8c0-1.87.7-3.47,2.1-4.8,1.4-1.33,3.1-2,5.1-2h102.4c1.87,0,3.47.67,4.8,2,1.33,1.33,2,2.93,2,4.8v25.8c0,2,.4,3.7,1.2,5.1s1.73,2.1,2.8,2.1c1.33,0,2.4.7,3.2,2.1s1.2,3.1,1.2,5.1v4.6c.13,2.13-.43,3.77-1.7,4.9-1.27,1.13-2.9,1.7-4.9,1.7-3.87,0-7.33-1.53-10.4-4.6l-5-5c-1.47-1.47-2.67-3.37-3.6-5.7-.93-2.33-1.4-4.5-1.4-6.5v-10.8c0-2-.7-3.7-2.1-5.1-1.4-1.4-3.04-2.1-4.9-2.1h-65.4c-1.87,0-3.5.7-4.9,2.1-1.4,1.4-2.1,3.1-2.1,5.1v10.8c0,2-.43,4.17-1.3,6.5-.87,2.33-2.03,4.23-3.5,5.7l-5,5c-1.33,1.33-3.07,2.47-5.2,3.4-2.13.93-4,1.4-5.6,1.4-1.87,0-3.37-.63-4.5-1.9ZM563.57,239c-1.33-1.4-2-3.03-2-4.9v-4.4c0-2,.67-3.67,2-5,1.33-1.33,3-2,5-2h112c1.87,0,3.5.67,4.9,2,1.4,1.33,2.1,3,2.1,5v4.4c0,1.87-.7,3.5-2.1,4.9-1.4,1.4-3.03,2.1-4.9,2.1h-112c-2,0-3.67-.7-5-2.1Z"/>
        <path class="cls-4" d="M728.5,308.6c-1.07-1.27-1.6-2.83-1.6-4.7v-20.8c0-2,.33-4,1-6,.67-2,1.73-3.93,3.2-5.8l21.8-25.8c2.8-3.47,4.2-7.4,4.2-11.8v-18c0-2.27-.63-3.97-1.9-5.1-1.27-1.13-2.83-1.7-4.7-1.7h-17c-4.4,0-6.6-2.2-6.6-6.6v-4c0-2.27.63-3.97,1.9-5.1,1.27-1.13,2.83-1.7,4.7-1.7h17c4.4,0,6.6-2.2,6.6-6.6v-15.6c0-1.87.63-3.43,1.9-4.7s2.83-1.9,4.7-1.9h4.4c1.73,0,3.27.63,4.6,1.9,1.33,1.27,2,2.83,2,4.7v43.4c0,2.4.53,3.6,1.6,3.6.93,0,1.87-.67,2.8-2l16.8-20.6c1.46-1.87,3.17-3.2,5.1-4,1.93-.8,3.9-1.2,5.9-1.2h26.8c1.87,0,3.8.3,5.8.9s3.87,1.83,5.6,3.7l3.8,4c3.2,3.33,4.8,7.13,4.8,11.4v108.4c0,4.53-1.6,8.4-4.8,11.6l-4,4c-3.2,3.2-7.07,4.8-11.6,4.8h-32.2c-1.87,0-3.43-.63-4.7-1.9s-1.9-2.83-1.9-4.7v-4.6c0-2.27.63-3.93,1.9-5,1.27-1.07,2.83-1.6,4.7-1.6h28.2c2.27,0,3.97-.63,5.1-1.9,1.13-1.27,1.7-2.9,1.7-4.9v-100.2c0-2.27-.63-3.93-1.9-5-1.27-1.07-2.9-1.6-4.9-1.6h-13.4c-4.27,0-7.93,1.73-11,5.2l-25.8,30.6c-1.6,1.87-2.73,3.77-3.4,5.7-.67,1.93-1,3.97-1,6.1v77.2c0,4.4-2.2,6.6-6.6,6.6h-4.4c-2.27,0-3.93-.63-5-1.9-1.07-1.27-1.6-2.83-1.6-4.7v-56c0-2.13-.2-3.27-.6-3.4-.27-.13-.6-.2-1-.2-.53,0-1.47.77-2.8,2.3-1.33,1.54-2.67,3.1-4,4.7-2.93,3.73-4.4,7.67-4.4,11.8v14c0,4.4-2.2,6.6-6.6,6.6h-4.2c-2.27,0-3.93-.63-5-1.9Z"/>
        <path class="cls-4" d="M969.44,205.5h-36.4c-2.27,0-4,.67-5.2,2-1.2,1.33-1.8,3.07-1.8,5.2v99c0,2.27.63,4,1.9,5.2,1.27,1.2,2.97,1.8,5.1,1.8h64.8c2.27,0,4,.63,5.2,1.9,1.2,1.27,1.8,2.97,1.8,5.1v4.4c0,2.27-.63,4-1.9,5.2-1.27,1.2-2.97,1.8-5.1,1.8h-69.2c-2.13,0-4.2-.37-6.2-1.1-2-.73-3.93-2.03-5.8-3.9l-4-4c-1.87-1.87-3.17-3.8-3.9-5.8-.73-2-1.1-4.07-1.1-6.2v-103.4c0-2.4-.63-4.2-1.9-5.4-1.27-1.2-2.97-1.8-5.1-1.8h-6c-2.27,0-4-.63-5.2-1.9-1.2-1.27-1.8-2.97-1.8-5.1v-4.4c0-2.27.63-4,1.9-5.2,1.27-1.2,2.97-1.8,5.1-1.8h6c2.27,0,4-.63,5.2-1.9,1.2-1.27,1.8-2.97,1.8-5.1v-10c0-2.27.63-4,1.9-5.2,1.27-1.2,2.97-1.8,5.1-1.8h4.4c2.27,0,4,.63,5.2,1.9,1.2,1.27,1.8,2.97,1.8,5.1v10c0,2.27.63,4,1.9,5.2,1.27,1.2,2.97,1.8,5.1,1.8h76.8c2.27,0,4,.63,5.2,1.9,1.2,1.27,1.8,2.97,1.8,5.1v4.4c0,2.27-.63,4-1.9,5.2-1.27,1.2-2.97,1.8-5.1,1.8h-8"/>
        <path class="cls-4" d="M997.73,106.75h-25.03c-3.56,0-6.32,4.04-5.86,8.6l5.8,58.03c.38,3.8,2.89,6.65,5.86,6.65h13.9c2.99,0,5.52-2.89,5.87-6.72l5.33-58.03c.42-4.53-2.33-8.52-5.87-8.52Z"/>
        <rect class="cls-4" x="976.66" y="216.79" width="20" height="20" rx="10" ry="10"/>
      </g>
      <g>
        <ellipse class="cls-4" cx="625.43" cy="298.45" rx="58.47" ry="48.89"/>
        <g>
          <path class="cls-4" d="M609.58,264.8c-6.59,4.99-9,12.32-7.19,19.03.37-1.01,3.54-2.35,3.68-.41.07.96,3.48.34,3.56-.7.12-1.71.07-4.88.98-9.67,2.05-10.74,20.5-9.12,26.64-3.77,6.15,5.35,4.99,15.59-4.38,23.13-3.89,3.13-8.34,5.26-12.65,6.31.09.78.09.69.16,1.56.04.49,9.23-1.32,11.03-1.71,3.78-.82,7.37-2.45,10.39-4.87,9.67-7.78,9.71-20.78-.13-28.59-8.9-7.06-23-7.19-32.09-.3Z"/>
          <path class="cls-4" d="M629.2,324.64h-8.28c-.58,0-1.05-.39-1.05-.88v-24.02c0-.48.47-.88,1.05-.88l8.78-.95c.58,0,1.28.16,1.28.65l-.73,25.2c0,.48-.47.88-1.05.88Z"/>
          <ellipse class="cls-4" cx="625.43" cy="332.52" rx="5.57" ry="4.65"/>
        </g>
      </g>
      <g>
        <circle class="cls-4" cx="292.57" cy="290.41" r="40.21"/>
        <g>
          <path class="cls-4" d="M281.67,262.74c-4.53,4.1-6.19,10.13-4.94,15.65.25-.83,2.44-1.93,2.53-.34.05.79,2.4.28,2.45-.58.08-1.41.05-4.02.67-7.96,1.41-8.84,14.1-7.5,18.33-3.1s3.44,12.83-3.02,19.03c-2.68,2.57-5.74,4.33-8.7,5.19.07.64.07.57.11,1.28.03.4,6.35-1.08,7.59-1.41,2.6-.68,5.07-2.01,7.14-4.01,6.65-6.4,6.68-17.09-.09-23.51-6.12-5.81-15.82-5.91-22.07-.25Z"/>
          <path class="cls-4" d="M295.17,311.95h-5.7c-.4,0-.72-.32-.72-.72v-19.76c0-.4.32-.72.72-.72l6.04-.78c.4,0,.88.13.88.53l-.5,20.73c0,.4-.32.72-.72.72Z"/>
          <circle class="cls-4" cx="292.57" cy="318.44" r="3.83"/>
        </g>
      </g>
    </g>
  </g>
  <g>
    <g>
      <path class="cls-5" d="M354.85,389.23v-1.8c0-1.49.62-2.64,1.87-3.46l3.67-2.3c.67-.43,1.32-.65,1.94-.65.72,0,1.39.24,2.02.72l7.7,5.33c.62.48,1.27.72,1.94.72.77,0,1.46-.24,2.09-.72l1.8-1.3c.67-.48,1.27-.72,1.8-.72,1.15,0,1.73.82,1.73,2.45v1.8c0,1.44-.65,2.59-1.94,3.46l-3.6,2.23c-.62.43-1.3.65-2.02.65-.62,0-1.3-.22-2.02-.65l-7.63-5.11c-.62-.48-1.32-.72-2.09-.72-.58,0-1.22.22-1.94.65l-1.87,1.22c-.62.38-1.18.58-1.66.58-1.2,0-1.8-.79-1.8-2.38Z"/>
      <path class="cls-5" d="M403.01,410.4c-.96-.96-1.44-2.13-1.44-3.53v-20.81c0-1.39.48-2.57,1.44-3.53l2.38-2.38c.96-.96,2.14-1.44,3.53-1.44h13.18c1.92,0,2.88.96,2.88,2.88v.79c0,1.92-.96,2.88-2.88,2.88h-11.09c-1.92,0-2.88.96-2.88,2.88v16.63c0,1.92.96,2.88,2.88,2.88h11.09c1.92,0,2.88.96,2.88,2.88v.79c0,1.92-.96,2.88-2.88,2.88h-13.18c-1.39,0-2.57-.48-3.53-1.44l-2.38-2.38Z"/>
      <path class="cls-5" d="M446.57,410.47c-.96-.96-1.44-2.14-1.44-3.53v-20.88c0-1.39.48-2.57,1.44-3.53l2.38-2.38c.96-.96,2.14-1.44,3.53-1.44h8.93c1.39,0,2.57.48,3.53,1.44l2.3,2.3c.96,1.06,1.44,2.26,1.44,3.6v20.88c.1,1.34-.38,2.54-1.44,3.6l-2.3,2.3c-.96.96-2.14,1.44-3.53,1.44h-8.93c-1.39,0-2.57-.48-3.53-1.44l-2.38-2.38ZM454.56,407.74h4.68c1.92,0,2.88-.96,2.88-2.88v-16.7c0-1.92-.96-2.88-2.88-2.88h-4.68c-1.92,0-2.88.96-2.88,2.88v16.7c0,1.92.96,2.88,2.88,2.88Z"/>
      <path class="cls-5" d="M491,411.48v-25.42c0-1.39.48-2.57,1.44-3.53l2.38-2.38c.96-.96,2.14-1.44,3.53-1.44h8.93c1.34,0,2.52.5,3.53,1.51l2.3,2.3c.96.96,1.44,2.14,1.44,3.53v25.42c0,1.92-.96,2.88-2.88,2.88h-.72c-1.92,0-2.88-.96-2.88-2.88v-23.33c0-1.92-.96-2.88-2.88-2.88h-4.75c-1.92,0-2.88.96-2.88,2.88v23.33c0,1.92-.96,2.88-2.88,2.88h-.79c-1.92,0-2.88-.96-2.88-2.88Z"/>
      <path class="cls-5" d="M541.11,406.94v-18.86c0-1.92-.94-2.88-2.81-2.88s-2.88-.96-2.88-2.88v-.72c0-1.92.96-2.88,2.88-2.88s2.81-.96,2.81-2.88v-3.74c0-1.92.96-2.88,2.88-2.88h.79c1.92,0,2.88.96,2.88,2.88v3.74c0,1.92.96,2.88,2.88,2.88h2.88c1.92,0,2.88.96,2.88,2.88v.72c0,1.92-.96,2.88-2.88,2.88h-2.88c-1.92,0-2.88.96-2.88,2.88v16.78c0,1.92.96,2.88,2.88,2.88h2.88c1.92,0,2.88.96,2.88,2.88v.79c0,1.92-.96,2.88-2.88,2.88h-4.97c-1.39,0-2.57-.48-3.53-1.44l-2.38-2.38c-.96-.96-1.44-2.14-1.44-3.53Z"/>
      <path class="cls-5" d="M577.18,410.4c-.96-.96-1.44-2.13-1.44-3.53v-8.35c0-1.34.5-2.52,1.51-3.53l2.3-2.3c.96-.96,2.13-1.44,3.53-1.44h6.84c1.92,0,2.88-.96,2.88-2.88v-.22c0-1.92-.96-2.88-2.88-2.88h-11.09c-1.92,0-2.88-.96-2.88-2.88v-.79c0-1.92.96-2.88,2.88-2.88h13.18c1.39,0,2.57.48,3.53,1.44l2.38,2.38c.96.96,1.44,2.14,1.44,3.53v25.27c0,1.92-.96,2.88-2.88,2.88h-13.39c-1.39,0-2.57-.48-3.53-1.44l-2.38-2.38ZM585.17,408.31h4.75c1.92,0,2.88-.96,2.88-2.88v-5.4c0-1.92-.96-2.88-2.88-2.88h-4.75c-1.92,0-2.88.96-2.88,2.88v5.4c0,1.92.96,2.88,2.88,2.88Z"/>
      <path class="cls-5" d="M623.11,410.4c-.96-.96-1.44-2.13-1.44-3.53v-20.81c0-1.39.48-2.57,1.44-3.53l2.38-2.38c.96-.96,2.13-1.44,3.53-1.44h13.18c1.92,0,2.88.96,2.88,2.88v.79c0,1.92-.96,2.88-2.88,2.88h-11.09c-1.92,0-2.88.96-2.88,2.88v16.63c0,1.92.96,2.88,2.88,2.88h11.09c1.92,0,2.88.96,2.88,2.88v.79c0,1.92-.96,2.88-2.88,2.88h-13.18c-1.39,0-2.57-.48-3.53-1.44l-2.38-2.38Z"/>
      <path class="cls-5" d="M669.48,406.94v-18.86c0-1.92-.94-2.88-2.81-2.88s-2.88-.96-2.88-2.88v-.72c0-1.92.96-2.88,2.88-2.88s2.81-.96,2.81-2.88v-3.74c0-1.92.96-2.88,2.88-2.88h.79c1.92,0,2.88.96,2.88,2.88v3.74c0,1.92.96,2.88,2.88,2.88h2.88c1.92,0,2.88.96,2.88,2.88v.72c0,1.92-.96,2.88-2.88,2.88h-2.88c-1.92,0-2.88.96-2.88,2.88v16.78c0,1.92.96,2.88,2.88,2.88h2.88c1.92,0,2.88.96,2.88,2.88v.79c0,1.92-.96,2.88-2.88,2.88h-4.97c-1.39,0-2.57-.48-3.53-1.44l-2.38-2.38c-.96-.96-1.44-2.14-1.44-3.53Z"/>
      <path class="cls-5" d="M702.67,389.23v-1.8c0-1.49.62-2.64,1.87-3.46l3.67-2.3c.67-.43,1.32-.65,1.94-.65.72,0,1.39.24,2.02.72l7.7,5.33c.62.48,1.27.72,1.94.72.77,0,1.46-.24,2.09-.72l1.8-1.3c.67-.48,1.27-.72,1.8-.72,1.15,0,1.73.82,1.73,2.45v1.8c0,1.44-.65,2.59-1.94,3.46l-3.6,2.23c-.62.43-1.3.65-2.02.65-.62,0-1.3-.22-2.02-.65l-7.63-5.11c-.62-.48-1.32-.72-2.09-.72-.58,0-1.22.22-1.94.65l-1.87,1.22c-.62.38-1.18.58-1.66.58-1.2,0-1.8-.79-1.8-2.38Z"/>
    </g>
    <g>
      <g>
        <path class="cls-5" d="M148.36,318.3h15.4c2.13,0,3.97-.77,5.5-2.3,1.53-1.53,2.3-3.37,2.3-5.5v-49.8c0-2-.67-3.67-2-5-1.33-1.33-3-2-5-2h-31.6c-2,0-3.67.67-5,2-1.33,1.33-2,3-2,5v55.4c0,4.53-1.6,8.53-4.8,12-1.33,1.47-2.73,2.9-4.2,4.3-1.47,1.4-3.33,2.57-5.6,3.5-2,.93-4.13,1.4-6.4,1.4h-19.2c-2,0-4.1-.5-6.3-1.5s-4.03-2.17-5.5-3.5c-1.47-1.47-2.9-2.9-4.3-4.3-1.4-1.4-2.57-3.23-3.5-5.5-.93-2-1.4-4.13-1.4-6.4v-60.2c0-2,.5-4.1,1.5-6.3s2.17-4.03,3.5-5.5c1.47-1.47,2.93-2.93,4.4-4.4,1.47-1.47,3.27-2.67,5.4-3.6,2-.93,4.07-1.4,6.2-1.4h14.2c2,0,3.67-.67,5-2,1.33-1.33,2-3,2-5v-13.8c0-1.87-.67-3.5-2-4.9-1.33-1.4-3-2.1-5-2.1h-28.2c-2,0-3.67-.67-5-2-1.33-1.33-2-3-2-5v-4.6c0-2,.67-3.67,2-5,1.33-1.33,3-2,5-2h28.2c2,0,3.67-.67,5-2s2-3,2-5v-11.2c0-2,.67-3.67,2-5,1.33-1.33,3-2,5-2h5c2,0,3.67.67,5,2,1.33,1.33,2,3,2,5v11.2c0,2,.67,3.67,2,5,1.33,1.33,3,2,5,2h12.2c2,0,3.67.67,5,2,1.33,1.33,2,3,2,5v4.6c0,2-.67,3.67-2,5s-3,2-5,2h-12.2c-2,0-3.67.7-5,2.1-1.33,1.4-2,3.03-2,4.9v13.8c0,2,.67,3.67,2,5,1.33,1.33,3,2,5,2h36.2c4.53,0,8.47,1.67,11.8,5,1.47,1.47,2.9,2.87,4.3,4.2,1.4,1.33,2.57,3.13,3.5,5.4.93,2.27,1.4,4.47,1.4,6.6v57.6c0,2.27-.53,4.67-1.6,7.2-1.07,2.53-2.33,4.6-3.8,6.2-1.6,1.73-3.2,3.4-4.8,5-1.6,1.6-3.6,2.93-6,4-2.8,1.07-5.2,1.6-7.2,1.6h-18.4c-5.2-.67-7.8-3.27-7.8-7.8v-3.6c.67-5.2,3.27-7.8,7.8-7.8ZM85.36,316.3c1.33,1.33,3,2,5,2h9.6c2,0,3.67-.67,5-2,1.33-1.33,2-3,2-5v-50.6c0-2-.67-3.67-2-5-1.33-1.33-3-2-5-2h-9.6c-2,0-3.67.67-5,2-1.33,1.33-2,3-2,5v50.6c0,2,.67,3.67,2,5ZM160.26,182.2c-1.4-7.4-2.1-11.17-2.1-11.3,0-1.2.4-2.3,1.2-3.3.8-1,1.93-1.5,3.4-1.5h6.4c1.87,0,3.5.57,4.9,1.7,1.4,1.13,2.23,2.5,2.5,4.1l5,25c.4,1.6,1.07,3.03,2,4.3.93,1.27,1.93,1.9,3,1.9s2,.57,2.8,1.7c.8,1.13,1.2,2.57,1.2,4.3v6c0,1.6-.6,3.17-1.8,4.7-1.2,1.53-2.6,2.3-4.2,2.3h-10.6c-1.6,0-3.1-.73-4.5-2.2-1.4-1.47-2.3-3.07-2.7-4.8-2.93-14.53-5.1-25.5-6.5-32.9Z"/>
        <path class="cls-5" d="M274.7,246c-2,.87-3.8,1.3-5.4,1.3h-18.6c-1.6,0-3,.57-4.2,1.7-1.2,1.13-1.8,2.57-1.8,4.3v77.8c0,1.73-.53,3.2-1.6,4.4-1.07,1.2-2.47,1.8-4.2,1.8h-6.2c-1.6,0-3-.6-4.2-1.8-1.2-1.2-1.8-2.67-1.8-4.4v-171.4c0-1.73.6-3.17,1.8-4.3,1.2-1.13,2.6-1.7,4.2-1.7h50.8c1.6,0,3,.57,4.2,1.7,1.2,1.13,1.8,2.57,1.8,4.3v66.6c0,1.87-.43,3.8-1.3,5.8-.87,2-1.83,3.53-2.9,4.6l-5.8,6.4c-1.2,1.07-2.8,2.03-4.8,2.9ZM265.5,191.29c1.6,0,3-.63,4.2-1.9,1.2-1.27,1.8-2.7,1.8-4.3v-6.6c0-1.73-.6-3.23-1.8-4.5-1.2-1.27-2.6-1.9-4.2-1.9h-14.8c-1.6,0-3,.63-4.2,1.9-1.2,1.27-1.8,2.77-1.8,4.5v6.6c0,1.6.6,3.03,1.8,4.3,1.2,1.27,2.6,1.9,4.2,1.9h14.8ZM265.5,228.9c1.6,0,3-.6,4.2-1.8s1.8-2.67,1.8-4.4v-6.8c0-1.87-.6-3.4-1.8-4.6s-2.6-1.8-4.2-1.8h-14.8c-1.6,0-3,.6-4.2,1.8s-1.8,2.73-1.8,4.6v6.8c0,1.73.6,3.2,1.8,4.4s2.6,1.8,4.2,1.8h14.8ZM321.3,324.9c0-1.73.6-3.2,1.8-4.4,1.2-1.2,2.6-1.8,4.2-1.8h8.8c1.73,0,3.17-.57,4.3-1.7,1.13-1.13,1.7-2.57,1.7-4.3v-59.4c0-1.73-.57-3.17-1.7-4.3-1.13-1.13-2.57-1.7-4.3-1.7h-32.4c-1.73,0-3.13-.6-4.2-1.8-1.07-1.2-1.6-2.67-1.6-4.4v-81.4c0-1.73.53-3.17,1.6-4.3,1.07-1.13,2.47-1.7,4.2-1.7h50.4c1.6,0,3,.57,4.2,1.7,1.2,1.13,1.8,2.57,1.8,4.3v156.8c0,1.73-.43,3.63-1.3,5.7-.87,2.07-1.83,3.63-2.9,4.7l-5.8,6c-1.2,1.2-2.8,2.23-4.8,3.1-2,.87-3.8,1.3-5.4,1.3h-12.6c-1.6,0-3-.6-4.2-1.8-1.2-1.2-1.8-2.67-1.8-4.4v-6.2ZM336.1,191.29c1.73,0,3.17-.63,4.3-1.9,1.13-1.27,1.7-2.7,1.7-4.3v-6.6c0-1.73-.57-3.23-1.7-4.5-1.13-1.27-2.57-1.9-4.3-1.9h-14.6c-1.6,0-2.93.63-4,1.9-1.07,1.27-1.6,2.77-1.6,4.5v6.6c0,1.6.53,3.03,1.6,4.3,1.07,1.27,2.4,1.9,4,1.9h14.6ZM336.1,228.9c1.73,0,3.17-.6,4.3-1.8,1.13-1.2,1.7-2.67,1.7-4.4v-6.8c0-1.87-.57-3.4-1.7-4.6-1.13-1.2-2.57-1.8-4.3-1.8h-14.6c-1.6,0-2.93.6-4,1.8-1.07,1.2-1.6,2.73-1.6,4.6v6.8c0,1.73.53,3.2,1.6,4.4,1.07,1.2,2.4,1.8,4,1.8h14.6Z"/>
        <path class="cls-5" d="M401.63,317.1v-135.8c0-4.4,2.27-6.6,6.8-6.6h4.8c4.53,0,6.8,2.2,6.8,6.6v130.8c0,4.53,2.2,6.8,6.6,6.8h26.6c4.53,0,6.8,2.2,6.8,6.6v5.4c0,4.13-2.27,6.2-6.8,6.2h-31.6c-4.4,0-8.13-1.53-11.2-4.6l-4-4c-3.2-3.2-4.8-7-4.8-11.4ZM498.83,320.3v-125c-.4-4.4-2.6-6.6-6.6-6.6h-14.6c-4.53,0-6.8-2.27-6.8-6.8v-4.8c0-4.4,2.27-6.6,6.8-6.6h19.6c4.4,0,8.13,1.53,11.2,4.6l4,4c3.2,3.2,4.8,6.93,4.8,11.2v130.4c0,4.13-2.27,6.2-6.8,6.2h-4.8c-4.53-.4-6.8-2.6-6.8-6.6Z"/>
        <path class="cls-5" d="M559.67,210.2c-1.13-1.27-1.7-2.9-1.7-4.9v-4.6c0-2,.4-3.7,1.2-5.1s1.87-2.1,3.2-2.1c1.07,0,2-.7,2.8-2.1s1.2-3.1,1.2-5.1v-25.8c0-1.87.7-3.47,2.1-4.8,1.4-1.33,3.1-2,5.1-2h102.4c1.87,0,3.47.67,4.8,2,1.33,1.33,2,2.93,2,4.8v25.8c0,2,.4,3.7,1.2,5.1s1.73,2.1,2.8,2.1c1.33,0,2.4.7,3.2,2.1s1.2,3.1,1.2,5.1v4.6c.13,2.13-.43,3.77-1.7,4.9-1.27,1.13-2.9,1.7-4.9,1.7-3.87,0-7.33-1.53-10.4-4.6l-5-5c-1.47-1.47-2.67-3.37-3.6-5.7-.93-2.33-1.4-4.5-1.4-6.5v-10.8c0-2-.7-3.7-2.1-5.1-1.4-1.4-3.04-2.1-4.9-2.1h-65.4c-1.87,0-3.5.7-4.9,2.1-1.4,1.4-2.1,3.1-2.1,5.1v10.8c0,2-.43,4.17-1.3,6.5-.87,2.33-2.03,4.23-3.5,5.7l-5,5c-1.33,1.33-3.07,2.47-5.2,3.4-2.13.93-4,1.4-5.6,1.4-1.87,0-3.37-.63-4.5-1.9ZM563.57,239c-1.33-1.4-2-3.03-2-4.9v-4.4c0-2,.67-3.67,2-5,1.33-1.33,3-2,5-2h112c1.87,0,3.5.67,4.9,2,1.4,1.33,2.1,3,2.1,5v4.4c0,1.87-.7,3.5-2.1,4.9-1.4,1.4-3.03,2.1-4.9,2.1h-112c-2,0-3.67-.7-5-2.1Z"/>
        <path class="cls-5" d="M728.5,308.6c-1.07-1.27-1.6-2.83-1.6-4.7v-20.8c0-2,.33-4,1-6,.67-2,1.73-3.93,3.2-5.8l21.8-25.8c2.8-3.47,4.2-7.4,4.2-11.8v-18c0-2.27-.63-3.97-1.9-5.1-1.27-1.13-2.83-1.7-4.7-1.7h-17c-4.4,0-6.6-2.2-6.6-6.6v-4c0-2.27.63-3.97,1.9-5.1,1.27-1.13,2.83-1.7,4.7-1.7h17c4.4,0,6.6-2.2,6.6-6.6v-15.6c0-1.87.63-3.43,1.9-4.7s2.83-1.9,4.7-1.9h4.4c1.73,0,3.27.63,4.6,1.9,1.33,1.27,2,2.83,2,4.7v43.4c0,2.4.53,3.6,1.6,3.6.93,0,1.87-.67,2.8-2l16.8-20.6c1.46-1.87,3.17-3.2,5.1-4,1.93-.8,3.9-1.2,5.9-1.2h26.8c1.87,0,3.8.3,5.8.9s3.87,1.83,5.6,3.7l3.8,4c3.2,3.33,4.8,7.13,4.8,11.4v108.4c0,4.53-1.6,8.4-4.8,11.6l-4,4c-3.2,3.2-7.07,4.8-11.6,4.8h-32.2c-1.87,0-3.43-.63-4.7-1.9s-1.9-2.83-1.9-4.7v-4.6c0-2.27.63-3.93,1.9-5,1.27-1.07,2.83-1.6,4.7-1.6h28.2c2.27,0,3.97-.63,5.1-1.9,1.13-1.27,1.7-2.9,1.7-4.9v-100.2c0-2.27-.63-3.93-1.9-5-1.27-1.07-2.9-1.6-4.9-1.6h-13.4c-4.27,0-7.93,1.73-11,5.2l-25.8,30.6c-1.6,1.87-2.73,3.77-3.4,5.7-.67,1.93-1,3.97-1,6.1v77.2c0,4.4-2.2,6.6-6.6,6.6h-4.4c-2.27,0-3.93-.63-5-1.9-1.07-1.27-1.6-2.83-1.6-4.7v-56c0-2.13-.2-3.27-.6-3.4-.27-.13-.6-.2-1-.2-.53,0-1.47.77-2.8,2.3-1.33,1.54-2.67,3.1-4,4.7-2.93,3.73-4.4,7.67-4.4,11.8v14c0,4.4-2.2,6.6-6.6,6.6h-4.2c-2.27,0-3.93-.63-5-1.9Z"/>
        <path class="cls-5" d="M969.44,205.5h-36.4c-2.27,0-4,.67-5.2,2-1.2,1.33-1.8,3.07-1.8,5.2v99c0,2.27.63,4,1.9,5.2,1.27,1.2,2.97,1.8,5.1,1.8h64.8c2.27,0,4,.63,5.2,1.9,1.2,1.27,1.8,2.97,1.8,5.1v4.4c0,2.27-.63,4-1.9,5.2-1.27,1.2-2.97,1.8-5.1,1.8h-69.2c-2.13,0-4.2-.37-6.2-1.1-2-.73-3.93-2.03-5.8-3.9l-4-4c-1.87-1.87-3.17-3.8-3.9-5.8-.73-2-1.1-4.07-1.1-6.2v-103.4c0-2.4-.63-4.2-1.9-5.4-1.27-1.2-2.97-1.8-5.1-1.8h-6c-2.27,0-4-.63-5.2-1.9-1.2-1.27-1.8-2.97-1.8-5.1v-4.4c0-2.27.63-4,1.9-5.2,1.27-1.2,2.97-1.8,5.1-1.8h6c2.27,0,4-.63,5.2-1.9,1.2-1.27,1.8-2.97,1.8-5.1v-10c0-2.27.63-4,1.9-5.2,1.27-1.2,2.97-1.8,5.1-1.8h4.4c2.27,0,4,.63,5.2,1.9,1.2,1.27,1.8,2.97,1.8,5.1v10c0,2.27.63,4,1.9,5.2,1.27,1.2,2.97,1.8,5.1,1.8h76.8c2.27,0,4,.63,5.2,1.9,1.2,1.27,1.8,2.97,1.8,5.1v4.4c0,2.27-.63,4-1.9,5.2-1.27,1.2-2.97,1.8-5.1,1.8h-8"/>
        <path class="cls-2" d="M997.73,106.75h-25.03c-3.56,0-6.32,4.04-5.86,8.6l5.8,58.03c.38,3.8,2.89,6.65,5.86,6.65h13.9c2.99,0,5.52-2.89,5.87-6.72l5.33-58.03c.42-4.53-2.33-8.52-5.87-8.52Z"/>
        <rect class="cls-2" x="976.66" y="216.79" width="20" height="20" rx="10" ry="10"/>
      </g>
      <g>
        <ellipse class="cls-5" cx="625.43" cy="298.45" rx="58.47" ry="48.89"/>
        <g>
          <path class="cls-1" d="M609.58,264.8c-6.59,4.99-9,12.32-7.19,19.03.37-1.01,3.54-2.35,3.68-.41.07.96,3.48.34,3.56-.7.12-1.71.07-4.88.98-9.67,2.05-10.74,20.5-9.12,26.64-3.77,6.15,5.35,4.99,15.59-4.38,23.13-3.89,3.13-8.34,5.26-12.65,6.31.09.78.09.69.16,1.56.04.49,9.23-1.32,11.03-1.71,3.78-.82,7.37-2.45,10.39-4.87,9.67-7.78,9.71-20.78-.13-28.59-8.9-7.06-23-7.19-32.09-.3Z"/>
          <path class="cls-1" d="M629.2,324.64h-8.28c-.58,0-1.05-.39-1.05-.88v-24.02c0-.48.47-.88,1.05-.88l8.78-.95c.58,0,1.28.16,1.28.65l-.73,25.2c0,.48-.47.88-1.05.88Z"/>
          <ellipse class="cls-1" cx="625.43" cy="332.52" rx="5.57" ry="4.65"/>
        </g>
      </g>
      <g>
        <circle class="cls-5" cx="292.57" cy="290.41" r="40.21"/>
        <g>
          <path class="cls-1" d="M281.67,262.74c-4.53,4.1-6.19,10.13-4.94,15.65.25-.83,2.44-1.93,2.53-.34.05.79,2.4.28,2.45-.58.08-1.41.05-4.02.67-7.96,1.41-8.84,14.1-7.5,18.33-3.1s3.44,12.83-3.02,19.03c-2.68,2.57-5.74,4.33-8.7,5.19.07.64.07.57.11,1.28.03.4,6.35-1.08,7.59-1.41,2.6-.68,5.07-2.01,7.14-4.01,6.65-6.4,6.68-17.09-.09-23.51-6.12-5.81-15.82-5.91-22.07-.25Z"/>
          <path class="cls-1" d="M295.17,311.95h-5.7c-.4,0-.72-.32-.72-.72v-19.76c0-.4.32-.72.72-.72l6.04-.78c.4,0,.88.13.88.53l-.5,20.73c0,.4-.32.72-.72.72Z"/>
          <circle class="cls-1" cx="292.57" cy="318.44" r="3.83"/>
        </g>
      </g>
    </g>
  </g>
</svg>