<?xml version="1.0" encoding="UTF-8"?>
<svg id="_レイヤー_1" xmlns="http://www.w3.org/2000/svg" version="1.1" viewBox="0 0 1080 566">
  <!-- Generator: Adobe Illustrator 30.3.0, SVG Export Plug-In . SVG Version: 2.1.3 Build 182)  -->
  <defs>
    <style>
      .st0 {
        fill: #f5b570;
      }

      .st1 {
        fill: #f2f2f2;
      }

      .st2 {
        fill: #d73666;
      }

      .st3 {
        fill: #242e50;
      }
    </style>
  </defs>
  <g>
    <g>
      <path class="st3" d="M373.85,455.64c-7.78,0-15.51-1.46-22.81-4.27-17.33-1.53-32.99-10.13-43.59-24.13-8.25-10.9-12.62-24.04-12.62-38.01,0-.37,0-.75.01-1.12v-.68c0-21.68,10.82-41.73,28.95-53.62.35-.23.7-.46,1.06-.68l3.55-2.22c10.25-6.47,21.97-9.88,33.92-9.88,7.95,0,15.67,1.46,22.91,4.28,17.89,1.62,34.32,10.99,44.75,25.75,7.48,10.58,11.43,23.19,11.43,36.45v1.8c0,21.32-10.61,41.21-28.38,53.2-.65.44-1.3.86-1.96,1.27l-3.04,1.88c-10.24,6.54-22.01,9.99-34.18,9.99ZM341.61,431.04c3.98,3.4,8.42,6.27,13.23,8.52v-27.62l-13.23,19.11ZM327.56,437.39s0,0,.01,0c0,0,0,0-.01,0ZM327.5,437.35s.03.02.04.03c-.01-.01-.03-.02-.04-.03ZM328.01,429.49s0,0,0,0c0,0,0,0,0,0ZM327.96,429.45s.02.02.03.02c-.01,0-.02-.02-.03-.02ZM321.44,389.23c.47,15.68,7.32,29.8,18.07,39.92l15.33-19.83v-20.1h2.29l-2.28-3.49v3.49s-33.41,0-33.41,0ZM380.38,389.23h34.44c0-.2.01-.4.02-.6-.15-14.07-5.41-26.95-14.04-36.89l-22.85,34.12,2.43,3.37ZM377.72,389.23h2.64l-2.42-3.37-1.3,1.95,1.08,1.42ZM377.28,389.23h.36l-1.01-1.4-.11.17.77,1.24ZM375.69,389.23h1.4l-.7-1.04-.7,1.04ZM370.55,389.23h4.71l.85-1.43-4.81-7.12-6.61,8.55h5.68l1.67-2.16-1.5,2.16ZM360.17,389.23h4.46l6.2-9.26-2.41-3.57-4.08,5.35,3.89-5.62-13.4-19.85v16.56s5.55,8.84,5.55,8.84l-5.54-8.64v12.37s2.35,3.83,2.35,3.83h2.82l-3.3-5.26,3.45,5.26ZM371.69,380.2l4.57,7.38.08-.14-.26-.36.27.35,22.55-37.77c-.66-.69-1.34-1.36-2.03-2.02l-25.18,32.57ZM368.93,375.74l2.28,3.68,22.93-34.23c-.39-.32-.78-.64-1.17-.96l-24.03,31.5ZM354.84,353.01l13.88,22.41,22.5-32.5c-3.9-2.86-8.17-5.25-12.73-7.09-1.54-.12-3.09-.19-4.65-.19-6.55,0-12.96,1.11-19.01,3.27v14.1ZM408.72,339.58l.03.03-.03-.03ZM408.69,339.56s0,0,.01,0c0,0,0,0-.01,0Z"/>
      <path class="st3" d="M422.1,474.2h-13.18c-17.37,0-33.69-6.75-45.96-19.01l-1.43-1.43c-.32-.31-.64-.62-.95-.93-12.26-12.26-19.01-28.58-19.01-45.96v-20.81c0-17.37,6.75-33.69,19.01-45.96l2.38-2.38c12.26-12.26,28.58-19.01,45.95-19.01h13.18c16.96,0,32.79,6.5,44.59,18.29s18.29,27.63,18.29,44.59v.79c0,4.8-.52,9.52-1.54,14.08,1.02,4.56,1.54,9.27,1.54,14.08v.79c0,16.96-6.5,32.79-18.29,44.59s-27.63,18.29-44.59,18.29ZM373.05,410.4c3.67,6.11,8.44,11.52,14.01,15.93l15.93-15.93h-29.94ZM403.03,410.38h52.83c2.17-4.41,3.76-9.09,4.7-13.92-2-10.23-6.9-19.85-14.12-27.46-.35-.33-.71-.65-1.06-.96l-42.34,42.34Z"/>
      <path class="st3" d="M461.41,474.27h-8.93c-17.37,0-33.7-6.75-45.96-19.01l-1.45-1.45c-.31-.3-.62-.6-.93-.91-12.26-12.26-19.01-28.58-19.01-45.96v-20.88c0-17.37,6.75-33.69,19.01-45.96l2.38-2.38c12.26-12.26,28.58-19.01,45.95-19.01h8.93c17.37,0,33.69,6.75,45.96,19.01l2.3,2.3c.7.7,1.38,1.41,2.04,2.15,10.95,12.08,16.98,27.67,16.98,43.88v19.97c.33,17.46-6.48,34.39-18.99,46.91l-2.32,2.32c-12.26,12.26-28.58,19.01-45.95,19.01ZM424.89,424.81c1.3,1.15,2.66,2.24,4.06,3.26l17.6-17.61h-7.32l-14.34,14.34ZM414.4,410.47c2.2,4.42,5.01,8.55,8.38,12.27l13.54-12.27h-21.91ZM408.84,411.33h0s0,0,0,0ZM446.59,410.45h52.79c.57-1.15,1.1-2.33,1.59-3.52h-32.29l33.24-2.47c.93-2.59,1.66-5.25,2.19-7.96-2-10.21-6.9-19.81-14.11-27.42-.35-.33-.71-.65-1.07-.97l-42.34,42.34Z"/>
      <path class="st3" d="M511.67,474.35h-.72c-2.75,0-5.46-.17-8.14-.51-2.67.34-5.39.51-8.13.51h-.79c-16.95,0-32.79-6.5-44.58-18.29-10.91-10.91-17.29-25.27-18.19-40.78-.08-1.26-.12-2.52-.12-3.8v-25.42c0-17.37,6.75-33.69,19.01-45.96l2.38-2.38c12.26-12.26,28.58-19.01,45.96-19.01h8.93c17.32,0,33.64,6.77,45.95,19.07l2.31,2.31c12.27,12.28,19.01,28.59,19.01,45.96v25.42c0,16.96-6.5,32.79-18.29,44.59s-27.63,18.29-44.59,18.29ZM491.02,411.48l26.23,23.84c6.94-2.55,13.36-6.47,18.79-11.57,3.46-3.68,6.38-7.82,8.69-12.27h-53.71ZM460.82,411.47h30.17l-29.51-26.82c-2.41,4.39-4.25,9.11-5.43,14.06,1.06,4.43,2.67,8.72,4.77,12.76ZM551.01,411.42h0s0,0,0,0Z"/>
      <path class="st3" d="M553.42,474.29h-4.97c-17.37,0-33.7-6.75-45.96-19.01l-2.38-2.38c-11.82-11.82-18.52-27.42-18.99-44.09-3.74-8.16-5.71-17.15-5.71-26.48v-.72c0-13.62,4.19-26.51,11.95-37.17,3-6.21,7.05-11.93,12.04-16.92,11.8-11.8,27.63-18.29,44.59-18.29h.79c16.96,0,32.79,6.5,44.59,18.29,2.24,2.24,4.28,4.62,6.13,7.12.86.77,1.69,1.56,2.51,2.38,11.8,11.8,18.29,27.63,18.29,44.59v.72c0,4.83-.53,9.57-1.55,14.15,1.03,4.58,1.55,9.32,1.55,14.15v.79c0,16.96-6.5,32.79-18.29,44.59s-27.63,18.29-44.59,18.29ZM507.25,414.75c9.24,8.18,21.05,13.48,33.85,14.34v-22.16h47.79c.37-.47.74-.96,1.1-1.44,3.33-7.01,5.27-14.75,5.43-22.83-2.4-4.88-5.52-9.42-9.27-13.42-9.54-8.96-22.18-14.3-35.22-14.91-3.34.15-6.63.61-9.82,1.34v51.25s-38.65,0-38.65,0c1.39,2.73,3,5.34,4.8,7.81Z"/>
      <path class="st3" d="M596.48,474.22h-13.39c-17.38,0-33.7-6.75-45.96-19.01l-2.38-2.38c-12.26-12.26-19.01-28.58-19.01-45.96v-8.35c0-3.01.2-5.99.61-8.92-.26-2.38-.4-4.78-.4-7.21v-.79c0-16.96,6.5-32.79,18.29-44.59,11.8-11.8,27.63-18.29,44.59-18.29h13.18c17.37,0,33.7,6.75,45.96,19.01l2.38,2.38c12.26,12.26,19.01,28.58,19.01,45.96v25.27c0,16.96-6.5,32.79-18.29,44.59-11.8,11.8-27.63,18.29-44.59,18.29ZM554.32,423.76c8.54,8.02,19.56,13.14,31.13,14.56,23.6-2.87,43.31-20.81,48.9-43.59-2.18-9.5-6.86-18.39-13.58-25.54-8.52-8-19.49-13.11-31.03-14.55-23.7,2.93-43.46,21.06-48.91,44.02,2.22,9.33,6.86,18.06,13.48,25.1Z"/>
      <path class="st3" d="M642.2,474.2h-13.18c-17.37,0-33.69-6.75-45.96-19.01l-1.43-1.43c-.32-.3-.63-.61-.95-.93-12.26-12.26-19.01-28.58-19.01-45.96v-20.81c0-17.37,6.75-33.69,19.01-45.96l2.38-2.38c12.26-12.26,28.58-19.01,45.96-19.01h13.18c16.96,0,32.79,6.5,44.59,18.29,11.8,11.8,18.29,27.63,18.29,44.59v.79c0,4.8-.52,9.52-1.54,14.08,1.02,4.56,1.54,9.27,1.54,14.08v.79c0,16.96-6.5,32.79-18.29,44.59-11.8,11.8-27.63,18.29-44.59,18.29ZM593.15,410.4c3.66,6.11,8.43,11.52,14.01,15.93l15.93-15.93h-29.94ZM623.13,410.38h52.83c2.17-4.41,3.76-9.09,4.7-13.92-2-10.23-6.9-19.84-14.11-27.46-.35-.33-.71-.65-1.07-.97l-42.34,42.34Z"/>
      <path class="st3" d="M681.79,474.29h-4.97c-17.37,0-33.7-6.75-45.96-19.01l-2.38-2.38c-11.82-11.82-18.52-27.42-18.99-44.09-3.74-8.16-5.71-17.15-5.71-26.48v-.72c0-13.62,4.19-26.51,11.95-37.17,3-6.21,7.04-11.93,12.04-16.92,11.8-11.8,27.63-18.29,44.59-18.29h.79c16.96,0,32.79,6.5,44.59,18.29,2.24,2.24,4.28,4.62,6.13,7.12.86.77,1.69,1.56,2.51,2.38,11.8,11.8,18.29,27.63,18.29,44.59v.72c0,4.83-.53,9.57-1.55,14.15,1.03,4.58,1.55,9.32,1.55,14.15v.79c0,16.96-6.5,32.79-18.29,44.59-11.8,11.8-27.63,18.29-44.59,18.29ZM635.62,414.75c9.24,8.18,21.05,13.48,33.85,14.34v-22.16h47.79c.37-.47.74-.96,1.1-1.44,3.33-7.01,5.27-14.75,5.43-22.83-2.4-4.88-5.52-9.42-9.27-13.42-9.54-8.96-22.18-14.3-35.22-14.9-3.34.15-6.63.61-9.82,1.34v51.25s-38.65,0-38.65,0c1.39,2.73,3,5.34,4.8,7.81Z"/>
      <path class="st3" d="M721.67,455.64c-7.78,0-15.51-1.46-22.81-4.27-17.33-1.53-33-10.13-43.59-24.14-8.25-10.9-12.61-24.04-12.61-38,0-.36,0-.73,0-1.09v-.71c0-21.68,10.82-41.73,28.95-53.62.35-.23.7-.46,1.06-.68l3.55-2.22c10.25-6.47,21.97-9.88,33.92-9.88,7.95,0,15.67,1.46,22.91,4.28,17.88,1.62,34.32,10.98,44.74,25.74,7.48,10.58,11.43,23.19,11.43,36.46v1.8c0,21.32-10.61,41.21-28.39,53.2-.64.43-1.29.85-1.95,1.26l-3.04,1.88c-10.24,6.55-22.01,9.99-34.18,9.99ZM689.43,431.04c3.98,3.4,8.42,6.27,13.23,8.52v-27.62l-13.23,19.11ZM675.28,437.32s.03.02.04.03c-.01-.01-.03-.02-.04-.03ZM675.83,429.48s0,0,0,0c0,0,0,0,0,0ZM675.78,429.45s.02.02.03.02c-.01,0-.02-.02-.03-.02ZM669.26,389.23c.47,15.68,7.32,29.8,18.07,39.92l15.33-19.83v-20.1h2.29l-2.28-3.49v3.49s-33.41,0-33.41,0ZM728.2,389.23h34.44c0-.21.01-.41.02-.62-.15-14.07-5.42-26.94-14.04-36.88l-22.85,34.12,2.43,3.37ZM725.54,389.23h2.64l-2.42-3.37-1.3,1.95,1.08,1.42ZM725.1,389.23h.36l-1.01-1.4-.11.17.77,1.24ZM723.51,389.23h1.4l-.7-1.04-.7,1.04ZM718.38,389.23h4.71l.86-1.43-4.8-7.12-6.62,8.55h5.68l1.67-2.16-1.5,2.16ZM707.99,389.23h4.46l6.21-9.27-2.41-3.57-4.08,5.35,3.89-5.62-13.4-19.87v16.58s5.54,8.84,5.54,8.84l-5.54-8.64v12.37s2.35,3.83,2.35,3.83h2.82l-3.3-5.26,3.45,5.26ZM719.51,380.21l4.57,7.37.08-.14-.26-.36.27.35,22.55-37.77c-.65-.68-1.32-1.34-2-1.99l-25.21,32.55ZM716.75,375.74l2.28,3.68,22.92-34.23c-.39-.32-.78-.64-1.17-.95l-24.03,31.51ZM702.66,353.02l13.88,22.4,22.5-32.5c-3.9-2.86-8.17-5.25-12.73-7.09-1.54-.12-3.09-.19-4.65-.19-6.55,0-12.96,1.11-19.01,3.27v14.1ZM756.54,339.58l.04.03-.04-.03ZM756.51,339.56s.01,0,.02.01c0,0-.01,0-.02-.01Z"/>
    </g>
    <g>
      <g>
        <path class="st3" d="M166.76,397.5h-18.4c-2.56,0-5.12-.16-7.67-.49-4.69-.6-9.22-1.62-13.55-3.03-7.15,2.21-14.57,3.33-22.18,3.33h-19.2c-10.61,0-21.09-2.31-31.13-6.88-7.82-3.55-14.86-8.14-20.93-13.63-.74-.67-1.47-1.36-2.17-2.07l-4.31-4.31c-6.76-6.76-12.17-14.82-16.08-23.97-4.24-9.59-6.38-19.79-6.38-30.35v-60.2c0-9.73,1.94-19.33,5.78-28.6-3.79-8.5-5.78-17.79-5.78-27.4v-4.6c0-17.96,6.95-34.8,19.57-47.42,10.03-10.03,22.71-16.47,36.49-18.71,1.75-2.27,3.66-4.44,5.72-6.5,12.62-12.62,29.47-19.57,47.43-19.57h5c9.24,0,18.18,1.84,26.41,5.34,5.58-1.54,11.42-2.34,17.39-2.34h6.4c15.47,0,30.59,5.33,42.58,15.01,12.4,10.01,20.79,23.97,23.73,39.44l1.57,7.83c.44.58.87,1.16,1.29,1.76,8,11.3,12.23,24.77,12.23,38.97v6c0,7.01-1.08,13.88-3.2,20.43,1.86,6.69,2.8,13.51,2.8,20.37v57.6c0,10.34-2.13,20.62-6.34,30.57-3.76,8.89-8.77,16.77-14.88,23.42-.05.05-.09.1-.14.15-2.16,2.33-4.31,4.58-6.42,6.68-6.81,6.8-14.88,12.31-23.99,16.38-1,.45-2.01.86-3.03,1.25-9.64,3.68-19.27,5.55-28.61,5.55ZM211.74,187.67c.6.4,1.2.82,1.79,1.24l1.74-.43c.59-1.75,1.1-3.54,1.51-5.34-1.19-1.62-2.48-3.16-3.87-4.61-1.23-1.29-2.53-2.52-3.88-3.67,1.31,4.15,2.23,8.44,2.72,12.82ZM217.33,160.98s0,0,0,0c0,0,0,0,0,0Z"/>
        <path class="st3" d="M339.9,397.3h-12.6c-16.45,0-32.02-6.03-44.19-17.05-12,10.91-27.76,17.05-44.21,17.05h-6.2c-17.57,0-34.13-6.88-46.63-19.37s-19.37-29.12-19.37-46.83v-171.4c0-18.4,7.34-35.44,20.67-47.99,12.34-11.62,28.44-18.01,45.33-18.01h50.8c3.38,0,6.74.26,10.03.76,3.33-.5,6.72-.76,10.17-.76h50.4c16.9,0,33,6.4,45.34,18.02,13.32,12.54,20.66,29.58,20.66,47.98v156.8c0,9.76-2.01,19.5-5.99,28.95-3.79,9.01-8.92,16.86-15.25,23.34l-5.62,5.81c-.24.25-.49.5-.73.74-6.53,6.52-14.36,11.8-23.27,15.67-9.58,4.17-19.45,6.28-29.34,6.28Z"/>
        <path class="st3" d="M453.23,397.1h-31.6c-20.29,0-39.33-7.88-53.63-22.18l-4-4c-14.43-14.43-22.37-33.54-22.37-53.83v-135.8c0-18.5,7.08-35.55,19.92-48.01,12.35-11.98,29-18.58,46.88-18.58h4.8c9.98,0,19.59,2.06,28.27,5.97,10.58-6.62,23.02-10.17,36.13-10.17h19.6c20.28,0,39.33,7.88,53.63,22.17l4,4c14.43,14.43,22.37,33.47,22.37,53.63v130.4c0,19.08-7.56,36.47-21.27,48.98-12.17,11.1-28.34,17.22-45.53,17.22h-4.8c-1.76,0-3.53-.08-5.28-.23-2.92-.26-5.78-.68-8.56-1.26-11.08,7.59-24.48,11.7-38.56,11.7Z"/>
        <path class="st3" d="M680.57,301.1h-112c-18.55,0-35.77-7.38-48.5-20.77-11.93-12.56-18.5-28.98-18.5-46.23v-4.4c0-.79.01-1.57.04-2.35-2.39-7.01-3.64-14.45-3.64-22.05v-4.6c0-11.89,2.9-23.47,8.4-33.6v-6.6c0-18.42,7.38-35.57,20.77-48.3,12.56-11.93,29.05-18.5,46.43-18.5h102.4c17.83,0,34.6,6.95,47.23,19.57,12.62,12.61,19.57,29.39,19.57,47.23v6.6c5.5,10.13,8.4,21.71,8.4,33.6v3.61c.18,8.13-1.07,16.05-3.63,23.45.02.65.03,1.29.03,1.94v4.4c0,17.84-6.99,34.65-19.68,47.33-12.67,12.68-29.48,19.67-47.32,19.67Z"/>
        <path class="st3" d="M833.3,397.3h-32.2c-5.58,0-11.06-.68-16.33-1.99-5.36,1.32-10.95,1.99-16.67,1.99h-4.4c-19.9,0-38.45-8.47-50.89-23.25-2.42-2.87-4.58-5.94-6.47-9.15-9.11-3.97-17.24-9.94-23.72-17.63h0c-10.14-12.03-15.73-27.43-15.73-43.37v-20.8c0-8.49,1.38-16.92,4.11-25.06,1.97-5.88,4.65-11.52,7.99-16.83-7.86-11.14-12.1-24.61-12.1-38.92v-4c0-19.56,7.82-37.29,22.01-49.92,4.84-4.31,10.24-7.84,16.02-10.55,3.05-5.69,6.95-10.96,11.63-15.65,12.57-12.57,29.31-19.48,47.13-19.48h4.4c17.19,0,33.54,6.57,46.04,18.5,2.4,2.29,4.61,4.73,6.61,7.29h12.96c7.7,0,15.46,1.15,23.04,3.43,12.06,3.62,23.12,10.54,32.02,20.02l3.55,3.73c13.79,14.43,21.39,33.18,21.39,52.82v108.4c0,20.41-7.94,39.59-22.37,54.02l-4.01,4.01c-14.43,14.43-33.62,22.37-54.03,22.37ZM730.61,325.43s.01,0,.02,0c0,0-.01,0-.02,0ZM730.53,325.39s.03.02.05.02c-.02,0-.03-.02-.05-.02ZM729.95,179.88s-.02.03-.03.05c.01-.02.02-.03.03-.05Z"/>
        <path class="st3" d="M997.84,397.1h-69.2c-9.16,0-18.17-1.59-26.78-4.74-10.25-3.75-19.55-9.75-27.64-17.83l-4-4c-8.09-8.08-14.09-17.4-17.84-27.67-3.14-8.59-4.73-17.6-4.73-26.76v-69.45c-.61-.6-1.22-1.21-1.81-1.84-11.74-12.43-18.19-28.87-18.19-46.31v-4.4c0-18.87,7.35-36.21,20.7-48.82,1.93-1.83,3.96-3.52,6.08-5.09,3.43-7.02,8.1-13.42,13.92-18.91,12.41-11.72,28.85-18.18,46.3-18.18h4.4c18.87,0,36.2,7.35,48.81,20.69,1.02,1.07,1.99,2.18,2.93,3.31h39.07c18.87,0,36.2,7.35,48.81,20.69,11.73,12.41,18.19,28.86,18.19,46.31v4.4c0,18.87-7.35,36.21-20.7,48.82-8.88,8.39-19.83,14.09-31.74,16.65,8.34,3.5,15.89,8.7,22.24,15.42,11.74,12.43,18.2,28.87,18.2,46.32v4.4c0,18.87-7.35,36.21-20.7,48.82-12.4,11.72-28.85,18.18-46.3,18.18Z"/>
        <path class="st3" d="M992.4,240.03h-13.9c-33.92,0-62.1-26.09-65.56-60.68l-5.8-58.03c-1.96-19.38,4.32-38.71,17.22-52.98,12.41-13.72,30.03-21.59,48.35-21.59h25.03c1.7,0,3.38.07,5.05.21,16.38,1.3,31.87,8.86,43.12,21.19,12.88,14.13,19.24,33.33,17.45,52.67l-5.33,57.98c-3.18,34.89-31.4,61.23-65.62,61.23ZM938.52,167.81s0,.03,0,.05v-.05ZM997.73,123.53v37.23c5.85-2.98,11.17-7,15.63-11.94,2.66-2.94,4.95-6.14,6.85-9.52-5.95-6.98-13.7-12.46-22.48-15.76ZM1026.54,109.33v.09s0-.06,0-.09Z"/>
        <path class="st3" d="M986.66,296.79c-38.6,0-70-31.4-70-70s31.4-70,70-70,70,31.4,70,70-31.4,70-70,70ZM986.66,176.79c-27.57,0-50,22.43-50,50s22.43,50,50,50,50-22.43,50-50-22.43-50-50-50Z"/>
      </g>
      <g>
        <path class="st3" d="M625.43,407.34c-29.66,0-58.01-10.05-79.83-28.29-24.55-20.53-38.64-49.91-38.64-80.6s14.08-60.07,38.64-80.6c21.82-18.24,50.17-28.29,79.83-28.29s58.01,10.05,79.83,28.29c24.56,20.53,38.64,49.91,38.64,80.6s-14.08,60.07-38.64,80.6c-21.82,18.24-50.17,28.29-79.83,28.29ZM628.61,310.15h0,0ZM625.43,291.1c-.87,1.96-1.53,4.47-1.53,7.35s.66,5.39,1.53,7.35c.87-1.96,1.53-4.47,1.53-7.35s-.66-5.39-1.53-7.35Z"/>
        <g>
          <path class="st3" d="M620.71,360.31c-11.1,0-23.66-2.62-36.04-11.8-5.01-3.71-9.35-8.14-12.93-13.1-13.12-7.8-23.11-20.51-27.28-35.96-8.24-30.57,3.1-62.95,28.9-82.49.5-.38,1.01-.75,1.52-1.12,30.8-22.24,74.26-21.4,104.08,2.25,19.05,15.12,30.01,37.39,30.09,61.1.08,23.71-10.72,46.03-29.64,61.25-.03.02-.06.05-.09.07-10.13,8.12-22.3,13.89-35.19,16.69-6.23,1.35-14.34,3.1-23.43,3.1ZM620.33,278.99l8.28,10.93.73-.92-2.55-11.75-6.46,1.74ZM626.83,277.24l2.52,11.74,4.3-5.41-5.4-6.71-1.42.38ZM628.29,276.84l5.37,6.7,8.23-10.37-13.6,3.67Z"/>
          <path class="st3" d="M629.2,384.64h-8.28c-33.66,0-61.05-27.31-61.05-60.88v-24.02c0-31.72,24.46-57.85,55.55-60.64l7.82-.85c2.14-.23,4.3-.35,6.46-.35,33.79,0,61.28,27.21,61.28,60.65,0,.58,0,1.16-.03,1.74l-.72,24.95c-.79,32.89-27.87,59.4-61.03,59.4ZM620.97,358.86h-.05.05ZM621.02,358.86h-.03.03ZM621.07,358.86h-.02.02ZM621.11,358.86h-.02.02ZM621.16,358.86s0,0-.01,0c0,0,0,0,.01,0ZM621.21,358.86h0,0ZM621.25,358.86h0,0ZM571.98,309.51c5.1,27.51,29.04,48.4,57.72,48.4v-59.35h-8.78v.3l-.03-.3h-45.01c-1.64,3.48-2.95,7.14-3.9,10.95ZM632.5,323.83l3.58,33.05c16.85-4.5,30.76-16.32,38.12-31.85l-41.69-1.21ZM632.5,323.76h42.29c1.7-3.81,3-7.83,3.86-12.01-5.28-25.54-27.04-45.11-53.59-46.97-1.39.1-2.77.24-4.14.44v33.05l8.78.25v-.61l.07.61,1.21.04h-1.21l2.73,25.2ZM570.25,323.71v.05-.05ZM570.25,323.66v.04-.04ZM570.25,323.6v.03-.03ZM570.25,323.55v.03-.03ZM570.25,323.5s0,.03,0,.04c0-.01,0-.02,0-.04ZM570.25,323.44v.04-.04ZM570.28,321.93c-.01.5-.02,1-.03,1.5,0-.47.01-.94.02-1.41v-.09ZM576.65,296.98l44.21,1.28-3.51-32.43c-17.78,3.65-32.67,15.36-40.7,31.14Z"/>
          <path class="st3" d="M625.43,397.17c-36.16,0-65.57-29-65.57-64.65s29.41-64.65,65.57-64.65,65.57,29,65.57,64.65-29.42,64.65-65.57,64.65ZM625.43,277.17c-30.01,0-54.43,24.83-54.43,55.35s24.42,55.35,54.43,55.35,54.43-24.83,54.43-55.35-24.42-55.35-54.43-55.35Z"/>
        </g>
      </g>
      <g>
        <path class="st3" d="M292.57,390.62c-55.26,0-100.21-44.95-100.21-100.21s44.95-100.21,100.21-100.21,100.21,44.95,100.21,100.21-44.95,100.21-100.21,100.21ZM292.57,270.62c-10.91,0-19.79,8.88-19.79,19.79s8.88,19.79,19.79,19.79,19.79-8.88,19.79-19.79-8.88-19.79-19.79-19.79Z"/>
        <g>
          <path class="st3" d="M289.24,351.97c-10.44,0-22.72-2.48-34.89-11.13-6.05-4.3-11.17-9.63-15.19-15.67-10.31-8.28-17.88-19.94-20.95-33.53-5.92-26.15,2.38-53.54,21.7-71.99.49-.47.98-.94,1.49-1.39,29.38-26.61,74.91-26.08,103.66,1.21,15.02,14.24,23.69,34.31,23.77,55.02.08,20.73-8.44,40.86-23.38,55.23-9.33,8.99-20.87,15.48-33.4,18.79-4.96,1.32-13.08,3.47-22.79,3.47ZM249.08,270.06c-.18,1.61-.26,3.24-.26,4.87.04,11.9,5.01,23.41,13.64,31.58,9.52,9.03,22.25,12.96,34.56,11.72l-7.66-26.34h-.26s.19-.23.19-.23l-.3-1.03,1.18-.13,7.61-9.98-3.03-3.35-15.49.88,15.4-.98-2.06-2.27-15.87,3.59-27.65-8.33ZM219.4,282.1s0,0,0,0c0,0,0,0,0,0ZM219.39,282.06s0,.01,0,.02c0,0,0-.01,0-.02ZM219.39,282.01s0,.02,0,.02c0,0,0-.02,0-.02ZM219.39,281.97s0,.02,0,.03c0,0,0-.02,0-.03ZM219.38,281.92s0,.02,0,.03c0,0,0-.02,0-.03ZM219.38,281.88s0,.02,0,.02c0,0,0-.02,0-.02ZM219.38,281.85s0,0,0,.01c0,0,0,0,0-.01ZM281.67,262.74h0,0Z"/>
          <path class="st3" d="M295.17,371.95h-5.7c-33.48,0-60.72-27.24-60.72-60.72v-19.76c0-31.21,23.67-57,54.01-60.35l5.07-.65c2.55-.33,5.12-.49,7.69-.49,33.57,0,60.88,27.15,60.88,60.53,0,.48,0,.96-.02,1.45l-.5,20.53c-.67,32.91-27.64,59.47-60.71,59.47ZM289.53,350.75h-.06.06ZM289.58,350.75h-.04.04ZM289.64,350.75h-.04.04ZM289.77,350.75s-.08,0-.12,0c.04,0,.08,0,.12,0ZM289.83,350.75h-.06.06ZM293.5,350.61c-1.22.08-2.44.13-3.67.13,1.23,0,2.46-.05,3.67-.13ZM293.54,350.61s-.02,0-.03,0c.01,0,.02,0,.03,0ZM237.06,299.47c4.31,28.55,28.88,50.5,58.45,50.5v-59.47h-6.04v.25l-.03-.25h-49.81c-1.08,2.89-1.95,5.89-2.57,8.97ZM298.26,311.29l4.89,37.87c19.23-4.56,34.87-18.52,41.77-36.74l-46.67-1.12ZM298.26,311.23h47.11c1.13-3.18,1.99-6.48,2.56-9.88-4.56-27.09-27.57-48-55.61-49.33-.96.05-1.91.11-2.85.2v38.11l6.04.15v-.51l.07.51.81.02h-.81l2.68,20.73ZM235.89,311.16v.02-.02ZM235.89,311.12v.02-.02ZM235.89,311.07v.03-.03ZM235.89,311.02v.03-.03ZM235.89,310.97v.03-.03ZM235.89,310.92s0,.02,0,.03c0-.01,0-.02,0-.03ZM235.89,310.87v.04-.04ZM235.89,310.82s0,.03,0,.04c0-.01,0-.03,0-.04ZM235.91,309.71c0,.37-.02.74-.02,1.11,0-.35,0-.69.02-1.04v-.07ZM240.16,289.14l49.26,1.19-4.84-37.43c-20.23,3.66-36.92,17.63-44.42,36.25Z"/>
          <path class="st3" d="M292.57,382.27c-35.2,0-63.83-28.63-63.83-63.83s28.63-63.83,63.83-63.83,63.83,28.63,63.83,63.83-28.63,63.83-63.83,63.83ZM292.57,262.27c-30.97,0-56.17,25.2-56.17,56.17s25.2,56.17,56.17,56.17,56.17-25.2,56.17-56.17-25.2-56.17-56.17-56.17Z"/>
        </g>
      </g>
    </g>
  </g>
  <g>
    <g>
      <path class="st1" d="M373.85,440.64c-6.63,0-13.22-1.4-19.38-4.08-25.2-1.11-44.63-21.5-44.63-47.33,0-.32,0-.65.01-.97v-.83c0-16.61,8.29-31.97,22.18-41.08.26-.17.53-.34.79-.51l3.57-2.24c7.85-4.96,16.81-7.58,25.94-7.58,6.77,0,13.33,1.39,19.41,4.07,25.21,1.06,44.67,21.5,44.67,47.41v1.8c0,16.33-8.14,31.56-21.77,40.76-.48.33-.97.64-1.47.95l-3.14,1.95c-7.84,5.03-16.85,7.68-26.18,7.68ZM336.72,425.51s0,0,0,0c0,0,0,0,0,0ZM336.67,425.48s.02.02.03.02c-.01,0-.02-.02-.03-.02ZM350.33,418.45c1.42,1.31,2.93,2.52,4.51,3.64v-10.16l-4.51,6.52ZM337.1,417.55s0,0,0,0c0,0,0,0,0,0ZM337.06,417.52s.02.01.02.02c0,0-.02-.01-.02-.02ZM336.45,389.23c.46,10.68,5.15,20.49,12.42,27.82l5.97-7.72v-20.1h2.29l-2.28-3.49v3.49s-18.4,0-18.4,0ZM380.38,389.23h19.43c.01-.23.02-.45.02-.68-.15-8.67-3.07-16.8-7.91-23.56l-13.98,20.87,2.43,3.37ZM377.72,389.23h2.64l-2.42-3.37-1.3,1.95,1.08,1.42ZM377.28,389.23h.36l-1.01-1.4-.11.17.77,1.24ZM375.69,389.23h1.4l-.7-1.04-.7,1.04ZM370.55,389.23h4.71l.85-1.43-4.81-7.12-6.61,8.55h5.68l1.67-2.16-1.5,2.16ZM360.17,389.23h4.46l6.2-9.26-2.41-3.57-4.08,5.35,3.89-5.62-13.4-19.86v16.56s5.55,8.85,5.55,8.85l-5.54-8.64v12.38s2.35,3.83,2.35,3.83h2.82l-3.3-5.26,3.45,5.26ZM371.69,380.2l4.57,7.38.08-.14-.26-.36.27.35,14.36-24.05c-1-1.27-2.07-2.48-3.2-3.63l-15.82,20.46ZM368.93,375.74l2.28,3.68,14.4-21.5c-.61-.55-1.23-1.08-1.87-1.6l-14.81,19.42ZM355.9,354.71l12.83,20.71,13.85-20.01c-2.45-1.85-5.1-3.45-7.9-4.77-6.55-.12-12.97,1.27-18.78,4.06ZM399.55,351.45s.02.01.02.02c0,0-.02-.01-.02-.02Z"/>
      <path class="st1" d="M422.1,459.2h-13.18c-13.37,0-25.92-5.19-35.35-14.62l-1.56-1.56c-.28-.26-.55-.53-.82-.8-9.43-9.43-14.62-21.98-14.62-35.35v-20.81c0-13.37,5.19-25.92,14.62-35.35l2.38-2.38c9.42-9.42,21.98-14.62,35.35-14.62h13.18c26.85,0,47.88,21.03,47.88,47.88v.79c0,4.92-.71,9.64-2.02,14.08,1.32,4.43,2.02,9.16,2.02,14.08v.79c0,26.85-21.03,47.88-47.88,47.88ZM391.69,410.4c1.84,1.94,3.86,3.71,6.02,5.28l5.28-5.28h-11.3ZM403.03,410.38h35.27c3.17-4.15,5.5-8.9,6.87-13.92-1.69-6.22-4.88-12.03-9.3-16.8-.37-.34-.75-.67-1.13-.99l-31.71,31.71Z"/>
      <path class="st1" d="M461.41,459.27h-8.93c-13.37,0-25.92-5.19-35.35-14.62l-1.58-1.58c-.27-.26-.54-.52-.8-.78-9.43-9.43-14.62-21.98-14.62-35.35v-20.88c0-13.37,5.19-25.92,14.62-35.35l2.38-2.38c9.42-9.42,21.98-14.62,35.35-14.62h8.93c13.37,0,25.92,5.19,35.35,14.62l2.3,2.3c.52.52,1.03,1.06,1.53,1.61,8.44,9.32,13.09,21.33,13.09,33.81v20.13c.29,13.44-4.95,26.5-14.61,36.16l-2.32,2.32c-9.42,9.42-21.98,14.62-35.35,14.62ZM435.52,414.18c1.34,1.13,2.74,2.17,4.21,3.11l6.82-6.82h-7.32l-3.71,3.71ZM432.04,410.47c.59.75,1.2,1.48,1.85,2.19l2.42-2.19h-4.27ZM446.59,410.45h35.22c.87-1.13,1.67-2.31,2.41-3.52h-15.54l16.25-1.21c1.64-2.91,2.91-6.01,3.79-9.22-1.7-6.21-4.88-12-9.28-16.76-.37-.34-.75-.67-1.14-1l-31.71,31.71Z"/>
      <path class="st1" d="M511.67,459.35h-.72c-2.78,0-5.5-.23-8.14-.66-2.64.43-5.36.66-8.13.66h-.79c-25.89,0-46.36-19.55-47.8-45.01-.06-.95-.09-1.9-.09-2.86v-25.42c0-13.37,5.19-25.92,14.62-35.35l2.38-2.38c9.43-9.43,21.98-14.62,35.35-14.62h8.93c13.32,0,25.87,5.21,35.34,14.68l2.31,2.31c9.43,9.44,14.62,21.99,14.62,35.35v25.42c0,26.85-21.03,47.88-47.88,47.88ZM491.02,411.48l13,11.82c7.93-1.16,15.46-4.71,21.4-10.16.49-.54.97-1.09,1.44-1.65h-35.84ZM478.69,411.47h12.3l-18-16.37c-.51,1.16-.96,2.35-1.36,3.56,1.55,4.64,3.95,9,7.07,12.8Z"/>
      <path class="st1" d="M553.42,459.29h-4.97c-13.37,0-25.92-5.19-35.35-14.62l-2.38-2.38c-9.43-9.43-14.62-21.98-14.62-35.35,0-.33,0-.66.01-.99v-.64c-3.64-6.79-5.69-14.6-5.69-22.99v-.72c0-11.23,3.68-21.43,9.92-29.51,7.45-16.58,23.99-27.87,43.65-27.87h.79c16.6,0,30.98,8.04,39.54,20.53,10.44,8.72,16.98,21.88,16.98,36.85v.72c0,4.95-.71,9.69-2.05,14.15,1.33,4.46,2.05,9.2,2.05,14.15v.79c0,26.85-21.03,47.88-47.88,47.88ZM521.46,406.94c5.75,3.92,12.47,6.46,19.64,7.11v-7.11h26.21c3.67-2.5,6.95-5.56,9.7-9.04,1.62-3.73,2.71-7.71,3.16-11.85-1.34-2.2-2.9-4.27-4.65-6.18-6.74-6.18-15.52-9.92-24.61-10.5-3.38.21-6.67.84-9.81,1.84v35.73s-19.64,0-19.64,0Z"/>
      <path class="st1" d="M596.48,459.22h-13.39c-13.37,0-25.92-5.19-35.35-14.62l-2.38-2.38c-9.43-9.43-14.62-21.98-14.62-35.35v-8.35c0-2.95.26-5.86.76-8.71-.36-2.41-.55-4.89-.55-7.42v-.79c0-26.85,21.03-47.88,47.88-47.88h13.18c13.37,0,25.92,5.19,35.35,14.62l2.38,2.38c9.43,9.43,14.62,21.98,14.62,35.35v25.27c0,26.85-21.03,47.88-47.88,47.88ZM564.94,413.14c5.73,5.25,12.93,8.74,20.54,10.03,15.45-2.57,28.38-13.9,33.32-28.53-1.77-5.48-4.71-10.57-8.63-14.85-5.7-5.23-12.86-8.71-20.44-10.01-15.51,2.62-28.47,14.08-33.32,28.83,1.78,5.36,4.68,10.34,8.53,14.53ZM611.38,380.96h.01-.01Z"/>
      <path class="st1" d="M642.2,459.2h-13.18c-13.37,0-25.92-5.19-35.35-14.62l-1.56-1.56c-.28-.26-.55-.53-.82-.8-9.43-9.43-14.62-21.98-14.62-35.35v-20.81c0-13.37,5.19-25.92,14.62-35.35l2.38-2.38c9.43-9.43,21.98-14.62,35.35-14.62h13.18c26.85,0,47.88,21.03,47.88,47.88v.79c0,4.92-.71,9.64-2.02,14.08,1.32,4.43,2.02,9.16,2.02,14.08v.79c0,26.85-21.03,47.88-47.88,47.88ZM611.79,410.4c1.84,1.94,3.86,3.71,6.02,5.28l5.28-5.28h-11.3ZM623.13,410.38h35.27c3.17-4.15,5.5-8.9,6.87-13.92-1.69-6.22-4.88-12.03-9.29-16.8-.37-.34-.75-.67-1.14-.99l-31.71,31.71Z"/>
      <path class="st1" d="M681.79,459.29h-4.97c-13.37,0-25.92-5.19-35.35-14.62l-2.38-2.38c-9.43-9.43-14.62-21.98-14.62-35.35,0-.33,0-.66.01-.99v-.64c-3.64-6.79-5.69-14.6-5.69-22.99v-.72c0-11.23,3.68-21.43,9.92-29.51,7.45-16.58,23.99-27.87,43.65-27.87h.79c16.6,0,30.98,8.04,39.54,20.53,10.44,8.72,16.98,21.88,16.98,36.85v.72c0,4.95-.71,9.69-2.05,14.15,1.33,4.46,2.05,9.2,2.05,14.15v.79c0,26.85-21.03,47.88-47.88,47.88ZM649.83,406.94c5.75,3.92,12.47,6.46,19.64,7.11v-7.11h26.21c3.67-2.5,6.95-5.56,9.7-9.04,1.62-3.73,2.71-7.71,3.16-11.85-1.34-2.2-2.9-4.27-4.65-6.18-6.74-6.18-15.52-9.92-24.61-10.5-3.38.21-6.67.84-9.81,1.84v35.73s-19.64,0-19.64,0Z"/>
      <path class="st1" d="M721.67,440.64c-6.63,0-13.22-1.4-19.38-4.08-25.2-1.11-44.63-21.5-44.63-47.33,0-.32,0-.63,0-.95v-.85c0-16.61,8.29-31.97,22.18-41.08.26-.17.53-.34.79-.51l3.57-2.24c7.86-4.96,16.81-7.58,25.94-7.58,6.77,0,13.33,1.39,19.41,4.07,25.21,1.06,44.67,21.5,44.67,47.41v1.8c0,16.33-8.14,31.57-21.78,40.77-.48.32-.97.64-1.46.95l-3.14,1.95c-7.84,5.03-16.86,7.68-26.18,7.68ZM684.51,425.49s.02.01.02.02c0,0-.02-.01-.02-.02ZM684.47,425.46s.02.02.03.03c-.01,0-.02-.02-.03-.03ZM698.15,418.45c1.42,1.31,2.93,2.52,4.51,3.64v-10.16l-4.51,6.52ZM684.88,417.52s.01.01.02.02c0,0-.01-.01-.02-.02ZM684.27,389.23c.46,10.68,5.15,20.49,12.42,27.82l5.97-7.72v-20.1h2.29l-2.28-3.49v3.49s-18.4,0-18.4,0ZM728.2,389.23h19.43c.01-.23.02-.46.03-.69-.15-8.66-3.07-16.8-7.91-23.55l-13.98,20.87,2.43,3.37ZM725.54,389.23h2.64l-2.42-3.37-1.3,1.95,1.08,1.42ZM725.1,389.23h.36l-1.01-1.4-.11.17.77,1.24ZM723.51,389.23h1.4l-.7-1.04-.7,1.04ZM718.38,389.23h4.71l.86-1.43-4.8-7.12-6.62,8.55h5.68l1.67-2.16-1.5,2.16ZM707.99,389.23h4.46l6.21-9.27-2.41-3.57-4.08,5.35,3.89-5.62-13.4-19.87v16.58s5.55,8.85,5.55,8.85l-5.54-8.64v12.37s2.35,3.83,2.35,3.83h2.82l-3.3-5.26,3.45,5.26ZM719.51,380.21l4.57,7.37.08-.14-.26-.36.27.35,14.36-24.05c-.99-1.26-2.06-2.47-3.18-3.61l-15.83,20.44ZM716.75,375.74l2.28,3.68,14.4-21.5c-.61-.55-1.23-1.08-1.87-1.6l-14.81,19.42ZM703.71,354.71l12.83,20.71,13.85-20.01c-2.45-1.85-5.1-3.45-7.9-4.77-6.56-.11-12.97,1.27-18.78,4.06ZM747.37,351.45l.02.02-.02-.02Z"/>
      <rect class="st1" x="332.34" y="348.39" width="416.17" height="77.76"/>
      <rect class="st1" x="886.89" y="145.04" width="134.81" height="125.62"/>
    </g>
    <g>
      <g>
        <path class="st1" d="M166.76,382.5h-18.4c-1.92,0-3.84-.12-5.75-.37-5.46-.7-10.59-2.1-15.32-4.11-7.1,2.84-14.59,4.28-22.33,4.28h-19.2c-8.46,0-16.84-1.86-24.92-5.53-6.41-2.91-12.15-6.64-17.07-11.1-.56-.5-1.1-1.02-1.63-1.55l-4.31-4.3c-5.42-5.42-9.77-11.93-12.94-19.35-3.41-7.69-5.14-15.89-5.14-24.37v-60.2c0-8.46,1.86-16.84,5.53-24.92.62-1.37,1.28-2.71,1.98-4.01-4.9-8.06-7.51-17.35-7.51-27.07v-4.6c0-13.95,5.39-27.02,15.17-36.81,9.22-9.21,21.33-14.53,34.34-15.13,2.17-3.63,4.8-7.01,7.86-10.08,9.79-9.79,22.87-15.18,36.82-15.18h5c9.03,0,17.7,2.26,25.34,6.51,5.77-2.29,12.01-3.51,18.46-3.51h6.4c12.23,0,23.69,4.04,33.16,11.68,9.65,7.79,16.16,18.63,18.43,30.64l2.3,11.5c1.06,1.23,2.08,2.53,3.03,3.88,6.2,8.75,9.47,19.23,9.47,30.3v6c0,6.94-1.38,13.71-4.05,20.05,2.42,6.79,3.65,13.76,3.65,20.75v57.6c0,8.32-1.73,16.64-5.15,24.72-3.09,7.3-7.16,13.73-12.11,19.12-.03.04-.07.08-.1.11-2.02,2.19-4.05,4.29-6.01,6.26-5.5,5.5-12.06,9.97-19.5,13.28-.75.33-1.51.65-2.27.94-8.04,3.07-15.64,4.56-23.26,4.56ZM195.88,183.68c.62,2.75,1.02,5.56,1.19,8.42,1.07-1.71,2.01-3.49,2.81-5.33-1.26-1.12-2.59-2.15-3.99-3.08ZM202.55,163.57s0,0,0,0c0,0,0,0,0,0ZM186.56,158.1h.04-.04Z"/>
        <path class="st1" d="M339.9,382.3h-12.6c-13.57,0-26.37-5.32-36.03-14.99-3.25-3.25-6.01-6.86-8.23-10.74-1.78,3.16-3.91,6.13-6.35,8.87-9.56,10.71-23.33,16.86-37.79,16.86h-6.2c-13.57,0-26.36-5.32-36.02-14.98-9.66-9.66-14.98-22.52-14.98-36.22v-171.4c0-14.22,5.67-27.38,15.95-37.07,9.55-8.99,21.99-13.93,35.05-13.93h50.8c3.4,0,6.76.34,10.03.99,3.3-.65,6.7-.99,10.17-.99h50.4c13.06,0,25.51,4.95,35.05,13.94,10.28,9.68,15.95,22.84,15.95,37.06v156.8c0,7.75-1.62,15.53-4.82,23.14-3.06,7.27-7.15,13.56-12.17,18.69l-5.66,5.85c-.18.19-.36.37-.55.56-5.19,5.19-11.47,9.4-18.65,12.53-7.68,3.34-15.54,5.04-23.35,5.04Z"/>
        <path class="st1" d="M453.23,382.1h-31.6c-16.28,0-31.56-6.32-43.02-17.78l-4-4c-11.59-11.59-17.98-26.94-17.98-43.22v-135.8c0-29.42,22.27-51.6,51.8-51.6h4.8c11.12,0,21.21,3.15,29.47,8.64,9.08-8.06,21.22-12.84,34.93-12.84h19.6c16.28,0,31.55,6.31,43.02,17.78l4,4c11.59,11.59,17.98,26.87,17.98,43.02v130.4c0,29.19-22.27,51.2-51.8,51.2h-4.8c-1.32,0-2.64-.06-3.96-.17-4.59-.41-8.98-1.34-13.1-2.74-9.12,8.22-21.42,13.11-35.34,13.11Z"/>
        <path class="st1" d="M680.57,286.1h-112c-14.39,0-27.76-5.72-37.62-16.1-9.27-9.76-14.38-22.51-14.38-35.9v-4.4c0-1.55.07-3.08.2-4.6-2.49-6.2-3.8-12.91-3.8-19.8v-4.6c0-9.78,2.46-19.26,7.13-27.42.41-.72.83-1.42,1.27-2.11v-10.67c0-14.27,5.72-27.56,16.1-37.42,9.76-9.27,22.58-14.38,36.1-14.38h102.4c13.83,0,26.83,5.39,36.62,15.18,9.79,9.78,15.18,22.79,15.18,36.62v10.67c.44.69.86,1.39,1.27,2.11,4.66,8.16,7.13,17.64,7.13,27.42v3.8c.18,7.31-1.12,14.41-3.77,20.9.11,1.42.17,2.86.17,4.3v4.4c0,13.83-5.43,26.87-15.29,36.73-9.84,9.85-22.89,15.27-36.71,15.27Z"/>
        <path class="st1" d="M833.3,382.3h-32.2c-5.61,0-11.07-.88-16.23-2.58-5.21,1.68-10.84,2.58-16.77,2.58h-4.4c-15.46,0-29.83-6.53-39.42-17.91-2.95-3.5-5.39-7.36-7.31-11.49-8.91-2.9-16.84-8.14-22.88-15.3h0c-7.86-9.33-12.2-21.3-12.2-33.71v-20.8c0-6.87,1.12-13.7,3.33-20.29,2.31-6.9,5.84-13.4,10.49-19.31.33-.42.67-.83,1.01-1.24l1.43-1.69c-10.11-9.3-16.26-22.78-16.26-38.26v-4c0-15.22,6.03-28.97,16.98-38.71,5.03-4.47,10.85-7.88,17.12-10.1,2.55-6.18,6.32-11.84,11.17-16.7,9.74-9.73,22.7-15.09,36.53-15.09h4.4c13.31,0,25.98,5.1,35.68,14.35,3.59,3.43,6.62,7.28,9.04,11.45h20.88c6.24,0,12.54.94,18.73,2.8,9.55,2.86,18.33,8.38,25.43,15.96l3.6,3.79c11.11,11.63,17.23,26.7,17.23,42.45v108.4c0,16.4-6.38,31.82-17.98,43.41l-4,4c-11.59,11.59-27.01,17.98-43.42,17.98ZM742.24,188.49s-.01.02-.02.03c0-.01.01-.02.02-.03Z"/>
        <path class="st1" d="M997.84,382.1h-69.2c-7.4,0-14.68-1.29-21.64-3.83-8.19-2.99-15.65-7.82-22.18-14.35l-4-4c-6.53-6.53-11.37-14-14.36-22.2-2.54-6.94-3.83-14.22-3.83-21.62v-76.25c-2.09-1.61-4.06-3.39-5.91-5.34-9.09-9.63-14.09-22.41-14.09-36.01v-4.4c0-14.7,5.68-28.17,16-37.91,2.41-2.27,5.01-4.29,7.78-6.04,2.71-6.77,6.83-12.87,12.22-17.96,9.61-9.08,22.4-14.09,36-14.09h4.4c14.7,0,28.16,5.68,37.91,15.99,2.34,2.47,4.4,5.16,6.19,8.01h46.71c14.7,0,28.16,5.68,37.91,15.99,9.09,9.62,14.09,22.41,14.09,36.01v4.4c0,14.7-5.68,28.17-16,37.91-9.61,9.08-22.4,14.09-36,14.09h-8c-5.71,0-11.17-1.06-16.2-3-4.55,1.76-9.47,2.8-14.6,2.98v23.23h26.8c14.7,0,28.16,5.68,37.9,15.99,9.1,9.63,14.1,22.42,14.1,36.01v4.4c0,14.7-5.68,28.17-16,37.91-9.6,9.08-22.39,14.09-36,14.09Z"/>
        <path class="st1" d="M992.4,225.03h-13.9c-26.18,0-47.95-20.28-50.64-47.17l-5.8-58.03c-1.53-15.19,3.36-30.3,13.42-41.42,9.57-10.58,23.13-16.65,37.22-16.65h25.03c1.22,0,2.43.05,3.63.14,12.69.94,24.72,6.79,33.45,16.36,10.04,11.02,15,26.03,13.6,41.18l-5.33,57.99c-2.48,27.13-24.27,47.6-50.68,47.6ZM953.46,169.18s0,.02,0,.04v-.04ZM997.73,139.97v3.04c.72-.58,1.42-1.18,2.09-1.8-.68-.43-1.38-.84-2.09-1.23ZM1011.61,110.83v.06s0-.04,0-.06Z"/>
        <path class="st1" d="M986.66,281.79c-30.33,0-55-24.67-55-55s24.67-55,55-55,55,24.67,55,55-24.67,55-55,55ZM986.66,191.79c-19.3,0-35,15.7-35,35s15.7,35,35,35,35-15.7,35-35-15.7-35-35-35Z"/>
      </g>
      <g>
        <path class="st1" d="M625.43,392.34c-26.15,0-51.09-8.81-70.21-24.8-21.14-17.67-33.26-42.86-33.26-69.09s12.12-51.42,33.26-69.09c19.12-15.99,44.06-24.8,70.21-24.8s51.09,8.81,70.21,24.8c21.14,17.67,33.26,42.86,33.26,69.09s-12.12,51.42-33.26,69.09c-19.12,15.99-44.06,24.8-70.21,24.8ZM612.88,298.45c1.97,1.65,6.23,3.89,12.55,3.89s10.57-2.24,12.55-3.89c-1.97-1.65-6.23-3.89-12.55-3.89s-10.57,2.24-12.55,3.89ZM639.15,299.74h0,0Z"/>
        <g>
          <path class="st1" d="M620.76,345.32c-8.64,0-17.96-2.04-27.16-8.86-4.61-3.42-8.48-7.66-11.45-12.44-11.19-5.63-19.8-15.83-23.21-28.48-6.64-24.64,2.57-50.79,23.47-66.62.39-.3.79-.58,1.18-.87,25.45-18.43,61.39-17.76,86.04,1.8,15.46,12.27,24.35,30.27,24.42,49.39.06,19.12-8.7,37.17-24.04,49.51-8.4,6.73-18.42,11.48-29.06,13.79-5.9,1.28-12.8,2.77-20.2,2.77ZM620.33,278.99l8.31,10.98,13.52-16.87-21.83,5.89Z"/>
          <path class="st1" d="M629.2,369.64h-8.28c-25.39,0-46.05-20.58-46.05-45.88v-24.02c0-23.94,18.49-43.65,41.99-45.7l8-.87c1.61-.17,3.22-.26,4.84-.26,25.52,0,46.28,20.48,46.28,45.65,0,.43,0,.87-.02,1.3l-.73,25.02c-.6,24.78-21.02,44.76-46.04,44.76ZM620.96,343.86h-.04.04ZM620.99,343.86h-.02.02ZM621.03,343.86h0,0ZM621.06,343.86h0,0ZM587.45,309.97c4.98,18.94,22.03,32.94,42.25,32.94v-44.35h-8.78v.3l-.03-.3h-27.75c-2.42,3.47-4.35,7.31-5.7,11.41ZM632.5,323.83l1.94,17.9c9.37-3.05,17.37-9.17,22.81-17.18l-24.75-.72ZM632.5,323.76h25.27c2.38-3.67,4.23-7.7,5.44-12.01-4.86-17.22-19.9-30.2-38.16-31.92-1.4.13-2.78.33-4.14.59v17.84l8.78.25v-.61l.07.61,1.21.04h-1.21l2.73,25.2ZM585.25,323.72v.04-.04ZM585.25,323.68v.02-.02ZM585.25,323.64v.02-.02ZM585.25,323.61v.02-.02ZM585.25,323.57v.02-.02ZM585.25,323.53s0,.02,0,.03c0,0,0-.02,0-.03ZM585.25,323.44v.08-.08ZM585.25,323.4v.03-.03ZM585.25,323.36v.02-.02ZM585.25,323.32v.02-.02ZM585.25,323.28s0,.02,0,.02c0,0,0-.02,0-.02ZM585.25,323.24v.03-.03ZM585.25,323.19s0,.03,0,.04c0-.01,0-.02,0-.04ZM585.25,323.15v.03-.03ZM585.25,323.11s0,.01,0,.02c0,0,0-.01,0-.02ZM585.25,323.08v.02-.02ZM585.26,323.04v.02-.02ZM585.26,323h0s0,0,0,0ZM585.26,322.97h0s0,0,0,0ZM593.91,297.49l26.94.78-1.88-17.42c-10.18,2.44-19,8.46-25.06,16.64Z"/>
          <path class="st1" d="M625.43,382.17c-27.88,0-50.57-22.27-50.57-49.65s22.69-49.65,50.57-49.65,50.57,22.27,50.57,49.65-22.69,49.65-50.57,49.65ZM625.43,292.17c-21.74,0-39.43,18.1-39.43,40.35s17.69,40.35,39.43,40.35,39.43-18.1,39.43-40.35-17.69-40.35-39.43-40.35Z"/>
        </g>
      </g>
      <g>
        <path class="st1" d="M292.57,375.62c-46.98,0-85.21-38.22-85.21-85.21s38.23-85.21,85.21-85.21,85.21,38.23,85.21,85.21-38.23,85.21-85.21,85.21ZM292.57,285.62c-2.64,0-4.79,2.15-4.79,4.79s2.15,4.79,4.79,4.79,4.79-2.15,4.79-4.79-2.15-4.79-4.79-4.79Z"/>
        <g>
          <path class="st1" d="M289.35,336.94c-8.05,0-17.27-1.9-26.31-8.32-5.18-3.68-9.46-8.38-12.63-13.72-8.67-6.26-15.08-15.56-17.57-26.56-4.76-21.03,1.93-43.05,17.47-57.87.38-.37.76-.73,1.15-1.08,23.6-21.37,60.17-20.95,83.26.97,12.07,11.44,19.03,27.56,19.09,44.2.06,16.65-6.78,32.82-18.78,44.37-7.45,7.19-16.75,12.43-26.84,15.09-4.38,1.17-11.07,2.94-18.84,2.94ZM263.82,274.5c0,.13,0,.25,0,.38.03,7.82,3.29,15.38,8.96,20.75,5.65,5.36,12.82,8,19.99,7.98l-3.4-11.71h-.26s.19-.23.19-.23l-.3-1.03,1.2-.13,7.64-9.92-3.08-3.4-15.49.88,15.4-.98-2.06-2.27-15.87,3.59-12.91-3.89ZM281.67,262.74h0,0Z"/>
          <path class="st1" d="M295.17,356.95h-5.7c-25.21,0-45.72-20.51-45.72-45.72v-19.76c0-23.53,17.86-42.96,40.74-45.45l5.25-.68c1.91-.25,3.84-.37,5.77-.37,25.3,0,45.88,20.42,45.88,45.53,0,.36,0,.72-.01,1.08l-.5,20.58c-.5,24.78-20.81,44.79-45.71,44.79ZM289.51,335.75h-.04.04ZM289.55,335.75h-.03.03ZM289.6,335.75h-.03.03ZM289.65,335.75h-.04.04ZM289.69,335.75s-.02,0-.03,0c.01,0,.02,0,.03,0ZM289.73,335.75h-.03.03ZM289.78,335.75h-.03.03ZM289.83,335.75h-.04.04ZM289.87,335.75h-.03.03ZM289.91,335.75h-.02.02ZM289.96,335.75s-.02,0-.03,0c0,0,.02,0,.03,0ZM290.01,335.75h-.04.04ZM290.05,335.75h-.02.02ZM290.09,335.75h-.02.02ZM290.12,335.75h0,0ZM252.37,299.85c4.27,20.04,21.99,35.12,43.14,35.12v-44.47h-6.04v.25l-.03-.25h-33.39c-1.56,2.94-2.8,6.07-3.68,9.35ZM298.26,311.29l2.96,22.88c11.91-3.28,21.82-11.42,27.47-22.15l-30.42-.73ZM298.26,311.23h30.83c1.55-3.1,2.75-6.42,3.55-9.88-4.3-18.78-20.57-33.05-40.32-34.31-.96.06-1.91.15-2.85.27v23.02l6.04.15v-.51l.07.51.81.02h-.81l2.68,20.73ZM250.89,311.18h0s0,0,0,0ZM250.89,311.14v.02-.02ZM250.89,311.1v.03-.03ZM250.89,311.06s0,.02,0,.03c0,0,0-.02,0-.03ZM250.9,310.18c0,.29-.01.59-.01.88,0-.29,0-.59.01-.88ZM250.9,310.15s0,.02,0,.03c0,0,0-.02,0-.03ZM256.58,289.54l32.84.79-2.91-22.53c-12.84,2.56-23.69,10.68-29.93,21.74Z"/>
          <path class="st1" d="M292.57,367.27c-26.92,0-48.83-21.9-48.83-48.83s21.9-48.83,48.83-48.83,48.83,21.91,48.83,48.83-21.91,48.83-48.83,48.83ZM292.57,277.27c-22.7,0-41.17,18.47-41.17,41.17s18.47,41.17,41.17,41.17,41.17-18.47,41.17-41.17-18.47-41.17-41.17-41.17Z"/>
        </g>
      </g>
    </g>
  </g>
  <g>
    <g>
      <path class="st3" d="M354.85,389.23v-1.8c0-1.49.62-2.64,1.87-3.46l3.67-2.3c.67-.43,1.32-.65,1.94-.65.72,0,1.39.24,2.02.72l7.7,5.33c.62.48,1.27.72,1.94.72.77,0,1.46-.24,2.09-.72l1.8-1.3c.67-.48,1.27-.72,1.8-.72,1.15,0,1.73.82,1.73,2.45v1.8c0,1.44-.65,2.59-1.94,3.46l-3.6,2.23c-.62.43-1.3.65-2.02.65-.62,0-1.3-.22-2.02-.65l-7.63-5.11c-.62-.48-1.32-.72-2.09-.72-.58,0-1.22.22-1.94.65l-1.87,1.22c-.62.38-1.18.58-1.66.58-1.2,0-1.8-.79-1.8-2.38h0Z"/>
      <path class="st3" d="M403.01,410.4c-.96-.96-1.44-2.13-1.44-3.53v-20.81c0-1.39.48-2.57,1.44-3.53l2.38-2.38c.96-.96,2.14-1.44,3.53-1.44h13.18c1.92,0,2.88.96,2.88,2.88v.79c0,1.92-.96,2.88-2.88,2.88h-11.09c-1.92,0-2.88.96-2.88,2.88v16.63c0,1.92.96,2.88,2.88,2.88h11.09c1.92,0,2.88.96,2.88,2.88v.79c0,1.92-.96,2.88-2.88,2.88h-13.18c-1.39,0-2.57-.48-3.53-1.44l-2.38-2.38v.02Z"/>
      <path class="st3" d="M446.57,410.47c-.96-.96-1.44-2.14-1.44-3.53v-20.88c0-1.39.48-2.57,1.44-3.53l2.38-2.38c.96-.96,2.14-1.44,3.53-1.44h8.93c1.39,0,2.57.48,3.53,1.44l2.3,2.3c.96,1.06,1.44,2.26,1.44,3.6v20.88c.1,1.34-.38,2.54-1.44,3.6l-2.3,2.3c-.96.96-2.14,1.44-3.53,1.44h-8.93c-1.39,0-2.57-.48-3.53-1.44l-2.38-2.38v.02ZM454.56,407.74h4.68c1.92,0,2.88-.96,2.88-2.88v-16.7c0-1.92-.96-2.88-2.88-2.88h-4.68c-1.92,0-2.88.96-2.88,2.88v16.7c0,1.92.96,2.88,2.88,2.88Z"/>
      <path class="st3" d="M491,411.48v-25.42c0-1.39.48-2.57,1.44-3.53l2.38-2.38c.96-.96,2.14-1.44,3.53-1.44h8.93c1.34,0,2.52.5,3.53,1.51l2.3,2.3c.96.96,1.44,2.14,1.44,3.53v25.42c0,1.92-.96,2.88-2.88,2.88h-.72c-1.92,0-2.88-.96-2.88-2.88v-23.33c0-1.92-.96-2.88-2.88-2.88h-4.75c-1.92,0-2.88.96-2.88,2.88v23.33c0,1.92-.96,2.88-2.88,2.88h-.79c-1.92,0-2.88-.96-2.88-2.88h0Z"/>
      <path class="st3" d="M541.11,406.94v-18.86c0-1.92-.94-2.88-2.81-2.88s-2.88-.96-2.88-2.88v-.72c0-1.92.96-2.88,2.88-2.88s2.81-.96,2.81-2.88v-3.74c0-1.92.96-2.88,2.88-2.88h.79c1.92,0,2.88.96,2.88,2.88v3.74c0,1.92.96,2.88,2.88,2.88h2.88c1.92,0,2.88.96,2.88,2.88v.72c0,1.92-.96,2.88-2.88,2.88h-2.88c-1.92,0-2.88.96-2.88,2.88v16.78c0,1.92.96,2.88,2.88,2.88h2.88c1.92,0,2.88.96,2.88,2.88v.79c0,1.92-.96,2.88-2.88,2.88h-4.97c-1.39,0-2.57-.48-3.53-1.44l-2.38-2.38c-.96-.96-1.44-2.14-1.44-3.53h.01Z"/>
      <path class="st3" d="M577.18,410.4c-.96-.96-1.44-2.13-1.44-3.53v-8.35c0-1.34.5-2.52,1.51-3.53l2.3-2.3c.96-.96,2.13-1.44,3.53-1.44h6.84c1.92,0,2.88-.96,2.88-2.88v-.22c0-1.92-.96-2.88-2.88-2.88h-11.09c-1.92,0-2.88-.96-2.88-2.88v-.79c0-1.92.96-2.88,2.88-2.88h13.18c1.39,0,2.57.48,3.53,1.44l2.38,2.38c.96.96,1.44,2.14,1.44,3.53v25.27c0,1.92-.96,2.88-2.88,2.88h-13.39c-1.39,0-2.57-.48-3.53-1.44l-2.38-2.38h0ZM585.17,408.31h4.75c1.92,0,2.88-.96,2.88-2.88v-5.4c0-1.92-.96-2.88-2.88-2.88h-4.75c-1.92,0-2.88.96-2.88,2.88v5.4c0,1.92.96,2.88,2.88,2.88Z"/>
      <path class="st3" d="M623.11,410.4c-.96-.96-1.44-2.13-1.44-3.53v-20.81c0-1.39.48-2.57,1.44-3.53l2.38-2.38c.96-.96,2.13-1.44,3.53-1.44h13.18c1.92,0,2.88.96,2.88,2.88v.79c0,1.92-.96,2.88-2.88,2.88h-11.09c-1.92,0-2.88.96-2.88,2.88v16.63c0,1.92.96,2.88,2.88,2.88h11.09c1.92,0,2.88.96,2.88,2.88v.79c0,1.92-.96,2.88-2.88,2.88h-13.18c-1.39,0-2.57-.48-3.53-1.44l-2.38-2.38v.02Z"/>
      <path class="st3" d="M669.48,406.94v-18.86c0-1.92-.94-2.88-2.81-2.88s-2.88-.96-2.88-2.88v-.72c0-1.92.96-2.88,2.88-2.88s2.81-.96,2.81-2.88v-3.74c0-1.92.96-2.88,2.88-2.88h.79c1.92,0,2.88.96,2.88,2.88v3.74c0,1.92.96,2.88,2.88,2.88h2.88c1.92,0,2.88.96,2.88,2.88v.72c0,1.92-.96,2.88-2.88,2.88h-2.88c-1.92,0-2.88.96-2.88,2.88v16.78c0,1.92.96,2.88,2.88,2.88h2.88c1.92,0,2.88.96,2.88,2.88v.79c0,1.92-.96,2.88-2.88,2.88h-4.97c-1.39,0-2.57-.48-3.53-1.44l-2.38-2.38c-.96-.96-1.44-2.14-1.44-3.53h.01Z"/>
      <path class="st3" d="M702.67,389.23v-1.8c0-1.49.62-2.64,1.87-3.46l3.67-2.3c.67-.43,1.32-.65,1.94-.65.72,0,1.39.24,2.02.72l7.7,5.33c.62.48,1.27.72,1.94.72.77,0,1.46-.24,2.09-.72l1.8-1.3c.67-.48,1.27-.72,1.8-.72,1.15,0,1.73.82,1.73,2.45v1.8c0,1.44-.65,2.59-1.94,3.46l-3.6,2.23c-.62.43-1.3.65-2.02.65-.62,0-1.3-.22-2.02-.65l-7.63-5.11c-.62-.48-1.32-.72-2.09-.72-.58,0-1.22.22-1.94.65l-1.87,1.22c-.62.38-1.18.58-1.66.58-1.2,0-1.8-.79-1.8-2.38h.01Z"/>
    </g>
    <g>
      <g>
        <path class="st3" d="M148.36,318.3h15.4c2.13,0,3.97-.77,5.5-2.3s2.3-3.37,2.3-5.5v-49.8c0-2-.67-3.67-2-5-1.33-1.33-3-2-5-2h-31.6c-2,0-3.67.67-5,2-1.33,1.33-2,3-2,5v55.4c0,4.53-1.6,8.53-4.8,12-1.33,1.47-2.73,2.9-4.2,4.3-1.47,1.4-3.33,2.57-5.6,3.5-2,.93-4.13,1.4-6.4,1.4h-19.2c-2,0-4.1-.5-6.3-1.5s-4.03-2.17-5.5-3.5c-1.47-1.47-2.9-2.9-4.3-4.3s-2.57-3.23-3.5-5.5c-.93-2-1.4-4.13-1.4-6.4v-60.2c0-2,.5-4.1,1.5-6.3s2.17-4.03,3.5-5.5c1.47-1.47,2.93-2.93,4.4-4.4s3.27-2.67,5.4-3.6c2-.93,4.07-1.4,6.2-1.4h14.2c2,0,3.67-.67,5-2s2-3,2-5v-13.8c0-1.87-.67-3.5-2-4.9s-3-2.1-5-2.1h-28.2c-2,0-3.67-.67-5-2s-2-3-2-5v-4.6c0-2,.67-3.67,2-5s3-2,5-2h28.2c2,0,3.67-.67,5-2s2-3,2-5v-11.2c0-2,.67-3.67,2-5s3-2,5-2h5c2,0,3.67.67,5,2s2,3,2,5v11.2c0,2,.67,3.67,2,5s3,2,5,2h12.2c2,0,3.67.67,5,2s2,3,2,5v4.6c0,2-.67,3.67-2,5s-3,2-5,2h-12.2c-2,0-3.67.7-5,2.1-1.33,1.4-2,3.03-2,4.9v13.8c0,2,.67,3.67,2,5s3,2,5,2h36.2c4.53,0,8.47,1.67,11.8,5,1.47,1.47,2.9,2.87,4.3,4.2,1.4,1.33,2.57,3.13,3.5,5.4.93,2.27,1.4,4.47,1.4,6.6v57.6c0,2.27-.53,4.67-1.6,7.2s-2.33,4.6-3.8,6.2c-1.6,1.73-3.2,3.4-4.8,5s-3.6,2.93-6,4c-2.8,1.07-5.2,1.6-7.2,1.6h-18.4c-5.2-.67-7.8-3.27-7.8-7.8v-3.6c.67-5.2,3.27-7.8,7.8-7.8h0ZM85.36,316.3c1.33,1.33,3,2,5,2h9.6c2,0,3.67-.67,5-2s2-3,2-5v-50.6c0-2-.67-3.67-2-5-1.33-1.33-3-2-5-2h-9.6c-2,0-3.67.67-5,2-1.33,1.33-2,3-2,5v50.6c0,2,.67,3.67,2,5ZM160.26,182.2c-1.4-7.4-2.1-11.17-2.1-11.3,0-1.2.4-2.3,1.2-3.3s1.93-1.5,3.4-1.5h6.4c1.87,0,3.5.57,4.9,1.7,1.4,1.13,2.23,2.5,2.5,4.1l5,25c.4,1.6,1.07,3.03,2,4.3s1.93,1.9,3,1.9,2,.57,2.8,1.7c.8,1.13,1.2,2.57,1.2,4.3v6c0,1.6-.6,3.17-1.8,4.7s-2.6,2.3-4.2,2.3h-10.6c-1.6,0-3.1-.73-4.5-2.2s-2.3-3.07-2.7-4.8c-2.93-14.53-5.1-25.5-6.5-32.9h0Z"/>
        <path class="st3" d="M274.7,246c-2,.87-3.8,1.3-5.4,1.3h-18.6c-1.6,0-3,.57-4.2,1.7-1.2,1.13-1.8,2.57-1.8,4.3v77.8c0,1.73-.53,3.2-1.6,4.4-1.07,1.2-2.47,1.8-4.2,1.8h-6.2c-1.6,0-3-.6-4.2-1.8-1.2-1.2-1.8-2.67-1.8-4.4v-171.4c0-1.73.6-3.17,1.8-4.3s2.6-1.7,4.2-1.7h50.8c1.6,0,3,.57,4.2,1.7,1.2,1.13,1.8,2.57,1.8,4.3v66.6c0,1.87-.43,3.8-1.3,5.8s-1.83,3.53-2.9,4.6l-5.8,6.4c-1.2,1.07-2.8,2.03-4.8,2.9h0ZM265.5,191.29c1.6,0,3-.63,4.2-1.9,1.2-1.27,1.8-2.7,1.8-4.3v-6.6c0-1.73-.6-3.23-1.8-4.5-1.2-1.27-2.6-1.9-4.2-1.9h-14.8c-1.6,0-3,.63-4.2,1.9-1.2,1.27-1.8,2.77-1.8,4.5v6.6c0,1.6.6,3.03,1.8,4.3s2.6,1.9,4.2,1.9h14.8ZM265.5,228.9c1.6,0,3-.6,4.2-1.8s1.8-2.67,1.8-4.4v-6.8c0-1.87-.6-3.4-1.8-4.6s-2.6-1.8-4.2-1.8h-14.8c-1.6,0-3,.6-4.2,1.8s-1.8,2.73-1.8,4.6v6.8c0,1.73.6,3.2,1.8,4.4s2.6,1.8,4.2,1.8h14.8ZM321.3,324.9c0-1.73.6-3.2,1.8-4.4s2.6-1.8,4.2-1.8h8.8c1.73,0,3.17-.57,4.3-1.7,1.13-1.13,1.7-2.57,1.7-4.3v-59.4c0-1.73-.57-3.17-1.7-4.3s-2.57-1.7-4.3-1.7h-32.4c-1.73,0-3.13-.6-4.2-1.8s-1.6-2.67-1.6-4.4v-81.4c0-1.73.53-3.17,1.6-4.3s2.47-1.7,4.2-1.7h50.4c1.6,0,3,.57,4.2,1.7,1.2,1.13,1.8,2.57,1.8,4.3v156.8c0,1.73-.43,3.63-1.3,5.7s-1.83,3.63-2.9,4.7l-5.8,6c-1.2,1.2-2.8,2.23-4.8,3.1s-3.8,1.3-5.4,1.3h-12.6c-1.6,0-3-.6-4.2-1.8-1.2-1.2-1.8-2.67-1.8-4.4v-6.2h0ZM336.1,191.29c1.73,0,3.17-.63,4.3-1.9,1.13-1.27,1.7-2.7,1.7-4.3v-6.6c0-1.73-.57-3.23-1.7-4.5s-2.57-1.9-4.3-1.9h-14.6c-1.6,0-2.93.63-4,1.9-1.07,1.27-1.6,2.77-1.6,4.5v6.6c0,1.6.53,3.03,1.6,4.3s2.4,1.9,4,1.9h14.6ZM336.1,228.9c1.73,0,3.17-.6,4.3-1.8,1.13-1.2,1.7-2.67,1.7-4.4v-6.8c0-1.87-.57-3.4-1.7-4.6-1.13-1.2-2.57-1.8-4.3-1.8h-14.6c-1.6,0-2.93.6-4,1.8s-1.6,2.73-1.6,4.6v6.8c0,1.73.53,3.2,1.6,4.4s2.4,1.8,4,1.8h14.6Z"/>
        <path class="st3" d="M401.63,317.1v-135.8c0-4.4,2.27-6.6,6.8-6.6h4.8c4.53,0,6.8,2.2,6.8,6.6v130.8c0,4.53,2.2,6.8,6.6,6.8h26.6c4.53,0,6.8,2.2,6.8,6.6v5.4c0,4.13-2.27,6.2-6.8,6.2h-31.6c-4.4,0-8.13-1.53-11.2-4.6l-4-4c-3.2-3.2-4.8-7-4.8-11.4h0ZM498.83,320.3v-125c-.4-4.4-2.6-6.6-6.6-6.6h-14.6c-4.53,0-6.8-2.27-6.8-6.8v-4.8c0-4.4,2.27-6.6,6.8-6.6h19.6c4.4,0,8.13,1.53,11.2,4.6l4,4c3.2,3.2,4.8,6.93,4.8,11.2v130.4c0,4.13-2.27,6.2-6.8,6.2h-4.8c-4.53-.4-6.8-2.6-6.8-6.6h0Z"/>
        <path class="st3" d="M559.67,210.2c-1.13-1.27-1.7-2.9-1.7-4.9v-4.6c0-2,.4-3.7,1.2-5.1s1.87-2.1,3.2-2.1c1.07,0,2-.7,2.8-2.1s1.2-3.1,1.2-5.1v-25.8c0-1.87.7-3.47,2.1-4.8,1.4-1.33,3.1-2,5.1-2h102.4c1.87,0,3.47.67,4.8,2s2,2.93,2,4.8v25.8c0,2,.4,3.7,1.2,5.1s1.73,2.1,2.8,2.1c1.33,0,2.4.7,3.2,2.1s1.2,3.1,1.2,5.1v4.6c.13,2.13-.43,3.77-1.7,4.9-1.27,1.13-2.9,1.7-4.9,1.7-3.87,0-7.33-1.53-10.4-4.6l-5-5c-1.47-1.47-2.67-3.37-3.6-5.7s-1.4-4.5-1.4-6.5v-10.8c0-2-.7-3.7-2.1-5.1-1.4-1.4-3.04-2.1-4.9-2.1h-65.4c-1.87,0-3.5.7-4.9,2.1-1.4,1.4-2.1,3.1-2.1,5.1v10.8c0,2-.43,4.17-1.3,6.5s-2.03,4.23-3.5,5.7l-5,5c-1.33,1.33-3.07,2.47-5.2,3.4s-4,1.4-5.6,1.4c-1.87,0-3.37-.63-4.5-1.9h0ZM563.57,239c-1.33-1.4-2-3.03-2-4.9v-4.4c0-2,.67-3.67,2-5s3-2,5-2h112c1.87,0,3.5.67,4.9,2s2.1,3,2.1,5v4.4c0,1.87-.7,3.5-2.1,4.9-1.4,1.4-3.03,2.1-4.9,2.1h-112c-2,0-3.67-.7-5-2.1Z"/>
        <path class="st3" d="M728.5,308.6c-1.07-1.27-1.6-2.83-1.6-4.7v-20.8c0-2,.33-4,1-6s1.73-3.93,3.2-5.8l21.8-25.8c2.8-3.47,4.2-7.4,4.2-11.8v-18c0-2.27-.63-3.97-1.9-5.1s-2.83-1.7-4.7-1.7h-17c-4.4,0-6.6-2.2-6.6-6.6v-4c0-2.27.63-3.97,1.9-5.1s2.83-1.7,4.7-1.7h17c4.4,0,6.6-2.2,6.6-6.6v-15.6c0-1.87.63-3.43,1.9-4.7s2.83-1.9,4.7-1.9h4.4c1.73,0,3.27.63,4.6,1.9,1.33,1.27,2,2.83,2,4.7v43.4c0,2.4.53,3.6,1.6,3.6.93,0,1.87-.67,2.8-2l16.8-20.6c1.46-1.87,3.17-3.2,5.1-4s3.9-1.2,5.9-1.2h26.8c1.87,0,3.8.3,5.8.9s3.87,1.83,5.6,3.7l3.8,4c3.2,3.33,4.8,7.13,4.8,11.4v108.4c0,4.53-1.6,8.4-4.8,11.6l-4,4c-3.2,3.2-7.07,4.8-11.6,4.8h-32.2c-1.87,0-3.43-.63-4.7-1.9s-1.9-2.83-1.9-4.7v-4.6c0-2.27.63-3.93,1.9-5s2.83-1.6,4.7-1.6h28.2c2.27,0,3.97-.63,5.1-1.9s1.7-2.9,1.7-4.9v-100.2c0-2.27-.63-3.93-1.9-5s-2.9-1.6-4.9-1.6h-13.4c-4.27,0-7.93,1.73-11,5.2l-25.8,30.6c-1.6,1.87-2.73,3.77-3.4,5.7-.67,1.93-1,3.97-1,6.1v77.2c0,4.4-2.2,6.6-6.6,6.6h-4.4c-2.27,0-3.93-.63-5-1.9s-1.6-2.83-1.6-4.7v-56c0-2.13-.2-3.27-.6-3.4-.27-.13-.6-.2-1-.2-.53,0-1.47.77-2.8,2.3-1.33,1.54-2.67,3.1-4,4.7-2.93,3.73-4.4,7.67-4.4,11.8v14c0,4.4-2.2,6.6-6.6,6.6h-4.2c-2.27,0-3.93-.63-5-1.9h0Z"/>
        <path class="st3" d="M969.44,205.5h-36.4c-2.27,0-4,.67-5.2,2s-1.8,3.07-1.8,5.2v99c0,2.27.63,4,1.9,5.2s2.97,1.8,5.1,1.8h64.8c2.27,0,4,.63,5.2,1.9s1.8,2.97,1.8,5.1v4.4c0,2.27-.63,4-1.9,5.2s-2.97,1.8-5.1,1.8h-69.2c-2.13,0-4.2-.37-6.2-1.1s-3.93-2.03-5.8-3.9l-4-4c-1.87-1.87-3.17-3.8-3.9-5.8-.73-2-1.1-4.07-1.1-6.2v-103.4c0-2.4-.63-4.2-1.9-5.4s-2.97-1.8-5.1-1.8h-6c-2.27,0-4-.63-5.2-1.9-1.2-1.27-1.8-2.97-1.8-5.1v-4.4c0-2.27.63-4,1.9-5.2s2.97-1.8,5.1-1.8h6c2.27,0,4-.63,5.2-1.9,1.2-1.27,1.8-2.97,1.8-5.1v-10c0-2.27.63-4,1.9-5.2s2.97-1.8,5.1-1.8h4.4c2.27,0,4,.63,5.2,1.9,1.2,1.27,1.8,2.97,1.8,5.1v10c0,2.27.63,4,1.9,5.2s2.97,1.8,5.1,1.8h76.8c2.27,0,4,.63,5.2,1.9,1.2,1.27,1.8,2.97,1.8,5.1v4.4c0,2.27-.63,4-1.9,5.2s-2.97,1.8-5.1,1.8h-8"/>
        <path class="st2" d="M997.73,106.75h-25.03c-3.56,0-6.32,4.04-5.86,8.6l5.8,58.03c.38,3.8,2.89,6.65,5.86,6.65h13.9c2.99,0,5.52-2.89,5.87-6.72l5.33-58.03c.42-4.53-2.33-8.52-5.87-8.52h0Z"/>
        <path class="st2" d="M986.66,216.79h0c5.52,0,10,4.48,10,10h0c0,5.52-4.48,10-10,10h0c-5.52,0-10-4.48-10-10h0c0-5.52,4.48-10,10-10Z"/>
      </g>
      <g>
        <ellipse class="st3" cx="625.43" cy="298.45" rx="58.47" ry="48.89"/>
        <g>
          <path class="st0" d="M609.58,264.8c-6.59,4.99-9,12.32-7.19,19.03.37-1.01,3.54-2.35,3.68-.41.07.96,3.48.34,3.56-.7.12-1.71.07-4.88.98-9.67,2.05-10.74,20.5-9.12,26.64-3.77,6.15,5.35,4.99,15.59-4.38,23.13-3.89,3.13-8.34,5.26-12.65,6.31.09.78.09.69.16,1.56.04.49,9.23-1.32,11.03-1.71,3.78-.82,7.37-2.45,10.39-4.87,9.67-7.78,9.71-20.78-.13-28.59-8.9-7.06-23-7.19-32.09-.3h0Z"/>
          <path class="st0" d="M629.2,324.64h-8.28c-.58,0-1.05-.39-1.05-.88v-24.02c0-.48.47-.88,1.05-.88l8.78-.95c.58,0,1.28.16,1.28.65l-.73,25.2c0,.48-.47.88-1.05.88h0Z"/>
          <ellipse class="st0" cx="625.43" cy="332.52" rx="5.57" ry="4.65"/>
        </g>
      </g>
      <g>
        <circle class="st3" cx="292.57" cy="290.41" r="40.21"/>
        <g>
          <path class="st0" d="M281.67,262.74c-4.53,4.1-6.19,10.13-4.94,15.65.25-.83,2.44-1.93,2.53-.34.05.79,2.4.28,2.45-.58.08-1.41.05-4.02.67-7.96,1.41-8.84,14.1-7.5,18.33-3.1s3.44,12.83-3.02,19.03c-2.68,2.57-5.74,4.33-8.7,5.19.07.64.07.57.11,1.28.03.4,6.35-1.08,7.59-1.41,2.6-.68,5.07-2.01,7.14-4.01,6.65-6.4,6.68-17.09-.09-23.51-6.12-5.81-15.82-5.91-22.07-.25h0Z"/>
          <path class="st0" d="M295.17,311.95h-5.7c-.4,0-.72-.32-.72-.72v-19.76c0-.4.32-.72.72-.72l6.04-.78c.4,0,.88.13.88.53l-.5,20.73c0,.4-.32.72-.72.72Z"/>
          <circle class="st0" cx="292.57" cy="318.44" r="3.83"/>
        </g>
      </g>
    </g>
  </g>
</svg>