<?xml version="1.0" encoding="UTF-8"?>
<svg id="_レイヤー_1" data-name="レイヤー 1" xmlns="http://www.w3.org/2000/svg" viewBox="0 0 1080 566">
  <defs>
    <style>
      .cls-1 {
        stroke: #fff;
        stroke-width: 60px;
      }

      .cls-1, .cls-2 {
        fill: none;
      }

      .cls-3 {
        fill: #f5b570;
      }

      .cls-2 {
        stroke: #242e50;
        stroke-width: 80px;
      }

      .cls-4 {
        fill: #fff;
        stroke: #d73666;
        stroke-miterlimit: 10;
        stroke-width: 10px;
      }

      .cls-5 {
        fill: #242e50;
      }

      .cls-6 {
        fill: #f7931e;
      }
    </style>
  </defs>
  <g>
    <g>
      <path class="cls-2" d="M849.52,431.7l-38.72,2.87c-1.09.08-2.1.33-3.04.7l-78.32-102.46c-4.11-5.37-12.5-4.22-15.01,2.06l-48.74,122.18c-2.47,6.2,2.66,12.76,9.27,11.85l128.63-17.67s.01,0,.02,0l21.35,31.37c4.42,6.5,14.22,5.77,17.64-1.31l16.87-34.97c3.42-7.08-2.11-15.2-9.95-14.62Z"/>
      <ellipse class="cls-2" cx="695.1" cy="398.34" rx="75.38" ry="24.28" transform="translate(79.44 910.97) rotate(-69.6)"/>
    </g>
    <path class="cls-2" d="M694.88,389.53l-31.05-73.31c-.92-1.45-2.13-2.71-3.53-3.76,56.8-50.99,75.42-119.51,40.07-171.71-42.22-62.34-146.59-79.49-241.06-42.46-82.28-31.51-170.72-22.14-214.44,27.81-53.14,60.71-20.09,158.35,73.82,218.09,74.55,47.42,165.03,56.7,225.76,28.15,2.51-.62,5.01-1.27,7.51-1.96l125.56,40.44c14.19,5.96,24.9-9.43,17.36-21.28Z"/>
    <g>
      <g>
        <path class="cls-2" d="M370.9,222.42h8.5c.72,0,1.23-.14,1.51-.42.12.24.18.5.18.78v36.16c0,.56-.15,1.21-.45,1.93-.3.72-.65,1.24-1.05,1.57l-1.51,1.57c-.36.44-.89.8-1.6,1.08-.7.28-1.36.42-1.96.42h-7.83c-.56,0-1.05-.21-1.48-.63s-.63-.91-.63-1.48v-1.33c0-.6.21-1.11.63-1.51.42-.4.91-.6,1.48-.6h6.75c.56,0,1.04-.2,1.45-.6.4-.4.6-.9.6-1.51v-29.35c0-.56-.2-1.04-.6-1.45-.4-.4-.88-.6-1.45-.6h-11.87c-.64,0-1.2.19-1.66.57-.46.38-.73.89-.81,1.54l-5.66,34.83c-.08.64-.35,1.15-.81,1.54-.46.38-1.02.57-1.66.57h-6.03c-.64,0-1.16-.19-1.54-.57-.38-.38-.57-.89-.57-1.54v-1.39c0-.64.19-1.16.57-1.54.38-.38.89-.57,1.54-.57h1.27c.64,0,1.19-.19,1.66-.57.46-.38.73-.89.81-1.54l4.76-29.23v-.36c0-.48-.13-.89-.39-1.24-.26-.34-.71-.51-1.36-.51h-5.24c-.64,0-1.16-.19-1.54-.57-.38-.38-.57-.89-.57-1.54v-1.39c0-.64.19-1.15.57-1.54s.89-.57,1.54-.57h6.15c.64,0,1.19-.19,1.66-.57.46-.38.73-.89.81-1.54l.54-3.56c.08-.64.35-1.15.81-1.54.46-.38,1.01-.57,1.66-.57h1.45c.64,0,1.09.17,1.36.51.26.34.39.75.39,1.24v.36l-.54,3.56v.36c0,.48.13.89.39,1.24.26.34.71.51,1.36.51h6.21c.32,1.05,1.06,1.57,2.23,1.57ZM370.78,220.25c-.36-.36-.54-.84-.54-1.45v-3.56c0-.6.18-1.08.54-1.45s.84-.54,1.45-.54c1.29,0,1.93.66,1.93,1.99v3.56c0,1.33-.64,1.99-1.93,1.99-.6,0-1.08-.18-1.45-.54ZM376.14,218.8v-3.56c0-1.33.64-1.99,1.93-1.99.6,0,1.08.18,1.45.54s.54.84.54,1.45v3.56c0,.6-.18,1.08-.54,1.45s-.84.54-1.45.54c-1.29,0-1.93-.66-1.93-1.99Z"/>
        <path class="cls-2" d="M405.79,237.12c0-.8-.32-1.21-.96-1.21-.32,0-.62.08-.9.24l-15.13,8.5c-.2.12-.38.19-.54.21-.16.02-.3.03-.42.03-.24,0-.51-.15-.81-.45-.3-.3-.45-.75-.45-1.36v-2.11c0-.64.19-1.16.57-1.57.38-.4.91-.8,1.6-1.21l27.72-15.07c.64-.36,1.16-.74,1.57-1.15.4-.4.6-.92.6-1.57v-4.7c0-.68.19-1.21.57-1.57.38-.36.89-.54,1.54-.54h1.27c.72,0,1.27.19,1.63.57.36.38.54.89.54,1.54v4.7c0,1.29-.36,2.55-1.08,3.8-.72,1.25-1.69,2.21-2.89,2.89l-6.87,3.86c-.68.36-1.17.81-1.45,1.36-.28.54-.42,1.14-.42,1.78v29.29c0,.68-.2,1.21-.6,1.57-.4.36-.92.54-1.57.54h-1.33c-.72,0-1.27-.19-1.63-.57-.36-.38-.54-.89-.54-1.54v-26.27Z"/>
        <path class="cls-2" d="M435.23,264.99c-.42-.42-.63-.91-.63-1.48v-48.45c0-.56.21-1.04.63-1.45.42-.4.91-.6,1.48-.6h1.33c.6,0,1.11.2,1.54.6.42.4.63.88.63,1.45v48.45c0,.56-.21,1.05-.63,1.48s-.93.63-1.54.63h-1.33c-.56,0-1.05-.21-1.48-.63ZM442.19,227.24c0-.6.4-.9,1.21-.9h2.41c.56,0,1.18.17,1.84.51.66.34,1.15.75,1.48,1.24l11.87,18.56c.4.64.85,1.17,1.36,1.57.5.4,1.07.6,1.72.6.56,0,.99.22,1.3.66.3.44.45,1,.45,1.69v1.75c0,.6-.2,1.11-.6,1.54-.4.42-.88.63-1.45.63h-1.93c-.56,0-1.16-.18-1.78-.54-.62-.36-1.1-.78-1.42-1.27l-16.15-25.19c-.2-.28-.3-.56-.3-.84ZM458.52,220.25c-.36-.36-.54-.84-.54-1.45v-3.56c0-.6.18-1.08.54-1.45.36-.36.84-.54,1.45-.54,1.28,0,1.93.66,1.93,1.99v3.56c0,1.33-.64,1.99-1.93,1.99-.6,0-1.08-.18-1.45-.54ZM463.89,218.8v-3.56c0-1.33.64-1.99,1.93-1.99.6,0,1.08.18,1.45.54s.54.84.54,1.45v3.56c0,.6-.18,1.08-.54,1.45s-.84.54-1.45.54c-1.29,0-1.93-.66-1.93-1.99Z"/>
        <path class="cls-2" d="M481.48,262.01c0-.6.2-1.11.6-1.51.4-.4.88-.6,1.45-.6h8.26c.64,0,1.23-.15,1.75-.45s.94-.79,1.27-1.48l10.43-22.3c.08-.2.13-.37.15-.51.02-.14.03-.27.03-.39,0-.68-.46-1.02-1.39-1.02h-27.18c-.68,0-1.21-.19-1.57-.57-.36-.38-.54-.89-.54-1.54v-1.39c0-.68.19-1.21.57-1.57.38-.36.89-.54,1.54-.54h33.63c.68,0,1.21.19,1.57.57.36.38.54.89.54,1.54,0,1.17-.08,2.11-.24,2.83-.16.72-.38,1.39-.66,1.99l-11.69,25.25c-.6,1.24-1.51,2.27-2.71,3.07l-1.51.96c-.68.44-1.35.74-1.99.9-.64.16-1.29.24-1.93.24h-8.32c-.56,0-1.05-.21-1.45-.63-.4-.42-.6-.91-.6-1.48v-1.39ZM477.26,218.35c-.4-.42-.6-.91-.6-1.48v-1.39c0-.6.2-1.1.6-1.51.4-.4.88-.6,1.45-.6h29.95c.6,0,1.11.2,1.54.6.42.4.63.9.63,1.51v1.39c0,.56-.21,1.05-.63,1.48s-.93.63-1.54.63h-29.95c-.56,0-1.04-.21-1.45-.63Z"/>
        <path class="cls-2" d="M537.41,237.12c0-.8-.32-1.21-.96-1.21-.32,0-.62.08-.9.24l-15.13,8.5c-.2.12-.38.19-.54.21-.16.02-.3.03-.42.03-.24,0-.51-.15-.81-.45-.3-.3-.45-.75-.45-1.36v-2.11c0-.64.19-1.16.57-1.57.38-.4.91-.8,1.6-1.21l27.72-15.07c.64-.36,1.16-.74,1.57-1.15.4-.4.6-.92.6-1.57v-4.7c0-.68.19-1.21.57-1.57.38-.36.89-.54,1.54-.54h1.27c.72,0,1.27.19,1.63.57.36.38.54.89.54,1.54v4.7c0,1.29-.36,2.55-1.08,3.8-.72,1.25-1.69,2.21-2.89,2.89l-6.87,3.86c-.68.36-1.17.81-1.45,1.36-.28.54-.42,1.14-.42,1.78v29.29c0,.68-.2,1.21-.6,1.57-.4.36-.93.54-1.57.54h-1.33c-.72,0-1.27-.19-1.63-.57-.36-.38-.54-.89-.54-1.54v-26.27Z"/>
        <path class="cls-2" d="M562.66,264.87c-.4-.42-.6-.91-.6-1.48v-1.39c0-.6.2-1.11.6-1.51.4-.4.88-.6,1.45-.6h11.69c.64,0,1.24-.14,1.81-.42.56-.28,1.04-.74,1.45-1.39l14.52-23.38c.8-1.21,1.87-1.81,3.19-1.81h2.17c.84,0,1.27.28,1.27.84,0,.16-.1.48-.3.96l-17.72,28.99c-.76,1.21-1.83,1.81-3.19,1.81h-14.89c-.56,0-1.05-.21-1.45-.63ZM563.44,214.89c-.2-.32-.3-.64-.3-.96,0-.12.06-.3.18-.54.08-.24.46-.36,1.14-.36h2.17c1.37,0,2.41.62,3.13,1.87l5.85,9.94c.8,1.29,1.87,1.93,3.19,1.93h4.88c.68,0,1.2.19,1.57.57.36.38.54.89.54,1.54v1.33c0,.68-.19,1.21-.57,1.57-.38.36-.9.54-1.54.54h-8.14c-.64,0-1.24-.14-1.78-.42-.54-.28-1.02-.76-1.42-1.45l-8.92-15.55Z"/>
      </g>
      <g>
        <path class="cls-2" d="M297.79,173.54c-.06-.1-.18-.26-.36-.47s-.37-.42-.56-.63c-.19-.21-.35-.36-.47-.44,2.17-1.16,3.83-2.53,4.99-4.08,1.15-1.56,1.88-3.32,2.18-5.29.3-1.97.27-4.14-.09-6.51l1.87-.18c.62,3.98.36,7.4-.8,10.27-1.16,2.87-3.41,5.31-6.76,7.32ZM311.02,172.28l-1.08-.87c.02-.3.03-.83.05-1.58,0-.75.01-1.6.01-2.55v-5.03c0-.74,0-1.57-.01-2.49-.01-.91-.02-1.8-.02-2.67s-.01-1.58-.03-2.14h2.02c0,.3,0,.75-.02,1.34-.01.59-.02,1.25-.03,1.97-.01.72-.02,1.43-.02,2.12v9.36c.84-.36,1.8-.82,2.88-1.39,1.07-.56,2.15-1.16,3.24-1.81,1.08-.64,2.07-1.26,2.95-1.85s1.55-1.11,1.99-1.55c0,.14.03.37.11.68.07.31.15.61.24.89.09.28.15.46.17.54-.52.44-1.19.92-1.99,1.45-.8.52-1.68,1.06-2.64,1.61-.95.55-1.91,1.08-2.88,1.6-.96.51-1.87.97-2.73,1.39-.85.41-1.59.74-2.21.98Z"/>
        <path class="cls-2" d="M327.59,164.5v-1.96c.7,0,1.7,0,2.98.01,1.29.01,2.73.02,4.34.03,1.61.01,3.26.02,4.97.02h4.94c1.59,0,3,0,4.25-.02,1.25,0,2.19-.02,2.83-.04v1.96c-.66-.02-1.61-.04-2.85-.04s-2.63-.02-4.19-.03c-1.56,0-3.17-.02-4.85-.02s-3.31,0-4.91.02c-1.6.01-3.05.02-4.35.03-1.31,0-2.36.03-3.16.04Z"/>
        <path class="cls-2" d="M358.05,173.54c-.06-.1-.18-.26-.36-.47s-.37-.42-.56-.63c-.19-.21-.35-.36-.47-.44,2.17-1.16,3.83-2.53,4.99-4.08,1.15-1.56,1.88-3.32,2.18-5.29.3-1.97.27-4.14-.09-6.51l1.87-.18c.62,3.98.36,7.4-.8,10.27-1.16,2.87-3.41,5.31-6.76,7.32ZM371.28,172.28l-1.08-.87c.02-.3.03-.83.05-1.58,0-.75.01-1.6.01-2.55v-5.03c0-.74,0-1.57-.01-2.49-.01-.91-.02-1.8-.02-2.67s-.01-1.58-.03-2.14h2.02c0,.3,0,.75-.02,1.34-.01.59-.02,1.25-.03,1.97-.01.72-.02,1.43-.02,2.12v9.36c.84-.36,1.8-.82,2.88-1.39,1.07-.56,2.15-1.16,3.24-1.81,1.08-.64,2.07-1.26,2.95-1.85s1.55-1.11,1.99-1.55c0,.14.03.37.11.68.07.31.15.61.24.89.09.28.15.46.17.54-.52.44-1.19.92-1.99,1.45-.8.52-1.68,1.06-2.64,1.61-.95.55-1.91,1.08-2.88,1.6-.96.51-1.87.97-2.73,1.39-.85.41-1.59.74-2.21.98Z"/>
        <path class="cls-2" d="M402.11,175.95c-1.45,0-2.74-.15-3.87-.45-1.14-.3-2.03-.76-2.7-1.37-.66-.61-.99-1.4-.99-2.37,0-.84.3-1.63.89-2.37.59-.73,1.39-1.41,2.38-2.03.99-.62,2.09-1.19,3.3-1.69v-.39c0-1.13-.19-1.89-.57-2.29-.38-.4-.9-.61-1.57-.63-1.1-.06-2.26.14-3.46.59-1.21.45-2.23,1.13-3.07,2.03-.38.42-.76.82-1.13,1.19-.37.37-.74.73-1.1,1.07l-1.45-1.45c1.49-1.08,2.86-2.42,4.11-3.99s2.28-3.19,3.09-4.84c-1.35.08-2.57.13-3.68.15-1.11.02-1.92.02-2.44,0l-.09-1.93c.62.06,1.58.09,2.86.09s2.67-.04,4.16-.12c.3-.76.54-1.52.71-2.26.17-.74.26-1.44.26-2.08l1.99.12c-.04.68-.14,1.36-.29,2.03-.15.67-.34,1.36-.56,2.06,1.61-.1,3.12-.23,4.53-.39s2.49-.34,3.21-.54l.18,1.84c-.56.12-1.31.24-2.23.35-.92.11-1.93.21-3.03.3-1.1.09-2.21.18-3.36.26-.36.8-.81,1.64-1.34,2.5-.53.86-1.09,1.68-1.67,2.44.58-.36,1.26-.63,2.02-.81s1.46-.27,2.08-.27c2.35,0,3.59,1.42,3.71,4.25,1.25-.46,2.49-.87,3.74-1.22,1.25-.35,2.36-.64,3.34-.86l.57,1.81c-1.35.22-2.67.51-3.96.86-1.3.35-2.52.75-3.66,1.19v4.28h-1.9v-3.53c-1.39.62-2.51,1.3-3.37,2.02-.86.72-1.3,1.43-1.3,2.11,0,.84.5,1.47,1.51,1.87,1,.4,2.34.6,4.01.6.92,0,1.94-.08,3.06-.24s2.16-.39,3.15-.69c-.02.1-.02.28.02.54.03.26.06.52.11.78.02.16.03.3.05.41,0,.11.02.2.02.26-1.02.26-2.08.46-3.16.6s-2.11.21-3.07.21Z"/>
        <path class="cls-2" d="M433.11,176.83h-.63c-.32,0-.68,0-1.07-.01-.39-.01-.74-.01-1.05-.01h-.62c-.04-.28-.11-.63-.2-1.04-.09-.41-.19-.72-.29-.92h3.5c.42,0,.72-.08.9-.24.18-.16.27-.43.27-.81v-9.64h-17.15v-1.84h17.15v-4.91h1.99v4.91h7.59v1.84h-7.59v10.15c0,1.69-.93,2.53-2.8,2.53ZM417.56,160.1v-6.39h11.48v-3.68h2.08v3.68h11.57v6.36h-1.93v-4.58h-21.24v4.61h-1.96ZM426.78,171.86c-.28-.5-.63-1.07-1.05-1.7s-.86-1.26-1.33-1.88c-.46-.62-.89-1.16-1.3-1.63l1.66-1.05c.44.46.89.99,1.34,1.6s.89,1.21,1.31,1.81c.42.6.78,1.15,1.09,1.66-.1.04-.28.15-.53.33-.25.18-.49.36-.72.53-.23.17-.39.29-.47.35Z"/>
        <path class="cls-2" d="M458.6,173.84c-.08-.26-.19-.55-.33-.87s-.29-.59-.45-.81c1.91-.22,3.58-.56,5-1.01s2.53-1.06,3.31-1.82c.78-.76,1.15-1.7,1.11-2.8-.08-2.35-1.86-3.46-5.33-3.31-.64.02-1.43.11-2.35.26-.92.15-1.88.34-2.88.56-.99.22-1.93.45-2.82.69-.88.24-1.61.47-2.17.69-.02-.04-.09-.2-.2-.47-.11-.27-.23-.54-.35-.81-.12-.27-.2-.43-.24-.47.58-.14,1.35-.32,2.29-.53.94-.21,1.95-.43,3.01-.65,1.07-.22,2.1-.41,3.1-.57s1.85-.25,2.53-.27c2.33-.1,4.08.27,5.26,1.11,1.17.84,1.79,2.08,1.85,3.71.06,1.43-.34,2.63-1.21,3.62s-2.08,1.78-3.66,2.38-3.41,1.07-5.5,1.39Z"/>
        <path class="cls-2" d="M497.5,175.44c-1.91-.22-3.61-.81-5.11-1.76-1.5-.95-2.67-2.17-3.51-3.65-.84-1.48-1.27-3.11-1.27-4.9,0-1.02.19-2.11.57-3.27.38-1.15.96-2.28,1.75-3.37.78-1.1,1.79-2.04,3.01-2.85-1.29.22-2.61.46-3.98.71-1.37.25-2.68.49-3.95.72-1.27.23-2.4.45-3.4.65-1.01.2-1.8.37-2.38.51l-.51-2.14c.66-.06,1.56-.17,2.68-.33,1.12-.16,2.38-.35,3.77-.57,1.39-.22,2.81-.46,4.28-.71s2.89-.51,4.28-.77,2.64-.51,3.77-.74c1.12-.23,2.02-.43,2.68-.59l.51,2.02c-.26.02-.59.06-.98.12-.39.06-.84.14-1.34.24-1.21.18-2.34.59-3.41,1.24-1.07.64-2,1.44-2.8,2.4-.8.95-1.43,2.01-1.88,3.16s-.68,2.35-.68,3.57c0,1.65.41,3.06,1.24,4.23.82,1.17,1.92,2.1,3.28,2.79,1.37.68,2.86,1.12,4.49,1.33-.22.26-.44.58-.66.96-.22.38-.37.71-.45.99Z"/>
        <path class="cls-2" d="M519.56,177.16v-8.44c-.72.74-1.57,1.48-2.53,2.2-.96.72-1.98,1.41-3.06,2.05-1.07.64-2.14,1.22-3.19,1.72-1.05.5-2.03.9-2.94,1.21-.04-.1-.13-.25-.27-.45-.14-.2-.29-.41-.44-.62s-.28-.36-.38-.44c1.25-.36,2.57-.89,3.98-1.6s2.78-1.5,4.11-2.38c1.34-.88,2.5-1.78,3.48-2.68h-11v-1.63h12.23v-2.11h-3.89v-11.21h2.5c.2-.38.43-.88.68-1.49.25-.61.45-1.17.59-1.67l1.99.27c-.08.32-.26.77-.53,1.36s-.52,1.1-.74,1.54h5.09v11.21h-3.77v2.11h12.23v1.63h-11.06c.96.88,2.09,1.76,3.39,2.62,1.3.86,2.66,1.64,4.08,2.34,1.43.69,2.79,1.24,4.1,1.64-.08.08-.2.23-.36.45-.16.22-.31.44-.45.65-.14.21-.24.37-.3.47-.9-.3-1.88-.7-2.92-1.21s-2.1-1.07-3.16-1.7c-1.07-.63-2.07-1.31-3.03-2.03-.95-.72-1.79-1.46-2.52-2.2v8.41h-1.93ZM508.32,164.38l-1.05-1.57c.46-.22,1-.52,1.63-.9s1.26-.79,1.91-1.24c.65-.44,1.27-.88,1.84-1.33.57-.44,1.04-.83,1.4-1.17.02.08.07.25.14.5s.14.49.21.72c.07.23.11.4.11.5-.48.42-1.1.91-1.84,1.48-.74.56-1.51,1.11-2.29,1.64-.78.53-1.47.99-2.05,1.37ZM512.81,157c-.32-.4-.77-.89-1.34-1.48-.57-.58-1.16-1.15-1.78-1.72-.61-.56-1.15-1.01-1.61-1.36l1.36-1.24c.52.4,1.09.89,1.7,1.48.61.58,1.19,1.15,1.73,1.7.54.55.97,1.01,1.3,1.37-.06.04-.19.15-.38.33-.19.18-.38.36-.57.53-.19.17-.33.3-.41.38ZM517.51,157.57h5.91v-3.13h-5.91v3.13ZM517.51,162.33h5.91v-3.22h-5.91v3.22ZM532.36,164.26c-.36-.36-.81-.76-1.34-1.2-.53-.44-1.1-.89-1.69-1.36-.59-.46-1.17-.89-1.72-1.28s-1.04-.71-1.46-.95l1.08-1.42c.46.28.99.63,1.58,1.05s1.19.86,1.81,1.33c.61.46,1.19.9,1.72,1.33.53.42.96.78,1.28,1.09-.08.06-.21.19-.39.39-.18.2-.36.4-.53.6-.17.2-.29.34-.35.42ZM527.6,156.61c-.04-.06-.16-.19-.35-.38-.19-.19-.38-.38-.57-.57-.19-.19-.33-.31-.41-.35.44-.28.97-.7,1.6-1.25.62-.55,1.24-1.13,1.84-1.75.6-.61,1.07-1.15,1.42-1.61l1.42,1.15c-.36.46-.83.99-1.42,1.58s-1.19,1.17-1.81,1.75c-.62.57-1.19,1.05-1.72,1.43Z"/>
        <path class="cls-2" d="M549.75,175.44c-2.07,0-3.57-.33-4.5-.98-.93-.65-1.4-1.86-1.4-3.63v-19.77l2.14.12c-.02.32-.04.88-.08,1.69s-.06,1.71-.08,2.71c-.02.74-.04,1.56-.05,2.44,0,.88-.01,1.82-.01,2.8v9.76c0,1.1.3,1.87.9,2.3.6.43,1.66.65,3.16.65,1.2,0,2.42-.18,3.63-.54,1.21-.36,2.37-.83,3.45-1.42,1.08-.58,2.02-1.19,2.8-1.84,0,.12.03.34.08.66.05.32.1.63.15.92.05.29.09.49.11.59-.96.68-2.02,1.29-3.18,1.82s-2.34.95-3.56,1.25c-1.22.3-2.41.45-3.57.45Z"/>
        <path class="cls-2" d="M583.26,175.98c-2.07,0-3.66-.55-4.78-1.66-1.11-1.11-1.68-2.68-1.7-4.73,0-.84.06-1.97.18-3.37-1.29-.14-2.52-.31-3.71-.51s-2.14-.43-2.86-.69l.33-1.84c.64.26,1.55.5,2.71.72s2.39.39,3.68.51c.08-.86.17-1.77.26-2.71s.19-1.88.29-2.8c-1.11-.16-2.17-.33-3.19-.51-1.02-.18-1.8-.34-2.32-.48l.3-1.87c.46.16,1.19.34,2.2.53,1,.19,2.07.37,3.19.53.16-1.31.3-2.51.41-3.62.11-1.1.2-1.97.26-2.59l2.05.33c-.12.66-.26,1.53-.41,2.61-.15,1.07-.31,2.24-.47,3.51.76.08,1.46.15,2.08.2.62.05,1.12.07,1.51.04l-.27,1.87c-.36,0-.85-.03-1.48-.09-.62-.06-1.3-.13-2.02-.21-.1.92-.2,1.84-.29,2.76-.09.91-.18,1.81-.26,2.7.88.06,1.71.09,2.49.09s1.41-.02,1.91-.06l-.15,1.9c-.56.02-1.23.02-1.99,0-.76-.02-1.56-.06-2.38-.12-.02.62-.04,1.2-.08,1.73-.03.53-.05,1-.05,1.4.02,1.51.39,2.64,1.1,3.39.71.75,1.86,1.13,3.45,1.13s2.72-.39,3.59-1.18c.86-.78,1.3-1.88,1.3-3.28,0-1.19-.35-2.37-1.05-3.56-.7-1.19-1.73-2.2-3.07-3.04.28-.08.59-.21.92-.38.33-.17.58-.33.74-.47,1.49,1.02,2.6,2.2,3.33,3.53s1.1,2.64,1.1,3.95-.28,2.38-.83,3.33c-.55.95-1.34,1.7-2.37,2.23-1.02.53-2.24.8-3.65.8Z"/>
        <path class="cls-2" d="M609.89,176.83c-.2-.2-.49-.42-.87-.65-.38-.23-.71-.39-.99-.47,1.33-.86,2.52-1.94,3.59-3.22,1.06-1.28,1.91-2.71,2.55-4.26.63-1.56.95-3.17.95-4.84,0-1.31-.34-2.26-1.01-2.86-.67-.6-1.48-.9-2.43-.9-.84,0-1.76.12-2.76.36-.99.24-1.95.56-2.86.96-.91.4-1.69.83-2.33,1.3-.08-.22-.25-.52-.51-.9-.26-.38-.49-.66-.69-.84.78-.42,1.7-.84,2.74-1.27,1.04-.42,2.13-.77,3.25-1.05,1.12-.28,2.18-.42,3.16-.42s1.88.22,2.7.65c.81.43,1.47,1.07,1.96,1.9s.74,1.86.74,3.09c0,1.81-.32,3.56-.95,5.24-.63,1.69-1.49,3.24-2.56,4.64-1.07,1.41-2.3,2.59-3.66,3.56ZM614.53,154.68c-.38-.1-.93-.27-1.64-.5-.71-.23-1.48-.5-2.31-.8-.82-.3-1.59-.6-2.3-.9-.71-.3-1.25-.55-1.61-.75l.93-1.66c.32.18.81.41,1.46.68.65.27,1.37.55,2.15.84.78.29,1.53.55,2.24.78.71.23,1.28.4,1.7.5l-.63,1.81Z"/>
        <path class="cls-2" d="M641.05,176.22c-.5,0-.93-.18-1.28-.54-.35-.36-.53-.79-.53-1.3s.18-.92.53-1.27c.35-.34.78-.51,1.28-.51s.93.17,1.28.51c.35.34.53.76.53,1.27s-.18.93-.53,1.3c-.35.36-.78.54-1.28.54ZM640.17,169.45c-.02-.2-.04-.64-.06-1.33-.02-.68-.04-1.5-.06-2.44-.02-.94-.04-1.93-.06-2.97-.02-1.03-.04-2.01-.05-2.94,0-.92-.02-1.7-.03-2.32-.01-.62-.02-.99-.02-1.11v-5.27h2.32v5.27c0,.12,0,.49-.02,1.11s-.02,1.4-.03,2.32c0,.92-.03,1.9-.06,2.94s-.06,2.02-.08,2.97c-.02.94-.04,1.76-.06,2.44-.02.68-.04,1.12-.06,1.33h-1.75Z"/>
      </g>
      <g>
        <path class="cls-2" d="M425.47,294.65c0,.34-.05.59-.14.74s-.21.23-.36.23h-1.9c.34.35.58.74.72,1.17s.21.87.21,1.33c0,.77-.12,1.44-.37,2.03s-.6,1.09-1.05,1.49-1,.72-1.63.93-1.32.32-2.09.32c-.54,0-1.05-.07-1.54-.21s-.86-.32-1.13-.54c-.18.18-.32.38-.43.6s-.17.49-.17.78c0,.34.16.63.48.85s.74.35,1.27.37l3.46.15c.66.02,1.26.11,1.81.27s1.02.39,1.43.69.72.67.94,1.1.34.94.34,1.52c0,.61-.13,1.19-.38,1.74s-.64,1.03-1.17,1.45-1.19.75-2.01.99-1.78.36-2.88.36-1.98-.09-2.73-.27-1.37-.43-1.85-.74-.83-.69-1.04-1.13-.32-.91-.32-1.42c0-.32.04-.64.12-.94s.2-.59.36-.87.36-.54.6-.79.52-.5.83-.74c-.48-.25-.84-.55-1.07-.93s-.35-.77-.35-1.21c0-.6.12-1.13.37-1.6s.55-.89.91-1.27c-.3-.36-.54-.77-.72-1.23s-.26-1.01-.26-1.66c0-.76.13-1.43.38-2.03s.61-1.1,1.06-1.52.99-.73,1.63-.95,1.32-.33,2.07-.33c.4,0,.78.02,1.13.07s.67.11.98.18h4c.17,0,.29.08.38.24s.13.41.13.74ZM422.89,308.63c0-.57-.23-1.01-.7-1.32s-1.1-.47-1.89-.49l-3.43-.12c-.31.25-.57.48-.77.7s-.36.43-.48.63-.2.4-.24.6-.07.4-.07.6c0,.64.32,1.12.97,1.45s1.55.49,2.71.49c.74,0,1.35-.07,1.85-.21s.9-.33,1.2-.57.52-.51.65-.81.2-.62.2-.96ZM421.67,298.14c0-.9-.25-1.61-.74-2.11s-1.2-.76-2.11-.76c-.47,0-.88.08-1.23.24s-.64.37-.87.65-.4.59-.51.95-.17.73-.17,1.13c0,.87.25,1.56.74,2.06s1.19.75,2.08.75c.48,0,.9-.08,1.25-.23s.64-.36.88-.63.4-.58.51-.93.17-.72.17-1.1Z"/>
        <path class="cls-2" d="M439.93,307.29c0,.08-.02.14-.05.2s-.1.1-.18.14-.2.07-.35.09-.32.03-.52.03c-.23,0-.41,0-.55-.03s-.26-.05-.34-.09-.14-.09-.17-.14-.04-.12-.04-.2v-1.75c-.76.83-1.5,1.44-2.24,1.82s-1.48.57-2.24.57c-.88,0-1.63-.15-2.23-.44s-1.09-.69-1.46-1.2-.64-1.09-.8-1.77-.24-1.49-.24-2.45v-8.03c0-.08.02-.14.05-.2s.1-.1.2-.15.23-.07.38-.09.35-.02.59-.02.43,0,.59.02.28.04.38.09.16.09.2.15.06.12.06.2v7.71c0,.77.06,1.4.17,1.86s.28.86.51,1.19.52.58.88.77.77.27,1.24.27c.61,0,1.21-.22,1.82-.65s1.24-1.06,1.92-1.9v-9.25c0-.08.02-.14.05-.2s.1-.1.2-.15.22-.07.38-.09.35-.02.6-.02.43,0,.59.02.28.04.37.09.15.09.2.15.07.12.07.2v13.24Z"/>
        <path class="cls-2" d="M447.12,289.57c0,.57-.11.96-.32,1.16s-.61.31-1.19.31-.96-.1-1.17-.3-.32-.58-.32-1.14.11-.96.32-1.16.61-.31,1.19-.31.96.1,1.17.3.32.58.32,1.14ZM446.84,307.29c0,.08-.02.14-.06.2s-.1.1-.19.14-.21.07-.37.09-.36.03-.6.03-.43,0-.59-.03-.28-.05-.38-.09-.16-.09-.19-.14-.05-.12-.05-.2v-13.24c0-.07.02-.13.05-.19s.1-.11.19-.15.22-.07.38-.09.35-.03.59-.03.45,0,.6.03.28.05.37.09.15.09.19.15.06.12.06.19v13.24Z"/>
        <path class="cls-2" d="M462.68,307.29c0,.08-.02.15-.05.21s-.09.11-.18.14-.19.06-.33.08-.3.03-.5.03c-.21,0-.38,0-.51-.03s-.25-.05-.34-.08-.15-.08-.19-.14-.06-.13-.06-.21v-1.75c-.7.76-1.42,1.34-2.17,1.77s-1.57.63-2.46.63c-.97,0-1.8-.19-2.49-.57s-1.24-.89-1.67-1.53-.74-1.4-.93-2.27-.29-1.78-.29-2.74c0-1.14.12-2.17.37-3.08s.61-1.7,1.09-2.35,1.08-1.15,1.79-1.49,1.53-.52,2.46-.52c.77,0,1.48.17,2.13.51s1.28.84,1.91,1.49v-7.69c0-.07.02-.13.05-.2s.1-.11.2-.15.22-.06.38-.09.35-.04.58-.04.45.01.6.04.28.05.37.09.15.08.2.15.07.13.07.2v19.6ZM460.23,297.97c-.66-.81-1.29-1.43-1.91-1.86s-1.25-.64-1.92-.64c-.62,0-1.14.15-1.57.44s-.78.68-1.05,1.16-.47,1.02-.59,1.63-.18,1.23-.18,1.85c0,.67.05,1.32.15,1.96s.28,1.2.54,1.7.59.89,1.02,1.19.95.45,1.59.45c.32,0,.64-.04.93-.13s.61-.24.92-.44.64-.47.99-.8.71-.73,1.09-1.21v-5.3Z"/>
        <path class="cls-2" d="M478.46,300.09c0,.38-.1.65-.29.82s-.41.24-.66.24h-8.72c0,.74.07,1.4.22,1.99s.39,1.09.74,1.52c.34.42.79.75,1.35.97.55.23,1.23.34,2.03.34.63,0,1.19-.05,1.68-.15s.92-.22,1.28-.35.66-.24.89-.35c.23-.1.41-.15.53-.15.07,0,.13.02.18.05.05.03.1.09.13.15s.05.16.07.29.02.27.02.45c0,.13,0,.24-.01.33s-.02.18-.04.25-.04.14-.07.2-.08.12-.13.17-.21.14-.48.26-.61.24-1.03.36-.91.22-1.46.32-1.15.14-1.77.14c-1.09,0-2.04-.15-2.86-.46s-1.51-.76-2.07-1.35-.98-1.35-1.27-2.25-.43-1.95-.43-3.15.15-2.16.44-3.07.72-1.68,1.27-2.31,1.22-1.12,2.01-1.46,1.66-.51,2.63-.51c1.04,0,1.92.17,2.66.5s1.33.78,1.8,1.35.82,1.23,1.04,1.99.33,1.57.33,2.43v.44ZM476.02,299.37c.03-1.28-.25-2.28-.85-3-.6-.73-1.48-1.09-2.66-1.09-.6,0-1.13.11-1.58.34s-.83.52-1.14.9c-.31.37-.54.81-.71,1.3s-.26,1.01-.28,1.55h7.22Z"/>
        <path class="cls-2" d="M484.58,307.29c0,.08-.02.14-.06.2s-.1.1-.19.14-.21.07-.37.09-.36.03-.6.03-.43,0-.59-.03-.28-.05-.38-.09-.16-.09-.19-.14-.05-.12-.05-.2v-19.66c0-.08.02-.15.05-.21s.1-.11.19-.15.22-.07.38-.09.35-.03.59-.03.45,0,.6.03.28.05.37.09.15.09.19.15.06.13.06.21v19.66Z"/>
        <path class="cls-2" d="M491.78,289.57c0,.57-.11.96-.32,1.16s-.61.31-1.19.31-.96-.1-1.17-.3-.32-.58-.32-1.14.11-.96.32-1.16.61-.31,1.19-.31.96.1,1.17.3.32.58.32,1.14ZM491.5,307.29c0,.08-.02.14-.06.2s-.1.1-.19.14-.21.07-.37.09-.36.03-.6.03-.43,0-.59-.03-.28-.05-.38-.09-.16-.09-.19-.14-.05-.12-.05-.2v-13.24c0-.07.02-.13.05-.19s.1-.11.19-.15.22-.07.38-.09.35-.03.59-.03.45,0,.6.03.28.05.37.09.15.09.19.15.06.12.06.19v13.24Z"/>
        <path class="cls-2" d="M507.39,307.29c0,.08-.02.14-.06.2s-.1.1-.19.14-.21.07-.37.09-.35.03-.59.03-.45,0-.6-.03-.28-.05-.37-.09-.15-.09-.19-.14-.06-.12-.06-.2v-7.75c0-.76-.06-1.36-.18-1.82s-.29-.86-.51-1.19-.52-.59-.88-.77-.77-.26-1.24-.26c-.61,0-1.22.22-1.82.65s-1.25,1.06-1.91,1.9v9.25c0,.08-.02.14-.06.2s-.1.1-.19.14-.21.07-.37.09-.36.03-.6.03-.43,0-.59-.03-.28-.05-.38-.09-.16-.09-.19-.14-.05-.12-.05-.2v-13.24c0-.08.01-.14.04-.2s.09-.1.18-.15.2-.07.34-.09.32-.02.54-.02.39,0,.54.02.25.04.33.09.13.09.17.15.05.12.05.2v1.75c.75-.83,1.49-1.44,2.23-1.83s1.49-.58,2.24-.58c.88,0,1.63.15,2.23.45s1.09.7,1.46,1.2.64,1.09.8,1.76.24,1.48.24,2.42v8.08Z"/>
        <path class="cls-2" d="M523.11,300.09c0,.38-.1.65-.29.82s-.41.24-.66.24h-8.72c0,.74.07,1.4.22,1.99s.39,1.09.74,1.52c.34.42.79.75,1.35.97.55.23,1.23.34,2.03.34.63,0,1.19-.05,1.68-.15s.92-.22,1.28-.35.66-.24.89-.35c.23-.1.41-.15.53-.15.07,0,.13.02.18.05.05.03.1.09.13.15s.05.16.07.29.02.27.02.45c0,.13,0,.24-.01.33s-.02.18-.04.25-.04.14-.07.2-.08.12-.13.17-.21.14-.48.26-.61.24-1.03.36-.91.22-1.46.32-1.15.14-1.77.14c-1.09,0-2.04-.15-2.86-.46s-1.51-.76-2.07-1.35-.98-1.35-1.27-2.25-.43-1.95-.43-3.15.15-2.16.44-3.07.72-1.68,1.27-2.31,1.22-1.12,2.01-1.46,1.66-.51,2.63-.51c1.04,0,1.92.17,2.66.5s1.33.78,1.8,1.35.82,1.23,1.04,1.99.33,1.57.33,2.43v.44ZM520.67,299.37c.03-1.28-.25-2.28-.85-3-.6-.73-1.48-1.09-2.66-1.09-.6,0-1.13.11-1.58.34s-.83.52-1.14.9c-.31.37-.54.81-.71,1.3s-.26,1.01-.28,1.55h7.22Z"/>
        <path class="cls-2" d="M535.12,303.68c0,.68-.13,1.28-.38,1.81s-.61.98-1.07,1.34-1.01.64-1.65.82-1.34.28-2.1.28c-.47,0-.92-.04-1.35-.11s-.81-.17-1.15-.28-.63-.23-.86-.35-.41-.23-.51-.33-.19-.24-.24-.41-.07-.42-.07-.72c0-.19,0-.34.03-.47s.04-.23.07-.31.07-.13.13-.17.12-.05.18-.05c.11,0,.27.07.48.2s.47.28.78.43.67.3,1.1.43.91.2,1.46.2c.41,0,.78-.04,1.12-.13s.62-.22.87-.39.43-.39.57-.65.2-.58.2-.94-.1-.69-.29-.94-.44-.48-.76-.68-.67-.37-1.06-.52-.8-.31-1.21-.48-.82-.36-1.22-.57-.75-.47-1.07-.77-.57-.67-.76-1.09-.29-.93-.29-1.52c0-.52.1-1.02.3-1.49s.5-.89.9-1.25.9-.64,1.51-.86,1.31-.32,2.11-.32c.35,0,.71.03,1.06.09s.67.13.96.22.53.18.73.29.35.19.46.27.17.15.21.21.06.13.07.2.03.16.04.27.02.24.02.4c0,.17,0,.31-.02.43s-.04.22-.07.3-.08.13-.13.17-.1.05-.16.05c-.09,0-.22-.05-.38-.16s-.38-.22-.65-.35-.58-.24-.93-.35-.77-.16-1.23-.16c-.41,0-.77.05-1.09.14s-.57.23-.77.4-.35.38-.46.61-.15.49-.15.77c0,.38.1.7.29.96s.45.49.77.68.67.37,1.07.53.81.32,1.23.49.83.35,1.24.56.77.46,1.08.75.57.65.76,1.06.29.9.29,1.47Z"/>
      </g>
    </g>
  </g>
  <g>
    <g>
      <path class="cls-1" d="M849.52,431.7l-38.72,2.87c-1.09.08-2.1.33-3.04.7l-78.32-102.46c-4.11-5.37-12.5-4.22-15.01,2.06l-48.74,122.18c-2.47,6.2,2.66,12.76,9.27,11.85l128.63-17.67s.01,0,.02,0l21.35,31.37c4.42,6.5,14.22,5.77,17.64-1.31l16.87-34.97c3.42-7.08-2.11-15.2-9.95-14.62Z"/>
      <ellipse class="cls-1" cx="695.1" cy="398.34" rx="75.38" ry="24.28" transform="translate(79.44 910.97) rotate(-69.6)"/>
    </g>
    <path class="cls-1" d="M694.88,389.53l-31.05-73.31c-.92-1.45-2.13-2.71-3.53-3.76,56.8-50.99,75.42-119.51,40.07-171.71-42.22-62.34-146.59-79.49-241.06-42.46-82.28-31.51-170.72-22.14-214.44,27.81-53.14,60.71-20.09,158.35,73.82,218.09,74.55,47.42,165.03,56.7,225.76,28.15,2.51-.62,5.01-1.27,7.51-1.96l125.56,40.44c14.19,5.96,24.9-9.43,17.36-21.28Z"/>
    <g>
      <g>
        <path class="cls-1" d="M370.9,222.42h8.5c.72,0,1.23-.14,1.51-.42.12.24.18.5.18.78v36.16c0,.56-.15,1.21-.45,1.93-.3.72-.65,1.24-1.05,1.57l-1.51,1.57c-.36.44-.89.8-1.6,1.08-.7.28-1.36.42-1.96.42h-7.83c-.56,0-1.05-.21-1.48-.63s-.63-.91-.63-1.48v-1.33c0-.6.21-1.11.63-1.51.42-.4.91-.6,1.48-.6h6.75c.56,0,1.04-.2,1.45-.6.4-.4.6-.9.6-1.51v-29.35c0-.56-.2-1.04-.6-1.45-.4-.4-.88-.6-1.45-.6h-11.87c-.64,0-1.2.19-1.66.57-.46.38-.73.89-.81,1.54l-5.66,34.83c-.08.64-.35,1.15-.81,1.54-.46.38-1.02.57-1.66.57h-6.03c-.64,0-1.16-.19-1.54-.57-.38-.38-.57-.89-.57-1.54v-1.39c0-.64.19-1.16.57-1.54.38-.38.89-.57,1.54-.57h1.27c.64,0,1.19-.19,1.66-.57.46-.38.73-.89.81-1.54l4.76-29.23v-.36c0-.48-.13-.89-.39-1.24-.26-.34-.71-.51-1.36-.51h-5.24c-.64,0-1.16-.19-1.54-.57-.38-.38-.57-.89-.57-1.54v-1.39c0-.64.19-1.15.57-1.54s.89-.57,1.54-.57h6.15c.64,0,1.19-.19,1.66-.57.46-.38.73-.89.81-1.54l.54-3.56c.08-.64.35-1.15.81-1.54.46-.38,1.01-.57,1.66-.57h1.45c.64,0,1.09.17,1.36.51.26.34.39.75.39,1.24v.36l-.54,3.56v.36c0,.48.13.89.39,1.24.26.34.71.51,1.36.51h6.21c.32,1.05,1.06,1.57,2.23,1.57ZM370.78,220.25c-.36-.36-.54-.84-.54-1.45v-3.56c0-.6.18-1.08.54-1.45s.84-.54,1.45-.54c1.29,0,1.93.66,1.93,1.99v3.56c0,1.33-.64,1.99-1.93,1.99-.6,0-1.08-.18-1.45-.54ZM376.14,218.8v-3.56c0-1.33.64-1.99,1.93-1.99.6,0,1.08.18,1.45.54s.54.84.54,1.45v3.56c0,.6-.18,1.08-.54,1.45s-.84.54-1.45.54c-1.29,0-1.93-.66-1.93-1.99Z"/>
        <path class="cls-1" d="M405.79,237.12c0-.8-.32-1.21-.96-1.21-.32,0-.62.08-.9.24l-15.13,8.5c-.2.12-.38.19-.54.21-.16.02-.3.03-.42.03-.24,0-.51-.15-.81-.45-.3-.3-.45-.75-.45-1.36v-2.11c0-.64.19-1.16.57-1.57.38-.4.91-.8,1.6-1.21l27.72-15.07c.64-.36,1.16-.74,1.57-1.15.4-.4.6-.92.6-1.57v-4.7c0-.68.19-1.21.57-1.57.38-.36.89-.54,1.54-.54h1.27c.72,0,1.27.19,1.63.57.36.38.54.89.54,1.54v4.7c0,1.29-.36,2.55-1.08,3.8-.72,1.25-1.69,2.21-2.89,2.89l-6.87,3.86c-.68.36-1.17.81-1.45,1.36-.28.54-.42,1.14-.42,1.78v29.29c0,.68-.2,1.21-.6,1.57-.4.36-.92.54-1.57.54h-1.33c-.72,0-1.27-.19-1.63-.57-.36-.38-.54-.89-.54-1.54v-26.27Z"/>
        <path class="cls-1" d="M435.23,264.99c-.42-.42-.63-.91-.63-1.48v-48.45c0-.56.21-1.04.63-1.45.42-.4.91-.6,1.48-.6h1.33c.6,0,1.11.2,1.54.6.42.4.63.88.63,1.45v48.45c0,.56-.21,1.05-.63,1.48s-.93.63-1.54.63h-1.33c-.56,0-1.05-.21-1.48-.63ZM442.19,227.24c0-.6.4-.9,1.21-.9h2.41c.56,0,1.18.17,1.84.51.66.34,1.15.75,1.48,1.24l11.87,18.56c.4.64.85,1.17,1.36,1.57.5.4,1.07.6,1.72.6.56,0,.99.22,1.3.66.3.44.45,1,.45,1.69v1.75c0,.6-.2,1.11-.6,1.54-.4.42-.88.63-1.45.63h-1.93c-.56,0-1.16-.18-1.78-.54-.62-.36-1.1-.78-1.42-1.27l-16.15-25.19c-.2-.28-.3-.56-.3-.84ZM458.52,220.25c-.36-.36-.54-.84-.54-1.45v-3.56c0-.6.18-1.08.54-1.45.36-.36.84-.54,1.45-.54,1.28,0,1.93.66,1.93,1.99v3.56c0,1.33-.64,1.99-1.93,1.99-.6,0-1.08-.18-1.45-.54ZM463.89,218.8v-3.56c0-1.33.64-1.99,1.93-1.99.6,0,1.08.18,1.45.54s.54.84.54,1.45v3.56c0,.6-.18,1.08-.54,1.45s-.84.54-1.45.54c-1.29,0-1.93-.66-1.93-1.99Z"/>
        <path class="cls-1" d="M481.48,262.01c0-.6.2-1.11.6-1.51.4-.4.88-.6,1.45-.6h8.26c.64,0,1.23-.15,1.75-.45s.94-.79,1.27-1.48l10.43-22.3c.08-.2.13-.37.15-.51.02-.14.03-.27.03-.39,0-.68-.46-1.02-1.39-1.02h-27.18c-.68,0-1.21-.19-1.57-.57-.36-.38-.54-.89-.54-1.54v-1.39c0-.68.19-1.21.57-1.57.38-.36.89-.54,1.54-.54h33.63c.68,0,1.21.19,1.57.57.36.38.54.89.54,1.54,0,1.17-.08,2.11-.24,2.83-.16.72-.38,1.39-.66,1.99l-11.69,25.25c-.6,1.24-1.51,2.27-2.71,3.07l-1.51.96c-.68.44-1.35.74-1.99.9-.64.16-1.29.24-1.93.24h-8.32c-.56,0-1.05-.21-1.45-.63-.4-.42-.6-.91-.6-1.48v-1.39ZM477.26,218.35c-.4-.42-.6-.91-.6-1.48v-1.39c0-.6.2-1.1.6-1.51.4-.4.88-.6,1.45-.6h29.95c.6,0,1.11.2,1.54.6.42.4.63.9.63,1.51v1.39c0,.56-.21,1.05-.63,1.48s-.93.63-1.54.63h-29.95c-.56,0-1.04-.21-1.45-.63Z"/>
        <path class="cls-1" d="M537.41,237.12c0-.8-.32-1.21-.96-1.21-.32,0-.62.08-.9.24l-15.13,8.5c-.2.12-.38.19-.54.21-.16.02-.3.03-.42.03-.24,0-.51-.15-.81-.45-.3-.3-.45-.75-.45-1.36v-2.11c0-.64.19-1.16.57-1.57.38-.4.91-.8,1.6-1.21l27.72-15.07c.64-.36,1.16-.74,1.57-1.15.4-.4.6-.92.6-1.57v-4.7c0-.68.19-1.21.57-1.57.38-.36.89-.54,1.54-.54h1.27c.72,0,1.27.19,1.63.57.36.38.54.89.54,1.54v4.7c0,1.29-.36,2.55-1.08,3.8-.72,1.25-1.69,2.21-2.89,2.89l-6.87,3.86c-.68.36-1.17.81-1.45,1.36-.28.54-.42,1.14-.42,1.78v29.29c0,.68-.2,1.21-.6,1.57-.4.36-.93.54-1.57.54h-1.33c-.72,0-1.27-.19-1.63-.57-.36-.38-.54-.89-.54-1.54v-26.27Z"/>
        <path class="cls-1" d="M562.66,264.87c-.4-.42-.6-.91-.6-1.48v-1.39c0-.6.2-1.11.6-1.51.4-.4.88-.6,1.45-.6h11.69c.64,0,1.24-.14,1.81-.42.56-.28,1.04-.74,1.45-1.39l14.52-23.38c.8-1.21,1.87-1.81,3.19-1.81h2.17c.84,0,1.27.28,1.27.84,0,.16-.1.48-.3.96l-17.72,28.99c-.76,1.21-1.83,1.81-3.19,1.81h-14.89c-.56,0-1.05-.21-1.45-.63ZM563.44,214.89c-.2-.32-.3-.64-.3-.96,0-.12.06-.3.18-.54.08-.24.46-.36,1.14-.36h2.17c1.37,0,2.41.62,3.13,1.87l5.85,9.94c.8,1.29,1.87,1.93,3.19,1.93h4.88c.68,0,1.2.19,1.57.57.36.38.54.89.54,1.54v1.33c0,.68-.19,1.21-.57,1.57-.38.36-.9.54-1.54.54h-8.14c-.64,0-1.24-.14-1.78-.42-.54-.28-1.02-.76-1.42-1.45l-8.92-15.55Z"/>
      </g>
      <g>
        <path class="cls-1" d="M297.79,173.54c-.06-.1-.18-.26-.36-.47s-.37-.42-.56-.63c-.19-.21-.35-.36-.47-.44,2.17-1.16,3.83-2.53,4.99-4.08,1.15-1.56,1.88-3.32,2.18-5.29.3-1.97.27-4.14-.09-6.51l1.87-.18c.62,3.98.36,7.4-.8,10.27-1.16,2.87-3.41,5.31-6.76,7.32ZM311.02,172.28l-1.08-.87c.02-.3.03-.83.05-1.58,0-.75.01-1.6.01-2.55v-5.03c0-.74,0-1.57-.01-2.49-.01-.91-.02-1.8-.02-2.67s-.01-1.58-.03-2.14h2.02c0,.3,0,.75-.02,1.34-.01.59-.02,1.25-.03,1.97-.01.72-.02,1.43-.02,2.12v9.36c.84-.36,1.8-.82,2.88-1.39,1.07-.56,2.15-1.16,3.24-1.81,1.08-.64,2.07-1.26,2.95-1.85s1.55-1.11,1.99-1.55c0,.14.03.37.11.68.07.31.15.61.24.89.09.28.15.46.17.54-.52.44-1.19.92-1.99,1.45-.8.52-1.68,1.06-2.64,1.61-.95.55-1.91,1.08-2.88,1.6-.96.51-1.87.97-2.73,1.39-.85.41-1.59.74-2.21.98Z"/>
        <path class="cls-1" d="M327.59,164.5v-1.96c.7,0,1.7,0,2.98.01,1.29.01,2.73.02,4.34.03,1.61.01,3.26.02,4.97.02h4.94c1.59,0,3,0,4.25-.02,1.25,0,2.19-.02,2.83-.04v1.96c-.66-.02-1.61-.04-2.85-.04s-2.63-.02-4.19-.03c-1.56,0-3.17-.02-4.85-.02s-3.31,0-4.91.02c-1.6.01-3.05.02-4.35.03-1.31,0-2.36.03-3.16.04Z"/>
        <path class="cls-1" d="M358.05,173.54c-.06-.1-.18-.26-.36-.47s-.37-.42-.56-.63c-.19-.21-.35-.36-.47-.44,2.17-1.16,3.83-2.53,4.99-4.08,1.15-1.56,1.88-3.32,2.18-5.29.3-1.97.27-4.14-.09-6.51l1.87-.18c.62,3.98.36,7.4-.8,10.27-1.16,2.87-3.41,5.31-6.76,7.32ZM371.28,172.28l-1.08-.87c.02-.3.03-.83.05-1.58,0-.75.01-1.6.01-2.55v-5.03c0-.74,0-1.57-.01-2.49-.01-.91-.02-1.8-.02-2.67s-.01-1.58-.03-2.14h2.02c0,.3,0,.75-.02,1.34-.01.59-.02,1.25-.03,1.97-.01.72-.02,1.43-.02,2.12v9.36c.84-.36,1.8-.82,2.88-1.39,1.07-.56,2.15-1.16,3.24-1.81,1.08-.64,2.07-1.26,2.95-1.85s1.55-1.11,1.99-1.55c0,.14.03.37.11.68.07.31.15.61.24.89.09.28.15.46.17.54-.52.44-1.19.92-1.99,1.45-.8.52-1.68,1.06-2.64,1.61-.95.55-1.91,1.08-2.88,1.6-.96.51-1.87.97-2.73,1.39-.85.41-1.59.74-2.21.98Z"/>
        <path class="cls-1" d="M402.11,175.95c-1.45,0-2.74-.15-3.87-.45-1.14-.3-2.03-.76-2.7-1.37-.66-.61-.99-1.4-.99-2.37,0-.84.3-1.63.89-2.37.59-.73,1.39-1.41,2.38-2.03.99-.62,2.09-1.19,3.3-1.69v-.39c0-1.13-.19-1.89-.57-2.29-.38-.4-.9-.61-1.57-.63-1.1-.06-2.26.14-3.46.59-1.21.45-2.23,1.13-3.07,2.03-.38.42-.76.82-1.13,1.19-.37.37-.74.73-1.1,1.07l-1.45-1.45c1.49-1.08,2.86-2.42,4.11-3.99s2.28-3.19,3.09-4.84c-1.35.08-2.57.13-3.68.15-1.11.02-1.92.02-2.44,0l-.09-1.93c.62.06,1.58.09,2.86.09s2.67-.04,4.16-.12c.3-.76.54-1.52.71-2.26.17-.74.26-1.44.26-2.08l1.99.12c-.04.68-.14,1.36-.29,2.03-.15.67-.34,1.36-.56,2.06,1.61-.1,3.12-.23,4.53-.39s2.49-.34,3.21-.54l.18,1.84c-.56.12-1.31.24-2.23.35-.92.11-1.93.21-3.03.3-1.1.09-2.21.18-3.36.26-.36.8-.81,1.64-1.34,2.5-.53.86-1.09,1.68-1.67,2.44.58-.36,1.26-.63,2.02-.81s1.46-.27,2.08-.27c2.35,0,3.59,1.42,3.71,4.25,1.25-.46,2.49-.87,3.74-1.22,1.25-.35,2.36-.64,3.34-.86l.57,1.81c-1.35.22-2.67.51-3.96.86-1.3.35-2.52.75-3.66,1.19v4.28h-1.9v-3.53c-1.39.62-2.51,1.3-3.37,2.02-.86.72-1.3,1.43-1.3,2.11,0,.84.5,1.47,1.51,1.87,1,.4,2.34.6,4.01.6.92,0,1.94-.08,3.06-.24s2.16-.39,3.15-.69c-.02.1-.02.28.02.54.03.26.06.52.11.78.02.16.03.3.05.41,0,.11.02.2.02.26-1.02.26-2.08.46-3.16.6s-2.11.21-3.07.21Z"/>
        <path class="cls-1" d="M433.11,176.83h-.63c-.32,0-.68,0-1.07-.01-.39-.01-.74-.01-1.05-.01h-.62c-.04-.28-.11-.63-.2-1.04-.09-.41-.19-.72-.29-.92h3.5c.42,0,.72-.08.9-.24.18-.16.27-.43.27-.81v-9.64h-17.15v-1.84h17.15v-4.91h1.99v4.91h7.59v1.84h-7.59v10.15c0,1.69-.93,2.53-2.8,2.53ZM417.56,160.1v-6.39h11.48v-3.68h2.08v3.68h11.57v6.36h-1.93v-4.58h-21.24v4.61h-1.96ZM426.78,171.86c-.28-.5-.63-1.07-1.05-1.7s-.86-1.26-1.33-1.88c-.46-.62-.89-1.16-1.3-1.63l1.66-1.05c.44.46.89.99,1.34,1.6s.89,1.21,1.31,1.81c.42.6.78,1.15,1.09,1.66-.1.04-.28.15-.53.33-.25.18-.49.36-.72.53-.23.17-.39.29-.47.35Z"/>
        <path class="cls-1" d="M458.6,173.84c-.08-.26-.19-.55-.33-.87s-.29-.59-.45-.81c1.91-.22,3.58-.56,5-1.01s2.53-1.06,3.31-1.82c.78-.76,1.15-1.7,1.11-2.8-.08-2.35-1.86-3.46-5.33-3.31-.64.02-1.43.11-2.35.26-.92.15-1.88.34-2.88.56-.99.22-1.93.45-2.82.69-.88.24-1.61.47-2.17.69-.02-.04-.09-.2-.2-.47-.11-.27-.23-.54-.35-.81-.12-.27-.2-.43-.24-.47.58-.14,1.35-.32,2.29-.53.94-.21,1.95-.43,3.01-.65,1.07-.22,2.1-.41,3.1-.57s1.85-.25,2.53-.27c2.33-.1,4.08.27,5.26,1.11,1.17.84,1.79,2.08,1.85,3.71.06,1.43-.34,2.63-1.21,3.62s-2.08,1.78-3.66,2.38-3.41,1.07-5.5,1.39Z"/>
        <path class="cls-1" d="M497.5,175.44c-1.91-.22-3.61-.81-5.11-1.76-1.5-.95-2.67-2.17-3.51-3.65-.84-1.48-1.27-3.11-1.27-4.9,0-1.02.19-2.11.57-3.27.38-1.15.96-2.28,1.75-3.37.78-1.1,1.79-2.04,3.01-2.85-1.29.22-2.61.46-3.98.71-1.37.25-2.68.49-3.95.72-1.27.23-2.4.45-3.4.65-1.01.2-1.8.37-2.38.51l-.51-2.14c.66-.06,1.56-.17,2.68-.33,1.12-.16,2.38-.35,3.77-.57,1.39-.22,2.81-.46,4.28-.71s2.89-.51,4.28-.77,2.64-.51,3.77-.74c1.12-.23,2.02-.43,2.68-.59l.51,2.02c-.26.02-.59.06-.98.12-.39.06-.84.14-1.34.24-1.21.18-2.34.59-3.41,1.24-1.07.64-2,1.44-2.8,2.4-.8.95-1.43,2.01-1.88,3.16s-.68,2.35-.68,3.57c0,1.65.41,3.06,1.24,4.23.82,1.17,1.92,2.1,3.28,2.79,1.37.68,2.86,1.12,4.49,1.33-.22.26-.44.58-.66.96-.22.38-.37.71-.45.99Z"/>
        <path class="cls-1" d="M519.56,177.16v-8.44c-.72.74-1.57,1.48-2.53,2.2-.96.72-1.98,1.41-3.06,2.05-1.07.64-2.14,1.22-3.19,1.72-1.05.5-2.03.9-2.94,1.21-.04-.1-.13-.25-.27-.45-.14-.2-.29-.41-.44-.62s-.28-.36-.38-.44c1.25-.36,2.57-.89,3.98-1.6s2.78-1.5,4.11-2.38c1.34-.88,2.5-1.78,3.48-2.68h-11v-1.63h12.23v-2.11h-3.89v-11.21h2.5c.2-.38.43-.88.68-1.49.25-.61.45-1.17.59-1.67l1.99.27c-.08.32-.26.77-.53,1.36s-.52,1.1-.74,1.54h5.09v11.21h-3.77v2.11h12.23v1.63h-11.06c.96.88,2.09,1.76,3.39,2.62,1.3.86,2.66,1.64,4.08,2.34,1.43.69,2.79,1.24,4.1,1.64-.08.08-.2.23-.36.45-.16.22-.31.44-.45.65-.14.21-.24.37-.3.47-.9-.3-1.88-.7-2.92-1.21s-2.1-1.07-3.16-1.7c-1.07-.63-2.07-1.31-3.03-2.03-.95-.72-1.79-1.46-2.52-2.2v8.41h-1.93ZM508.32,164.38l-1.05-1.57c.46-.22,1-.52,1.63-.9s1.26-.79,1.91-1.24c.65-.44,1.27-.88,1.84-1.33.57-.44,1.04-.83,1.4-1.17.02.08.07.25.14.5s.14.49.21.72c.07.23.11.4.11.5-.48.42-1.1.91-1.84,1.48-.74.56-1.51,1.11-2.29,1.64-.78.53-1.47.99-2.05,1.37ZM512.81,157c-.32-.4-.77-.89-1.34-1.48-.57-.58-1.16-1.15-1.78-1.72-.61-.56-1.15-1.01-1.61-1.36l1.36-1.24c.52.4,1.09.89,1.7,1.48.61.58,1.19,1.15,1.73,1.7.54.55.97,1.01,1.3,1.37-.06.04-.19.15-.38.33-.19.18-.38.36-.57.53-.19.17-.33.3-.41.38ZM517.51,157.57h5.91v-3.13h-5.91v3.13ZM517.51,162.33h5.91v-3.22h-5.91v3.22ZM532.36,164.26c-.36-.36-.81-.76-1.34-1.2-.53-.44-1.1-.89-1.69-1.36-.59-.46-1.17-.89-1.72-1.28s-1.04-.71-1.46-.95l1.08-1.42c.46.28.99.63,1.58,1.05s1.19.86,1.81,1.33c.61.46,1.19.9,1.72,1.33.53.42.96.78,1.28,1.09-.08.06-.21.19-.39.39-.18.2-.36.4-.53.6-.17.2-.29.34-.35.42ZM527.6,156.61c-.04-.06-.16-.19-.35-.38-.19-.19-.38-.38-.57-.57-.19-.19-.33-.31-.41-.35.44-.28.97-.7,1.6-1.25.62-.55,1.24-1.13,1.84-1.75.6-.61,1.07-1.15,1.42-1.61l1.42,1.15c-.36.46-.83.99-1.42,1.58s-1.19,1.17-1.81,1.75c-.62.57-1.19,1.05-1.72,1.43Z"/>
        <path class="cls-1" d="M549.75,175.44c-2.07,0-3.57-.33-4.5-.98-.93-.65-1.4-1.86-1.4-3.63v-19.77l2.14.12c-.02.32-.04.88-.08,1.69s-.06,1.71-.08,2.71c-.02.74-.04,1.56-.05,2.44,0,.88-.01,1.82-.01,2.8v9.76c0,1.1.3,1.87.9,2.3.6.43,1.66.65,3.16.65,1.2,0,2.42-.18,3.63-.54,1.21-.36,2.37-.83,3.45-1.42,1.08-.58,2.02-1.19,2.8-1.84,0,.12.03.34.08.66.05.32.1.63.15.92.05.29.09.49.11.59-.96.68-2.02,1.29-3.18,1.82s-2.34.95-3.56,1.25c-1.22.3-2.41.45-3.57.45Z"/>
        <path class="cls-1" d="M583.26,175.98c-2.07,0-3.66-.55-4.78-1.66-1.11-1.11-1.68-2.68-1.7-4.73,0-.84.06-1.97.18-3.37-1.29-.14-2.52-.31-3.71-.51s-2.14-.43-2.86-.69l.33-1.84c.64.26,1.55.5,2.71.72s2.39.39,3.68.51c.08-.86.17-1.77.26-2.71s.19-1.88.29-2.8c-1.11-.16-2.17-.33-3.19-.51-1.02-.18-1.8-.34-2.32-.48l.3-1.87c.46.16,1.19.34,2.2.53,1,.19,2.07.37,3.19.53.16-1.31.3-2.51.41-3.62.11-1.1.2-1.97.26-2.59l2.05.33c-.12.66-.26,1.53-.41,2.61-.15,1.07-.31,2.24-.47,3.51.76.08,1.46.15,2.08.2.62.05,1.12.07,1.51.04l-.27,1.87c-.36,0-.85-.03-1.48-.09-.62-.06-1.3-.13-2.02-.21-.1.92-.2,1.84-.29,2.76-.09.91-.18,1.81-.26,2.7.88.06,1.71.09,2.49.09s1.41-.02,1.91-.06l-.15,1.9c-.56.02-1.23.02-1.99,0-.76-.02-1.56-.06-2.38-.12-.02.62-.04,1.2-.08,1.73-.03.53-.05,1-.05,1.4.02,1.51.39,2.64,1.1,3.39.71.75,1.86,1.13,3.45,1.13s2.72-.39,3.59-1.18c.86-.78,1.3-1.88,1.3-3.28,0-1.19-.35-2.37-1.05-3.56-.7-1.19-1.73-2.2-3.07-3.04.28-.08.59-.21.92-.38.33-.17.58-.33.74-.47,1.49,1.02,2.6,2.2,3.33,3.53s1.1,2.64,1.1,3.95-.28,2.38-.83,3.33c-.55.95-1.34,1.7-2.37,2.23-1.02.53-2.24.8-3.65.8Z"/>
        <path class="cls-1" d="M609.89,176.83c-.2-.2-.49-.42-.87-.65-.38-.23-.71-.39-.99-.47,1.33-.86,2.52-1.94,3.59-3.22,1.06-1.28,1.91-2.71,2.55-4.26.63-1.56.95-3.17.95-4.84,0-1.31-.34-2.26-1.01-2.86-.67-.6-1.48-.9-2.43-.9-.84,0-1.76.12-2.76.36-.99.24-1.95.56-2.86.96-.91.4-1.69.83-2.33,1.3-.08-.22-.25-.52-.51-.9-.26-.38-.49-.66-.69-.84.78-.42,1.7-.84,2.74-1.27,1.04-.42,2.13-.77,3.25-1.05,1.12-.28,2.18-.42,3.16-.42s1.88.22,2.7.65c.81.43,1.47,1.07,1.96,1.9s.74,1.86.74,3.09c0,1.81-.32,3.56-.95,5.24-.63,1.69-1.49,3.24-2.56,4.64-1.07,1.41-2.3,2.59-3.66,3.56ZM614.53,154.68c-.38-.1-.93-.27-1.64-.5-.71-.23-1.48-.5-2.31-.8-.82-.3-1.59-.6-2.3-.9-.71-.3-1.25-.55-1.61-.75l.93-1.66c.32.18.81.41,1.46.68.65.27,1.37.55,2.15.84.78.29,1.53.55,2.24.78.71.23,1.28.4,1.7.5l-.63,1.81Z"/>
        <path class="cls-1" d="M641.05,176.22c-.5,0-.93-.18-1.28-.54-.35-.36-.53-.79-.53-1.3s.18-.92.53-1.27c.35-.34.78-.51,1.28-.51s.93.17,1.28.51c.35.34.53.76.53,1.27s-.18.93-.53,1.3c-.35.36-.78.54-1.28.54ZM640.17,169.45c-.02-.2-.04-.64-.06-1.33-.02-.68-.04-1.5-.06-2.44-.02-.94-.04-1.93-.06-2.97-.02-1.03-.04-2.01-.05-2.94,0-.92-.02-1.7-.03-2.32-.01-.62-.02-.99-.02-1.11v-5.27h2.32v5.27c0,.12,0,.49-.02,1.11s-.02,1.4-.03,2.32c0,.92-.03,1.9-.06,2.94s-.06,2.02-.08,2.97c-.02.94-.04,1.76-.06,2.44-.02.68-.04,1.12-.06,1.33h-1.75Z"/>
      </g>
      <g>
        <path class="cls-1" d="M425.47,294.65c0,.34-.05.59-.14.74s-.21.23-.36.23h-1.9c.34.35.58.74.72,1.17s.21.87.21,1.33c0,.77-.12,1.44-.37,2.03s-.6,1.09-1.05,1.49-1,.72-1.63.93-1.32.32-2.09.32c-.54,0-1.05-.07-1.54-.21s-.86-.32-1.13-.54c-.18.18-.32.38-.43.6s-.17.49-.17.78c0,.34.16.63.48.85s.74.35,1.27.37l3.46.15c.66.02,1.26.11,1.81.27s1.02.39,1.43.69.72.67.94,1.1.34.94.34,1.52c0,.61-.13,1.19-.38,1.74s-.64,1.03-1.17,1.45-1.19.75-2.01.99-1.78.36-2.88.36-1.98-.09-2.73-.27-1.37-.43-1.85-.74-.83-.69-1.04-1.13-.32-.91-.32-1.42c0-.32.04-.64.12-.94s.2-.59.36-.87.36-.54.6-.79.52-.5.83-.74c-.48-.25-.84-.55-1.07-.93s-.35-.77-.35-1.21c0-.6.12-1.13.37-1.6s.55-.89.91-1.27c-.3-.36-.54-.77-.72-1.23s-.26-1.01-.26-1.66c0-.76.13-1.43.38-2.03s.61-1.1,1.06-1.52.99-.73,1.63-.95,1.32-.33,2.07-.33c.4,0,.78.02,1.13.07s.67.11.98.18h4c.17,0,.29.08.38.24s.13.41.13.74ZM422.89,308.63c0-.57-.23-1.01-.7-1.32s-1.1-.47-1.89-.49l-3.43-.12c-.31.25-.57.48-.77.7s-.36.43-.48.63-.2.4-.24.6-.07.4-.07.6c0,.64.32,1.12.97,1.45s1.55.49,2.71.49c.74,0,1.35-.07,1.85-.21s.9-.33,1.2-.57.52-.51.65-.81.2-.62.2-.96ZM421.67,298.14c0-.9-.25-1.61-.74-2.11s-1.2-.76-2.11-.76c-.47,0-.88.08-1.23.24s-.64.37-.87.65-.4.59-.51.95-.17.73-.17,1.13c0,.87.25,1.56.74,2.06s1.19.75,2.08.75c.48,0,.9-.08,1.25-.23s.64-.36.88-.63.4-.58.51-.93.17-.72.17-1.1Z"/>
        <path class="cls-1" d="M439.93,307.29c0,.08-.02.14-.05.2s-.1.1-.18.14-.2.07-.35.09-.32.03-.52.03c-.23,0-.41,0-.55-.03s-.26-.05-.34-.09-.14-.09-.17-.14-.04-.12-.04-.2v-1.75c-.76.83-1.5,1.44-2.24,1.82s-1.48.57-2.24.57c-.88,0-1.63-.15-2.23-.44s-1.09-.69-1.46-1.2-.64-1.09-.8-1.77-.24-1.49-.24-2.45v-8.03c0-.08.02-.14.05-.2s.1-.1.2-.15.23-.07.38-.09.35-.02.59-.02.43,0,.59.02.28.04.38.09.16.09.2.15.06.12.06.2v7.71c0,.77.06,1.4.17,1.86s.28.86.51,1.19.52.58.88.77.77.27,1.24.27c.61,0,1.21-.22,1.82-.65s1.24-1.06,1.92-1.9v-9.25c0-.08.02-.14.05-.2s.1-.1.2-.15.22-.07.38-.09.35-.02.6-.02.43,0,.59.02.28.04.37.09.15.09.2.15.07.12.07.2v13.24Z"/>
        <path class="cls-1" d="M447.12,289.57c0,.57-.11.96-.32,1.16s-.61.31-1.19.31-.96-.1-1.17-.3-.32-.58-.32-1.14.11-.96.32-1.16.61-.31,1.19-.31.96.1,1.17.3.32.58.32,1.14ZM446.84,307.29c0,.08-.02.14-.06.2s-.1.1-.19.14-.21.07-.37.09-.36.03-.6.03-.43,0-.59-.03-.28-.05-.38-.09-.16-.09-.19-.14-.05-.12-.05-.2v-13.24c0-.07.02-.13.05-.19s.1-.11.19-.15.22-.07.38-.09.35-.03.59-.03.45,0,.6.03.28.05.37.09.15.09.19.15.06.12.06.19v13.24Z"/>
        <path class="cls-1" d="M462.68,307.29c0,.08-.02.15-.05.21s-.09.11-.18.14-.19.06-.33.08-.3.03-.5.03c-.21,0-.38,0-.51-.03s-.25-.05-.34-.08-.15-.08-.19-.14-.06-.13-.06-.21v-1.75c-.7.76-1.42,1.34-2.17,1.77s-1.57.63-2.46.63c-.97,0-1.8-.19-2.49-.57s-1.24-.89-1.67-1.53-.74-1.4-.93-2.27-.29-1.78-.29-2.74c0-1.14.12-2.17.37-3.08s.61-1.7,1.09-2.35,1.08-1.15,1.79-1.49,1.53-.52,2.46-.52c.77,0,1.48.17,2.13.51s1.28.84,1.91,1.49v-7.69c0-.07.02-.13.05-.2s.1-.11.2-.15.22-.06.38-.09.35-.04.58-.04.45.01.6.04.28.05.37.09.15.08.2.15.07.13.07.2v19.6ZM460.23,297.97c-.66-.81-1.29-1.43-1.91-1.86s-1.25-.64-1.92-.64c-.62,0-1.14.15-1.57.44s-.78.68-1.05,1.16-.47,1.02-.59,1.63-.18,1.23-.18,1.85c0,.67.05,1.32.15,1.96s.28,1.2.54,1.7.59.89,1.02,1.19.95.45,1.59.45c.32,0,.64-.04.93-.13s.61-.24.92-.44.64-.47.99-.8.71-.73,1.09-1.21v-5.3Z"/>
        <path class="cls-1" d="M478.46,300.09c0,.38-.1.65-.29.82s-.41.24-.66.24h-8.72c0,.74.07,1.4.22,1.99s.39,1.09.74,1.52c.34.42.79.75,1.35.97.55.23,1.23.34,2.03.34.63,0,1.19-.05,1.68-.15s.92-.22,1.28-.35.66-.24.89-.35c.23-.1.41-.15.53-.15.07,0,.13.02.18.05.05.03.1.09.13.15s.05.16.07.29.02.27.02.45c0,.13,0,.24-.01.33s-.02.18-.04.25-.04.14-.07.2-.08.12-.13.17-.21.14-.48.26-.61.24-1.03.36-.91.22-1.46.32-1.15.14-1.77.14c-1.09,0-2.04-.15-2.86-.46s-1.51-.76-2.07-1.35-.98-1.35-1.27-2.25-.43-1.95-.43-3.15.15-2.16.44-3.07.72-1.68,1.27-2.31,1.22-1.12,2.01-1.46,1.66-.51,2.63-.51c1.04,0,1.92.17,2.66.5s1.33.78,1.8,1.35.82,1.23,1.04,1.99.33,1.57.33,2.43v.44ZM476.02,299.37c.03-1.28-.25-2.28-.85-3-.6-.73-1.48-1.09-2.66-1.09-.6,0-1.13.11-1.58.34s-.83.52-1.14.9c-.31.37-.54.81-.71,1.3s-.26,1.01-.28,1.55h7.22Z"/>
        <path class="cls-1" d="M484.58,307.29c0,.08-.02.14-.06.2s-.1.1-.19.14-.21.07-.37.09-.36.03-.6.03-.43,0-.59-.03-.28-.05-.38-.09-.16-.09-.19-.14-.05-.12-.05-.2v-19.66c0-.08.02-.15.05-.21s.1-.11.19-.15.22-.07.38-.09.35-.03.59-.03.45,0,.6.03.28.05.37.09.15.09.19.15.06.13.06.21v19.66Z"/>
        <path class="cls-1" d="M491.78,289.57c0,.57-.11.96-.32,1.16s-.61.31-1.19.31-.96-.1-1.17-.3-.32-.58-.32-1.14.11-.96.32-1.16.61-.31,1.19-.31.96.1,1.17.3.32.58.32,1.14ZM491.5,307.29c0,.08-.02.14-.06.2s-.1.1-.19.14-.21.07-.37.09-.36.03-.6.03-.43,0-.59-.03-.28-.05-.38-.09-.16-.09-.19-.14-.05-.12-.05-.2v-13.24c0-.07.02-.13.05-.19s.1-.11.19-.15.22-.07.38-.09.35-.03.59-.03.45,0,.6.03.28.05.37.09.15.09.19.15.06.12.06.19v13.24Z"/>
        <path class="cls-1" d="M507.39,307.29c0,.08-.02.14-.06.2s-.1.1-.19.14-.21.07-.37.09-.35.03-.59.03-.45,0-.6-.03-.28-.05-.37-.09-.15-.09-.19-.14-.06-.12-.06-.2v-7.75c0-.76-.06-1.36-.18-1.82s-.29-.86-.51-1.19-.52-.59-.88-.77-.77-.26-1.24-.26c-.61,0-1.22.22-1.82.65s-1.25,1.06-1.91,1.9v9.25c0,.08-.02.14-.06.2s-.1.1-.19.14-.21.07-.37.09-.36.03-.6.03-.43,0-.59-.03-.28-.05-.38-.09-.16-.09-.19-.14-.05-.12-.05-.2v-13.24c0-.08.01-.14.04-.2s.09-.1.18-.15.2-.07.34-.09.32-.02.54-.02.39,0,.54.02.25.04.33.09.13.09.17.15.05.12.05.2v1.75c.75-.83,1.49-1.44,2.23-1.83s1.49-.58,2.24-.58c.88,0,1.63.15,2.23.45s1.09.7,1.46,1.2.64,1.09.8,1.76.24,1.48.24,2.42v8.08Z"/>
        <path class="cls-1" d="M523.11,300.09c0,.38-.1.65-.29.82s-.41.24-.66.24h-8.72c0,.74.07,1.4.22,1.99s.39,1.09.74,1.52c.34.42.79.75,1.35.97.55.23,1.23.34,2.03.34.63,0,1.19-.05,1.68-.15s.92-.22,1.28-.35.66-.24.89-.35c.23-.1.41-.15.53-.15.07,0,.13.02.18.05.05.03.1.09.13.15s.05.16.07.29.02.27.02.45c0,.13,0,.24-.01.33s-.02.18-.04.25-.04.14-.07.2-.08.12-.13.17-.21.14-.48.26-.61.24-1.03.36-.91.22-1.46.32-1.15.14-1.77.14c-1.09,0-2.04-.15-2.86-.46s-1.51-.76-2.07-1.35-.98-1.35-1.27-2.25-.43-1.95-.43-3.15.15-2.16.44-3.07.72-1.68,1.27-2.31,1.22-1.12,2.01-1.46,1.66-.51,2.63-.51c1.04,0,1.92.17,2.66.5s1.33.78,1.8,1.35.82,1.23,1.04,1.99.33,1.57.33,2.43v.44ZM520.67,299.37c.03-1.28-.25-2.28-.85-3-.6-.73-1.48-1.09-2.66-1.09-.6,0-1.13.11-1.58.34s-.83.52-1.14.9c-.31.37-.54.81-.71,1.3s-.26,1.01-.28,1.55h7.22Z"/>
        <path class="cls-1" d="M535.12,303.68c0,.68-.13,1.28-.38,1.81s-.61.98-1.07,1.34-1.01.64-1.65.82-1.34.28-2.1.28c-.47,0-.92-.04-1.35-.11s-.81-.17-1.15-.28-.63-.23-.86-.35-.41-.23-.51-.33-.19-.24-.24-.41-.07-.42-.07-.72c0-.19,0-.34.03-.47s.04-.23.07-.31.07-.13.13-.17.12-.05.18-.05c.11,0,.27.07.48.2s.47.28.78.43.67.3,1.1.43.91.2,1.46.2c.41,0,.78-.04,1.12-.13s.62-.22.87-.39.43-.39.57-.65.2-.58.2-.94-.1-.69-.29-.94-.44-.48-.76-.68-.67-.37-1.06-.52-.8-.31-1.21-.48-.82-.36-1.22-.57-.75-.47-1.07-.77-.57-.67-.76-1.09-.29-.93-.29-1.52c0-.52.1-1.02.3-1.49s.5-.89.9-1.25.9-.64,1.51-.86,1.31-.32,2.11-.32c.35,0,.71.03,1.06.09s.67.13.96.22.53.18.73.29.35.19.46.27.17.15.21.21.06.13.07.2.03.16.04.27.02.24.02.4c0,.17,0,.31-.02.43s-.04.22-.07.3-.08.13-.13.17-.1.05-.16.05c-.09,0-.22-.05-.38-.16s-.38-.22-.65-.35-.58-.24-.93-.35-.77-.16-1.23-.16c-.41,0-.77.05-1.09.14s-.57.23-.77.4-.35.38-.46.61-.15.49-.15.77c0,.38.1.7.29.96s.45.49.77.68.67.37,1.07.53.81.32,1.23.49.83.35,1.24.56.77.46,1.08.75.57.65.76,1.06.29.9.29,1.47Z"/>
      </g>
    </g>
  </g>
  <g>
    <g>
      <path class="cls-3" d="M849.52,431.7l-38.72,2.87c-1.09.08-2.1.33-3.04.7l-78.32-102.46c-4.11-5.37-12.5-4.22-15.01,2.06l-48.74,122.18c-2.47,6.2,2.66,12.76,9.27,11.85l128.63-17.67s.01,0,.02,0l21.35,31.37c4.42,6.5,14.22,5.77,17.64-1.31l16.87-34.97c3.42-7.08-2.11-15.2-9.95-14.62Z"/>
      <ellipse class="cls-6" cx="695.1" cy="398.34" rx="75.38" ry="24.28" transform="translate(79.44 910.97) rotate(-69.6)"/>
    </g>
    <path class="cls-4" d="M694.88,389.53l-31.05-73.31c-.92-1.45-2.13-2.71-3.53-3.76,56.8-50.99,75.42-119.51,40.07-171.71-42.22-62.34-146.59-79.49-241.06-42.46-82.28-31.51-170.72-22.14-214.44,27.81-53.14,60.71-20.09,158.35,73.82,218.09,74.55,47.42,165.03,56.7,225.76,28.15,2.51-.62,5.01-1.27,7.51-1.96l125.56,40.44c14.19,5.96,24.9-9.43,17.36-21.28Z"/>
    <g>
      <g>
        <path class="cls-5" d="M370.9,222.42h8.5c.72,0,1.23-.14,1.51-.42.12.24.18.5.18.78v36.16c0,.56-.15,1.21-.45,1.93-.3.72-.65,1.24-1.05,1.57l-1.51,1.57c-.36.44-.89.8-1.6,1.08-.7.28-1.36.42-1.96.42h-7.83c-.56,0-1.05-.21-1.48-.63s-.63-.91-.63-1.48v-1.33c0-.6.21-1.11.63-1.51.42-.4.91-.6,1.48-.6h6.75c.56,0,1.04-.2,1.45-.6.4-.4.6-.9.6-1.51v-29.35c0-.56-.2-1.04-.6-1.45-.4-.4-.88-.6-1.45-.6h-11.87c-.64,0-1.2.19-1.66.57-.46.38-.73.89-.81,1.54l-5.66,34.83c-.08.64-.35,1.15-.81,1.54-.46.38-1.02.57-1.66.57h-6.03c-.64,0-1.16-.19-1.54-.57-.38-.38-.57-.89-.57-1.54v-1.39c0-.64.19-1.16.57-1.54.38-.38.89-.57,1.54-.57h1.27c.64,0,1.19-.19,1.66-.57.46-.38.73-.89.81-1.54l4.76-29.23v-.36c0-.48-.13-.89-.39-1.24-.26-.34-.71-.51-1.36-.51h-5.24c-.64,0-1.16-.19-1.54-.57-.38-.38-.57-.89-.57-1.54v-1.39c0-.64.19-1.15.57-1.54s.89-.57,1.54-.57h6.15c.64,0,1.19-.19,1.66-.57.46-.38.73-.89.81-1.54l.54-3.56c.08-.64.35-1.15.81-1.54.46-.38,1.01-.57,1.66-.57h1.45c.64,0,1.09.17,1.36.51.26.34.39.75.39,1.24v.36l-.54,3.56v.36c0,.48.13.89.39,1.24.26.34.71.51,1.36.51h6.21c.32,1.05,1.06,1.57,2.23,1.57ZM370.78,220.25c-.36-.36-.54-.84-.54-1.45v-3.56c0-.6.18-1.08.54-1.45s.84-.54,1.45-.54c1.29,0,1.93.66,1.93,1.99v3.56c0,1.33-.64,1.99-1.93,1.99-.6,0-1.08-.18-1.45-.54ZM376.14,218.8v-3.56c0-1.33.64-1.99,1.93-1.99.6,0,1.08.18,1.45.54s.54.84.54,1.45v3.56c0,.6-.18,1.08-.54,1.45s-.84.54-1.45.54c-1.29,0-1.93-.66-1.93-1.99Z"/>
        <path class="cls-5" d="M405.79,237.12c0-.8-.32-1.21-.96-1.21-.32,0-.62.08-.9.24l-15.13,8.5c-.2.12-.38.19-.54.21-.16.02-.3.03-.42.03-.24,0-.51-.15-.81-.45-.3-.3-.45-.75-.45-1.36v-2.11c0-.64.19-1.16.57-1.57.38-.4.91-.8,1.6-1.21l27.72-15.07c.64-.36,1.16-.74,1.57-1.15.4-.4.6-.92.6-1.57v-4.7c0-.68.19-1.21.57-1.57.38-.36.89-.54,1.54-.54h1.27c.72,0,1.27.19,1.63.57.36.38.54.89.54,1.54v4.7c0,1.29-.36,2.55-1.08,3.8-.72,1.25-1.69,2.21-2.89,2.89l-6.87,3.86c-.68.36-1.17.81-1.45,1.36-.28.54-.42,1.14-.42,1.78v29.29c0,.68-.2,1.21-.6,1.57-.4.36-.92.54-1.57.54h-1.33c-.72,0-1.27-.19-1.63-.57-.36-.38-.54-.89-.54-1.54v-26.27Z"/>
        <path class="cls-5" d="M435.23,264.99c-.42-.42-.63-.91-.63-1.48v-48.45c0-.56.21-1.04.63-1.45.42-.4.91-.6,1.48-.6h1.33c.6,0,1.11.2,1.54.6.42.4.63.88.63,1.45v48.45c0,.56-.21,1.05-.63,1.48s-.93.63-1.54.63h-1.33c-.56,0-1.05-.21-1.48-.63ZM442.19,227.24c0-.6.4-.9,1.21-.9h2.41c.56,0,1.18.17,1.84.51.66.34,1.15.75,1.48,1.24l11.87,18.56c.4.64.85,1.17,1.36,1.57.5.4,1.07.6,1.72.6.56,0,.99.22,1.3.66.3.44.45,1,.45,1.69v1.75c0,.6-.2,1.11-.6,1.54-.4.42-.88.63-1.45.63h-1.93c-.56,0-1.16-.18-1.78-.54-.62-.36-1.1-.78-1.42-1.27l-16.15-25.19c-.2-.28-.3-.56-.3-.84ZM458.52,220.25c-.36-.36-.54-.84-.54-1.45v-3.56c0-.6.18-1.08.54-1.45.36-.36.84-.54,1.45-.54,1.28,0,1.93.66,1.93,1.99v3.56c0,1.33-.64,1.99-1.93,1.99-.6,0-1.08-.18-1.45-.54ZM463.89,218.8v-3.56c0-1.33.64-1.99,1.93-1.99.6,0,1.08.18,1.45.54s.54.84.54,1.45v3.56c0,.6-.18,1.08-.54,1.45s-.84.54-1.45.54c-1.29,0-1.93-.66-1.93-1.99Z"/>
        <path class="cls-5" d="M481.48,262.01c0-.6.2-1.11.6-1.51.4-.4.88-.6,1.45-.6h8.26c.64,0,1.23-.15,1.75-.45s.94-.79,1.27-1.48l10.43-22.3c.08-.2.13-.37.15-.51.02-.14.03-.27.03-.39,0-.68-.46-1.02-1.39-1.02h-27.18c-.68,0-1.21-.19-1.57-.57-.36-.38-.54-.89-.54-1.54v-1.39c0-.68.19-1.21.57-1.57.38-.36.89-.54,1.54-.54h33.63c.68,0,1.21.19,1.57.57.36.38.54.89.54,1.54,0,1.17-.08,2.11-.24,2.83-.16.72-.38,1.39-.66,1.99l-11.69,25.25c-.6,1.24-1.51,2.27-2.71,3.07l-1.51.96c-.68.44-1.35.74-1.99.9-.64.16-1.29.24-1.93.24h-8.32c-.56,0-1.05-.21-1.45-.63-.4-.42-.6-.91-.6-1.48v-1.39ZM477.26,218.35c-.4-.42-.6-.91-.6-1.48v-1.39c0-.6.2-1.1.6-1.51.4-.4.88-.6,1.45-.6h29.95c.6,0,1.11.2,1.54.6.42.4.63.9.63,1.51v1.39c0,.56-.21,1.05-.63,1.48s-.93.63-1.54.63h-29.95c-.56,0-1.04-.21-1.45-.63Z"/>
        <path class="cls-5" d="M537.41,237.12c0-.8-.32-1.21-.96-1.21-.32,0-.62.08-.9.24l-15.13,8.5c-.2.12-.38.19-.54.21-.16.02-.3.03-.42.03-.24,0-.51-.15-.81-.45-.3-.3-.45-.75-.45-1.36v-2.11c0-.64.19-1.16.57-1.57.38-.4.91-.8,1.6-1.21l27.72-15.07c.64-.36,1.16-.74,1.57-1.15.4-.4.6-.92.6-1.57v-4.7c0-.68.19-1.21.57-1.57.38-.36.89-.54,1.54-.54h1.27c.72,0,1.27.19,1.63.57.36.38.54.89.54,1.54v4.7c0,1.29-.36,2.55-1.08,3.8-.72,1.25-1.69,2.21-2.89,2.89l-6.87,3.86c-.68.36-1.17.81-1.45,1.36-.28.54-.42,1.14-.42,1.78v29.29c0,.68-.2,1.21-.6,1.57-.4.36-.93.54-1.57.54h-1.33c-.72,0-1.27-.19-1.63-.57-.36-.38-.54-.89-.54-1.54v-26.27Z"/>
        <path class="cls-5" d="M562.66,264.87c-.4-.42-.6-.91-.6-1.48v-1.39c0-.6.2-1.11.6-1.51.4-.4.88-.6,1.45-.6h11.69c.64,0,1.24-.14,1.81-.42.56-.28,1.04-.74,1.45-1.39l14.52-23.38c.8-1.21,1.87-1.81,3.19-1.81h2.17c.84,0,1.27.28,1.27.84,0,.16-.1.48-.3.96l-17.72,28.99c-.76,1.21-1.83,1.81-3.19,1.81h-14.89c-.56,0-1.05-.21-1.45-.63ZM563.44,214.89c-.2-.32-.3-.64-.3-.96,0-.12.06-.3.18-.54.08-.24.46-.36,1.14-.36h2.17c1.37,0,2.41.62,3.13,1.87l5.85,9.94c.8,1.29,1.87,1.93,3.19,1.93h4.88c.68,0,1.2.19,1.57.57.36.38.54.89.54,1.54v1.33c0,.68-.19,1.21-.57,1.57-.38.36-.9.54-1.54.54h-8.14c-.64,0-1.24-.14-1.78-.42-.54-.28-1.02-.76-1.42-1.45l-8.92-15.55Z"/>
      </g>
      <g>
        <path class="cls-5" d="M297.79,173.54c-.06-.1-.18-.26-.36-.47s-.37-.42-.56-.63c-.19-.21-.35-.36-.47-.44,2.17-1.16,3.83-2.53,4.99-4.08,1.15-1.56,1.88-3.32,2.18-5.29.3-1.97.27-4.14-.09-6.51l1.87-.18c.62,3.98.36,7.4-.8,10.27-1.16,2.87-3.41,5.31-6.76,7.32ZM311.02,172.28l-1.08-.87c.02-.3.03-.83.05-1.58,0-.75.01-1.6.01-2.55v-5.03c0-.74,0-1.57-.01-2.49-.01-.91-.02-1.8-.02-2.67s-.01-1.58-.03-2.14h2.02c0,.3,0,.75-.02,1.34-.01.59-.02,1.25-.03,1.97-.01.72-.02,1.43-.02,2.12v9.36c.84-.36,1.8-.82,2.88-1.39,1.07-.56,2.15-1.16,3.24-1.81,1.08-.64,2.07-1.26,2.95-1.85s1.55-1.11,1.99-1.55c0,.14.03.37.11.68.07.31.15.61.24.89.09.28.15.46.17.54-.52.44-1.19.92-1.99,1.45-.8.52-1.68,1.06-2.64,1.61-.95.55-1.91,1.08-2.88,1.6-.96.51-1.87.97-2.73,1.39-.85.41-1.59.74-2.21.98Z"/>
        <path class="cls-5" d="M327.59,164.5v-1.96c.7,0,1.7,0,2.98.01,1.29.01,2.73.02,4.34.03,1.61.01,3.26.02,4.97.02h4.94c1.59,0,3,0,4.25-.02,1.25,0,2.19-.02,2.83-.04v1.96c-.66-.02-1.61-.04-2.85-.04s-2.63-.02-4.19-.03c-1.56,0-3.17-.02-4.85-.02s-3.31,0-4.91.02c-1.6.01-3.05.02-4.35.03-1.31,0-2.36.03-3.16.04Z"/>
        <path class="cls-5" d="M358.05,173.54c-.06-.1-.18-.26-.36-.47s-.37-.42-.56-.63c-.19-.21-.35-.36-.47-.44,2.17-1.16,3.83-2.53,4.99-4.08,1.15-1.56,1.88-3.32,2.18-5.29.3-1.97.27-4.14-.09-6.51l1.87-.18c.62,3.98.36,7.4-.8,10.27-1.16,2.87-3.41,5.31-6.76,7.32ZM371.28,172.28l-1.08-.87c.02-.3.03-.83.05-1.58,0-.75.01-1.6.01-2.55v-5.03c0-.74,0-1.57-.01-2.49-.01-.91-.02-1.8-.02-2.67s-.01-1.58-.03-2.14h2.02c0,.3,0,.75-.02,1.34-.01.59-.02,1.25-.03,1.97-.01.72-.02,1.43-.02,2.12v9.36c.84-.36,1.8-.82,2.88-1.39,1.07-.56,2.15-1.16,3.24-1.81,1.08-.64,2.07-1.26,2.95-1.85s1.55-1.11,1.99-1.55c0,.14.03.37.11.68.07.31.15.61.24.89.09.28.15.46.17.54-.52.44-1.19.92-1.99,1.45-.8.52-1.68,1.06-2.64,1.61-.95.55-1.91,1.08-2.88,1.6-.96.51-1.87.97-2.73,1.39-.85.41-1.59.74-2.21.98Z"/>
        <path class="cls-5" d="M402.11,175.95c-1.45,0-2.74-.15-3.87-.45-1.14-.3-2.03-.76-2.7-1.37-.66-.61-.99-1.4-.99-2.37,0-.84.3-1.63.89-2.37.59-.73,1.39-1.41,2.38-2.03.99-.62,2.09-1.19,3.3-1.69v-.39c0-1.13-.19-1.89-.57-2.29-.38-.4-.9-.61-1.57-.63-1.1-.06-2.26.14-3.46.59-1.21.45-2.23,1.13-3.07,2.03-.38.42-.76.82-1.13,1.19-.37.37-.74.73-1.1,1.07l-1.45-1.45c1.49-1.08,2.86-2.42,4.11-3.99s2.28-3.19,3.09-4.84c-1.35.08-2.57.13-3.68.15-1.11.02-1.92.02-2.44,0l-.09-1.93c.62.06,1.58.09,2.86.09s2.67-.04,4.16-.12c.3-.76.54-1.52.71-2.26.17-.74.26-1.44.26-2.08l1.99.12c-.04.68-.14,1.36-.29,2.03-.15.67-.34,1.36-.56,2.06,1.61-.1,3.12-.23,4.53-.39s2.49-.34,3.21-.54l.18,1.84c-.56.12-1.31.24-2.23.35-.92.11-1.93.21-3.03.3-1.1.09-2.21.18-3.36.26-.36.8-.81,1.64-1.34,2.5-.53.86-1.09,1.68-1.67,2.44.58-.36,1.26-.63,2.02-.81s1.46-.27,2.08-.27c2.35,0,3.59,1.42,3.71,4.25,1.25-.46,2.49-.87,3.74-1.22,1.25-.35,2.36-.64,3.34-.86l.57,1.81c-1.35.22-2.67.51-3.96.86-1.3.35-2.52.75-3.66,1.19v4.28h-1.9v-3.53c-1.39.62-2.51,1.3-3.37,2.02-.86.72-1.3,1.43-1.3,2.11,0,.84.5,1.47,1.51,1.87,1,.4,2.34.6,4.01.6.92,0,1.94-.08,3.06-.24s2.16-.39,3.15-.69c-.02.1-.02.28.02.54.03.26.06.52.11.78.02.16.03.3.05.41,0,.11.02.2.02.26-1.02.26-2.08.46-3.16.6s-2.11.21-3.07.21Z"/>
        <path class="cls-5" d="M433.11,176.83h-.63c-.32,0-.68,0-1.07-.01-.39-.01-.74-.01-1.05-.01h-.62c-.04-.28-.11-.63-.2-1.04-.09-.41-.19-.72-.29-.92h3.5c.42,0,.72-.08.9-.24.18-.16.27-.43.27-.81v-9.64h-17.15v-1.84h17.15v-4.91h1.99v4.91h7.59v1.84h-7.59v10.15c0,1.69-.93,2.53-2.8,2.53ZM417.56,160.1v-6.39h11.48v-3.68h2.08v3.68h11.57v6.36h-1.93v-4.58h-21.24v4.61h-1.96ZM426.78,171.86c-.28-.5-.63-1.07-1.05-1.7s-.86-1.26-1.33-1.88c-.46-.62-.89-1.16-1.3-1.63l1.66-1.05c.44.46.89.99,1.34,1.6s.89,1.21,1.31,1.81c.42.6.78,1.15,1.09,1.66-.1.04-.28.15-.53.33-.25.18-.49.36-.72.53-.23.17-.39.29-.47.35Z"/>
        <path class="cls-5" d="M458.6,173.84c-.08-.26-.19-.55-.33-.87s-.29-.59-.45-.81c1.91-.22,3.58-.56,5-1.01s2.53-1.06,3.31-1.82c.78-.76,1.15-1.7,1.11-2.8-.08-2.35-1.86-3.46-5.33-3.31-.64.02-1.43.11-2.35.26-.92.15-1.88.34-2.88.56-.99.22-1.93.45-2.82.69-.88.24-1.61.47-2.17.69-.02-.04-.09-.2-.2-.47-.11-.27-.23-.54-.35-.81-.12-.27-.2-.43-.24-.47.58-.14,1.35-.32,2.29-.53.94-.21,1.95-.43,3.01-.65,1.07-.22,2.1-.41,3.1-.57s1.85-.25,2.53-.27c2.33-.1,4.08.27,5.26,1.11,1.17.84,1.79,2.08,1.85,3.71.06,1.43-.34,2.63-1.21,3.62s-2.08,1.78-3.66,2.38-3.41,1.07-5.5,1.39Z"/>
        <path class="cls-5" d="M497.5,175.44c-1.91-.22-3.61-.81-5.11-1.76-1.5-.95-2.67-2.17-3.51-3.65-.84-1.48-1.27-3.11-1.27-4.9,0-1.02.19-2.11.57-3.27.38-1.15.96-2.28,1.75-3.37.78-1.1,1.79-2.04,3.01-2.85-1.29.22-2.61.46-3.98.71-1.37.25-2.68.49-3.95.72-1.27.23-2.4.45-3.4.65-1.01.2-1.8.37-2.38.51l-.51-2.14c.66-.06,1.56-.17,2.68-.33,1.12-.16,2.38-.35,3.77-.57,1.39-.22,2.81-.46,4.28-.71s2.89-.51,4.28-.77,2.64-.51,3.77-.74c1.12-.23,2.02-.43,2.68-.59l.51,2.02c-.26.02-.59.06-.98.12-.39.06-.84.14-1.34.24-1.21.18-2.34.59-3.41,1.24-1.07.64-2,1.44-2.8,2.4-.8.95-1.43,2.01-1.88,3.16s-.68,2.35-.68,3.57c0,1.65.41,3.06,1.24,4.23.82,1.17,1.92,2.1,3.28,2.79,1.37.68,2.86,1.12,4.49,1.33-.22.26-.44.58-.66.96-.22.38-.37.71-.45.99Z"/>
        <path class="cls-5" d="M519.56,177.16v-8.44c-.72.74-1.57,1.48-2.53,2.2-.96.72-1.98,1.41-3.06,2.05-1.07.64-2.14,1.22-3.19,1.72-1.05.5-2.03.9-2.94,1.21-.04-.1-.13-.25-.27-.45-.14-.2-.29-.41-.44-.62s-.28-.36-.38-.44c1.25-.36,2.57-.89,3.98-1.6s2.78-1.5,4.11-2.38c1.34-.88,2.5-1.78,3.48-2.68h-11v-1.63h12.23v-2.11h-3.89v-11.21h2.5c.2-.38.43-.88.68-1.49.25-.61.45-1.17.59-1.67l1.99.27c-.08.32-.26.77-.53,1.36s-.52,1.1-.74,1.54h5.09v11.21h-3.77v2.11h12.23v1.63h-11.06c.96.88,2.09,1.76,3.39,2.62,1.3.86,2.66,1.64,4.08,2.34,1.43.69,2.79,1.24,4.1,1.64-.08.08-.2.23-.36.45-.16.22-.31.44-.45.65-.14.21-.24.37-.3.47-.9-.3-1.88-.7-2.92-1.21s-2.1-1.07-3.16-1.7c-1.07-.63-2.07-1.31-3.03-2.03-.95-.72-1.79-1.46-2.52-2.2v8.41h-1.93ZM508.32,164.38l-1.05-1.57c.46-.22,1-.52,1.63-.9s1.26-.79,1.91-1.24c.65-.44,1.27-.88,1.84-1.33.57-.44,1.04-.83,1.4-1.17.02.08.07.25.14.5s.14.49.21.72c.07.23.11.4.11.5-.48.42-1.1.91-1.84,1.48-.74.56-1.51,1.11-2.29,1.64-.78.53-1.47.99-2.05,1.37ZM512.81,157c-.32-.4-.77-.89-1.34-1.48-.57-.58-1.16-1.15-1.78-1.72-.61-.56-1.15-1.01-1.61-1.36l1.36-1.24c.52.4,1.09.89,1.7,1.48.61.58,1.19,1.15,1.73,1.7.54.55.97,1.01,1.3,1.37-.06.04-.19.15-.38.33-.19.18-.38.36-.57.53-.19.17-.33.3-.41.38ZM517.51,157.57h5.91v-3.13h-5.91v3.13ZM517.51,162.33h5.91v-3.22h-5.91v3.22ZM532.36,164.26c-.36-.36-.81-.76-1.34-1.2-.53-.44-1.1-.89-1.69-1.36-.59-.46-1.17-.89-1.72-1.28s-1.04-.71-1.46-.95l1.08-1.42c.46.28.99.63,1.58,1.05s1.19.86,1.81,1.33c.61.46,1.19.9,1.72,1.33.53.42.96.78,1.28,1.09-.08.06-.21.19-.39.39-.18.2-.36.4-.53.6-.17.2-.29.34-.35.42ZM527.6,156.61c-.04-.06-.16-.19-.35-.38-.19-.19-.38-.38-.57-.57-.19-.19-.33-.31-.41-.35.44-.28.97-.7,1.6-1.25.62-.55,1.24-1.13,1.84-1.75.6-.61,1.07-1.15,1.42-1.61l1.42,1.15c-.36.46-.83.99-1.42,1.58s-1.19,1.17-1.81,1.75c-.62.57-1.19,1.05-1.72,1.43Z"/>
        <path class="cls-5" d="M549.75,175.44c-2.07,0-3.57-.33-4.5-.98-.93-.65-1.4-1.86-1.4-3.63v-19.77l2.14.12c-.02.32-.04.88-.08,1.69s-.06,1.71-.08,2.71c-.02.74-.04,1.56-.05,2.44,0,.88-.01,1.82-.01,2.8v9.76c0,1.1.3,1.87.9,2.3.6.43,1.66.65,3.16.65,1.2,0,2.42-.18,3.63-.54,1.21-.36,2.37-.83,3.45-1.42,1.08-.58,2.02-1.19,2.8-1.84,0,.12.03.34.08.66.05.32.1.63.15.92.05.29.09.49.11.59-.96.68-2.02,1.29-3.18,1.82s-2.34.95-3.56,1.25c-1.22.3-2.41.45-3.57.45Z"/>
        <path class="cls-5" d="M583.26,175.98c-2.07,0-3.66-.55-4.78-1.66-1.11-1.11-1.68-2.68-1.7-4.73,0-.84.06-1.97.18-3.37-1.29-.14-2.52-.31-3.71-.51s-2.14-.43-2.86-.69l.33-1.84c.64.26,1.55.5,2.71.72s2.39.39,3.68.51c.08-.86.17-1.77.26-2.71s.19-1.88.29-2.8c-1.11-.16-2.17-.33-3.19-.51-1.02-.18-1.8-.34-2.32-.48l.3-1.87c.46.16,1.19.34,2.2.53,1,.19,2.07.37,3.19.53.16-1.31.3-2.51.41-3.62.11-1.1.2-1.97.26-2.59l2.05.33c-.12.66-.26,1.53-.41,2.61-.15,1.07-.31,2.24-.47,3.51.76.08,1.46.15,2.08.2.62.05,1.12.07,1.51.04l-.27,1.87c-.36,0-.85-.03-1.48-.09-.62-.06-1.3-.13-2.02-.21-.1.92-.2,1.84-.29,2.76-.09.91-.18,1.81-.26,2.7.88.06,1.71.09,2.49.09s1.41-.02,1.91-.06l-.15,1.9c-.56.02-1.23.02-1.99,0-.76-.02-1.56-.06-2.38-.12-.02.62-.04,1.2-.08,1.73-.03.53-.05,1-.05,1.4.02,1.51.39,2.64,1.1,3.39.71.75,1.86,1.13,3.45,1.13s2.72-.39,3.59-1.18c.86-.78,1.3-1.88,1.3-3.28,0-1.19-.35-2.37-1.05-3.56-.7-1.19-1.73-2.2-3.07-3.04.28-.08.59-.21.92-.38.33-.17.58-.33.74-.47,1.49,1.02,2.6,2.2,3.33,3.53s1.1,2.64,1.1,3.95-.28,2.38-.83,3.33c-.55.95-1.34,1.7-2.37,2.23-1.02.53-2.24.8-3.65.8Z"/>
        <path class="cls-5" d="M609.89,176.83c-.2-.2-.49-.42-.87-.65-.38-.23-.71-.39-.99-.47,1.33-.86,2.52-1.94,3.59-3.22,1.06-1.28,1.91-2.71,2.55-4.26.63-1.56.95-3.17.95-4.84,0-1.31-.34-2.26-1.01-2.86-.67-.6-1.48-.9-2.43-.9-.84,0-1.76.12-2.76.36-.99.24-1.95.56-2.86.96-.91.4-1.69.83-2.33,1.3-.08-.22-.25-.52-.51-.9-.26-.38-.49-.66-.69-.84.78-.42,1.7-.84,2.74-1.27,1.04-.42,2.13-.77,3.25-1.05,1.12-.28,2.18-.42,3.16-.42s1.88.22,2.7.65c.81.43,1.47,1.07,1.96,1.9s.74,1.86.74,3.09c0,1.81-.32,3.56-.95,5.24-.63,1.69-1.49,3.24-2.56,4.64-1.07,1.41-2.3,2.59-3.66,3.56ZM614.53,154.68c-.38-.1-.93-.27-1.64-.5-.71-.23-1.48-.5-2.31-.8-.82-.3-1.59-.6-2.3-.9-.71-.3-1.25-.55-1.61-.75l.93-1.66c.32.18.81.41,1.46.68.65.27,1.37.55,2.15.84.78.29,1.53.55,2.24.78.71.23,1.28.4,1.7.5l-.63,1.81Z"/>
        <path class="cls-5" d="M641.05,176.22c-.5,0-.93-.18-1.28-.54-.35-.36-.53-.79-.53-1.3s.18-.92.53-1.27c.35-.34.78-.51,1.28-.51s.93.17,1.28.51c.35.34.53.76.53,1.27s-.18.93-.53,1.3c-.35.36-.78.54-1.28.54ZM640.17,169.45c-.02-.2-.04-.64-.06-1.33-.02-.68-.04-1.5-.06-2.44-.02-.94-.04-1.93-.06-2.97-.02-1.03-.04-2.01-.05-2.94,0-.92-.02-1.7-.03-2.32-.01-.62-.02-.99-.02-1.11v-5.27h2.32v5.27c0,.12,0,.49-.02,1.11s-.02,1.4-.03,2.32c0,.92-.03,1.9-.06,2.94s-.06,2.02-.08,2.97c-.02.94-.04,1.76-.06,2.44-.02.68-.04,1.12-.06,1.33h-1.75Z"/>
      </g>
      <g>
        <path class="cls-5" d="M425.47,294.65c0,.34-.05.59-.14.74s-.21.23-.36.23h-1.9c.34.35.58.74.72,1.17s.21.87.21,1.33c0,.77-.12,1.44-.37,2.03s-.6,1.09-1.05,1.49-1,.72-1.63.93-1.32.32-2.09.32c-.54,0-1.05-.07-1.54-.21s-.86-.32-1.13-.54c-.18.18-.32.38-.43.6s-.17.49-.17.78c0,.34.16.63.48.85s.74.35,1.27.37l3.46.15c.66.02,1.26.11,1.81.27s1.02.39,1.43.69.72.67.94,1.1.34.94.34,1.52c0,.61-.13,1.19-.38,1.74s-.64,1.03-1.17,1.45-1.19.75-2.01.99-1.78.36-2.88.36-1.98-.09-2.73-.27-1.37-.43-1.85-.74-.83-.69-1.04-1.13-.32-.91-.32-1.42c0-.32.04-.64.12-.94s.2-.59.36-.87.36-.54.6-.79.52-.5.83-.74c-.48-.25-.84-.55-1.07-.93s-.35-.77-.35-1.21c0-.6.12-1.13.37-1.6s.55-.89.91-1.27c-.3-.36-.54-.77-.72-1.23s-.26-1.01-.26-1.66c0-.76.13-1.43.38-2.03s.61-1.1,1.06-1.52.99-.73,1.63-.95,1.32-.33,2.07-.33c.4,0,.78.02,1.13.07s.67.11.98.18h4c.17,0,.29.08.38.24s.13.41.13.74ZM422.89,308.63c0-.57-.23-1.01-.7-1.32s-1.1-.47-1.89-.49l-3.43-.12c-.31.25-.57.48-.77.7s-.36.43-.48.63-.2.4-.24.6-.07.4-.07.6c0,.64.32,1.12.97,1.45s1.55.49,2.71.49c.74,0,1.35-.07,1.85-.21s.9-.33,1.2-.57.52-.51.65-.81.2-.62.2-.96ZM421.67,298.14c0-.9-.25-1.61-.74-2.11s-1.2-.76-2.11-.76c-.47,0-.88.08-1.23.24s-.64.37-.87.65-.4.59-.51.95-.17.73-.17,1.13c0,.87.25,1.56.74,2.06s1.19.75,2.08.75c.48,0,.9-.08,1.25-.23s.64-.36.88-.63.4-.58.51-.93.17-.72.17-1.1Z"/>
        <path class="cls-5" d="M439.93,307.29c0,.08-.02.14-.05.2s-.1.1-.18.14-.2.07-.35.09-.32.03-.52.03c-.23,0-.41,0-.55-.03s-.26-.05-.34-.09-.14-.09-.17-.14-.04-.12-.04-.2v-1.75c-.76.83-1.5,1.44-2.24,1.82s-1.48.57-2.24.57c-.88,0-1.63-.15-2.23-.44s-1.09-.69-1.46-1.2-.64-1.09-.8-1.77-.24-1.49-.24-2.45v-8.03c0-.08.02-.14.05-.2s.1-.1.2-.15.23-.07.38-.09.35-.02.59-.02.43,0,.59.02.28.04.38.09.16.09.2.15.06.12.06.2v7.71c0,.77.06,1.4.17,1.86s.28.86.51,1.19.52.58.88.77.77.27,1.24.27c.61,0,1.21-.22,1.82-.65s1.24-1.06,1.92-1.9v-9.25c0-.08.02-.14.05-.2s.1-.1.2-.15.22-.07.38-.09.35-.02.6-.02.43,0,.59.02.28.04.37.09.15.09.2.15.07.12.07.2v13.24Z"/>
        <path class="cls-5" d="M447.12,289.57c0,.57-.11.96-.32,1.16s-.61.31-1.19.31-.96-.1-1.17-.3-.32-.58-.32-1.14.11-.96.32-1.16.61-.31,1.19-.31.96.1,1.17.3.32.58.32,1.14ZM446.84,307.29c0,.08-.02.14-.06.2s-.1.1-.19.14-.21.07-.37.09-.36.03-.6.03-.43,0-.59-.03-.28-.05-.38-.09-.16-.09-.19-.14-.05-.12-.05-.2v-13.24c0-.07.02-.13.05-.19s.1-.11.19-.15.22-.07.38-.09.35-.03.59-.03.45,0,.6.03.28.05.37.09.15.09.19.15.06.12.06.19v13.24Z"/>
        <path class="cls-5" d="M462.68,307.29c0,.08-.02.15-.05.21s-.09.11-.18.14-.19.06-.33.08-.3.03-.5.03c-.21,0-.38,0-.51-.03s-.25-.05-.34-.08-.15-.08-.19-.14-.06-.13-.06-.21v-1.75c-.7.76-1.42,1.34-2.17,1.77s-1.57.63-2.46.63c-.97,0-1.8-.19-2.49-.57s-1.24-.89-1.67-1.53-.74-1.4-.93-2.27-.29-1.78-.29-2.74c0-1.14.12-2.17.37-3.08s.61-1.7,1.09-2.35,1.08-1.15,1.79-1.49,1.53-.52,2.46-.52c.77,0,1.48.17,2.13.51s1.28.84,1.91,1.49v-7.69c0-.07.02-.13.05-.2s.1-.11.2-.15.22-.06.38-.09.35-.04.58-.04.45.01.6.04.28.05.37.09.15.08.2.15.07.13.07.2v19.6ZM460.23,297.97c-.66-.81-1.29-1.43-1.91-1.86s-1.25-.64-1.92-.64c-.62,0-1.14.15-1.57.44s-.78.68-1.05,1.16-.47,1.02-.59,1.63-.18,1.23-.18,1.85c0,.67.05,1.32.15,1.96s.28,1.2.54,1.7.59.89,1.02,1.19.95.45,1.59.45c.32,0,.64-.04.93-.13s.61-.24.92-.44.64-.47.99-.8.71-.73,1.09-1.21v-5.3Z"/>
        <path class="cls-5" d="M478.46,300.09c0,.38-.1.65-.29.82s-.41.24-.66.24h-8.72c0,.74.07,1.4.22,1.99s.39,1.09.74,1.52c.34.42.79.75,1.35.97.55.23,1.23.34,2.03.34.63,0,1.19-.05,1.68-.15s.92-.22,1.28-.35.66-.24.89-.35c.23-.1.41-.15.53-.15.07,0,.13.02.18.05.05.03.1.09.13.15s.05.16.07.29.02.27.02.45c0,.13,0,.24-.01.33s-.02.18-.04.25-.04.14-.07.2-.08.12-.13.17-.21.14-.48.26-.61.24-1.03.36-.91.22-1.46.32-1.15.14-1.77.14c-1.09,0-2.04-.15-2.86-.46s-1.51-.76-2.07-1.35-.98-1.35-1.27-2.25-.43-1.95-.43-3.15.15-2.16.44-3.07.72-1.68,1.27-2.31,1.22-1.12,2.01-1.46,1.66-.51,2.63-.51c1.04,0,1.92.17,2.66.5s1.33.78,1.8,1.35.82,1.23,1.04,1.99.33,1.57.33,2.43v.44ZM476.02,299.37c.03-1.28-.25-2.28-.85-3-.6-.73-1.48-1.09-2.66-1.09-.6,0-1.13.11-1.58.34s-.83.52-1.14.9c-.31.37-.54.81-.71,1.3s-.26,1.01-.28,1.55h7.22Z"/>
        <path class="cls-5" d="M484.58,307.29c0,.08-.02.14-.06.2s-.1.1-.19.14-.21.07-.37.09-.36.03-.6.03-.43,0-.59-.03-.28-.05-.38-.09-.16-.09-.19-.14-.05-.12-.05-.2v-19.66c0-.08.02-.15.05-.21s.1-.11.19-.15.22-.07.38-.09.35-.03.59-.03.45,0,.6.03.28.05.37.09.15.09.19.15.06.13.06.21v19.66Z"/>
        <path class="cls-5" d="M491.78,289.57c0,.57-.11.96-.32,1.16s-.61.31-1.19.31-.96-.1-1.17-.3-.32-.58-.32-1.14.11-.96.32-1.16.61-.31,1.19-.31.96.1,1.17.3.32.58.32,1.14ZM491.5,307.29c0,.08-.02.14-.06.2s-.1.1-.19.14-.21.07-.37.09-.36.03-.6.03-.43,0-.59-.03-.28-.05-.38-.09-.16-.09-.19-.14-.05-.12-.05-.2v-13.24c0-.07.02-.13.05-.19s.1-.11.19-.15.22-.07.38-.09.35-.03.59-.03.45,0,.6.03.28.05.37.09.15.09.19.15.06.12.06.19v13.24Z"/>
        <path class="cls-5" d="M507.39,307.29c0,.08-.02.14-.06.2s-.1.1-.19.14-.21.07-.37.09-.35.03-.59.03-.45,0-.6-.03-.28-.05-.37-.09-.15-.09-.19-.14-.06-.12-.06-.2v-7.75c0-.76-.06-1.36-.18-1.82s-.29-.86-.51-1.19-.52-.59-.88-.77-.77-.26-1.24-.26c-.61,0-1.22.22-1.82.65s-1.25,1.06-1.91,1.9v9.25c0,.08-.02.14-.06.2s-.1.1-.19.14-.21.07-.37.09-.36.03-.6.03-.43,0-.59-.03-.28-.05-.38-.09-.16-.09-.19-.14-.05-.12-.05-.2v-13.24c0-.08.01-.14.04-.2s.09-.1.18-.15.2-.07.34-.09.32-.02.54-.02.39,0,.54.02.25.04.33.09.13.09.17.15.05.12.05.2v1.75c.75-.83,1.49-1.44,2.23-1.83s1.49-.58,2.24-.58c.88,0,1.63.15,2.23.45s1.09.7,1.46,1.2.64,1.09.8,1.76.24,1.48.24,2.42v8.08Z"/>
        <path class="cls-5" d="M523.11,300.09c0,.38-.1.65-.29.82s-.41.24-.66.24h-8.72c0,.74.07,1.4.22,1.99s.39,1.09.74,1.52c.34.42.79.75,1.35.97.55.23,1.23.34,2.03.34.63,0,1.19-.05,1.68-.15s.92-.22,1.28-.35.66-.24.89-.35c.23-.1.41-.15.53-.15.07,0,.13.02.18.05.05.03.1.09.13.15s.05.16.07.29.02.27.02.45c0,.13,0,.24-.01.33s-.02.18-.04.25-.04.14-.07.2-.08.12-.13.17-.21.14-.48.26-.61.24-1.03.36-.91.22-1.46.32-1.15.14-1.77.14c-1.09,0-2.04-.15-2.86-.46s-1.51-.76-2.07-1.35-.98-1.35-1.27-2.25-.43-1.95-.43-3.15.15-2.16.44-3.07.72-1.68,1.27-2.31,1.22-1.12,2.01-1.46,1.66-.51,2.63-.51c1.04,0,1.92.17,2.66.5s1.33.78,1.8,1.35.82,1.23,1.04,1.99.33,1.57.33,2.43v.44ZM520.67,299.37c.03-1.28-.25-2.28-.85-3-.6-.73-1.48-1.09-2.66-1.09-.6,0-1.13.11-1.58.34s-.83.52-1.14.9c-.31.37-.54.81-.71,1.3s-.26,1.01-.28,1.55h7.22Z"/>
        <path class="cls-5" d="M535.12,303.68c0,.68-.13,1.28-.38,1.81s-.61.98-1.07,1.34-1.01.64-1.65.82-1.34.28-2.1.28c-.47,0-.92-.04-1.35-.11s-.81-.17-1.15-.28-.63-.23-.86-.35-.41-.23-.51-.33-.19-.24-.24-.41-.07-.42-.07-.72c0-.19,0-.34.03-.47s.04-.23.07-.31.07-.13.13-.17.12-.05.18-.05c.11,0,.27.07.48.2s.47.28.78.43.67.3,1.1.43.91.2,1.46.2c.41,0,.78-.04,1.12-.13s.62-.22.87-.39.43-.39.57-.65.2-.58.2-.94-.1-.69-.29-.94-.44-.48-.76-.68-.67-.37-1.06-.52-.8-.31-1.21-.48-.82-.36-1.22-.57-.75-.47-1.07-.77-.57-.67-.76-1.09-.29-.93-.29-1.52c0-.52.1-1.02.3-1.49s.5-.89.9-1.25.9-.64,1.51-.86,1.31-.32,2.11-.32c.35,0,.71.03,1.06.09s.67.13.96.22.53.18.73.29.35.19.46.27.17.15.21.21.06.13.07.2.03.16.04.27.02.24.02.4c0,.17,0,.31-.02.43s-.04.22-.07.3-.08.13-.13.17-.1.05-.16.05c-.09,0-.22-.05-.38-.16s-.38-.22-.65-.35-.58-.24-.93-.35-.77-.16-1.23-.16c-.41,0-.77.05-1.09.14s-.57.23-.77.4-.35.38-.46.61-.15.49-.15.77c0,.38.1.7.29.96s.45.49.77.68.67.37,1.07.53.81.32,1.23.49.83.35,1.24.56.77.46,1.08.75.57.65.76,1.06.29.9.29,1.47Z"/>
      </g>
    </g>
  </g>
</svg>