<?xml version="1.0" encoding="UTF-8"?>
<svg id="_レイヤー_1" data-name="レイヤー 1" xmlns="http://www.w3.org/2000/svg" viewBox="0 0 160 160">
  <defs>
    <style>
      .cls-1 {
        fill: none;
        stroke-width: 3px;
      }

      .cls-1, .cls-2 {
        stroke: #ff9d5b;
        stroke-miterlimit: 10;
      }

      .cls-2 {
        stroke-width: .11px;
      }

      .cls-2, .cls-3 {
        fill: #ff9d5b;
      }

      .cls-4 {
        fill: #d63665;
      }
    </style>
  </defs>
  <path class="cls-1" d="M52.66,50.35c2.56-17.58-13.19-53.09-30.72-9.52"/>
  <path class="cls-4" d="M29.7,36.13c-1.7-.95-4.14-.05-6.27,2.05-1.56-2.42-3.65-3.78-5.48-3.27-2.68.74-3.78,5.19-2.46,9.93,1.32,4.74,4.56,7.98,7.23,7.24.02,0,.03-.01.05-.02,2.29-.14,5.1-2.33,6.98-5.7,2.4-4.3,2.37-8.88-.05-10.23h0Z"/>
  <path class="cls-3" d="M149.36,101.34c1.5-9.05,14.84-23.36-.65-27.66-14.89-4.14-29.31,16.65-30.63,25.73-1.32,9.08,9.08,31.15,24.37,33.38,15.29,2.23,5.51-23.04,6.9-31.46h0Z"/>
  <circle class="cls-2" cx="78.79" cy="84.39" r="52.03"/>
</svg>