<?xml version="1.0" encoding="UTF-8"?>
<svg id="_レイヤー_1" data-name="レイヤー 1" xmlns="http://www.w3.org/2000/svg" xmlns:xlink="http://www.w3.org/1999/xlink" viewBox="0 0 1080 566">
  <defs>
    <style>
      .cls-1, .cls-2 {
        stroke-width: 6px;
      }

      .cls-1, .cls-2, .cls-3, .cls-4, .cls-5 {
        stroke-miterlimit: 10;
      }

      .cls-1, .cls-6, .cls-7, .cls-5 {
        fill: none;
      }

      .cls-1, .cls-4 {
        stroke: #ff9d5b;
      }

      .cls-8 {
        fill: url(#_名称未設定グラデーション_24-6);
      }

      .cls-9, .cls-2 {
        fill: #d63665;
      }

      .cls-10 {
        fill: url(#_名称未設定グラデーション_24-2);
      }

      .cls-11 {
        fill: url(#_名称未設定グラデーション_24-5);
      }

      .cls-12 {
        fill: url(#_名称未設定グラデーション_24-3);
      }

      .cls-13, .cls-4 {
        fill: #ff9d5b;
      }

      .cls-2 {
        stroke: #fcd20d;
      }

      .cls-6 {
        stroke-width: 40px;
      }

      .cls-6, .cls-7, .cls-5 {
        stroke: #fff;
      }

      .cls-14 {
        fill: #543a1e;
      }

      .cls-15 {
        fill: url(#_名称未設定グラデーション_24);
      }

      .cls-3 {
        fill: #fff;
        stroke: #ff8200;
        stroke-width: 2px;
      }

      .cls-7, .cls-5 {
        stroke-width: 20px;
      }

      .cls-16 {
        fill: #ffd0d7;
      }

      .cls-17 {
        fill: url(#_名称未設定グラデーション_24-4);
      }
    </style>
    <linearGradient id="_名称未設定グラデーション_24" data-name="名称未設定グラデーション 24" x1="716" y1="151.94" x2="716" y2="465.98" gradientUnits="userSpaceOnUse">
      <stop offset="0" stop-color="#c3d2f5"/>
      <stop offset=".06" stop-color="#b9ccf0"/>
      <stop offset=".16" stop-color="#a0bde5"/>
      <stop offset=".29" stop-color="#76a5d3"/>
      <stop offset=".44" stop-color="#3d84ba"/>
      <stop offset=".58" stop-color="#0061a0"/>
      <stop offset="1" stop-color="#242e50"/>
    </linearGradient>
    <linearGradient id="_名称未設定グラデーション_24-2" data-name="名称未設定グラデーション 24" x1="910.28" y1="318.93" x2="910.28" y2="446.17" xlink:href="#_名称未設定グラデーション_24"/>
    <linearGradient id="_名称未設定グラデーション_24-3" data-name="名称未設定グラデーション 24" x1="914.12" y1="189.29" x2="914.12" y2="280.29" xlink:href="#_名称未設定グラデーション_24"/>
    <linearGradient id="_名称未設定グラデーション_24-4" data-name="名称未設定グラデーション 24" x1="173.94" y1="172.3" x2="173.94" y2="437.15" xlink:href="#_名称未設定グラデーション_24"/>
    <linearGradient id="_名称未設定グラデーション_24-5" data-name="名称未設定グラデーション 24" x1="173.94" y1="172.3" x2="173.94" y2="437.15" xlink:href="#_名称未設定グラデーション_24"/>
    <linearGradient id="_名称未設定グラデーション_24-6" data-name="名称未設定グラデーション 24" x1="377.85" y1="158.18" x2="377.85" y2="432.53" xlink:href="#_名称未設定グラデーション_24"/>
  </defs>
  <g>
    <g>
      <path class="cls-6" d="M492.28,290.99c1.02,1.3.14,3.21-1.51,3.27h0c8.82,2.52,17.84,4.45,26.62,7.14,11.23,3.44,22.4,7.09,33.7,10.33,11.03,3.16,22.14,5.87,33.48,7.67,2.69.43,5.39.84,8.08,1.25.1.01.2.01.29,0l5.78-1.21c1.97-.41,2.2-3.13.32-3.86l-14.24-5.56c-1.56-.61-1.75-2.73-.33-3.61l12.44-7.67c1.7-1.05,1.02-3.66-.98-3.74l-15.94-.65c-1.63-.07-2.51-1.93-1.54-3.23l8.55-11.4c1.17-1.56-.33-3.71-2.2-3.15l-15.58,4.69c-1.5.45-2.92-.9-2.55-2.42l3.42-13.97c.45-1.85-1.66-3.24-3.18-2.1l-12.81,9.65c-1.21.91-2.95.22-3.21-1.27l-2.58-14.75c-.32-1.84-2.76-2.3-3.73-.69l-7.93,13.16c-.77,1.28-2.63,1.31-3.44.05l-8.5-13.24c-1.02-1.58-3.46-1.04-3.71.82l-1.95,14.5c-.2,1.52-1.96,2.27-3.2,1.36l-13.09-9.59c-1.55-1.14-3.67.33-3.14,2.19l3.91,13.7c.44,1.54-.99,2.95-2.53,2.49l-15.49-4.64c-1.89-.57-3.39,1.64-2.17,3.19l8.91,11.28Z"/>
      <path class="cls-6" d="M623.23,263l-5.2-12.66c-5.8-3.85-11.48-7.88-17.16-11.9-9.71-6.88-19.37-13.47-28.04-21.67-8.27-7.82-16.15-16.08-24.06-24.25-1.71-1.76-3.43-3.54-5.18-5.29-.08,1.06-.69,2.13-1.53,2.66-1.2.76-2.5.58-3.54-.13l-18.33-1.59c-1.19-.1-1.79,1.41-.85,2.15l15.68,12.37c.77.61.53,1.84-.42,2.11l-17.88,5.02c-1.13.32-1.19,1.91-.07,2.3l19.11,6.71c.9.32,1.09,1.5.34,2.09l-14.28,11.17c-.9.71-.4,2.16.75,2.16l19.98-.07c.92,0,1.5.97,1.07,1.78l-8.67,16.04c-.53.99.45,2.1,1.5,1.7l17.96-6.99c.83-.32,1.72.34,1.64,1.23l-1.64,18.79c-.1,1.11,1.24,1.75,2.04.97l13.3-12.86c.65-.63,1.73-.35,1.99.52l5.74,18.81c.33,1.08,1.84,1.15,2.27.11l6.86-16.75c.35-.86,1.51-1.02,2.08-.27l12.2,16.08c.7.93,2.18.42,2.17-.75l-.27-18.29c-.01-.97,1.07-1.56,1.87-1.02l16.79,11.19c.99.66,2.24-.36,1.78-1.46Z"/>
      <path class="cls-6" d="M723.25,149.18c-73.64-42.49-166.38-21.86-215.59,45.07.1.13.21.25.31.38,3.86,4.72,7.96,9.24,12.17,13.65,8.64,9.04,17.68,17.63,27.04,25.91,9.65,8.53,19.36,17.01,29.3,25.21,4.67,3.85,9.37,7.63,14.24,11.22,4.6,3.39,9.26,6.81,12.9,11.27,1.53,1.88,1.03,4.69-1.47,5.42-5.65,1.66-11.54,1.23-17.29.41-6.39-.91-12.76-2.01-19.14-3-26.07-4.04-51.94-9.45-77.69-15.16-3.57-.79-7.15-1.61-10.72-2.44-10.08,65.42,19.99,133.26,80.76,168.33,79.05,45.61,180.1,18.5,225.71-60.54,45.61-79.05,18.5-180.1-60.54-225.71Z"/>
      <path class="cls-6" d="M621.14,158c26.95-46.7,20.26-159.93-79.79-92.77"/>
      <path class="cls-6" d="M561.16,71.05c-1.7-5.67-8.89-8.87-17.97-8.8,1.73-8.58.04-15.95-5.02-18.71-7.4-4.04-19.2,3.31-26.36,16.41s-6.97,27.01.43,31.05c.05.03.09.04.14.07,5.29,4.55,16.04,5.71,27.25,2.35,14.31-4.28,23.95-14.3,21.53-22.38Z"/>
      <path class="cls-6" d="M836.63,410.29c14.38-23.85,68.05-49.23,29.21-78.73-37.36-28.37-101.34,14.08-115.26,38.21-13.92,24.13-9.34,98.04,31.29,121.49,40.63,23.45,41.4-58.8,54.76-80.97Z"/>
      <circle class="cls-6" cx="607.82" cy="171.01" r="17.59"/>
    </g>
    <g>
      <path class="cls-3" d="M492.28,290.99c1.02,1.3.14,3.21-1.51,3.27h0c8.82,2.52,17.84,4.45,26.62,7.14,11.23,3.44,22.4,7.09,33.7,10.33,11.03,3.16,22.14,5.87,33.48,7.67,2.69.43,5.39.84,8.08,1.25.1.01.2.01.29,0l5.78-1.21c1.97-.41,2.2-3.13.32-3.86l-14.24-5.56c-1.56-.61-1.75-2.73-.33-3.61l12.44-7.67c1.7-1.05,1.02-3.66-.98-3.74l-15.94-.65c-1.63-.07-2.51-1.93-1.54-3.23l8.55-11.4c1.17-1.56-.33-3.71-2.2-3.15l-15.58,4.69c-1.5.45-2.92-.9-2.55-2.42l3.42-13.97c.45-1.85-1.66-3.24-3.18-2.1l-12.81,9.65c-1.21.91-2.95.22-3.21-1.27l-2.58-14.75c-.32-1.84-2.76-2.3-3.73-.69l-7.93,13.16c-.77,1.28-2.63,1.31-3.44.05l-8.5-13.24c-1.02-1.58-3.46-1.04-3.71.82l-1.95,14.5c-.2,1.52-1.96,2.27-3.2,1.36l-13.09-9.59c-1.55-1.14-3.67.33-3.14,2.19l3.91,13.7c.44,1.54-.99,2.95-2.53,2.49l-15.49-4.64c-1.89-.57-3.39,1.64-2.17,3.19l8.91,11.28Z"/>
      <path class="cls-3" d="M623.23,263l-5.2-12.66c-5.8-3.85-11.48-7.88-17.16-11.9-9.71-6.88-19.37-13.47-28.04-21.67-8.27-7.82-16.15-16.08-24.06-24.25-1.71-1.76-3.43-3.54-5.18-5.29-.08,1.06-.69,2.13-1.53,2.66-1.2.76-2.5.58-3.54-.13l-18.33-1.59c-1.19-.1-1.79,1.41-.85,2.15l15.68,12.37c.77.61.53,1.84-.42,2.11l-17.88,5.02c-1.13.32-1.19,1.91-.07,2.3l19.11,6.71c.9.32,1.09,1.5.34,2.09l-14.28,11.17c-.9.71-.4,2.16.75,2.16l19.98-.07c.92,0,1.5.97,1.07,1.78l-8.67,16.04c-.53.99.45,2.1,1.5,1.7l17.96-6.99c.83-.32,1.72.34,1.64,1.23l-1.64,18.79c-.1,1.11,1.24,1.75,2.04.97l13.3-12.86c.65-.63,1.73-.35,1.99.52l5.74,18.81c.33,1.08,1.84,1.15,2.27.11l6.86-16.75c.35-.86,1.51-1.02,2.08-.27l12.2,16.08c.7.93,2.18.42,2.17-.75l-.27-18.29c-.01-.97,1.07-1.56,1.87-1.02l16.79,11.19c.99.66,2.24-.36,1.78-1.46Z"/>
      <path class="cls-4" d="M723.25,149.18c-73.64-42.49-166.38-21.86-215.59,45.07.1.13.21.25.31.38,3.86,4.72,7.96,9.24,12.17,13.65,8.64,9.04,17.68,17.63,27.04,25.91,9.65,8.53,19.36,17.01,29.3,25.21,4.67,3.85,9.37,7.63,14.24,11.22,4.6,3.39,9.26,6.81,12.9,11.27,1.53,1.88,1.03,4.69-1.47,5.42-5.65,1.66-11.54,1.23-17.29.41-6.39-.91-12.76-2.01-19.14-3-26.07-4.04-51.94-9.45-77.69-15.16-3.57-.79-7.15-1.61-10.72-2.44-10.08,65.42,19.99,133.26,80.76,168.33,79.05,45.61,180.1,18.5,225.71-60.54,45.61-79.05,18.5-180.1-60.54-225.71Z"/>
      <path class="cls-1" d="M621.14,158c26.95-46.7,20.26-159.93-79.79-92.77"/>
      <path class="cls-9" d="M561.16,71.05c-1.7-5.67-8.89-8.87-17.97-8.8,1.73-8.58.04-15.95-5.02-18.71-7.4-4.04-19.2,3.31-26.36,16.41s-6.97,27.01.43,31.05c.05.03.09.04.14.07,5.29,4.55,16.04,5.71,27.25,2.35,14.31-4.28,23.95-14.3,21.53-22.38Z"/>
      <path class="cls-13" d="M836.63,410.29c14.38-23.85,68.05-49.23,29.21-78.73-37.36-28.37-101.34,14.08-115.26,38.21-13.92,24.13-9.34,98.04,31.29,121.49,40.63,23.45,41.4-58.8,54.76-80.97Z"/>
      <circle class="cls-14" cx="607.82" cy="171.01" r="17.59"/>
    </g>
  </g>
  <g>
    <path class="cls-5" d="M749.72,253.74v-22.55h-45.48l14,12.6-3.36,27.52h48.96v45.1h-16.92c-2.35,28.19-6.83,53.06-13.56,73.95l28.9,32.5-5.83,43.11-37.19-43.44c-12.88,23.21-28.79,37.14-47.72,41.78l-2.46-43.44c12.32-2.65,23.3-9.28,32.94-20.23l-19.16-19.57,9.3-64.67h-22.97v-45.1h29.01l5.04-40.13h-20.95v22.55h-15.68v-68.98h41.56v-32.83h15.68v32.83h41.56v68.98h-15.68ZM708.94,316.42l-6.16,40.13c2.13,2.98,7.06,8.95,14.56,17.91,6.16-14.59,10.64-33.83,13.67-58.03h-22.07Z"/>
    <path class="cls-15" d="M749.72,253.74v-22.55h-45.48l14,12.6-3.36,27.52h48.96v45.1h-16.92c-2.35,28.19-6.83,53.06-13.56,73.95l28.9,32.5-5.83,43.11-37.19-43.44c-12.88,23.21-28.79,37.14-47.72,41.78l-2.46-43.44c12.32-2.65,23.3-9.28,32.94-20.23l-19.16-19.57,9.3-64.67h-22.97v-45.1h29.01l5.04-40.13h-20.95v22.55h-15.68v-68.98h41.56v-32.83h15.68v32.83h41.56v68.98h-15.68ZM708.94,316.42l-6.16,40.13c2.13,2.98,7.06,8.95,14.56,17.91,6.16-14.59,10.64-33.83,13.67-58.03h-22.07Z"/>
  </g>
  <g>
    <path class="cls-5" d="M894.11,336.22v92.67c0,9.54,7.15,17.28,15.97,17.28h.4c8.82,0,15.97-7.74,15.97-17.28v-92.67c0-9.69-7.36-17.48-16.3-17.28-.13,0-.27,0-.4,0-8.69.2-15.63,7.88-15.63,17.28Z"/>
    <path class="cls-10" d="M894.11,336.22v92.67c0,9.54,7.15,17.28,15.97,17.28h.4c8.82,0,15.97-7.74,15.97-17.28v-92.67c0-9.69-7.36-17.48-16.3-17.28-.13,0-.27,0-.4,0-8.69.2-15.63,7.88-15.63,17.28Z"/>
  </g>
  <g>
    <path class="cls-5" d="M894.11,263.48v13.77c0,1.22.96,2.23,2.18,2.29,6.99.35,23.21.86,30.58.73,1.25-.02,2.24-1.04,2.24-2.29h0c0-.61.24-1.19.67-1.62l83.17-83.17c1.44-1.44.42-3.91-1.62-3.91h-194.43c-1.26,0-2.29,1.03-2.29,2.29v30.42c0,1.26,1.03,2.29,2.29,2.29h109.93c2.04,0,3.06,2.47,1.62,3.91l-33.67,33.67c-.43.43-.67,1.01-.67,1.62Z"/>
    <path class="cls-12" d="M894.11,263.48v13.77c0,1.22.96,2.23,2.18,2.29,6.99.35,23.21.86,30.58.73,1.25-.02,2.24-1.04,2.24-2.29h0c0-.61.24-1.19.67-1.62l83.17-83.17c1.44-1.44.42-3.91-1.62-3.91h-194.43c-1.26,0-2.29,1.03-2.29,2.29v30.42c0,1.26,1.03,2.29,2.29,2.29h109.93c2.04,0,3.06,2.47,1.62,3.91l-33.67,33.67c-.43.43-.67,1.01-.67,1.62Z"/>
  </g>
  <g>
    <path class="cls-5" d="M795.36,299.86v12.84c0,6.12,4.96,11.08,11.08,11.08l110.9-12.34,97.44,12.34c6.12,0,11.08-4.96,11.08-11.08v-12.84c0-6.12-4.96-11.08-11.08-11.08l-98.21,19.6-110.14-19.6c-6.12,0-11.08,4.96-11.08,11.08Z"/>
    <path class="cls-9" d="M795.36,299.86v12.84c0,6.12,4.96,11.08,11.08,11.08l110.9-12.34,97.44,12.34c6.12,0,11.08-4.96,11.08-11.08v-12.84c0-6.12-4.96-11.08-11.08-11.08l-98.21,19.6-110.14-19.6c-6.12,0-11.08,4.96-11.08,11.08Z"/>
  </g>
  <g>
    <path class="cls-5" d="M162.54,348.2l18.61,28.21-31.45,48.94-18.42-28.21,31.26-48.94ZM161.98,229.88h-22.7v-57.58h120.94v57.58h-26.05v-17.27h-11.16v31.67h34.42v37.42h-58.61v-69.09h-33.49v12.67l6.88-9.5,16,28.21-31.63,43.18-16-28.21,21.4-29.08ZM213.71,286.02v17.27h46.52v40.3h-46.52v93.56h-26.05v-93.56h-44.66v-40.3h44.66v-17.27h26.05ZM237.15,347.05l30.14,49.52-18.98,27.64-30.14-49.52,18.98-27.64ZM128.91,294.58l-13.59,124.12c-.55,5.03-3.46,8.62-6.76,8.32l-21.68-1.97c-4.93-.78-7.78-9.01-5.49-15.79l40.01-118.11-31.57-20.95c-1.09-.32-1.37-21.77-1.37-21.77.46-5.05,3.26-8.79,6.55-8.75l12.06.12c1.85,1,21.97,52.37,21.97,52.37.33.86.21,1.79-.14,2.41ZM90.97,217.51l40.19,26.67c3.46.36-13.23-68.18-15.85-69.59l-17.03-.17c-4.65-.05-8.6,5.24-9.25,12.36,0,0,.4,30.28,1.94,30.73Z"/>
    <path class="cls-17" d="M162.54,348.2l18.61,28.21-31.45,48.94-18.42-28.21,31.26-48.94ZM161.98,229.88h-22.7v-57.58h120.94v57.58h-26.05v-17.27h-11.16v31.67h34.42v37.42h-58.61v-69.09h-33.49v12.67l6.88-9.5,16,28.21-31.63,43.18-16-28.21,21.4-29.08ZM213.71,286.02v17.27h46.52v40.3h-46.52v93.56h-26.05v-93.56h-44.66v-40.3h44.66v-17.27h26.05ZM237.15,347.05l30.14,49.52-18.98,27.64-30.14-49.52,18.98-27.64ZM128.91,294.58l-13.59,124.12c-.55,5.03-3.46,8.62-6.76,8.32l-21.68-1.97c-4.93-.78-7.78-9.01-5.49-15.79l40.01-118.11-31.57-20.95c-1.09-.32-1.37-21.77-1.37-21.77.46-5.05,3.26-8.79,6.55-8.75l12.06.12c1.85,1,21.97,52.37,21.97,52.37.33.86.21,1.79-.14,2.41ZM90.97,217.51l40.19,26.67c3.46.36-13.23-68.18-15.85-69.59l-17.03-.17c-4.65-.05-8.6,5.24-9.25,12.36,0,0,.4,30.28,1.94,30.73Z"/>
    <path class="cls-11" d="M162.54,348.2l18.61,28.21-31.45,48.94-18.42-28.21,31.26-48.94ZM161.98,229.88h-22.7v-57.58h120.94v57.58h-26.05v-17.27h-11.16v31.67h34.42v37.42h-58.61v-69.09h-33.49v12.67l6.88-9.5,16,28.21-31.63,43.18-16-28.21,21.4-29.08ZM213.71,286.02v17.27h46.52v40.3h-46.52v93.56h-26.05v-93.56h-44.66v-40.3h44.66v-17.27h26.05ZM237.15,347.05l30.14,49.52-18.98,27.64-30.14-49.52,18.98-27.64ZM128.91,294.58l-13.59,124.12c-.55,5.03-3.46,8.62-6.76,8.32l-21.68-1.97c-4.93-.78-7.78-9.01-5.49-15.79l40.01-118.11-31.57-20.95c-1.09-.32-1.37-21.77-1.37-21.77.46-5.05,3.26-8.79,6.55-8.75l12.06.12c1.85,1,21.97,52.37,21.97,52.37.33.86.21,1.79-.14,2.41ZM90.97,217.51l40.19,26.67c3.46.36-13.23-68.18-15.85-69.59l-17.03-.17c-4.65-.05-8.6,5.24-9.25,12.36,0,0,.4,30.28,1.94,30.73Z"/>
  </g>
  <g>
    <path class="cls-5" d="M463.31,334.36v28.21h11.16v37.42h-11.16v32.53h-25.12v-32.53h-90.24l6.51-65.64h-14.7v-37.42h18.42l4.84-49.23-3.54,9.79-20.84-19.58,28.65-79.74,20.84,19.58-2.42,6.62h87.45v40.3h-101.78l-4.65,12.95h96.57v59.3h12.28v37.42h-12.28ZM378.83,334.36l-2.79,28.21h18.79l1.49-28.21h-17.49ZM384.79,275.06l-2.23,21.88h15.82l1.12-21.88h-14.7ZM420.51,334.36l-1.49,28.21h19.16v-28.21h-17.68ZM438.19,275.06h-14.51l-1.12,21.88h15.63v-21.88ZM328.43,291.05l-13.59,124.12c-.55,5.03-3.46,8.62-6.76,8.32l-21.68-1.97c-4.93-.78-7.78-9.01-5.49-15.79l40.01-118.11-31.57-20.95c-1.09-.32-1.37-21.77-1.37-21.77.46-5.05,3.26-8.79,6.55-8.75l12.06.12c1.85,1,21.97,52.37,21.97,52.37.33.86.21,1.79-.14,2.41ZM290.5,213.98l40.19,26.67c3.46.36-13.23-68.18-15.85-69.59l-17.03-.17c-4.65-.05-8.6,5.24-9.25,12.36,0,0,.4,30.28,1.94,30.73Z"/>
    <path class="cls-8" d="M463.31,334.36v28.21h11.16v37.42h-11.16v32.53h-25.12v-32.53h-90.24l6.51-65.64h-14.7v-37.42h18.42l4.84-49.23-3.54,9.79-20.84-19.58,28.65-79.74,20.84,19.58-2.42,6.62h87.45v40.3h-101.78l-4.65,12.95h96.57v59.3h12.28v37.42h-12.28ZM378.83,334.36l-2.79,28.21h18.79l1.49-28.21h-17.49ZM384.79,275.06l-2.23,21.88h15.82l1.12-21.88h-14.7ZM420.51,334.36l-1.49,28.21h19.16v-28.21h-17.68ZM438.19,275.06h-14.51l-1.12,21.88h15.63v-21.88ZM328.43,291.05l-13.59,124.12c-.55,5.03-3.46,8.62-6.76,8.32l-21.68-1.97c-4.93-.78-7.78-9.01-5.49-15.79l40.01-118.11-31.57-20.95c-1.09-.32-1.37-21.77-1.37-21.77.46-5.05,3.26-8.79,6.55-8.75l12.06.12c1.85,1,21.97,52.37,21.97,52.37.33.86.21,1.79-.14,2.41ZM290.5,213.98l40.19,26.67c3.46.36-13.23-68.18-15.85-69.59l-17.03-.17c-4.65-.05-8.6,5.24-9.25,12.36,0,0,.4,30.28,1.94,30.73Z"/>
  </g>
  <g>
    <g>
      <ellipse class="cls-7" cx="913.05" cy="304.87" rx="28.55" ry="35"/>
      <path class="cls-7" d="M896.89,313.72c3.6-.99,4.66,3.94,8.17,7.38,3.51,3.44,6.95,2.83,5.89,6.37-.94,3.13-7.26,1.72-10.77-1.72-3.51-3.44-6.69-11.1-3.3-12.04Z"/>
      <path class="cls-7" d="M927.47,294.77c-3.6.99-4.66-3.95-8.17-7.39-3.51-3.44-6.95-2.84-5.88-6.38.95-3.12,7.26-1.71,10.76,1.73s6.67,11.11,3.28,12.04Z"/>
    </g>
    <g>
      <ellipse class="cls-2" cx="913.05" cy="304.87" rx="28.55" ry="35"/>
      <path class="cls-16" d="M896.89,313.72c3.6-.99,4.66,3.94,8.17,7.38,3.51,3.44,6.95,2.83,5.89,6.37-.94,3.13-7.26,1.72-10.77-1.72-3.51-3.44-6.69-11.1-3.3-12.04Z"/>
      <path class="cls-16" d="M927.47,294.77c-3.6.99-4.66-3.95-8.17-7.39-3.51-3.44-6.95-2.84-5.88-6.38.95-3.12,7.26-1.71,10.76,1.73s6.67,11.11,3.28,12.04Z"/>
    </g>
  </g>
</svg>