<?xml version="1.0" encoding="UTF-8"?>
<svg id="_レイヤー_1" data-name="レイヤー 1" xmlns="http://www.w3.org/2000/svg" viewBox="0 0 1080 566">
  <defs>
    <style>
      .cls-1 {
        fill: #d73666;
      }

      .cls-2 {
        stroke: #242e50;
        stroke-linecap: round;
        stroke-linejoin: round;
        stroke-width: 130px;
      }

      .cls-2, .cls-3 {
        fill: none;
      }

      .cls-3 {
        stroke: #fff;
        stroke-width: 100px;
      }

      .cls-4 {
        fill: #242e50;
      }
    </style>
  </defs>
  <g>
    <g>
      <path class="cls-2" d="M345.1,344.99h15.4c2.13,0,3.97-.77,5.5-2.3,1.53-1.53,2.3-3.37,2.3-5.5v-49.8c0-2-.67-3.67-2-5-1.33-1.33-3-2-5-2h-31.6c-2,0-3.67.67-5,2-1.33,1.33-2,3-2,5v55.4c0,4.53-1.6,8.53-4.8,12-1.33,1.47-2.73,2.9-4.2,4.3-1.47,1.4-3.33,2.57-5.6,3.5-2,.93-4.13,1.4-6.4,1.4h-19.2c-2,0-4.1-.5-6.3-1.5s-4.03-2.17-5.5-3.5c-1.47-1.47-2.9-2.9-4.3-4.3-1.4-1.4-2.57-3.23-3.5-5.5-.93-2-1.4-4.13-1.4-6.4v-60.2c0-2,.5-4.1,1.5-6.3,1-2.2,2.17-4.03,3.5-5.5,1.47-1.47,2.93-2.93,4.4-4.4,1.47-1.47,3.27-2.67,5.4-3.6,2-.93,4.07-1.4,6.2-1.4h14.2c2,0,3.67-.67,5-2,1.33-1.33,2-3,2-5v-13.8c0-1.87-.67-3.5-2-4.9-1.33-1.4-3-2.1-5-2.1h-28.2c-2,0-3.67-.67-5-2-1.33-1.33-2-3-2-5v-4.6c0-2,.67-3.67,2-5,1.33-1.33,3-2,5-2h28.2c2,0,3.67-.67,5-2s2-3,2-5v-11.2c0-2,.67-3.67,2-5,1.33-1.33,3-2,5-2h5c2,0,3.67.67,5,2,1.33,1.33,2,3,2,5v11.2c0,2,.67,3.67,2,5,1.33,1.33,3,2,5,2h12.2c2,0,3.67.67,5,2,1.33,1.33,2,3,2,5v4.6c0,2-.67,3.67-2,5s-3,2-5,2h-12.2c-2,0-3.67.7-5,2.1-1.33,1.4-2,3.03-2,4.9v13.8c0,2,.67,3.67,2,5,1.33,1.33,3,2,5,2h36.2c4.53,0,8.47,1.67,11.8,5,1.47,1.47,2.9,2.87,4.3,4.2,1.4,1.33,2.57,3.13,3.5,5.4.93,2.27,1.4,4.47,1.4,6.6v57.6c0,2.27-.53,4.67-1.6,7.2-1.07,2.53-2.33,4.6-3.8,6.2-1.6,1.73-3.2,3.4-4.8,5-1.6,1.6-3.6,2.93-6,4-2.8,1.07-5.2,1.6-7.2,1.6h-18.4c-5.2-.67-7.8-3.27-7.8-7.8v-3.6c.67-5.2,3.27-7.8,7.8-7.8ZM282.1,342.99c1.33,1.33,3,2,5,2h9.6c2,0,3.67-.67,5-2,1.33-1.33,2-3,2-5v-50.6c0-2-.67-3.67-2-5-1.33-1.33-3-2-5-2h-9.6c-2,0-3.67.67-5,2-1.33,1.33-2,3-2,5v50.6c0,2,.67,3.67,2,5ZM357,208.89c-1.4-7.4-2.1-11.17-2.1-11.3,0-1.2.4-2.3,1.2-3.3.8-1,1.93-1.5,3.4-1.5h6.4c1.87,0,3.5.57,4.9,1.7,1.4,1.13,2.23,2.5,2.5,4.1l5,25c.4,1.6,1.07,3.03,2,4.3.93,1.27,1.93,1.9,3,1.9s2,.57,2.8,1.7c.8,1.13,1.2,2.57,1.2,4.3v6c0,1.6-.6,3.17-1.8,4.7-1.2,1.53-2.6,2.3-4.2,2.3h-10.6c-1.6,0-3.1-.73-4.5-2.2-1.4-1.47-2.3-3.07-2.7-4.8-2.93-14.53-5.1-25.5-6.5-32.9Z"/>
      <path class="cls-2" d="M430.1,361.99c-1.73,1.33-3.53,2-5.4,2h-10.8c-1.87,0-3.47-.7-4.8-2.1-1.33-1.4-2-3.03-2-4.9v-4.6c0-2,.5-3.67,1.5-5,1-1.33,2.23-2,3.7-2,1.33,0,2.67-.67,4-2,1.33-1.33,2.27-2.93,2.8-4.8l11.6-45.2c.67-1.73,1.17-3.77,1.5-6.1.33-2.33.5-4.37.5-6.1,0-1.6-.7-2.93-2.1-4-1.4-1.07-3.03-1.6-4.9-1.6h-11.8c-1.87,0-3.47-.67-4.8-2-1.33-1.33-2-2.93-2-4.8v-4.8c0-1.87.67-3.5,2-4.9,1.33-1.4,2.93-2.1,4.8-2.1h11.8c1.87,0,3.5-.67,4.9-2,1.4-1.33,2.1-3,2.1-5v-35.6c0-1.87-.53-3.47-1.6-4.8-1.07-1.33-2.33-2-3.8-2s-3.2-.5-5.2-1.5-3.67-2.17-5-3.5l-5.2-5c-1.33-1.47-2.47-3.27-3.4-5.4-.93-2.13-1.4-4-1.4-5.6,0-1.73.67-3.2,2-4.4,1.33-1.2,2.93-1.8,4.8-1.8h4.8c2,0,3.67.43,5,1.3,1.33.87,2,1.9,2,3.1,0,1.07.67,2,2,2.8,1.33.8,3,1.2,5,1.2h37.2c1.87,0,3.5.73,4.9,2.2,1.4,1.47,2.1,3.13,2.1,5v4.6c0,1.87-.7,3.5-2.1,4.9-1.4,1.4-3.03,2.1-4.9,2.1h-11.8c-1.87,0-3.5.67-4.9,2-1.4,1.33-2.1,2.93-2.1,4.8v35.6c0,2,.7,3.67,2.1,5,1.4,1.33,3.03,2,4.9,2h11.8c1.87,0,3.5.7,4.9,2.1s2.1,3.03,2.1,4.9v4.8c0,1.87-.7,3.47-2.1,4.8-1.4,1.33-3.03,2-4.9,2h-11.8c-1.87,0-3.5.53-4.9,1.6-1.4,1.07-2.1,2.4-2.1,4,0,1.47.17,3.23.5,5.3.33,2.07.83,4.37,1.5,6.9l11.6,45.2c.8,2,1.8,3.63,3,4.9,1.2,1.27,2.53,1.9,4,1.9s2.7.67,3.7,2c1,1.33,1.5,3,1.5,5v4.6c0,1.87-.7,3.5-2.1,4.9-1.4,1.4-3.03,2.1-4.9,2.1h-10.6c-1.87,0-3.67-.67-5.4-2-1.73-1.33-2.93-2.93-3.6-4.8l-6.4-25.8c-.4-1.87-1.07-2.8-2-2.8-.8,0-1.4.93-1.8,2.8l-6.4,25.8c-.67,1.87-1.87,3.47-3.6,4.8ZM486.3,361.89c-1.33-1.4-2-3.03-2-4.9v-164.2c0-2,.67-3.67,2-5,1.33-1.33,3-2,5-2h42.4c1.87,0,3.47.67,4.8,2,1.33,1.33,2,3,2,5v149.6c0,1.87-.47,3.97-1.4,6.3-.93,2.33-2.07,4.1-3.4,5.3l-5,5c-1.47,1.47-3.33,2.67-5.6,3.6-2.27.93-4.4,1.4-6.4,1.4h-27.4c-2,0-3.67-.7-5-2.1ZM514.9,345.39c2,0,3.67-.67,5-2,1.33-1.33,2-3,2-5v-127.2c0-1.87-.67-3.47-2-4.8-1.33-1.33-3-2-5-2h-5c-1.87,0-3.47.67-4.8,2s-2,2.93-2,4.8v127.2c0,2,.67,3.67,2,5,1.33,1.33,2.93,2,4.8,2h5Z"/>
      <path class="cls-2" d="M575.5,352.99c0-2,.67-3.67,2-5,1.33-1.33,3-2,5-2h72.8c2.27,0,4-.7,5.2-2.1,1.2-1.4,1.8-3.17,1.8-5.3v-45.8c0-2.27-.63-4-1.9-5.2-1.27-1.2-2.97-1.8-5.1-1.8h-70c-4.67,0-8.67-1.67-12-5l-4-4c-3.33-3.33-5-7.33-5-12v-33.2c0-2.27.63-3.97,1.9-5.1,1.27-1.13,2.96-1.7,5.1-1.7h4.4c4.67,0,7,2.27,7,6.8v29.2c0,2.27.63,4,1.9,5.2,1.27,1.2,2.97,1.8,5.1,1.8h71c2.13,0,4.2.33,6.2,1,2,.67,3.93,1.93,5.8,3.8l4,4c1.87,1.87,3.17,3.77,3.9,5.7.73,1.93,1.1,3.97,1.1,6.1v53.8c0,4.4-1.6,8.33-4.8,11.8l-4.4,4.6c-3.33,3.6-7.27,5.4-11.8,5.4h-78.8c-2.13,0-3.73-.63-4.8-1.9-1.07-1.27-1.6-2.83-1.6-4.7v-4.4ZM577.7,206.99c-.8-.8-1.6-1.53-2.4-2.2-3.47-3.07-5.2-6.33-5.2-9.8,0-1.6.67-2.87,2-3.8,1.33-.93,3-1.4,5-1.4h4.6c2,0,3.67.33,5,1,1.33.67,2.07,1.47,2.2,2.4.4,2.13,2.67,3.2,6.8,3.2h66.8c1.87,0,3.5.7,4.9,2.1,1.4,1.4,2.1,3.03,2.1,4.9v4.2c0,1.87-.7,3.47-2.1,4.8-1.4,1.33-3.03,2-4.9,2h-70.4c-2,0-4.13-.47-6.4-1.4-2.27-.93-4.13-2.13-5.6-3.6-.8-.8-1.6-1.6-2.4-2.4Z"/>
      <path class="cls-2" d="M749.5,232.19c-2.27,0-4,.67-5.2,2-1.2,1.33-1.8,3.07-1.8,5.2v99c0,2.27.63,4,1.9,5.2,1.27,1.2,2.97,1.8,5.1,1.8h64.8c2.27,0,4,.63,5.2,1.9,1.2,1.27,1.8,2.97,1.8,5.1v4.4c0,2.27-.63,4-1.9,5.2-1.27,1.2-2.97,1.8-5.1,1.8h-69.2c-2.13,0-4.2-.37-6.2-1.1-2-.73-3.93-2.03-5.8-3.9l-4-4c-1.87-1.87-3.17-3.8-3.9-5.8-.73-2-1.1-4.07-1.1-6.2v-103.4c0-2.4-.63-4.2-1.9-5.4-1.27-1.2-2.97-1.8-5.1-1.8h-6c-2.27,0-4-.63-5.2-1.9-1.2-1.27-1.8-2.97-1.8-5.1v-4.4c0-2.27.63-4,1.9-5.2,1.27-1.2,2.97-1.8,5.1-1.8h6c2.27,0,4-.63,5.2-1.9,1.2-1.27,1.8-2.97,1.8-5.1v-10c0-2.27.63-4,1.9-5.2,1.27-1.2,2.97-1.8,5.1-1.8h4.4c2.27,0,4,.63,5.2,1.9,1.2,1.27,1.8,2.97,1.8,5.1v10c0,2.27.63,4,1.9,5.2,1.27,1.2,2.97,1.8,5.1,1.8h76.8c2.27,0,4,.63,5.2,1.9,1.2,1.27,1.8,2.97,1.8,5.1v4.4c0,2.27-.63,4-1.9,5.2-1.27,1.2-2.97,1.8-5.1,1.8"/>
    </g>
    <circle class="cls-2" cx="803.26" cy="248.44" r="9.87"/>
    <path class="cls-2" d="M811.57,127.17h-17.93c-4.53,0-8.09,3.88-7.71,8.39l5.44,63.68c.34,4,3.69,7.08,7.71,7.08h6.13c3.97,0,7.3-3.01,7.7-6.97l6.35-63.68c.45-4.55-3.12-8.5-7.7-8.5Z"/>
  </g>
  <g>
    <g>
      <path class="cls-3" d="M345.1,344.99h15.4c2.13,0,3.97-.77,5.5-2.3,1.53-1.53,2.3-3.37,2.3-5.5v-49.8c0-2-.67-3.67-2-5-1.33-1.33-3-2-5-2h-31.6c-2,0-3.67.67-5,2-1.33,1.33-2,3-2,5v55.4c0,4.53-1.6,8.53-4.8,12-1.33,1.47-2.73,2.9-4.2,4.3-1.47,1.4-3.33,2.57-5.6,3.5-2,.93-4.13,1.4-6.4,1.4h-19.2c-2,0-4.1-.5-6.3-1.5s-4.03-2.17-5.5-3.5c-1.47-1.47-2.9-2.9-4.3-4.3-1.4-1.4-2.57-3.23-3.5-5.5-.93-2-1.4-4.13-1.4-6.4v-60.2c0-2,.5-4.1,1.5-6.3,1-2.2,2.17-4.03,3.5-5.5,1.47-1.47,2.93-2.93,4.4-4.4,1.47-1.47,3.27-2.67,5.4-3.6,2-.93,4.07-1.4,6.2-1.4h14.2c2,0,3.67-.67,5-2,1.33-1.33,2-3,2-5v-13.8c0-1.87-.67-3.5-2-4.9-1.33-1.4-3-2.1-5-2.1h-28.2c-2,0-3.67-.67-5-2-1.33-1.33-2-3-2-5v-4.6c0-2,.67-3.67,2-5,1.33-1.33,3-2,5-2h28.2c2,0,3.67-.67,5-2s2-3,2-5v-11.2c0-2,.67-3.67,2-5,1.33-1.33,3-2,5-2h5c2,0,3.67.67,5,2,1.33,1.33,2,3,2,5v11.2c0,2,.67,3.67,2,5,1.33,1.33,3,2,5,2h12.2c2,0,3.67.67,5,2,1.33,1.33,2,3,2,5v4.6c0,2-.67,3.67-2,5s-3,2-5,2h-12.2c-2,0-3.67.7-5,2.1-1.33,1.4-2,3.03-2,4.9v13.8c0,2,.67,3.67,2,5,1.33,1.33,3,2,5,2h36.2c4.53,0,8.47,1.67,11.8,5,1.47,1.47,2.9,2.87,4.3,4.2,1.4,1.33,2.57,3.13,3.5,5.4.93,2.27,1.4,4.47,1.4,6.6v57.6c0,2.27-.53,4.67-1.6,7.2-1.07,2.53-2.33,4.6-3.8,6.2-1.6,1.73-3.2,3.4-4.8,5-1.6,1.6-3.6,2.93-6,4-2.8,1.07-5.2,1.6-7.2,1.6h-18.4c-5.2-.67-7.8-3.27-7.8-7.8v-3.6c.67-5.2,3.27-7.8,7.8-7.8ZM282.1,342.99c1.33,1.33,3,2,5,2h9.6c2,0,3.67-.67,5-2,1.33-1.33,2-3,2-5v-50.6c0-2-.67-3.67-2-5-1.33-1.33-3-2-5-2h-9.6c-2,0-3.67.67-5,2-1.33,1.33-2,3-2,5v50.6c0,2,.67,3.67,2,5ZM357,208.89c-1.4-7.4-2.1-11.17-2.1-11.3,0-1.2.4-2.3,1.2-3.3.8-1,1.93-1.5,3.4-1.5h6.4c1.87,0,3.5.57,4.9,1.7,1.4,1.13,2.23,2.5,2.5,4.1l5,25c.4,1.6,1.07,3.03,2,4.3.93,1.27,1.93,1.9,3,1.9s2,.57,2.8,1.7c.8,1.13,1.2,2.57,1.2,4.3v6c0,1.6-.6,3.17-1.8,4.7-1.2,1.53-2.6,2.3-4.2,2.3h-10.6c-1.6,0-3.1-.73-4.5-2.2-1.4-1.47-2.3-3.07-2.7-4.8-2.93-14.53-5.1-25.5-6.5-32.9Z"/>
      <path class="cls-3" d="M430.1,361.99c-1.73,1.33-3.53,2-5.4,2h-10.8c-1.87,0-3.47-.7-4.8-2.1-1.33-1.4-2-3.03-2-4.9v-4.6c0-2,.5-3.67,1.5-5,1-1.33,2.23-2,3.7-2,1.33,0,2.67-.67,4-2,1.33-1.33,2.27-2.93,2.8-4.8l11.6-45.2c.67-1.73,1.17-3.77,1.5-6.1.33-2.33.5-4.37.5-6.1,0-1.6-.7-2.93-2.1-4-1.4-1.07-3.03-1.6-4.9-1.6h-11.8c-1.87,0-3.47-.67-4.8-2-1.33-1.33-2-2.93-2-4.8v-4.8c0-1.87.67-3.5,2-4.9,1.33-1.4,2.93-2.1,4.8-2.1h11.8c1.87,0,3.5-.67,4.9-2,1.4-1.33,2.1-3,2.1-5v-35.6c0-1.87-.53-3.47-1.6-4.8-1.07-1.33-2.33-2-3.8-2s-3.2-.5-5.2-1.5-3.67-2.17-5-3.5l-5.2-5c-1.33-1.47-2.47-3.27-3.4-5.4-.93-2.13-1.4-4-1.4-5.6,0-1.73.67-3.2,2-4.4,1.33-1.2,2.93-1.8,4.8-1.8h4.8c2,0,3.67.43,5,1.3,1.33.87,2,1.9,2,3.1,0,1.07.67,2,2,2.8,1.33.8,3,1.2,5,1.2h37.2c1.87,0,3.5.73,4.9,2.2,1.4,1.47,2.1,3.13,2.1,5v4.6c0,1.87-.7,3.5-2.1,4.9-1.4,1.4-3.03,2.1-4.9,2.1h-11.8c-1.87,0-3.5.67-4.9,2-1.4,1.33-2.1,2.93-2.1,4.8v35.6c0,2,.7,3.67,2.1,5,1.4,1.33,3.03,2,4.9,2h11.8c1.87,0,3.5.7,4.9,2.1s2.1,3.03,2.1,4.9v4.8c0,1.87-.7,3.47-2.1,4.8-1.4,1.33-3.03,2-4.9,2h-11.8c-1.87,0-3.5.53-4.9,1.6-1.4,1.07-2.1,2.4-2.1,4,0,1.47.17,3.23.5,5.3.33,2.07.83,4.37,1.5,6.9l11.6,45.2c.8,2,1.8,3.63,3,4.9,1.2,1.27,2.53,1.9,4,1.9s2.7.67,3.7,2c1,1.33,1.5,3,1.5,5v4.6c0,1.87-.7,3.5-2.1,4.9-1.4,1.4-3.03,2.1-4.9,2.1h-10.6c-1.87,0-3.67-.67-5.4-2-1.73-1.33-2.93-2.93-3.6-4.8l-6.4-25.8c-.4-1.87-1.07-2.8-2-2.8-.8,0-1.4.93-1.8,2.8l-6.4,25.8c-.67,1.87-1.87,3.47-3.6,4.8ZM486.3,361.89c-1.33-1.4-2-3.03-2-4.9v-164.2c0-2,.67-3.67,2-5,1.33-1.33,3-2,5-2h42.4c1.87,0,3.47.67,4.8,2,1.33,1.33,2,3,2,5v149.6c0,1.87-.47,3.97-1.4,6.3-.93,2.33-2.07,4.1-3.4,5.3l-5,5c-1.47,1.47-3.33,2.67-5.6,3.6-2.27.93-4.4,1.4-6.4,1.4h-27.4c-2,0-3.67-.7-5-2.1ZM514.9,345.39c2,0,3.67-.67,5-2,1.33-1.33,2-3,2-5v-127.2c0-1.87-.67-3.47-2-4.8-1.33-1.33-3-2-5-2h-5c-1.87,0-3.47.67-4.8,2s-2,2.93-2,4.8v127.2c0,2,.67,3.67,2,5,1.33,1.33,2.93,2,4.8,2h5Z"/>
      <path class="cls-3" d="M575.5,352.99c0-2,.67-3.67,2-5,1.33-1.33,3-2,5-2h72.8c2.27,0,4-.7,5.2-2.1,1.2-1.4,1.8-3.17,1.8-5.3v-45.8c0-2.27-.63-4-1.9-5.2-1.27-1.2-2.97-1.8-5.1-1.8h-70c-4.67,0-8.67-1.67-12-5l-4-4c-3.33-3.33-5-7.33-5-12v-33.2c0-2.27.63-3.97,1.9-5.1,1.27-1.13,2.96-1.7,5.1-1.7h4.4c4.67,0,7,2.27,7,6.8v29.2c0,2.27.63,4,1.9,5.2,1.27,1.2,2.97,1.8,5.1,1.8h71c2.13,0,4.2.33,6.2,1,2,.67,3.93,1.93,5.8,3.8l4,4c1.87,1.87,3.17,3.77,3.9,5.7.73,1.93,1.1,3.97,1.1,6.1v53.8c0,4.4-1.6,8.33-4.8,11.8l-4.4,4.6c-3.33,3.6-7.27,5.4-11.8,5.4h-78.8c-2.13,0-3.73-.63-4.8-1.9-1.07-1.27-1.6-2.83-1.6-4.7v-4.4ZM577.7,206.99c-.8-.8-1.6-1.53-2.4-2.2-3.47-3.07-5.2-6.33-5.2-9.8,0-1.6.67-2.87,2-3.8,1.33-.93,3-1.4,5-1.4h4.6c2,0,3.67.33,5,1,1.33.67,2.07,1.47,2.2,2.4.4,2.13,2.67,3.2,6.8,3.2h66.8c1.87,0,3.5.7,4.9,2.1,1.4,1.4,2.1,3.03,2.1,4.9v4.2c0,1.87-.7,3.47-2.1,4.8-1.4,1.33-3.03,2-4.9,2h-70.4c-2,0-4.13-.47-6.4-1.4-2.27-.93-4.13-2.13-5.6-3.6-.8-.8-1.6-1.6-2.4-2.4Z"/>
      <path class="cls-3" d="M749.5,232.19c-2.27,0-4,.67-5.2,2-1.2,1.33-1.8,3.07-1.8,5.2v99c0,2.27.63,4,1.9,5.2,1.27,1.2,2.97,1.8,5.1,1.8h64.8c2.27,0,4,.63,5.2,1.9,1.2,1.27,1.8,2.97,1.8,5.1v4.4c0,2.27-.63,4-1.9,5.2-1.27,1.2-2.97,1.8-5.1,1.8h-69.2c-2.13,0-4.2-.37-6.2-1.1-2-.73-3.93-2.03-5.8-3.9l-4-4c-1.87-1.87-3.17-3.8-3.9-5.8-.73-2-1.1-4.07-1.1-6.2v-103.4c0-2.4-.63-4.2-1.9-5.4-1.27-1.2-2.97-1.8-5.1-1.8h-6c-2.27,0-4-.63-5.2-1.9-1.2-1.27-1.8-2.97-1.8-5.1v-4.4c0-2.27.63-4,1.9-5.2,1.27-1.2,2.97-1.8,5.1-1.8h6c2.27,0,4-.63,5.2-1.9,1.2-1.27,1.8-2.97,1.8-5.1v-10c0-2.27.63-4,1.9-5.2,1.27-1.2,2.97-1.8,5.1-1.8h4.4c2.27,0,4,.63,5.2,1.9,1.2,1.27,1.8,2.97,1.8,5.1v10c0,2.27.63,4,1.9,5.2,1.27,1.2,2.97,1.8,5.1,1.8h76.8c2.27,0,4,.63,5.2,1.9,1.2,1.27,1.8,2.97,1.8,5.1v4.4c0,2.27-.63,4-1.9,5.2-1.27,1.2-2.97,1.8-5.1,1.8"/>
    </g>
    <circle class="cls-3" cx="803.26" cy="248.44" r="9.87"/>
    <path class="cls-3" d="M811.57,127.17h-17.93c-4.53,0-8.09,3.88-7.71,8.39l5.44,63.68c.34,4,3.69,7.08,7.71,7.08h6.13c3.97,0,7.3-3.01,7.7-6.97l6.35-63.68c.45-4.55-3.12-8.5-7.7-8.5Z"/>
  </g>
  <g>
    <g>
      <path class="cls-4" d="M345.1,344.99h15.4c2.13,0,3.97-.77,5.5-2.3,1.53-1.53,2.3-3.37,2.3-5.5v-49.8c0-2-.67-3.67-2-5-1.33-1.33-3-2-5-2h-31.6c-2,0-3.67.67-5,2-1.33,1.33-2,3-2,5v55.4c0,4.53-1.6,8.53-4.8,12-1.33,1.47-2.73,2.9-4.2,4.3-1.47,1.4-3.33,2.57-5.6,3.5-2,.93-4.13,1.4-6.4,1.4h-19.2c-2,0-4.1-.5-6.3-1.5s-4.03-2.17-5.5-3.5c-1.47-1.47-2.9-2.9-4.3-4.3-1.4-1.4-2.57-3.23-3.5-5.5-.93-2-1.4-4.13-1.4-6.4v-60.2c0-2,.5-4.1,1.5-6.3,1-2.2,2.17-4.03,3.5-5.5,1.47-1.47,2.93-2.93,4.4-4.4,1.47-1.47,3.27-2.67,5.4-3.6,2-.93,4.07-1.4,6.2-1.4h14.2c2,0,3.67-.67,5-2,1.33-1.33,2-3,2-5v-13.8c0-1.87-.67-3.5-2-4.9-1.33-1.4-3-2.1-5-2.1h-28.2c-2,0-3.67-.67-5-2-1.33-1.33-2-3-2-5v-4.6c0-2,.67-3.67,2-5,1.33-1.33,3-2,5-2h28.2c2,0,3.67-.67,5-2s2-3,2-5v-11.2c0-2,.67-3.67,2-5,1.33-1.33,3-2,5-2h5c2,0,3.67.67,5,2,1.33,1.33,2,3,2,5v11.2c0,2,.67,3.67,2,5,1.33,1.33,3,2,5,2h12.2c2,0,3.67.67,5,2,1.33,1.33,2,3,2,5v4.6c0,2-.67,3.67-2,5s-3,2-5,2h-12.2c-2,0-3.67.7-5,2.1-1.33,1.4-2,3.03-2,4.9v13.8c0,2,.67,3.67,2,5,1.33,1.33,3,2,5,2h36.2c4.53,0,8.47,1.67,11.8,5,1.47,1.47,2.9,2.87,4.3,4.2,1.4,1.33,2.57,3.13,3.5,5.4.93,2.27,1.4,4.47,1.4,6.6v57.6c0,2.27-.53,4.67-1.6,7.2-1.07,2.53-2.33,4.6-3.8,6.2-1.6,1.73-3.2,3.4-4.8,5-1.6,1.6-3.6,2.93-6,4-2.8,1.07-5.2,1.6-7.2,1.6h-18.4c-5.2-.67-7.8-3.27-7.8-7.8v-3.6c.67-5.2,3.27-7.8,7.8-7.8ZM282.1,342.99c1.33,1.33,3,2,5,2h9.6c2,0,3.67-.67,5-2,1.33-1.33,2-3,2-5v-50.6c0-2-.67-3.67-2-5-1.33-1.33-3-2-5-2h-9.6c-2,0-3.67.67-5,2-1.33,1.33-2,3-2,5v50.6c0,2,.67,3.67,2,5ZM357,208.89c-1.4-7.4-2.1-11.17-2.1-11.3,0-1.2.4-2.3,1.2-3.3.8-1,1.93-1.5,3.4-1.5h6.4c1.87,0,3.5.57,4.9,1.7,1.4,1.13,2.23,2.5,2.5,4.1l5,25c.4,1.6,1.07,3.03,2,4.3.93,1.27,1.93,1.9,3,1.9s2,.57,2.8,1.7c.8,1.13,1.2,2.57,1.2,4.3v6c0,1.6-.6,3.17-1.8,4.7-1.2,1.53-2.6,2.3-4.2,2.3h-10.6c-1.6,0-3.1-.73-4.5-2.2-1.4-1.47-2.3-3.07-2.7-4.8-2.93-14.53-5.1-25.5-6.5-32.9Z"/>
      <path class="cls-4" d="M430.1,361.99c-1.73,1.33-3.53,2-5.4,2h-10.8c-1.87,0-3.47-.7-4.8-2.1-1.33-1.4-2-3.03-2-4.9v-4.6c0-2,.5-3.67,1.5-5,1-1.33,2.23-2,3.7-2,1.33,0,2.67-.67,4-2,1.33-1.33,2.27-2.93,2.8-4.8l11.6-45.2c.67-1.73,1.17-3.77,1.5-6.1.33-2.33.5-4.37.5-6.1,0-1.6-.7-2.93-2.1-4-1.4-1.07-3.03-1.6-4.9-1.6h-11.8c-1.87,0-3.47-.67-4.8-2-1.33-1.33-2-2.93-2-4.8v-4.8c0-1.87.67-3.5,2-4.9,1.33-1.4,2.93-2.1,4.8-2.1h11.8c1.87,0,3.5-.67,4.9-2,1.4-1.33,2.1-3,2.1-5v-35.6c0-1.87-.53-3.47-1.6-4.8-1.07-1.33-2.33-2-3.8-2s-3.2-.5-5.2-1.5-3.67-2.17-5-3.5l-5.2-5c-1.33-1.47-2.47-3.27-3.4-5.4-.93-2.13-1.4-4-1.4-5.6,0-1.73.67-3.2,2-4.4,1.33-1.2,2.93-1.8,4.8-1.8h4.8c2,0,3.67.43,5,1.3,1.33.87,2,1.9,2,3.1,0,1.07.67,2,2,2.8,1.33.8,3,1.2,5,1.2h37.2c1.87,0,3.5.73,4.9,2.2,1.4,1.47,2.1,3.13,2.1,5v4.6c0,1.87-.7,3.5-2.1,4.9-1.4,1.4-3.03,2.1-4.9,2.1h-11.8c-1.87,0-3.5.67-4.9,2-1.4,1.33-2.1,2.93-2.1,4.8v35.6c0,2,.7,3.67,2.1,5,1.4,1.33,3.03,2,4.9,2h11.8c1.87,0,3.5.7,4.9,2.1s2.1,3.03,2.1,4.9v4.8c0,1.87-.7,3.47-2.1,4.8-1.4,1.33-3.03,2-4.9,2h-11.8c-1.87,0-3.5.53-4.9,1.6-1.4,1.07-2.1,2.4-2.1,4,0,1.47.17,3.23.5,5.3.33,2.07.83,4.37,1.5,6.9l11.6,45.2c.8,2,1.8,3.63,3,4.9,1.2,1.27,2.53,1.9,4,1.9s2.7.67,3.7,2c1,1.33,1.5,3,1.5,5v4.6c0,1.87-.7,3.5-2.1,4.9-1.4,1.4-3.03,2.1-4.9,2.1h-10.6c-1.87,0-3.67-.67-5.4-2-1.73-1.33-2.93-2.93-3.6-4.8l-6.4-25.8c-.4-1.87-1.07-2.8-2-2.8-.8,0-1.4.93-1.8,2.8l-6.4,25.8c-.67,1.87-1.87,3.47-3.6,4.8ZM486.3,361.89c-1.33-1.4-2-3.03-2-4.9v-164.2c0-2,.67-3.67,2-5,1.33-1.33,3-2,5-2h42.4c1.87,0,3.47.67,4.8,2,1.33,1.33,2,3,2,5v149.6c0,1.87-.47,3.97-1.4,6.3-.93,2.33-2.07,4.1-3.4,5.3l-5,5c-1.47,1.47-3.33,2.67-5.6,3.6-2.27.93-4.4,1.4-6.4,1.4h-27.4c-2,0-3.67-.7-5-2.1ZM514.9,345.39c2,0,3.67-.67,5-2,1.33-1.33,2-3,2-5v-127.2c0-1.87-.67-3.47-2-4.8-1.33-1.33-3-2-5-2h-5c-1.87,0-3.47.67-4.8,2s-2,2.93-2,4.8v127.2c0,2,.67,3.67,2,5,1.33,1.33,2.93,2,4.8,2h5Z"/>
      <path class="cls-4" d="M575.5,352.99c0-2,.67-3.67,2-5,1.33-1.33,3-2,5-2h72.8c2.27,0,4-.7,5.2-2.1,1.2-1.4,1.8-3.17,1.8-5.3v-45.8c0-2.27-.63-4-1.9-5.2-1.27-1.2-2.97-1.8-5.1-1.8h-70c-4.67,0-8.67-1.67-12-5l-4-4c-3.33-3.33-5-7.33-5-12v-33.2c0-2.27.63-3.97,1.9-5.1,1.27-1.13,2.96-1.7,5.1-1.7h4.4c4.67,0,7,2.27,7,6.8v29.2c0,2.27.63,4,1.9,5.2,1.27,1.2,2.97,1.8,5.1,1.8h71c2.13,0,4.2.33,6.2,1,2,.67,3.93,1.93,5.8,3.8l4,4c1.87,1.87,3.17,3.77,3.9,5.7.73,1.93,1.1,3.97,1.1,6.1v53.8c0,4.4-1.6,8.33-4.8,11.8l-4.4,4.6c-3.33,3.6-7.27,5.4-11.8,5.4h-78.8c-2.13,0-3.73-.63-4.8-1.9-1.07-1.27-1.6-2.83-1.6-4.7v-4.4ZM577.7,206.99c-.8-.8-1.6-1.53-2.4-2.2-3.47-3.07-5.2-6.33-5.2-9.8,0-1.6.67-2.87,2-3.8,1.33-.93,3-1.4,5-1.4h4.6c2,0,3.67.33,5,1,1.33.67,2.07,1.47,2.2,2.4.4,2.13,2.67,3.2,6.8,3.2h66.8c1.87,0,3.5.7,4.9,2.1,1.4,1.4,2.1,3.03,2.1,4.9v4.2c0,1.87-.7,3.47-2.1,4.8-1.4,1.33-3.03,2-4.9,2h-70.4c-2,0-4.13-.47-6.4-1.4-2.27-.93-4.13-2.13-5.6-3.6-.8-.8-1.6-1.6-2.4-2.4Z"/>
      <path class="cls-4" d="M749.5,232.19c-2.27,0-4,.67-5.2,2-1.2,1.33-1.8,3.07-1.8,5.2v99c0,2.27.63,4,1.9,5.2,1.27,1.2,2.97,1.8,5.1,1.8h64.8c2.27,0,4,.63,5.2,1.9,1.2,1.27,1.8,2.97,1.8,5.1v4.4c0,2.27-.63,4-1.9,5.2-1.27,1.2-2.97,1.8-5.1,1.8h-69.2c-2.13,0-4.2-.37-6.2-1.1-2-.73-3.93-2.03-5.8-3.9l-4-4c-1.87-1.87-3.17-3.8-3.9-5.8-.73-2-1.1-4.07-1.1-6.2v-103.4c0-2.4-.63-4.2-1.9-5.4-1.27-1.2-2.97-1.8-5.1-1.8h-6c-2.27,0-4-.63-5.2-1.9-1.2-1.27-1.8-2.97-1.8-5.1v-4.4c0-2.27.63-4,1.9-5.2,1.27-1.2,2.97-1.8,5.1-1.8h6c2.27,0,4-.63,5.2-1.9,1.2-1.27,1.8-2.97,1.8-5.1v-10c0-2.27.63-4,1.9-5.2,1.27-1.2,2.97-1.8,5.1-1.8h4.4c2.27,0,4,.63,5.2,1.9,1.2,1.27,1.8,2.97,1.8,5.1v10c0,2.27.63,4,1.9,5.2,1.27,1.2,2.97,1.8,5.1,1.8h76.8c2.27,0,4,.63,5.2,1.9,1.2,1.27,1.8,2.97,1.8,5.1v4.4c0,2.27-.63,4-1.9,5.2-1.27,1.2-2.97,1.8-5.1,1.8"/>
    </g>
    <circle class="cls-1" cx="803.26" cy="248.44" r="9.87"/>
    <path class="cls-1" d="M811.57,127.17h-17.93c-4.53,0-8.09,3.88-7.71,8.39l5.44,63.68c.34,4,3.69,7.08,7.71,7.08h6.13c3.97,0,7.3-3.01,7.7-6.97l6.35-63.68c.45-4.55-3.12-8.5-7.7-8.5Z"/>
  </g>
</svg>