<?xml version="1.0" encoding="UTF-8"?>
<svg id="_レイヤー_1" xmlns="http://www.w3.org/2000/svg" version="1.1" viewBox="0 0 1080 566">
  <!-- Generator: Adobe Illustrator 30.3.0, SVG Export Plug-In . SVG Version: 2.1.3 Build 182)  -->
  <defs>
    <style>
      .st0 {
        fill: #fff;
      }

      .st1 {
        fill: #d73666;
      }

      .st2 {
        fill: #242e50;
      }
    </style>
  </defs>
  <g>
    <g>
      <path class="st2" d="M363.5,429.19h-18.4c-2.78,0-5.55-.18-8.31-.53-4.46-.57-8.79-1.5-12.95-2.76-7.15,2.06-14.56,3.1-22.14,3.1h-19.2c-11.33,0-22.5-2.47-33.2-7.33-8.29-3.77-15.76-8.64-22.21-14.48-.8-.73-1.59-1.47-2.35-2.24l-4.28-4.28c-7.22-7.22-12.98-15.8-17.15-25.52-4.51-10.22-6.8-21.1-6.8-32.35v-60.2c0-9.69,1.8-19.27,5.37-28.53-3.52-8.59-5.37-17.88-5.37-27.47v-4.6c0-19.3,7.47-37.4,21.05-50.97,10.29-10.29,23.21-17.08,37.27-19.75,1.54-1.88,3.18-3.7,4.92-5.44,13.56-13.56,31.66-21.04,50.96-21.04h5c9.33,0,18.37,1.74,26.76,5.08,5.5-1.37,11.21-2.08,17.04-2.08h6.4c16.61,0,32.85,5.73,45.73,16.13,13.3,10.73,22.32,25.73,25.49,42.36l1.34,6.7c.23.31.46.63.69.95,8.6,12.15,13.15,26.63,13.15,41.86v6c0,7.03-1.01,13.93-2.99,20.54,1.72,6.66,2.59,13.44,2.59,20.26v57.6c0,11.02-2.27,21.96-6.74,32.53-3.98,9.41-9.3,17.78-15.8,24.85-.04.05-.09.1-.13.14-2.2,2.38-4.41,4.68-6.56,6.83-7.23,7.23-15.81,13.09-25.51,17.41-1.07.48-2.15.92-3.25,1.34-10.22,3.91-20.45,5.88-30.41,5.88ZM413.15,211.52c1.13.81,2.24,1.65,3.34,2.52l1.19-.3c.46-1.65.85-3.33,1.17-5.02-1.67-2.48-3.54-4.81-5.59-6.97-1.02-1.07-2.07-2.09-3.17-3.07,1.41,4.15,2.43,8.45,3.07,12.84ZM418.99,186.8s0,0,0,0c0,0,0,0,0,0Z"/>
      <path class="st2" d="M518.7,428.99h-27.4c-3.64,0-7.23-.26-10.75-.78-3.5.52-7.05.78-10.65.78h-10.6c-5.89,0-11.68-.7-17.3-2.07-5.62,1.37-11.41,2.07-17.3,2.07h-10.8c-19.81,0-38.25-7.93-51.93-22.34-12.81-13.48-19.87-31.12-19.87-49.66v-4.6c0-15.37,4.54-29.89,13.16-42.15-8.55-12.04-13.16-26.39-13.16-41.45v-4.8c0-13.52,3.76-26.57,10.77-37.88-1.43-2.55-2.75-5.19-3.93-7.91-4.53-10.38-6.83-21.02-6.83-31.61,0-20.01,8.55-39.21,23.45-52.66,13.26-11.96,30.43-18.54,48.35-18.54h4.8c12.26,0,24.1,2.89,34.62,8.4h16.58c.21,0,.42,0,.63,0,6.65-1.98,13.63-3,20.77-3h42.4c19.17,0,37.2,7.47,50.76,21.04s21.04,31.67,21.04,50.96v149.6c0,10.14-2.03,20.37-6.03,30.4-4.32,10.83-10.52,20.16-18.43,27.79l-4.38,4.38c-7.6,7.6-16.66,13.58-26.93,17.79-10.13,4.15-20.57,6.25-31.04,6.25ZM380.35,345.06s0,.01,0,.02v-.02ZM380.34,344.98s0,.04.01.05c0-.02,0-.04-.01-.05ZM370.09,269.91s0,.03-.01.04c0-.01,0-.02.01-.04ZM360.7,184.79v.06-.06ZM427.3,142.59h.05-.05Z"/>
      <path class="st2" d="M660.7,428.99h-78.8c-21.25,0-41.12-9.12-54.51-25.02-10.89-12.93-16.89-29.47-16.89-46.58v-4.4c0-12.31,3.04-24.14,8.77-34.61-12.92-14.9-19.97-33.71-19.97-53.59v-33.2c0-10.3,2.14-20.31,6.14-29.43-.22-2.37-.34-4.76-.34-7.17,0-22.71,11.12-44.04,29.75-57.07,12.29-8.59,26.9-13.13,42.25-13.13h4.6c11.16,0,21.71,2.22,31.42,6.6h49.38c19.17,0,37.23,7.51,50.86,21.14,13.63,13.64,21.14,31.7,21.14,50.86v4.2c0,10.27-2.13,20.18-6.2,29.24,5.65,6.86,10.04,14.39,13.1,22.48,3.51,9.28,5.3,19.07,5.3,29.08v53.8c0,20.62-7.82,40.46-22.01,55.85-.27.3-.55.59-.83.88l-4.15,4.34c-15.61,16.6-36.54,25.73-59.02,25.73ZM632.57,187.05c.8,1.03,1.58,2.07,2.32,3.15-.1-1.15-.24-2.28-.41-3.41l-1.92.27ZM616.51,172.09c5.48,3.7,10.39,8.14,14.61,13.18l3-.56c-1.5-7.88-4.69-15.28-9.25-21.46-.76.65-1.51,1.32-2.24,2.02-2.23,2.12-4.27,4.4-6.12,6.83Z"/>
      <path class="st2" d="M814.3,428.79h-69.2c-9.73,0-19.31-1.69-28.47-5.04-10.97-4.01-20.88-10.4-29.49-19l-4-4c-8.62-8.62-15.01-18.54-19-29.49-3.34-9.14-5.04-18.73-5.04-28.47v-67.39c-.15-.16-.31-.32-.46-.48-12.59-13.33-19.54-30.99-19.54-49.73v-4.4c0-20.25,7.9-38.87,22.25-52.43,1.78-1.69,3.65-3.27,5.58-4.75,3.63-7.12,8.47-13.62,14.42-19.25,13.36-12.62,31.02-19.57,49.75-19.57h4.4c20.26,0,38.88,7.9,52.44,22.25.54.57,1.07,1.16,1.6,1.75h36.76c20.26,0,38.88,7.9,52.44,22.25,12.61,13.35,19.56,31.01,19.56,49.75v4.4c0,20.25-7.9,38.87-22.25,52.43-6.51,6.15-14.04,10.95-22.21,14.26,4.67,3.03,9,6.64,12.91,10.77,12.6,13.33,19.55,31,19.55,49.74v4.4c0,20.25-7.9,38.87-22.25,52.43-13.36,12.62-31.03,19.57-49.75,19.57ZM826.3,167.19h-.04.04Z"/>
    </g>
    <path class="st2" d="M803.26,323.31c-41.28,0-74.87-33.59-74.87-74.87s33.59-74.87,74.87-74.87,74.87,33.59,74.87,74.87-33.59,74.87-74.87,74.87ZM803.26,193.31c-30.4,0-55.13,24.73-55.13,55.13s24.73,55.13,55.13,55.13,55.13-24.73,55.13-55.13-24.73-55.13-55.13-55.13Z"/>
    <path class="st2" d="M805.21,271.32h-6.13c-18.27,0-35.75-6.81-49.21-19.17-13.46-12.36-21.72-29.2-23.27-47.41l-5.44-63.65c-1.71-20.3,5.19-40.47,18.93-55.41,13.74-14.94,33.25-23.51,53.55-23.51h17.93c.08,0,.16,0,.24,0h.02c20.4.08,39.93,8.78,53.63,23.9,13.76,15.19,20.5,35.6,18.48,56l-6.35,63.73c-3.78,37.39-34.89,65.52-72.38,65.52ZM856.13,193.66v.05s0-.03,0-.05Z"/>
  </g>
  <g>
    <g>
      <path class="st0" d="M363.5,414.19h-21.61l-3.18-.41c-5.21-.67-10.14-1.92-14.75-3.69-7.12,2.59-14.58,3.9-22.26,3.9h-19.2c-9.18,0-18.26-2.01-26.99-5.98-6.88-3.12-13.05-7.14-18.36-11.95l-.93-.84-5.17-5.17c-5.88-5.88-10.58-12.9-14-20.9-3.69-8.33-5.55-17.19-5.55-26.36v-60.2c0-9.18,2.01-18.26,5.98-26.99.28-.61.56-1.21.85-1.8-4.46-8.24-6.83-17.53-6.83-27.21v-4.6c0-15.29,5.91-29.63,16.65-40.36,9.46-9.46,21.73-15.18,34.99-16.39,2.08-3.14,4.49-6.08,7.21-8.8,10.73-10.73,25.06-16.64,40.36-16.64h5c9.09,0,17.84,2.09,25.7,6.04,5.72-1.99,11.83-3.04,18.1-3.04h6.4c13.39,0,25.94,4.43,36.31,12.8,10.55,8.51,17.69,20.4,20.19,33.56l2.05,10.23c.85,1.04,1.68,2.11,2.46,3.21,6.8,9.61,10.39,21.08,10.39,33.19v6c0,6.97-1.26,13.77-3.71,20.19,2.2,6.76,3.31,13.67,3.31,20.61v57.6c0,9-1.87,17.98-5.55,26.68-3.31,7.82-7.69,14.74-13.03,20.55l-.1.11c-2.07,2.24-4.14,4.4-6.16,6.41-5.93,5.93-13,10.75-21.01,14.32l-1.24.55-1.26.48c-8.5,3.25-16.93,4.9-25.05,4.9ZM398.85,219.48c0,.2.02.4.02.59.13-.22.26-.45.38-.67l-.4.08ZM397.04,207.37c.94,3.6,1.53,7.31,1.76,11.09l1.11-.28c1-1.94,1.86-3.95,2.56-6.02-.02-.02-.04-.05-.07-.07-1.65-1.73-3.45-3.31-5.36-4.73ZM404.22,189.4s0,0,0,0t0,0ZM383.3,179.79h.05-.05Z"/>
      <path class="st0" d="M518.7,413.99h-27.4c-3.66,0-7.25-.34-10.75-1-3.48.66-7.04,1-10.65,1h-10.6c-5.92,0-11.73-.89-17.3-2.64-5.57,1.74-11.38,2.64-17.3,2.64h-10.8c-15.65,0-30.23-6.27-41.05-17.67-10.15-10.68-15.75-24.65-15.75-39.33v-4.6c0-12.89,3.99-25.01,11.54-35.05,1.85-2.47,3.88-4.75,6.05-6.83l.13-.52c-.36-.34-.72-.69-1.07-1.05-10.73-10.73-16.64-24.99-16.64-40.16v-4.8c0-13.8,4.94-26.97,13.98-37.38-3.31-4.38-6.12-9.2-8.4-14.41-3.7-8.48-5.58-17.09-5.58-25.61,0-15.78,6.74-30.91,18.5-41.52,10.5-9.47,24.09-14.68,38.3-14.68h4.8c11.03,0,21.6,2.9,30.69,8.4h20.51c.93,0,1.86.02,2.78.07,5.9-2.02,12.18-3.07,18.62-3.07h42.4c15.16,0,29.42,5.91,40.16,16.64s16.64,25.07,16.64,40.36v149.6c0,8.23-1.67,16.59-4.96,24.84-3.54,8.87-8.58,16.47-15,22.63l-4.49,4.49c-6.19,6.19-13.59,11.07-22.01,14.51-8.31,3.4-16.84,5.13-25.35,5.13ZM375.7,184.79v.05-.05ZM427.3,157.59h.03-.03Z"/>
      <path class="st0" d="M660.7,413.99h-78.8c-16.81,0-32.5-7.18-43.04-19.69-8.62-10.23-13.36-23.34-13.36-36.91v-4.4c0-13.45,4.57-26.15,12.97-36.32-.18-.17-.35-.35-.53-.52l-4-4c-12.67-12.67-19.64-29.49-19.64-47.36v-33.2c0-9.75,2.27-18.95,6.56-27.05-.5-3.13-.76-6.32-.76-9.55,0-17.81,8.73-34.55,23.34-44.77,9.75-6.82,21.39-10.43,33.66-10.43h4.6c9.88,0,19.13,2.13,27.49,6.34.17.08.33.17.5.26h52.81c15.16,0,29.46,5.95,40.26,16.74,10.8,10.8,16.74,25.1,16.74,40.26v4.2c0,11.42-3.34,22.28-9.58,31.51l2.13,2.13c6.91,6.91,12.06,14.78,15.32,23.38,2.87,7.58,4.33,15.59,4.33,23.78v53.8c0,16.84-6.41,33.07-18.04,45.69l-.63.68-4.19,4.38c-12.75,13.58-29.83,21.05-48.14,21.05Z"/>
      <path class="st0" d="M814.3,413.79h-69.2c-7.97,0-15.83-1.39-23.33-4.13-8.9-3.25-16.97-8.47-24.02-15.52l-4-4c-7.06-7.07-12.28-15.14-15.52-24.02-2.74-7.49-4.13-15.35-4.13-23.33v-73.86c-1.59-1.34-3.11-2.78-4.55-4.31-9.96-10.54-15.45-24.54-15.45-39.43v-4.4c0-16.08,6.23-30.83,17.55-41.53,2.25-2.13,4.66-4.05,7.2-5.76,2.97-6.83,7.28-13.02,12.8-18.24,10.56-9.98,24.56-15.47,39.45-15.47h4.4c16.09,0,30.84,6.24,41.54,17.56,1.92,2.03,3.66,4.18,5.24,6.44h44.02c16.09,0,30.84,6.24,41.54,17.56,9.97,10.55,15.46,24.56,15.46,39.44v4.4c0,16.08-6.23,30.83-17.55,41.53-10.57,9.98-24.57,15.47-39.45,15.47v-18.4h-33.8v31.6h21.8c16.09,0,30.85,6.24,41.55,17.57,9.96,10.54,15.45,24.54,15.45,39.43v4.4c0,16.08-6.23,30.83-17.55,41.53-10.56,9.98-24.57,15.47-39.45,15.47ZM774.1,263.79v10.38c2.66-1.87,5.12-4.05,7.32-6.48,1.12-1.24,2.16-2.54,3.12-3.9h-10.44ZM792.5,246.94c.84,1.07,1.72,2.1,2.66,3.09,8.26,8.74,19.61,13.76,31.14,13.76v-81.6c-10.6,0-21.25,4.32-29.23,11.85-1.66,1.57-3.19,3.25-4.57,5.02v7.73c0-2.33-.2-4.65-.6-6.94-5.08,6.81-8.08,14.88-8.54,23.13.46,8.24,3.48,16.4,8.55,23.19.39-2.25.59-4.52.59-6.78v7.55Z"/>
    </g>
    <path class="st0" d="M803.26,308.31c-33.01,0-59.87-26.86-59.87-59.87s26.86-59.87,59.87-59.87,59.87,26.86,59.87,59.87-26.86,59.87-59.87,59.87ZM803.26,208.31c-22.13,0-40.13,18-40.13,40.13s18,40.13,40.13,40.13,40.13-18,40.13-40.13-18-40.13-40.13-40.13Z"/>
    <path class="st0" d="M805.21,256.32h-6.13c-14.51,0-28.38-5.4-39.06-15.22-10.68-9.81-17.24-23.18-18.47-37.63l-5.44-63.66c-1.36-16.11,4.12-32.12,15.03-43.98,10.9-11.86,26.39-18.66,42.5-18.66h17.93c16.27,0,31.86,6.92,42.78,18.97,10.92,12.06,16.27,28.26,14.67,44.45l-6.35,63.72c-3,29.68-27.7,52.01-57.45,52.01ZM841.19,194.95v.04s0-.02,0-.04ZM780.88,163.97c5.88,6.2,13.48,10.44,21.72,12.23,3.1-.67,6.1-1.69,8.96-3.03v-15.01c-3-.91-6.15-1.5-9.4-1.73-7.87.56-15.17,3.26-21.28,7.54ZM811.57,158.16v15.01c4.6-2.16,8.82-5.14,12.41-8.84-3.72-2.7-7.9-4.79-12.41-6.17Z"/>
    <rect class="st0" x="767.4" y="119.77" width="65.87" height="200.17"/>
  </g>
  <g>
    <g>
      <path class="st2" d="M345.1,344.99h15.4c2.13,0,3.97-.77,5.5-2.3s2.3-3.37,2.3-5.5v-49.8c0-2-.67-3.67-2-5s-3-2-5-2h-31.6c-2,0-3.67.67-5,2s-2,3-2,5v55.4c0,4.53-1.6,8.53-4.8,12-1.33,1.47-2.73,2.9-4.2,4.3s-3.33,2.57-5.6,3.5c-2,.93-4.13,1.4-6.4,1.4h-19.2c-2,0-4.1-.5-6.3-1.5s-4.03-2.17-5.5-3.5l-4.3-4.3c-1.4-1.4-2.57-3.23-3.5-5.5-.93-2-1.4-4.13-1.4-6.4v-60.2c0-2,.5-4.1,1.5-6.3,1-2.2,2.17-4.03,3.5-5.5l4.4-4.4c1.47-1.47,3.27-2.67,5.4-3.6,2-.93,4.07-1.4,6.2-1.4h14.2c2,0,3.67-.67,5-2s2-3,2-5v-13.8c0-1.87-.67-3.5-2-4.9s-3-2.1-5-2.1h-28.2c-2,0-3.67-.67-5-2s-2-3-2-5v-4.6c0-2,.67-3.67,2-5s3-2,5-2h28.2c2,0,3.67-.67,5-2s2-3,2-5v-11.2c0-2,.67-3.67,2-5s3-2,5-2h5c2,0,3.67.67,5,2s2,3,2,5v11.2c0,2,.67,3.67,2,5s3,2,5,2h12.2c2,0,3.67.67,5,2s2,3,2,5v4.6c0,2-.67,3.67-2,5s-3,2-5,2h-12.2c-2,0-3.67.7-5,2.1-1.33,1.4-2,3.03-2,4.9v13.8c0,2,.67,3.67,2,5s3,2,5,2h36.2c4.53,0,8.47,1.67,11.8,5,1.47,1.47,2.9,2.87,4.3,4.2,1.4,1.33,2.57,3.13,3.5,5.4s1.4,4.47,1.4,6.6v57.6c0,2.27-.53,4.67-1.6,7.2s-2.33,4.6-3.8,6.2c-1.6,1.73-3.2,3.4-4.8,5-1.6,1.6-3.6,2.93-6,4-2.8,1.07-5.2,1.6-7.2,1.6h-18.4c-5.2-.67-7.8-3.27-7.8-7.8v-3.6c.67-5.2,3.27-7.8,7.8-7.8h0ZM282.1,342.99c1.33,1.33,3,2,5,2h9.6c2,0,3.67-.67,5-2s2-3,2-5v-50.6c0-2-.67-3.67-2-5s-3-2-5-2h-9.6c-2,0-3.67.67-5,2s-2,3-2,5v50.6c0,2,.67,3.67,2,5ZM357,208.89c-1.4-7.4-2.1-11.17-2.1-11.3,0-1.2.4-2.3,1.2-3.3.8-1,1.93-1.5,3.4-1.5h6.4c1.87,0,3.5.57,4.9,1.7,1.4,1.13,2.23,2.5,2.5,4.1l5,25c.4,1.6,1.07,3.03,2,4.3s1.93,1.9,3,1.9,2,.57,2.8,1.7c.8,1.13,1.2,2.57,1.2,4.3v6c0,1.6-.6,3.17-1.8,4.7-1.2,1.53-2.6,2.3-4.2,2.3h-10.6c-1.6,0-3.1-.73-4.5-2.2s-2.3-3.07-2.7-4.8c-2.93-14.53-5.1-25.5-6.5-32.9h0Z"/>
      <path class="st2" d="M430.1,361.99c-1.73,1.33-3.53,2-5.4,2h-10.8c-1.87,0-3.47-.7-4.8-2.1s-2-3.03-2-4.9v-4.6c0-2,.5-3.67,1.5-5s2.23-2,3.7-2c1.33,0,2.67-.67,4-2s2.27-2.93,2.8-4.8l11.6-45.2c.67-1.73,1.17-3.77,1.5-6.1.33-2.33.5-4.37.5-6.1,0-1.6-.7-2.93-2.1-4s-3.03-1.6-4.9-1.6h-11.8c-1.87,0-3.47-.67-4.8-2s-2-2.93-2-4.8v-4.8c0-1.87.67-3.5,2-4.9s2.93-2.1,4.8-2.1h11.8c1.87,0,3.5-.67,4.9-2,1.4-1.33,2.1-3,2.1-5v-35.6c0-1.87-.53-3.47-1.6-4.8s-2.33-2-3.8-2-3.2-.5-5.2-1.5-3.67-2.17-5-3.5l-5.2-5c-1.33-1.47-2.47-3.27-3.4-5.4-.93-2.13-1.4-4-1.4-5.6,0-1.73.67-3.2,2-4.4s2.93-1.8,4.8-1.8h4.8c2,0,3.67.43,5,1.3,1.33.87,2,1.9,2,3.1,0,1.07.67,2,2,2.8s3,1.2,5,1.2h37.2c1.87,0,3.5.73,4.9,2.2s2.1,3.13,2.1,5v4.6c0,1.87-.7,3.5-2.1,4.9s-3.03,2.1-4.9,2.1h-11.8c-1.87,0-3.5.67-4.9,2s-2.1,2.93-2.1,4.8v35.6c0,2,.7,3.67,2.1,5,1.4,1.33,3.03,2,4.9,2h11.8c1.87,0,3.5.7,4.9,2.1s2.1,3.03,2.1,4.9v4.8c0,1.87-.7,3.47-2.1,4.8s-3.03,2-4.9,2h-11.8c-1.87,0-3.5.53-4.9,1.6s-2.1,2.4-2.1,4c0,1.47.17,3.23.5,5.3.33,2.07.83,4.37,1.5,6.9l11.6,45.2c.8,2,1.8,3.63,3,4.9s2.53,1.9,4,1.9,2.7.67,3.7,2,1.5,3,1.5,5v4.6c0,1.87-.7,3.5-2.1,4.9s-3.03,2.1-4.9,2.1h-10.6c-1.87,0-3.67-.67-5.4-2-1.73-1.33-2.93-2.93-3.6-4.8l-6.4-25.8c-.4-1.87-1.07-2.8-2-2.8-.8,0-1.4.93-1.8,2.8l-6.4,25.8c-.67,1.87-1.87,3.47-3.6,4.8h0ZM486.3,361.89c-1.33-1.4-2-3.03-2-4.9v-164.2c0-2,.67-3.67,2-5s3-2,5-2h42.4c1.87,0,3.47.67,4.8,2s2,3,2,5v149.6c0,1.87-.47,3.97-1.4,6.3-.93,2.33-2.07,4.1-3.4,5.3l-5,5c-1.47,1.47-3.33,2.67-5.6,3.6-2.27.93-4.4,1.4-6.4,1.4h-27.4c-2,0-3.67-.7-5-2.1h0ZM514.9,345.39c2,0,3.67-.67,5-2s2-3,2-5v-127.2c0-1.87-.67-3.47-2-4.8s-3-2-5-2h-5c-1.87,0-3.47.67-4.8,2s-2,2.93-2,4.8v127.2c0,2,.67,3.67,2,5s2.93,2,4.8,2h5Z"/>
      <path class="st2" d="M575.5,352.99c0-2,.67-3.67,2-5s3-2,5-2h72.8c2.27,0,4-.7,5.2-2.1s1.8-3.17,1.8-5.3v-45.8c0-2.27-.63-4-1.9-5.2s-2.97-1.8-5.1-1.8h-70c-4.67,0-8.67-1.67-12-5l-4-4c-3.33-3.33-5-7.33-5-12v-33.2c0-2.27.63-3.97,1.9-5.1s2.96-1.7,5.1-1.7h4.4c4.67,0,7,2.27,7,6.8v29.2c0,2.27.63,4,1.9,5.2s2.97,1.8,5.1,1.8h71c2.13,0,4.2.33,6.2,1s3.93,1.93,5.8,3.8l4,4c1.87,1.87,3.17,3.77,3.9,5.7.73,1.93,1.1,3.97,1.1,6.1v53.8c0,4.4-1.6,8.33-4.8,11.8l-4.4,4.6c-3.33,3.6-7.27,5.4-11.8,5.4h-78.8c-2.13,0-3.73-.63-4.8-1.9s-1.6-2.83-1.6-4.7v-4.4h0ZM577.7,206.99c-.8-.8-1.6-1.53-2.4-2.2-3.47-3.07-5.2-6.33-5.2-9.8,0-1.6.67-2.87,2-3.8,1.33-.93,3-1.4,5-1.4h4.6c2,0,3.67.33,5,1s2.07,1.47,2.2,2.4c.4,2.13,2.67,3.2,6.8,3.2h66.8c1.87,0,3.5.7,4.9,2.1,1.4,1.4,2.1,3.03,2.1,4.9v4.2c0,1.87-.7,3.47-2.1,4.8-1.4,1.33-3.03,2-4.9,2h-70.4c-2,0-4.13-.47-6.4-1.4s-4.13-2.13-5.6-3.6c-.8-.8-1.6-1.6-2.4-2.4h0Z"/>
      <path class="st2" d="M749.5,232.19c-2.27,0-4,.67-5.2,2s-1.8,3.07-1.8,5.2v99c0,2.27.63,4,1.9,5.2s2.97,1.8,5.1,1.8h64.8c2.27,0,4,.63,5.2,1.9s1.8,2.97,1.8,5.1v4.4c0,2.27-.63,4-1.9,5.2s-2.97,1.8-5.1,1.8h-69.2c-2.13,0-4.2-.37-6.2-1.1s-3.93-2.03-5.8-3.9l-4-4c-1.87-1.87-3.17-3.8-3.9-5.8-.73-2-1.1-4.07-1.1-6.2v-103.4c0-2.4-.63-4.2-1.9-5.4s-2.97-1.8-5.1-1.8h-6c-2.27,0-4-.63-5.2-1.9-1.2-1.27-1.8-2.97-1.8-5.1v-4.4c0-2.27.63-4,1.9-5.2s2.97-1.8,5.1-1.8h6c2.27,0,4-.63,5.2-1.9,1.2-1.27,1.8-2.97,1.8-5.1v-10c0-2.27.63-4,1.9-5.2s2.97-1.8,5.1-1.8h4.4c2.27,0,4,.63,5.2,1.9,1.2,1.27,1.8,2.97,1.8,5.1v10c0,2.27.63,4,1.9,5.2s2.97,1.8,5.1,1.8h76.8c2.27,0,4,.63,5.2,1.9,1.2,1.27,1.8,2.97,1.8,5.1v4.4c0,2.27-.63,4-1.9,5.2s-2.97,1.8-5.1,1.8"/>
    </g>
    <circle class="st1" cx="803.26" cy="248.44" r="9.87"/>
    <path class="st1" d="M811.57,127.17h-17.93c-4.53,0-8.09,3.88-7.71,8.39l5.44,63.68c.34,4,3.69,7.08,7.71,7.08h6.13c3.97,0,7.3-3.01,7.7-6.97l6.35-63.68c.45-4.55-3.12-8.5-7.7-8.5h.01Z"/>
  </g>
</svg>