<?xml version="1.0" encoding="UTF-8"?>
<svg id="_レイヤー_2" xmlns="http://www.w3.org/2000/svg" version="1.1" viewBox="0 0 1080 566">
  <!-- Generator: Adobe Illustrator 30.3.0, SVG Export Plug-In . SVG Version: 2.1.3 Build 182)  -->
  <defs>
    <style>
      .st0 {
        fill: #f5b570;
      }

      .st1 {
        fill: #fff;
      }

      .st2 {
        fill: #6d91e3;
      }

      .st3 {
        fill: #3d56af;
      }

      .st4 {
        fill: #c2d2f5;
      }

      .st5 {
        fill: #d73666;
      }

      .st6 {
        fill: #242e50;
      }
    </style>
  </defs>
  <g>
    <g>
      <path class="st6" d="M332.46,251.37c-1.66,0-3.34-.14-5.03-.42-14.43-2.44-24.99-14.94-24.99-29.58V41.73c0-16.57,13.43-30,30-30h427.4c16.57,0,30,13.43,30,30v178.49c0,15.36-11.6,28.23-26.87,29.84-3.45.36-6.83.12-10.04-.64h-409.85c-3.35,1.27-6.94,1.95-10.62,1.95ZM362.44,189.42h367.4v-117.69h-367.4v117.69Z"/>
      <path class="st6" d="M779.75,342.87h-225.59c-1.34,0-2.67-.09-3.96-.26h-20.4c-1.3.17-2.62.26-3.97.26h-225.34c-9.72,0-18.83-4.71-24.46-12.63-5.63-7.92-7.07-18.08-3.86-27.26l32.63-93.44c4.2-12.05,15.57-20.12,28.33-20.12h426.55c14.17,0,26.4,9.91,29.35,23.77l.17.8,19.89,92.58c1.9,8.86-.3,18.11-5.99,25.16-5.7,7.05-14.27,11.15-23.34,11.15ZM558.12,282.87h184.49l-7.19-33.45h-381.01l-11.68,33.45h179.12c1.3-.17,2.62-.26,3.97-.26h28.33c1.34,0,2.67.09,3.96.26Z"/>
      <path class="st6" d="M300.26,344.65h-.39c-9.73,0-18.85-4.72-24.47-12.65-5.62-7.94-7.05-18.11-3.83-27.28l.39-1.11c4.84-13.8,18.93-22.09,33.35-19.64,14.42,2.46,24.96,14.95,24.96,29.57v1.11c0,16.57-13.43,30-30,30Z"/>
      <path class="st6" d="M780.13,344.65h-.38c-16.57,0-30-13.43-30-30v-1.76c0-15.34,11.57-28.2,26.82-29.83,15.25-1.63,29.27,8.51,32.51,23.5l.38,1.76c1.91,8.86-.29,18.12-5.98,25.17-5.7,7.06-14.28,11.16-23.34,11.16Z"/>
      <path class="st6" d="M525.83,441.42h-225.57c-16.57,0-30-13.43-30-30v-98.55c0-16.57,13.43-30,30-30h225.57c16.57,0,30,13.43,30,30v98.55c0,16.57-13.43,30-30,30ZM330.26,381.42h165.57v-38.55h-165.57v38.55Z"/>
      <path class="st6" d="M779.75,554.27h-479.49c-16.57,0-30-13.43-30-30v-86.81c0-16.57,13.43-30,30-30h225.57c5.12,0,9.95,1.28,14.17,3.55,4.22-2.26,9.04-3.55,14.17-3.55h225.59c16.57,0,30,13.43,30,30v86.81c0,16.57-13.43,30-30,30ZM584.16,494.27h165.59v-26.81h-165.59v26.81ZM330.26,494.27h165.57v-26.81h-165.57v26.81Z"/>
      <path class="st6" d="M779.75,441.42h-225.59c-16.57,0-30-13.43-30-30v-98.55c0-16.57,13.43-30,30-30h225.59c16.57,0,30,13.43,30,30v98.55c0,16.57-13.43,30-30,30ZM584.16,381.42h165.59v-38.55h-165.59v38.55Z"/>
      <path class="st6" d="M554.16,553.25h-28.33c-16.57,0-30-13.43-30-30v-55.79h-198.25c-16.57,0-30-13.43-30-30v-26.04c0-16.57,13.43-30,30-30h198.25v-68.81c0-16.57,13.43-30,30-30h28.33c16.57,0,30,13.43,30,30v68.81h198.26c16.57,0,30,13.43,30,30v26.04c0,16.57-13.43,30-30,30h-198.26v55.79c0,16.57-13.43,30-30,30Z"/>
    </g>
    <g>
      <path class="st1" d="M332.45,241.37c-1.11,0-2.23-.09-3.35-.28-9.62-1.63-16.66-9.96-16.66-19.72V41.73c0-11.05,8.95-20,20-20h427.4c11.05,0,20,8.95,20,20v178.49c0,10.24-7.73,18.82-17.91,19.89-2.66.28-5.27.02-7.7-.69h-413.17c-2.64,1.26-5.58,1.95-8.6,1.95ZM352.44,199.42h387.4V61.73h-387.4v137.69Z"/>
      <path class="st1" d="M779.75,332.87h-225.59c-1.1,0-2.18-.09-3.23-.26h-21.87c-1.05.17-2.13.26-3.23.26h-225.34c-6.48,0-12.56-3.14-16.31-8.42-3.75-5.28-4.71-12.06-2.57-18.17l32.63-93.44c2.8-8.03,10.38-13.41,18.88-13.41h426.55c9.45,0,17.6,6.61,19.56,15.85l.17.8,19.9,92.6c1.27,5.91-.2,12.07-4,16.77-3.8,4.7-9.51,7.43-15.56,7.43ZM557.39,292.87h197.6l-11.49-53.45h-396.19l-18.66,53.45h193.94c1.05-.17,2.13-.26,3.23-.26h28.33c1.1,0,2.18.09,3.23.26Z"/>
      <path class="st1" d="M300.26,334.65h-.39c-6.48,0-12.57-3.14-16.32-8.43s-4.7-12.07-2.56-18.19l.39-1.11c3.23-9.2,12.62-14.73,22.23-13.09,9.61,1.64,16.64,9.97,16.64,19.72v1.11c0,11.05-8.95,20-20,20Z"/>
      <path class="st1" d="M780.13,334.65h-.38c-11.05,0-20-8.95-20-20v-1.76c0-10.22,7.71-18.8,17.88-19.89,10.17-1.08,19.51,5.67,21.67,15.67l.38,1.76c1.28,5.91-.19,12.08-3.99,16.78-3.8,4.7-9.52,7.44-15.56,7.44Z"/>
      <path class="st1" d="M525.83,431.42h-225.57c-11.05,0-20-8.95-20-20v-98.55c0-11.05,8.95-20,20-20h225.57c11.05,0,20,8.95,20,20v98.55c0,11.05-8.95,20-20,20ZM320.26,391.42h185.57v-58.55h-185.57v58.55Z"/>
      <path class="st1" d="M779.75,544.27h-479.49c-11.05,0-20-8.95-20-20v-86.81c0-11.05,8.95-20,20-20h225.57c5.53,0,10.54,2.25,14.17,5.88,3.62-3.63,8.63-5.88,14.17-5.88h225.59c11.05,0,20,8.95,20,20v86.81c0,11.05-8.95,20-20,20ZM574.16,504.27h185.59v-46.81h-185.59v46.81ZM320.26,504.27h185.57v-46.81h-185.57v46.81Z"/>
      <path class="st1" d="M779.75,431.42h-225.59c-11.05,0-20-8.95-20-20v-98.55c0-11.05,8.95-20,20-20h225.59c11.05,0,20,8.95,20,20v98.55c0,11.05-8.95,20-20,20ZM574.16,391.42h185.59v-58.55h-185.59v58.55Z"/>
      <path class="st1" d="M554.16,543.25h-28.33c-11.05,0-20-8.95-20-20v-65.79h-208.25c-11.05,0-20-8.95-20-20v-26.04c0-11.05,8.95-20,20-20h208.25v-78.81c0-11.05,8.95-20,20-20h28.33c11.05,0,20,8.95,20,20v78.81h208.26c11.05,0,20,8.95,20,20v26.04c0,11.05-8.95,20-20,20h-208.26v65.79c0,11.05-8.95,20-20,20Z"/>
    </g>
    <g>
      <polygon class="st2" points="759.67 219.42 759.84 220.22 759.84 41.73 332.44 41.73 332.44 221.37 333.12 219.42 759.67 219.42"/>
      <polygon class="st3" points="525.83 312.61 554.16 312.61 554.16 312.87 779.75 312.87 759.84 220.22 759.67 219.42 333.12 219.42 332.44 221.37 300.49 312.87 525.83 312.87 525.83 312.61"/>
      <polygon class="st3" points="299.87 314.65 300.26 314.65 300.26 313.54 299.87 314.65"/>
      <polygon class="st3" points="780.13 314.65 779.75 312.89 779.75 314.65 780.13 314.65"/>
      <polygon class="st4" points="525.83 312.87 300.49 312.87 300.26 312.87 300.26 313.54 300.26 314.65 300.26 411.42 525.83 411.42 525.83 312.87"/>
      <polygon class="st4" points="554.16 523.25 525.83 523.25 525.83 437.46 300.26 437.46 300.26 524.27 779.75 524.27 779.75 437.46 554.16 437.46 554.16 523.25"/>
      <polygon class="st4" points="554.16 411.42 779.75 411.42 779.75 314.65 779.75 312.89 779.75 312.87 779.75 312.87 554.16 312.87 554.16 411.42"/>
      <polygon class="st5" points="782.42 411.42 779.75 411.42 554.16 411.42 554.16 312.87 554.16 312.61 525.83 312.61 525.83 312.87 525.83 411.42 300.26 411.42 297.58 411.42 297.58 437.46 300.26 437.46 525.83 437.46 525.83 523.25 554.16 523.25 554.16 437.46 779.75 437.46 782.42 437.46 782.42 411.42"/>
    </g>
  </g>
  <g>
    <g>
      <path class="st6" d="M399.55,266.33c-1.6,0-3.24-.06-4.9-.17-.05,0-.11,0-.16-.01-3.92-.28-7.88-.76-11.76-1.44-3.64-.63-6.93-1.32-10.07-2.11-3.73-.93-6.53-1.75-9.06-2.65-2.92-1.04-5.9-2.35-9.1-3.99-.06-.03-.12-.06-.18-.09-2.61-1.35-5.53-3.04-8.68-5.02-.03-.02-.06-.04-.09-.06-2.41-1.52-4.16-2.67-5.67-3.73-2.57-1.81-4.53-3.36-6.34-5.02-9.04-8.27-12.2-17.6-13.27-23.99-.09-.55-.17-1.09-.24-1.64-.11-.92-.2-1.84-.25-2.76-5.68-.67-11.59-1.7-17.6-3.04-6.97-1.56-14.12-3.71-21.25-6.4-8.3-3.12-16.6-7.34-24.66-12.52-10.44-6.71-18.36-13.87-24.19-21.88-8.31-11.4-12.38-24.29-11.78-37.29.6-12.99,5.72-25.35,14.81-35.73,6.76-7.75,15.48-14.2,25.93-19.17,5.05-2.42,10.56-4.42,16.31-5.92,5.19-1.37,10.47-2.35,15.7-2.93,5.12-.58,10.24-.78,15.13-.59,6.01.23,10.82.89,15.13,2.08.08.02.15.04.23.06,3.79,1.07,6.92,2.26,9.84,3.75,2.62,1.33,5.15,2.93,7.68,4.85,1.79,1.36,3.56,2.86,5.37,4.57,1.4,1.32,2.91,2.86,4.5,4.56,1.81,1.94,3.36,3.72,4.71,5.43,2.08,2.62,3.79,5.16,5.24,7.77,4.01,7.24,5.85,15.12,5.4,23.05,5.84,1.37,11.66,3.27,17.36,5.68,7.1,3,14.17,7.03,20.99,11.98,6.32,4.58,12.36,10.1,18.45,16.86.27.29.54.58.8.87,6.57,7.39,12.04,14.84,16.25,22.14,4.67,8.1,7.79,15.6,9.53,22.93,3.97,16.77-.2,29.26-4.4,36.78-6.79,12.16-18.46,20.51-32.86,23.49-4.17.86-8.39,1.28-12.82,1.28Z"/>
      <path class="st6" d="M465.13,294.06c-4.09,0-8.14-.54-12.04-1.6-.06-.02-.12-.03-.18-.05-4.12-1.14-8.07-2.86-11.72-5.13-3.18-1.97-6.14-4.35-8.8-7.07-1.63-1.67-3.16-3.48-4.58-5.38l-92.83-123.49-.08-.1c-3.72-4.98-6.3-10.42-7.67-16.17-2.92-12.24-.15-24.98,7.62-35.01,4.27-5.52,9.76-9.87,16.34-12.94,2.56-1.2,5.36-2.25,8.33-3.13,2.91-.87,5.61-1.51,8.26-1.93.13-.02.26-.04.39-.06,2.44-.37,4.89-.55,7.31-.55h.05c.13-.09.25-.17.38-.26,6.03-4.01,12.86-6.91,20.3-8.61,13.4-3.07,27.13-2.25,39.69,2.39,10.83,3.99,20.67,10.42,29.22,19.11,6.93,7.04,13.1,15.53,18.35,25.24,4.25,7.84,8.02,16.36,11.48,26,.11.31.22.61.32.92,3.4,9.6,6.11,19.03,8.06,28.05,2.02,9.45,3.13,18.1,3.3,25.74.23,11.45-1.58,21.09-5.53,29.56-.19.4-.38.79-.57,1.18,1,1.67,1.89,3.38,2.67,5.1.16.36.32.72.47,1.08,2.75,6.63,3.79,13.82,3.01,20.79-1.54,13.98-10.1,26.04-22.88,32.19-.32.15-.63.3-.95.44-5.49,2.47-11.44,3.72-17.71,3.72ZM346.1,145.46s.01.02.02.02c0,0-.01-.02-.02-.02Z"/>
      <path class="st6" d="M509.09,253.92c-11.53,0-22.78-3.55-32.61-10.3-7.23-4.97-13.68-11.52-19.71-20.02-4.73-6.69-9.21-14.67-13.3-23.76-4.1-9.12-7.68-19.07-10.69-29.64-3.48-12.27-5.38-23.09-5.83-33.12-.59-12.79,1.19-24.6,5.28-35.05,4.87-12.45,13.06-23.02,23.69-30.58,10.44-7.42,23.1-11.74,36.64-12.49,13.81-.78,27.03,2.02,38.21,8.11,10.74,5.88,19.44,14.07,25.92,24.37,5.44,8.62,9.26,18.67,11.33,29.8,1.6,8.63,2.25,17.67,2.01,27.65l-.08,3.31c0,.09,0,.18,0,.27-.24,9.22-2.35,17.42-6.29,24.46.84,2.23,1.5,4.56,1.99,6.97.49,2.46.81,5.11.96,8.07.09,1.73.12,3.54.1,5.91-.02,1.61-.06,3.1-.14,4.5-.09,1.63-.22,2.99-.31,3.88-.3,2.89-.81,5.64-1.53,8.23-.73,2.65-1.7,5.26-2.86,7.72-2.68,5.67-6.14,9.69-8.86,12.56-3.04,3.2-6.62,6.16-10.65,8.8-3.45,2.27-7.29,4.29-11.43,6.02-6.51,2.71-13.37,4.15-20.45,4.32-.46.01-.91.02-1.37.02Z"/>
      <path class="st6" d="M558.46,254.61c-.94,0-1.88-.03-2.82-.08-14.34-.78-27.33-7.37-36.58-18.57-5.95-7.21-10.17-15.91-12.92-26.62-1.93-7.52-3.12-15.86-3.65-25.5-.5-9.43-.26-19.49.71-29.98,1.3-14.05,3.62-25.77,7.08-35.85,4.16-12.18,9.97-22.63,17.25-31.03,8.35-9.63,18.37-16.66,29.79-20.89,11-4.08,22.55-5.46,34.32-4.09,6.16.7,12.17,2.23,17.82,4.52,5.29,2.15,10.19,4.86,14.57,8.05.03.02.06.04.09.06,4.86,3.57,9.08,7.71,12.56,12.3,3.37,4.47,5.86,8.83,7.62,13.36.04.11.08.21.12.32,1.54,4.05,2.52,7.86,2.98,11.64.48,3.79.47,7.76-.02,11.74-.36,2.96-1.01,6.04-1.92,9.08-.46,1.52-1.03,3.24-1.78,5.35l-.08.23c-2.71,7.43-5.82,13.1-9.79,17.86-4.44,5.33-9.84,9.43-15.77,12.13,1.12,2.15,2.06,4.41,2.79,6.78.11.36.22.73.32,1.09,1.64,5.84,1.97,12.04.99,18.42-.03.17-.05.35-.08.52-.43,2.56-1.08,5.24-1.93,7.98-.5,1.61-1.07,3.31-1.92,5.64-.15.42-.31.84-.48,1.25-.5,1.33-.96,2.51-1.4,3.59-.82,2.01-1.65,3.81-2.52,5.5-.93,1.82-1.9,3.49-2.94,5.08-1.76,2.72-3.63,4.95-5.08,6.59-2.08,2.37-4.47,4.69-7.55,7.33-3.11,2.65-6.38,5.05-9.75,7.12-3.9,2.41-8.08,4.43-12.35,5.96-.04.02-.09.03-.14.05-5.77,2.05-11.68,3.09-17.59,3.09ZM580.62,195.44h0,0ZM583.76,189.9s0,0,0,0c0,0,0,0,0,0ZM588.06,139.3h0ZM606.79,92.82s.02,0,.02,0c-.01,0-.01,0-.02,0Z"/>
      <path class="st6" d="M590.04,255.65c-1.65,0-3.32-.08-5-.24-.21-.02-.42-.04-.62-.06-4.72-.53-9-1.63-13.08-3.37-8.33-3.54-15.15-9.47-19.71-17.15-4.95-8.31-6.83-18.16-5.31-27.78.64-4.04,1.87-8.07,3.68-11.99l18.14-39.54c8.9-19.4,17.79-38.79,26.69-58.18,1.9-4.15,4.39-7.95,7.44-11.31.28-6.96,2.1-14.2,5.46-21.69,5.63-12.55,13.69-21.66,23.96-27.09,7.63-4.04,20.34-7.98,37.59-3.84,22.93,5.54,31.81,20.22,35.07,28.49,5.15,13.1,3.85,27.14-3.87,41.75-.13.25-.26.5-.39.74-4.05,7.48-8.91,13.61-14.51,18.32-.77,4.6-2.28,9.08-4.48,13.22-16.91,31.73-33.81,63.42-50.71,95.11-.06.11-.12.23-.18.34-1.9,3.6-4.22,6.91-6.91,9.84-3.36,3.65-7.24,6.68-11.55,9.02-4.58,2.49-9.58,4.15-14.86,4.93-.21.03-.41.06-.62.09-2.02.27-4.1.4-6.21.4ZM622.59,228.65s-.01.03-.02.04c0-.01.01-.03.02-.04ZM594.79,212.75h0,0ZM679.65,93.34c.53.83,1.02,1.68,1.49,2.54.13-.44.27-.95.4-1.52l-1.88-1.02ZM664.89,85.34h0,0ZM673.08,85.33h9.03c-.23-3.21-.95-6.84-2.48-10.65-5.33-13.24-16.37-18.95-21.47-20.12-3.88-.9-11.02-.66-18.19,3.01-7.38,3.79-10.25,8.72-10.28,8.77l9.99,5.4c2.94.22,6.01.69,9.15,1.4,3.64.81,6.93,1.81,9.96,3.05,5.45,2.23,10.25,5.31,14.29,9.15ZM640.06,57.52s-.06.03-.09.04c.03-.02.06-.03.09-.04Z"/>
      <path class="st6" d="M639.89,263.18c-3.05,0-6.14-.3-9.25-.9-.09-.02-.17-.03-.26-.05-1.61-.32-3.18-.72-4.71-1.19-4.2.36-8.28.21-12.28-.42-13.38-2.13-24.71-9.27-31.93-20.1-4.24-6.37-9.02-17.06-7.7-31.85.6-6.63,2.33-13.4,5.29-20.71,2.48-6.11,5.86-12.46,10.03-18.87,5.43-8.33,11.19-15.18,17.61-20.94,4.32-3.88,8.9-7.24,13.7-10.08.13-1.69.36-3.38.69-5.07.01-.06.02-.12.04-.18.89-4.43,2.44-8.7,4.74-13.05,1.16-2.18,2.45-4.33,3.96-6.56,2.42-3.57,4.61-6.36,6.9-8.81,4.24-4.54,9.36-8.28,15.19-11.09.03-.02.07-.03.1-.05,4.25-2.03,9.09-3.63,14.79-4.88,4.91-1.08,10.12-1.77,15.45-2.04,5.3-.28,10.83-.11,16.42.51h.12c6.52.75,12.83,2.19,18.74,4.29,11.75,4.17,21.32,10.2,28.42,17.9,10.25,11.12,15.19,25.32,13.9,39.99-.96,10.91-5.27,21.54-12.82,31.57-4.48,5.98-10.36,12.19-17.94,18.93-9.67,8.59-19.32,17.18-28.98,25.76-9.66,8.59-19.32,17.18-28.98,25.77-.56.5-1.13.97-1.71,1.43-3.27,2.67-6.78,4.86-10.46,6.53-4.33,1.96-8.89,3.25-13.57,3.82-1.81.22-3.65.34-5.51.34Z"/>
      <path class="st6" d="M663,268.14c-.74,0-1.49-.02-2.24-.05-3.11-.14-6.32-.6-9.52-1.35-4.64-1.09-8.76-2.7-12.59-4.91-.16-.09-.31-.18-.47-.27-11.51-6.87-18.98-18.85-19.98-32.06,0-.05,0-.1-.01-.14-.79-10.95,2.79-21.6,10.09-30,.17-.19.34-.39.51-.58,2.2-2.43,4.68-4.63,7.59-6.72.05-.04.1-.07.15-.11,47.52-33.85,95.06-67.69,142.58-101.53,4.51-3.22,9.5-5.56,14.83-6.97,5.98-1.59,12.24-1.9,18.62-.92.16.02.32.05.48.08,3.89.64,7.85,1.78,11.78,3.38,2.78,1.13,5.64,2.54,8.77,4.31.03.02.06.04.09.05,3.3,1.88,6.11,3.73,8.59,5.66l.21.16c5.23,4.12,9.19,8.73,12.12,14.08,6.22,11.37,6.88,24.67,1.79,36.48-3.42,7.9-9.13,14.51-16.55,19.2-.04.03-.08.05-.12.08-50.19,31.49-100.37,62.98-150.55,94.48-.62.39-1.26.77-1.9,1.12-1.83,1.05-3.7,1.97-5.59,2.77-2.94,1.24-6.04,2.19-9.22,2.84-3.09.63-6.26.94-9.46.94Z"/>
    </g>
    <g>
      <path class="st1" d="M399.54,256.33c-1.38,0-2.79-.05-4.23-.14-.04,0-.08,0-.12,0-3.58-.25-7.2-.69-10.74-1.31-3.4-.59-6.46-1.23-9.36-1.96-3.41-.85-5.91-1.58-8.12-2.37-2.51-.9-5.1-2.03-7.9-3.47-.05-.02-.09-.05-.14-.07-2.37-1.23-5.05-2.78-7.98-4.61-2.33-1.47-3.95-2.54-5.32-3.5-2.19-1.54-3.84-2.84-5.31-4.19-6.95-6.35-9.37-13.44-10.18-18.28-.07-.41-.13-.82-.18-1.23-.45-3.59-.25-7.12.5-10.48-2.57-.24-5.24-.51-8.07-.81-5.77-.63-11.83-1.65-18.01-3.03-6.52-1.46-13.21-3.48-19.91-6-7.64-2.88-15.31-6.77-22.77-11.57-9.39-6.03-16.43-12.37-21.52-19.36-8.78-12.05-10.22-23.48-9.87-30.94.49-10.72,4.77-20.98,12.38-29.65,5.8-6.66,13.45-12.3,22.67-16.69,4.49-2.15,9.4-3.93,14.53-5.27,4.72-1.25,9.53-2.14,14.27-2.66,4.65-.52,9.27-.71,13.65-.54,5.22.2,9.31.75,12.86,1.73.06.02.12.03.17.05,3.15.89,5.69,1.85,8,3.03,2.1,1.07,4.13,2.35,6.18,3.91,1.51,1.14,3,2.41,4.54,3.87,1.26,1.19,2.63,2.58,4.08,4.15,1.59,1.7,2.97,3.29,4.17,4.8,1.73,2.18,3.14,4.27,4.32,6.4,4.68,8.44,4.62,16.23,3.74,21.27-.04.25-.09.49-.14.74-.29,1.42-.67,2.81-1.14,4.16,1.94.3,3.87.64,5.8,1.01,6.49,1.25,13,3.24,19.34,5.92,6.4,2.71,12.8,6.36,19.01,10.87,5.77,4.19,11.33,9.28,16.97,15.55.23.24.45.48.67.73,6.12,6.89,11.19,13.78,15.06,20.5,4.18,7.25,6.95,13.87,8.46,20.24,3.23,13.65-.06,23.63-3.4,29.6-5.35,9.59-14.65,16.19-26.16,18.58-3.49.72-7.05,1.07-10.8,1.07Z"/>
      <path class="st1" d="M465.13,284.06c-3.2,0-6.37-.42-9.42-1.25-.04-.01-.09-.02-.13-.04-3.21-.89-6.28-2.23-9.13-3.99-2.49-1.54-4.81-3.41-6.9-5.55-1.32-1.36-2.57-2.83-3.73-4.39l-92.85-123.52c-2.96-3.96-4.96-8.17-6.01-12.58-2.22-9.3-.09-18.99,5.85-26.63,3.28-4.22,7.52-7.56,12.61-9.94,2.13-.99,4.49-1.88,7.01-2.63,2.47-.74,4.75-1.27,6.95-1.63.1-.02.19-.03.29-.05,3-.45,5.99-.56,8.91-.31.93-.72,1.89-1.4,2.87-2.06,5.02-3.34,10.74-5.76,17-7.19,11.51-2.64,23.27-1.94,34,2.02,9.44,3.48,18.05,9.11,25.55,16.74,6.27,6.37,11.88,14.1,16.68,22.98,4.02,7.4,7.57,15.46,10.86,24.62.09.26.18.52.27.78,3.28,9.23,5.88,18.28,7.74,26.91,1.89,8.83,2.92,16.84,3.08,23.85.2,9.87-1.31,18.06-4.59,25.11-.94,2.02-2.03,3.93-3.24,5.71l2.12,3.2c1.2,1.81,2.28,3.74,3.16,5.7.12.27.24.54.35.81,2.13,5.15,2.91,10.48,2.31,15.84-1.16,10.55-7.62,19.65-17.28,24.3-.24.11-.48.22-.72.33-4.19,1.88-8.77,2.84-13.61,2.84ZM440.9,267.38l.05.07-.05-.07ZM354.46,139.98s.02.02.02.03c0-.01-.02-.02-.02-.03Z"/>
      <path class="st1" d="M509.04,243.92c-9.6,0-18.65-2.87-26.9-8.54-6.25-4.29-11.88-10.04-17.21-17.56-4.36-6.16-8.51-13.59-12.35-22.09-3.89-8.66-7.31-18.16-10.19-28.27-3.26-11.5-5.05-21.58-5.46-30.83-.52-11.39,1.03-21.82,4.6-30.97,4.15-10.63,11.13-19.64,20.17-26.07,8.9-6.32,19.75-10.01,31.4-10.66,12.12-.69,23.19,1.63,32.86,6.9,9.21,5.04,16.68,12.07,22.24,20.91,4.77,7.56,8.13,16.42,9.96,26.3,1.47,7.94,2.07,16.3,1.84,25.58l-.09,3.33c0,.08,0,.16,0,.23-.24,9.19-2.68,17.04-7.25,23.32l-.09.12c-.11.15-.22.3-.33.45,1.67,2.98,2.86,6.24,3.56,9.76.4,1.98.66,4.16.78,6.62.08,1.52.1,3.16.09,5.33-.01,1.44-.05,2.78-.12,4.03-.08,1.42-.19,2.62-.27,3.41-.24,2.35-.64,4.48-1.22,6.57-.58,2.11-1.35,4.18-2.27,6.12-2.06,4.37-4.73,7.48-7.08,9.95-2.54,2.68-5.44,5.07-8.88,7.31-2.94,1.93-6.23,3.67-9.81,5.16-5.34,2.22-10.98,3.41-16.82,3.55-.39,0-.79.01-1.18.01Z"/>
      <path class="st1" d="M558.45,244.61c-.76,0-1.53-.02-2.29-.06-11.51-.63-21.95-5.94-29.39-14.95-4.99-6.05-8.57-13.49-10.94-22.74-1.76-6.88-2.86-14.58-3.35-23.56-.47-8.93-.24-18.51.68-28.52,1.23-13.25,3.38-24.2,6.58-33.52,3.75-10.97,8.92-20.31,15.35-27.72,7.24-8.34,15.89-14.42,25.72-18.07,9.51-3.53,19.5-4.72,29.69-3.53,5.27.6,10.4,1.9,15.21,3.86,4.53,1.84,8.72,4.15,12.44,6.86,4.14,3.04,7.67,6.5,10.56,10.32,2.81,3.72,4.86,7.3,6.29,10.96.03.08.06.16.09.24,1.27,3.34,2.03,6.3,2.41,9.32.38,2.99.37,6.13-.02,9.29-.29,2.41-.82,4.92-1.58,7.42-.41,1.36-.93,2.91-1.62,4.85-.02.06-.04.11-.06.17-2.34,6.4-4.83,10.99-8.08,14.88-6.84,8.21-16.55,12.64-26.51,12.24,5.44,3.83,9.61,9.4,11.67,16.04.08.27.17.54.24.82,1.27,4.52,1.51,9.17.74,14.21-.02.13-.04.26-.06.39-.35,2.11-.9,4.35-1.62,6.66-.45,1.45-.98,3.02-1.77,5.2-.13.35-.26.7-.4,1.04-.48,1.28-.92,2.41-1.33,3.42-.71,1.73-1.41,3.27-2.15,4.7-.78,1.52-1.58,2.91-2.43,4.21-1.12,1.73-2.39,3.38-4.22,5.47-1.75,2-3.82,4-6.53,6.32-2.71,2.32-5.56,4.4-8.49,6.2-3.33,2.05-6.87,3.77-10.49,5.07-.03.01-.07.02-.1.04-4.69,1.67-9.48,2.51-14.25,2.51ZM578.64,216.57c.09,0,.17.02.26.03-.09,0-.17-.02-.26-.03ZM578.62,216.57s0,0,.01,0h-.01ZM580.62,195.44h0,0ZM605.24,102.69h0,0ZM605.22,102.69s0,0,0,0c0,0,0,0,0,0Z"/>
      <path class="st1" d="M590.04,245.65c-1.33,0-2.67-.07-4.04-.2-.16-.02-.31-.03-.47-.05-3.74-.42-7.11-1.28-10.29-2.63-6.36-2.71-11.56-7.22-15.03-13.06-3.76-6.31-5.19-13.81-4.02-21.12.49-3.14,1.47-6.29,2.89-9.37l18.13-39.53c8.9-19.4,17.79-38.79,26.69-58.18,1.83-4.01,4.38-7.59,7.59-10.64.26-.25.52-.49.79-.73-.66-10.08,3.08-18.42,4.56-21.72,4.76-10.61,11.14-17.92,19.51-22.34,8.88-4.7,19.17-5.69,30.58-2.96,17.6,4.25,24.98,14.54,28.09,22.43,4.04,10.27,2.88,21.52-3.43,33.46-.1.2-.21.4-.32.6-4.24,7.83-9.23,13.68-15.18,17.75-.25,4.81-1.57,9.57-3.85,13.86-16.92,31.74-33.83,63.46-50.74,95.17l-.16.32c-1.49,2.84-3.32,5.44-5.42,7.73-2.61,2.84-5.63,5.19-8.98,7.01-3.54,1.92-7.42,3.21-11.53,3.81-.16.02-.31.04-.47.06-1.59.21-3.23.31-4.91.31ZM594.79,212.75h0,0ZM658.55,126.28s-.02.05-.03.08c.01-.03.02-.05.03-.08ZM654.78,85.34c.08.03.16.06.23.09,4.69,1.92,8.74,4.6,12.03,7.98.08.08.15.16.22.23.66.69,1.28,1.4,1.87,2.14,1.35-1.27,2.12-2.36,2.44-2.85.24-.78.5-2.05.6-3.65l-7.27-3.95h7.19c-.22-2.09-.73-4.45-1.72-6.92-3.91-9.71-11.93-13.53-14.43-14.11,0,0-5.01-1.1-11.4,2.17-3.37,1.73-5.24,3.74-5.95,4.61l26.32,14.25h-10.11ZM644.6,66.43s-.04.02-.06.03c.02-.01.04-.02.06-.03Z"/>
      <path class="st1" d="M639.89,253.18c-2.41,0-4.87-.24-7.36-.72-.07-.01-.13-.02-.2-.04-1.92-.38-3.76-.9-5.51-1.54-3.68.47-7.68.53-11.87-.14-10.59-1.69-19.53-7.29-25.18-15.77-3.35-5.03-7.12-13.52-6.06-25.41.51-5.63,2.01-11.46,4.6-17.85,2.24-5.52,5.32-11.3,9.14-17.16,4.95-7.59,10.15-13.79,15.91-18.96,5.28-4.73,10.98-8.6,17-11.54-.22-2.73-.12-5.8.53-9.14l.03-.14c.69-3.47,1.93-6.85,3.78-10.34.98-1.86,2.1-3.7,3.4-5.63,2.12-3.12,3.99-5.52,5.92-7.58,3.4-3.64,7.51-6.64,12.23-8.91,3.62-1.73,7.75-3.08,12.7-4.17,4.39-.97,9.05-1.58,13.84-1.82,4.7-.25,9.71-.1,14.79.46,5.85.66,11.4,1.92,16.59,3.77,10.21,3.63,18.44,8.76,24.42,15.25,8.32,9.02,12.33,20.51,11.29,32.33-.8,9.02-4.45,17.92-10.85,26.44-4.08,5.45-9.52,11.18-16.59,17.47-9.67,8.59-19.32,17.18-28.98,25.76-9.66,8.59-19.32,17.18-28.98,25.77-.43.39-.88.76-1.33,1.11-2.62,2.14-5.41,3.89-8.32,5.21-3.41,1.54-6.99,2.55-10.66,3-1.41.17-2.84.26-4.29.26Z"/>
      <path class="st1" d="M663.01,258.14c-.59,0-1.19-.01-1.78-.04-2.51-.11-5.11-.48-7.72-1.1-3.66-.86-6.88-2.11-9.85-3.83-.12-.07-.23-.14-.35-.21-8.72-5.2-14.38-14.26-15.13-24.23,0-.04,0-.07,0-.11-.6-8.28,2.12-16.35,7.66-22.72.13-.15.26-.29.39-.44,1.71-1.9,3.68-3.63,6.01-5.31.04-.03.08-.05.11-.08,47.52-33.84,95.05-67.68,142.57-101.52,3.53-2.52,7.43-4.36,11.6-5.46,4.64-1.23,9.54-1.47,14.55-.71.12.02.24.04.36.06,3.15.52,6.39,1.45,9.63,2.77,2.38.97,4.87,2.2,7.62,3.76,2.95,1.68,5.37,3.27,7.46,4.9.05.04.1.08.15.12,4.15,3.27,7.27,6.88,9.54,11.02,4.74,8.65,5.24,18.76,1.38,27.72-2.61,6.03-7,11.09-12.71,14.71-.03.02-.06.04-.09.06-50.19,31.49-100.37,62.98-150.56,94.48-.49.31-.98.6-1.48.87-1.49.86-3.01,1.61-4.54,2.26-2.34.99-4.82,1.75-7.36,2.27-2.43.49-4.93.74-7.46.74Z"/>
      <ellipse class="st1" cx="655.83" cy="80.45" rx="22.98" ry="23.74"/>
    </g>
    <g>
      <path class="st0" d="M393.96,186.27c5.03,5.66,8.8,10.88,11.5,15.56s4.44,8.74,5.25,12.16.7,6.09-.4,8.06-3.07,3.21-6.06,3.83c-2.09.43-4.39.54-6.95.37-2.56-.18-5.12-.49-7.7-.94-2.58-.45-5-.95-7.24-1.51s-4.02-1.06-5.31-1.52-2.72-1.1-4.3-1.91c-1.58-.82-3.54-1.95-5.87-3.41-1.65-1.04-2.99-1.91-4-2.62-1.01-.71-1.79-1.3-2.31-1.78-.53-.48-.8-.84-.84-1.08-.03-.24.1-.42.4-.53.53-.18,1.92-.04,4.12.47,2.21.51,4.78,1.02,7.69,1.56s6,.97,9.25,1.3c3.26.33,6.17.17,8.82-.53,2.01-.53,3.35-1.41,4.09-2.69.73-1.28.88-2.87.44-4.8-.44-1.92-1.5-4.16-3.21-6.71s-4.06-5.35-7.11-8.37c-3.29-3.26-6.63-5.89-10.1-7.83-3.46-1.94-7.04-3.46-10.75-4.52s-7.58-1.83-11.62-2.3-8.23-.87-12.57-1.2-8.86-.76-13.56-1.27c-4.7-.51-9.6-1.34-14.69-2.48s-10.4-2.73-15.9-4.8-11.24-4.95-17.12-8.73c-6.02-3.87-10.57-7.77-13.5-11.79-2.93-4.02-4.33-7.99-4.15-11.89s1.84-7.69,4.97-11.26c3.12-3.58,7.49-6.75,13.01-9.38,2.82-1.35,5.91-2.47,9.25-3.34,3.33-.88,6.65-1.5,9.93-1.86,3.29-.37,6.36-.49,9.23-.38,2.87.11,4.87.35,6.03.67,1.17.33,2,.62,2.51.88.51.26,1.07.62,1.69,1.09s1.3,1.05,2.05,1.76,1.67,1.64,2.75,2.8c1.03,1.1,1.9,2.09,2.6,2.98.71.89,1.24,1.66,1.6,2.31.36.65.5,1.18.43,1.58-.08.4-.33.69-.75.86-.67.26-2.12.25-4.37,0s-4.95-.49-8.1-.65-6.62-.04-10.41.39-7.51,1.49-11.11,3.15c-3.35,1.55-5.78,3.34-7.26,5.3s-2.17,3.97-2.07,6c.09,2.03.92,4.09,2.46,6.17,1.54,2.08,3.63,4.07,6.22,5.98,3.79,2.78,7.75,4.84,11.83,6.23,4.07,1.39,8.24,2.39,12.48,3.02,4.24.63,8.56,1.05,12.95,1.29,4.4.24,8.8.55,13.21.92,4.41.38,8.86,1,13.34,1.86s8.92,2.23,13.32,4.09,8.75,4.38,13.08,7.52,8.57,7.14,12.82,11.93h0Z"/>
      <path class="st0" d="M457.31,158.84c3.15,8.78,5.39,16.75,6.92,23.85,1.52,7.1,2.3,13.17,2.41,18.19.1,5.02-.47,8.94-1.79,11.77s-3.42,4.38-6.52,4.72c-1.32.15-2.69,0-4.13-.43s-3.05-1.16-4.86-2.2c-1.8-1.04-3.81-2.37-6.05-3.99-2.24-1.62-4.78-3.51-7.67-5.67,10.1,15.24,20.19,30.49,30.29,45.73.36.54.62,1.02.8,1.42.17.41.24.75.21,1.02s-.19.47-.48.61c-.29.13-.72.2-1.31.2s-1.08-.07-1.56-.2c-.47-.13-.92-.33-1.34-.59-.42-.26-.82-.59-1.2-.98s-.77-.85-1.16-1.38c-30.97-41.2-61.94-82.4-92.92-123.61-.44-.59-.71-1.09-.81-1.51-.1-.41.02-.84.35-1.26.33-.43.87-.82,1.62-1.17s1.71-.71,2.89-1.06c1.23-.37,2.28-.62,3.15-.76.86-.13,1.65-.14,2.36-.03.71.12,1.29.33,1.75.64s.89.77,1.29,1.38c2.75,4.08,5.5,8.17,8.24,12.25.34-3.45.95-6.53,1.77-9.23.83-2.7,1.96-5.06,3.37-7.06s3.13-3.67,5.13-5,4.37-2.31,7.08-2.93c5.89-1.35,11.61-1.04,16.92.92,5.32,1.96,10.18,5.19,14.56,9.64s8.25,9.87,11.68,16.21c3.44,6.34,6.39,13.18,9.01,20.48v.03h0ZM446.1,162.7c-2.17-5.04-4.52-9.88-7.1-14.49-2.58-4.61-5.35-8.62-8.36-12-3.01-3.38-6.23-5.91-9.67-7.58s-7.02-2.1-10.64-1.29c-1.81.41-3.4,1.15-4.77,2.23-1.36,1.08-2.52,2.55-3.45,4.4-.92,1.85-1.62,4.17-2.06,6.94s-.58,6.08-.38,9.9c8.03,12.13,16.07,24.26,24.1,36.38,6.55,5.05,11.78,8.98,15.93,11.65s7.36,3.88,9.84,3.53c2.3-.32,3.71-1.65,4.36-4.03.64-2.38.69-5.46.15-9.24s-1.49-7.98-2.9-12.58-3.07-9.22-5.05-13.82h0Z"/>
      <path class="st0" d="M529.93,151.41c-.08,3.04-.6,5.2-1.53,6.48-.94,1.28-1.98,1.92-3.15,1.92-13.75,0-27.51.55-41.22,1.65,1.25,5.75,2.72,10.89,4.34,15.44s3.47,8.44,5.49,11.66c2.03,3.22,4.24,5.67,6.64,7.35,2.41,1.68,5.07,2.47,8.09,2.38,2.39-.07,4.47-.53,6.3-1.38s3.42-1.79,4.79-2.82c1.36-1.03,2.51-1.95,3.41-2.77.91-.82,1.61-1.23,2.08-1.23.27,0,.52.14.73.41.22.27.38.68.49,1.23s.19,1.31.24,2.28c.05.98.06,2.16.05,3.57-.01,1.01-.04,1.89-.08,2.63-.04.74-.1,1.4-.16,1.99-.06.58-.15,1.11-.28,1.58s-.29.92-.49,1.34c-.2.43-.78,1.13-1.71,2.11s-2.13,1.94-3.57,2.88c-1.44.95-3.09,1.8-4.93,2.57-1.85.77-3.82,1.18-5.95,1.23-3.7.09-7.09-1-10.38-3.26s-6.51-5.65-9.72-10.18c-3.2-4.52-6.38-10.21-9.48-17.08-3.09-6.88-6.05-14.9-8.68-24.14-2.49-8.78-4.02-16.75-4.34-23.95-.33-7.2.51-13.44,2.57-18.71s5.29-9.47,9.61-12.54c4.32-3.07,9.63-4.82,15.7-5.16,6.5-.37,12.18.76,16.82,3.29,4.64,2.54,8.39,6.07,11.2,10.54,2.82,4.47,4.74,9.75,5.86,15.8s1.52,12.51,1.35,19.37c-.03,1.17-.06,2.34-.09,3.51h0ZM517.66,145.71c-.2-10.13-1.96-18.07-5.68-23.75-3.7-5.68-9.2-8.39-16.12-8.01-3.54.2-6.53,1.3-8.87,3.26-2.35,1.97-4.1,4.49-5.26,7.56s-1.77,6.58-1.85,10.53c-.09,3.95.31,8.04,1.13,12.26,12.19-1.06,24.42-1.67,36.65-1.85h0Z"/>
      <path class="st0" d="M580.62,195.44c-.46,1.26-.88,2.36-1.26,3.28-.38.93-.73,1.7-1.05,2.32-.32.62-.63,1.17-.94,1.64-.3.47-.85,1.15-1.63,2.04s-1.94,1.98-3.46,3.28-3.09,2.45-4.7,3.44c-1.62,1-3.25,1.79-4.92,2.39-1.66.59-3.26.85-4.82.76-3.22-.17-5.8-1.52-7.93-4.1-2.12-2.57-3.78-6.27-5.02-11.1s-2.07-10.74-2.45-17.73c-.37-6.99-.24-15.03.6-24.13.96-10.34,2.56-19.19,5.08-26.53,2.51-7.34,5.72-13.29,9.64-17.81,3.92-4.52,8.45-7.73,13.49-9.6,5.04-1.87,10.37-2.49,15.8-1.86,2.62.3,5.09.92,7.38,1.85s4.3,2.03,6.04,3.3c1.73,1.27,3.17,2.66,4.31,4.17s1.88,2.77,2.27,3.77c.38,1,.61,1.79.68,2.35s.07,1.21-.02,1.94c-.09.74-.26,1.55-.53,2.45s-.65,2.02-1.13,3.36c-1.06,2.9-2.04,4.89-2.94,5.97s-1.7,1.57-2.4,1.46c-.81-.12-1.52-.87-2.16-2.26-.64-1.39-1.55-2.94-2.73-4.68-1.19-1.73-2.8-3.38-4.84-4.93-2.04-1.55-4.75-2.53-8.06-2.9-6.81-.75-12.83,2.3-17.56,9.08-4.76,6.78-7.94,16.95-10.02,30.39-1.05,6.72-1.59,12.64-1.7,17.73-.11,5.1.17,9.37.83,12.83.66,3.46,1.68,6.06,3.1,7.82,1.42,1.76,3.2,2.7,5.44,2.86,2.12.15,4.16-.39,6.18-1.62s3.9-2.59,5.64-4.09,3.27-2.85,4.57-4.07,2.21-1.8,2.7-1.74c.28.03.47.21.57.53.09.32.08.84-.03,1.56-.12.72-.34,1.63-.68,2.71-.33,1.08-.78,2.37-1.32,3.86h-.02,0Z"/>
      <path class="st0" d="M664.89,85.34c-2.22,4.1-4.46,6.7-6.68,7.83-2.22,1.14-5.21,1.25-9.01.37-3.74-.86-5.96-2.15-6.68-3.94s-.17-4.75,1.69-8.9c1.89-4.21,3.94-6.92,6.17-8.1s5.43-1.29,9.56-.3c4.06.98,6.45,2.42,7.17,4.25s-.04,4.76-2.22,8.78h0ZM594.79,212.75c-.3.57-.63,1.04-.97,1.41-.34.37-.74.69-1.19.93-.45.25-.98.41-1.59.5-.61.08-1.33.08-2.16,0-.8-.09-1.43-.23-1.9-.43-.47-.2-.79-.46-.98-.78-.19-.32-.25-.69-.18-1.1.06-.41.23-.91.5-1.49,14.96-32.61,29.91-65.22,44.87-97.82.23-.51.55-.96.96-1.35.41-.39.96-.67,1.66-.85.7-.17,1.57-.23,2.59-.17s2.26.24,3.69.56c1.49.33,2.68.68,3.56,1.04s1.51.75,1.9,1.15c.39.41.58.85.59,1.33,0,.48-.12.97-.38,1.46-16.99,31.87-33.98,63.74-50.97,95.6h0Z"/>
      <path class="st0" d="M644.56,221.14c-.76.68-1.47,1.16-2.11,1.45s-1.29.47-1.94.55-1.41.03-2.29-.14c-.85-.17-1.44-.38-1.76-.66-.33-.27-.42-.61-.29-1.01s.56-.95,1.27-1.66c2.7-2.66,5.4-5.32,8.11-7.98-5.9,3.24-11,5.74-15.41,7.44s-7.83,2.4-10.47,1.98c-2.32-.37-3.93-1.28-4.93-2.78s-1.37-3.53-1.14-6.09,1.06-5.65,2.52-9.25,3.58-7.62,6.47-12.05c3.37-5.17,6.93-9.53,10.82-13.02s8.03-6.15,12.46-7.95,9.14-2.75,14.06-2.84,9.94.65,14.91,2.2c2.94.91,5.87,1.86,8.79,2.83,2.08-2.08,4.16-4.16,6.25-6.25,3.09-3.09,5.56-5.92,7.36-8.51s2.84-4.91,3.08-6.98c.24-2.06-.31-3.9-1.67-5.47-1.35-1.58-3.61-2.92-6.74-3.97-3.35-1.13-6.76-1.65-10.16-1.55-3.4.1-6.52.44-9.36,1-2.84.56-5.24,1.16-7.24,1.75-2,.6-3.3.82-3.94.64-.43-.12-.7-.35-.84-.71-.14-.35-.14-.83-.02-1.44.12-.6.42-1.34.88-2.21.46-.87,1.03-1.81,1.72-2.83,1.14-1.68,2.13-2.99,2.99-3.91s1.96-1.71,3.33-2.37c1.36-.65,3.39-1.3,6.12-1.9,2.72-.6,5.69-1,8.9-1.16,3.21-.17,6.56-.06,10.03.32,3.47.39,6.75,1.13,9.78,2.21,5.66,2.01,9.84,4.51,12.44,7.33s3.76,5.96,3.46,9.36-1.96,7.08-4.95,11.06c-2.98,3.98-7.2,8.32-12.54,13.07-19.32,17.17-38.63,34.35-57.95,51.52v-.02h0ZM673.01,182.78c-3.11-.96-6.22-1.89-9.35-2.79-3.02-.87-5.96-1.23-8.77-1.09-2.82.14-5.52.77-8.1,1.87-2.57,1.1-4.95,2.62-7.16,4.53-2.21,1.91-4.29,4.23-6.3,6.93-3.42,4.61-5.27,8.46-5.69,11.48-.42,3.03.74,4.78,3.62,5.36,2.34.47,5.39-.13,9.29-1.7,3.9-1.57,8.98-4.13,15.41-7.54,5.68-5.68,11.36-11.36,17.04-17.04h.01Z"/>
      <path class="st0" d="M667.9,226.57c-.6.38-1.17.68-1.72.91-.54.23-1.11.4-1.7.52-.59.12-1.22.16-1.88.13-.66-.03-1.4-.14-2.2-.33-.77-.18-1.34-.38-1.72-.6-.37-.22-.57-.47-.59-.74s.11-.56.38-.87c.28-.31.7-.66,1.27-1.07,47.53-33.85,95.07-67.7,142.6-101.54.57-.41,1.18-.7,1.84-.87.66-.18,1.44-.19,2.36-.05.91.15,1.97.46,3.17.95s2.59,1.19,4.18,2.09c1.65.94,2.92,1.77,3.82,2.47.9.71,1.5,1.33,1.79,1.86s.34,1.02.15,1.46-.59.84-1.19,1.22c-50.19,31.49-100.37,62.98-150.56,94.48v-.02h0Z"/>
    </g>
  </g>
</svg>