<?xml version="1.0" encoding="UTF-8"?>
<svg id="_レイヤー_2" xmlns="http://www.w3.org/2000/svg" version="1.1" viewBox="0 0 1080 566">
  <!-- Generator: Adobe Illustrator 30.3.0, SVG Export Plug-In . SVG Version: 2.1.3 Build 182)  -->
  <defs>
    <style>
      .st0 {
        fill: #f5b570;
      }

      .st1 {
        fill: #6d91e3;
      }

      .st2 {
        fill: #3d56af;
      }

      .st3 {
        fill: #c2d2f5;
      }

      .st4 {
        fill: #d73666;
      }

      .st5 {
        stroke: #242e50;
      }

      .st5, .st6, .st7, .st8 {
        fill: none;
        stroke-linecap: round;
        stroke-linejoin: round;
      }

      .st5, .st7 {
        stroke-width: 60px;
      }

      .st6 {
        stroke-width: 40px;
      }

      .st6, .st7 {
        stroke: #fff;
      }

      .st8 {
        stroke: #242e50;
        stroke-width: 80px;
      }
    </style>
  </defs>
  <g>
    <g>
      <polygon class="st5" points="759.67 219.42 759.84 220.22 759.84 41.73 332.44 41.73 332.44 221.37 333.12 219.42 759.67 219.42"/>
      <polygon class="st5" points="525.83 312.61 554.16 312.61 554.16 312.87 779.75 312.87 759.84 220.22 759.67 219.42 333.12 219.42 332.44 221.37 300.49 312.87 525.83 312.87 525.83 312.61"/>
      <polygon class="st5" points="299.87 314.65 300.26 314.65 300.26 313.54 299.87 314.65"/>
      <polygon class="st5" points="780.13 314.65 779.75 312.89 779.75 314.65 780.13 314.65"/>
      <polygon class="st5" points="525.83 312.87 300.49 312.87 300.26 312.87 300.26 313.54 300.26 314.65 300.26 411.42 525.83 411.42 525.83 312.87"/>
      <polygon class="st5" points="554.16 523.25 525.83 523.25 525.83 437.46 300.26 437.46 300.26 524.27 779.75 524.27 779.75 437.46 554.16 437.46 554.16 523.25"/>
      <polygon class="st5" points="554.16 411.42 779.75 411.42 779.75 314.65 779.75 312.89 779.75 312.87 779.75 312.87 554.16 312.87 554.16 411.42"/>
      <polygon class="st5" points="782.42 411.42 779.75 411.42 554.16 411.42 554.16 312.87 554.16 312.61 525.83 312.61 525.83 312.87 525.83 411.42 300.26 411.42 297.58 411.42 297.58 437.46 300.26 437.46 525.83 437.46 525.83 523.25 554.16 523.25 554.16 437.46 779.75 437.46 782.42 437.46 782.42 411.42"/>
    </g>
    <g>
      <polygon class="st6" points="759.67 219.42 759.84 220.22 759.84 41.73 332.44 41.73 332.44 221.37 333.12 219.42 759.67 219.42"/>
      <polygon class="st6" points="525.83 312.61 554.16 312.61 554.16 312.87 779.75 312.87 759.84 220.22 759.67 219.42 333.12 219.42 332.44 221.37 300.49 312.87 525.83 312.87 525.83 312.61"/>
      <polygon class="st6" points="299.87 314.65 300.26 314.65 300.26 313.54 299.87 314.65"/>
      <polygon class="st6" points="780.13 314.65 779.75 312.89 779.75 314.65 780.13 314.65"/>
      <polygon class="st6" points="525.83 312.87 300.49 312.87 300.26 312.87 300.26 313.54 300.26 314.65 300.26 411.42 525.83 411.42 525.83 312.87"/>
      <polygon class="st6" points="554.16 523.25 525.83 523.25 525.83 437.46 300.26 437.46 300.26 524.27 779.75 524.27 779.75 437.46 554.16 437.46 554.16 523.25"/>
      <polygon class="st6" points="554.16 411.42 779.75 411.42 779.75 314.65 779.75 312.89 779.75 312.87 779.75 312.87 554.16 312.87 554.16 411.42"/>
      <polygon class="st6" points="782.42 411.42 779.75 411.42 554.16 411.42 554.16 312.87 554.16 312.61 525.83 312.61 525.83 312.87 525.83 411.42 300.26 411.42 297.58 411.42 297.58 437.46 300.26 437.46 525.83 437.46 525.83 523.25 554.16 523.25 554.16 437.46 779.75 437.46 782.42 437.46 782.42 411.42"/>
    </g>
    <g>
      <polygon class="st1" points="759.67 219.42 759.84 220.22 759.84 41.73 332.44 41.73 332.44 221.37 333.12 219.42 759.67 219.42"/>
      <polygon class="st2" points="525.83 312.61 554.16 312.61 554.16 312.87 779.75 312.87 759.84 220.22 759.67 219.42 333.12 219.42 332.44 221.37 300.49 312.87 525.83 312.87 525.83 312.61"/>
      <polygon class="st2" points="299.87 314.65 300.26 314.65 300.26 313.54 299.87 314.65"/>
      <polygon class="st2" points="780.13 314.65 779.75 312.89 779.75 314.65 780.13 314.65"/>
      <polygon class="st3" points="525.83 312.87 300.49 312.87 300.26 312.87 300.26 313.54 300.26 314.65 300.26 411.42 525.83 411.42 525.83 312.87"/>
      <polygon class="st3" points="554.16 523.25 525.83 523.25 525.83 437.46 300.26 437.46 300.26 524.27 779.75 524.27 779.75 437.46 554.16 437.46 554.16 523.25"/>
      <polygon class="st3" points="554.16 411.42 779.75 411.42 779.75 314.65 779.75 312.89 779.75 312.87 779.75 312.87 554.16 312.87 554.16 411.42"/>
      <polygon class="st4" points="782.42 411.42 779.75 411.42 554.16 411.42 554.16 312.87 554.16 312.61 525.83 312.61 525.83 312.87 525.83 411.42 300.26 411.42 297.58 411.42 297.58 437.46 300.26 437.46 525.83 437.46 525.83 523.25 554.16 523.25 554.16 437.46 779.75 437.46 782.42 437.46 782.42 411.42"/>
    </g>
  </g>
  <g>
    <g>
      <path class="st8" d="M393.96,186.27c5.03,5.66,8.8,10.88,11.5,15.56s4.44,8.74,5.25,12.16.7,6.09-.4,8.06-3.07,3.21-6.06,3.83c-2.09.43-4.39.54-6.95.37-2.56-.18-5.12-.49-7.7-.94-2.58-.45-5-.95-7.24-1.51s-4.02-1.06-5.31-1.52-2.72-1.1-4.3-1.91c-1.58-.82-3.54-1.95-5.87-3.41-1.65-1.04-2.99-1.91-4-2.62-1.01-.71-1.79-1.3-2.31-1.78-.53-.48-.8-.84-.84-1.08-.03-.24.1-.42.4-.53.53-.18,1.92-.04,4.12.47,2.21.51,4.78,1.02,7.69,1.56s6,.97,9.25,1.3c3.26.33,6.17.17,8.82-.53,2.01-.53,3.35-1.41,4.09-2.69.73-1.28.88-2.87.44-4.8-.44-1.92-1.5-4.16-3.21-6.71s-4.06-5.35-7.11-8.37c-3.29-3.26-6.63-5.89-10.1-7.83-3.46-1.94-7.04-3.46-10.75-4.52s-7.58-1.83-11.62-2.3-8.23-.87-12.57-1.2-8.86-.76-13.56-1.27c-4.7-.51-9.6-1.34-14.69-2.48s-10.4-2.73-15.9-4.8-11.24-4.95-17.12-8.73c-6.02-3.87-10.57-7.77-13.5-11.79-2.93-4.02-4.33-7.99-4.15-11.89.18-3.9,1.84-7.69,4.97-11.26,3.12-3.58,7.49-6.75,13.01-9.38,2.82-1.35,5.91-2.47,9.25-3.34,3.33-.88,6.65-1.5,9.93-1.86,3.29-.37,6.36-.49,9.23-.38,2.87.11,4.87.35,6.03.67,1.17.33,2,.62,2.51.88.51.26,1.07.62,1.69,1.09s1.3,1.05,2.05,1.76c.75.71,1.67,1.64,2.75,2.8,1.03,1.1,1.9,2.09,2.6,2.98.71.89,1.24,1.66,1.6,2.31.36.65.5,1.18.43,1.58-.08.4-.33.69-.75.86-.67.26-2.12.25-4.37,0s-4.95-.49-8.1-.65c-3.15-.16-6.62-.04-10.41.39s-7.51,1.49-11.11,3.15c-3.35,1.55-5.78,3.34-7.26,5.3s-2.17,3.97-2.07,6c.09,2.03.92,4.09,2.46,6.17,1.54,2.08,3.63,4.07,6.22,5.98,3.79,2.78,7.75,4.84,11.83,6.23,4.07,1.39,8.24,2.39,12.48,3.02,4.24.63,8.56,1.05,12.95,1.29,4.4.24,8.8.55,13.21.92,4.41.38,8.86,1,13.34,1.86s8.92,2.23,13.32,4.09,8.75,4.38,13.08,7.52,8.57,7.14,12.82,11.93h0Z"/>
      <path class="st8" d="M457.31,158.84c3.15,8.78,5.39,16.75,6.92,23.85,1.52,7.1,2.3,13.17,2.41,18.19.1,5.02-.47,8.94-1.79,11.77s-3.42,4.38-6.52,4.72c-1.32.15-2.69,0-4.13-.43s-3.05-1.16-4.86-2.2c-1.8-1.04-3.81-2.37-6.05-3.99-2.24-1.62-4.78-3.51-7.67-5.67,10.1,15.24,20.19,30.49,30.29,45.73.36.54.62,1.02.8,1.42.17.41.24.75.21,1.02s-.19.47-.48.61c-.29.13-.72.2-1.31.2s-1.08-.07-1.56-.2c-.47-.13-.92-.33-1.34-.59-.42-.26-.82-.59-1.2-.98s-.77-.85-1.16-1.38c-30.97-41.2-61.94-82.4-92.92-123.61-.44-.59-.71-1.09-.81-1.51-.1-.41.02-.84.35-1.26.33-.43.87-.82,1.62-1.17.75-.35,1.71-.71,2.89-1.06,1.23-.37,2.28-.62,3.15-.76.86-.13,1.65-.14,2.36-.03.71.12,1.29.33,1.75.64s.89.77,1.29,1.38c2.75,4.08,5.5,8.17,8.24,12.25.34-3.45.95-6.53,1.77-9.23.83-2.7,1.96-5.06,3.37-7.06s3.13-3.67,5.13-5,4.37-2.31,7.08-2.93c5.89-1.35,11.61-1.04,16.92.92,5.32,1.96,10.18,5.19,14.56,9.64s8.25,9.87,11.68,16.21c3.44,6.34,6.39,13.18,9.01,20.48v.03ZM446.1,162.7c-2.17-5.04-4.52-9.88-7.1-14.49-2.58-4.61-5.35-8.62-8.36-12-3.01-3.38-6.23-5.91-9.67-7.58s-7.02-2.1-10.64-1.29c-1.81.41-3.4,1.15-4.77,2.23-1.36,1.08-2.52,2.55-3.45,4.4-.92,1.85-1.62,4.17-2.06,6.94s-.58,6.08-.38,9.9c8.03,12.13,16.07,24.26,24.1,36.38,6.55,5.05,11.78,8.98,15.93,11.65s7.36,3.88,9.84,3.53c2.3-.32,3.71-1.65,4.36-4.03.64-2.38.69-5.46.15-9.24s-1.49-7.98-2.9-12.58-3.07-9.22-5.05-13.82h0Z"/>
      <path class="st8" d="M529.93,151.41c-.08,3.04-.6,5.2-1.53,6.48-.94,1.28-1.98,1.92-3.15,1.92-13.75,0-27.51.55-41.22,1.65,1.25,5.75,2.72,10.89,4.34,15.44s3.47,8.44,5.49,11.66c2.03,3.22,4.24,5.67,6.64,7.35,2.41,1.68,5.07,2.47,8.09,2.38,2.39-.07,4.47-.53,6.3-1.38s3.42-1.79,4.79-2.82c1.36-1.03,2.51-1.95,3.41-2.77.91-.82,1.61-1.23,2.08-1.23.27,0,.52.14.73.41.22.27.38.68.49,1.23s.19,1.31.24,2.28c.05.98.06,2.16.05,3.57-.01,1.01-.04,1.89-.08,2.63-.04.74-.1,1.4-.16,1.99-.06.58-.15,1.11-.28,1.58-.13.47-.29.92-.49,1.34-.2.43-.78,1.13-1.71,2.11s-2.13,1.94-3.57,2.88c-1.44.95-3.09,1.8-4.93,2.57-1.85.77-3.82,1.18-5.95,1.23-3.7.09-7.09-1-10.38-3.26s-6.51-5.65-9.72-10.18c-3.2-4.52-6.38-10.21-9.48-17.08-3.09-6.88-6.05-14.9-8.68-24.14-2.49-8.78-4.02-16.75-4.34-23.95-.33-7.2.51-13.44,2.57-18.71s5.29-9.47,9.61-12.54c4.32-3.07,9.63-4.82,15.7-5.16,6.5-.37,12.18.76,16.82,3.29,4.64,2.54,8.39,6.07,11.2,10.54,2.82,4.47,4.74,9.75,5.86,15.8s1.52,12.51,1.35,19.37c-.03,1.17-.06,2.34-.09,3.51h0ZM517.66,145.71c-.2-10.13-1.96-18.07-5.68-23.75-3.7-5.68-9.2-8.39-16.12-8.01-3.54.2-6.53,1.3-8.87,3.26-2.35,1.97-4.1,4.49-5.26,7.56-1.16,3.07-1.77,6.58-1.85,10.53-.09,3.95.31,8.04,1.13,12.26,12.19-1.06,24.42-1.67,36.65-1.85h0Z"/>
      <path class="st8" d="M580.62,195.44c-.46,1.26-.88,2.36-1.26,3.28-.38.93-.73,1.7-1.05,2.32-.32.62-.63,1.17-.94,1.64-.3.47-.85,1.15-1.63,2.04s-1.94,1.98-3.46,3.28-3.09,2.45-4.7,3.44c-1.62,1-3.25,1.79-4.92,2.39-1.66.59-3.26.85-4.82.76-3.22-.17-5.8-1.52-7.93-4.1-2.12-2.57-3.78-6.27-5.02-11.1s-2.07-10.74-2.45-17.73c-.37-6.99-.24-15.03.6-24.13.96-10.34,2.56-19.19,5.08-26.53,2.51-7.34,5.72-13.29,9.64-17.81,3.92-4.52,8.45-7.73,13.49-9.6,5.04-1.87,10.37-2.49,15.8-1.86,2.62.3,5.09.92,7.38,1.85s4.3,2.03,6.04,3.3c1.73,1.27,3.17,2.66,4.31,4.17s1.88,2.77,2.27,3.77c.38,1,.61,1.79.68,2.35.07.56.07,1.21-.02,1.94-.09.74-.26,1.55-.53,2.45s-.65,2.02-1.13,3.36c-1.06,2.9-2.04,4.89-2.94,5.97s-1.7,1.57-2.4,1.46c-.81-.12-1.52-.87-2.16-2.26-.64-1.39-1.55-2.94-2.73-4.68-1.19-1.73-2.8-3.38-4.84-4.93-2.04-1.55-4.75-2.53-8.06-2.9-6.81-.75-12.83,2.3-17.56,9.08-4.76,6.78-7.94,16.95-10.02,30.39-1.05,6.72-1.59,12.64-1.7,17.73-.11,5.1.17,9.37.83,12.83.66,3.46,1.68,6.06,3.1,7.82,1.42,1.76,3.2,2.7,5.44,2.86,2.12.15,4.16-.39,6.18-1.62s3.9-2.59,5.64-4.09,3.27-2.85,4.57-4.07,2.21-1.8,2.7-1.74c.28.03.47.21.57.53.09.32.08.84-.03,1.56-.12.72-.34,1.63-.68,2.71-.33,1.08-.78,2.37-1.32,3.86h-.02Z"/>
      <path class="st8" d="M664.89,85.34c-2.22,4.1-4.46,6.7-6.68,7.83-2.22,1.14-5.21,1.25-9.01.37-3.74-.86-5.96-2.15-6.68-3.94s-.17-4.75,1.69-8.9c1.89-4.21,3.94-6.92,6.17-8.1s5.43-1.29,9.56-.3c4.06.98,6.45,2.42,7.17,4.25s-.04,4.76-2.22,8.78h0ZM594.79,212.75c-.3.57-.63,1.04-.97,1.41-.34.37-.74.69-1.19.93-.45.25-.98.41-1.59.5-.61.08-1.33.08-2.16,0-.8-.09-1.43-.23-1.9-.43-.47-.2-.79-.46-.98-.78-.19-.32-.25-.69-.18-1.1.06-.41.23-.91.5-1.49,14.96-32.61,29.91-65.22,44.87-97.82.23-.51.55-.96.96-1.35.41-.39.96-.67,1.66-.85.7-.17,1.57-.23,2.59-.17s2.26.24,3.69.56c1.49.33,2.68.68,3.56,1.04s1.51.75,1.9,1.15c.39.41.58.85.59,1.33,0,.48-.12.97-.38,1.46-16.99,31.87-33.98,63.74-50.97,95.6h0Z"/>
      <path class="st8" d="M644.56,221.14c-.76.68-1.47,1.16-2.11,1.45s-1.29.47-1.94.55-1.41.03-2.29-.14c-.85-.17-1.44-.38-1.76-.66-.33-.27-.42-.61-.29-1.01s.56-.95,1.27-1.66c2.7-2.66,5.4-5.32,8.11-7.98-5.9,3.24-11,5.74-15.41,7.44s-7.83,2.4-10.47,1.98c-2.32-.37-3.93-1.28-4.93-2.78s-1.37-3.53-1.14-6.09,1.06-5.65,2.52-9.25,3.58-7.62,6.47-12.05c3.37-5.17,6.93-9.53,10.82-13.02s8.03-6.15,12.46-7.95,9.14-2.75,14.06-2.84,9.94.65,14.91,2.2c2.94.91,5.87,1.86,8.79,2.83,2.08-2.08,4.16-4.16,6.25-6.25,3.09-3.09,5.56-5.92,7.36-8.51s2.84-4.91,3.08-6.98c.24-2.06-.31-3.9-1.67-5.47-1.35-1.58-3.61-2.92-6.74-3.97-3.35-1.13-6.76-1.65-10.16-1.55-3.4.1-6.52.44-9.36,1-2.84.56-5.24,1.16-7.24,1.75-2,.6-3.3.82-3.94.64-.43-.12-.7-.35-.84-.71-.14-.35-.14-.83-.02-1.44.12-.6.42-1.34.88-2.21.46-.87,1.03-1.81,1.72-2.83,1.14-1.68,2.13-2.99,2.99-3.91s1.96-1.71,3.33-2.37c1.36-.65,3.39-1.3,6.12-1.9,2.72-.6,5.69-1,8.9-1.16,3.21-.17,6.56-.06,10.03.32,3.47.39,6.75,1.13,9.78,2.21,5.66,2.01,9.84,4.51,12.44,7.33s3.76,5.96,3.46,9.36-1.96,7.08-4.95,11.06c-2.98,3.98-7.2,8.32-12.54,13.07-19.32,17.17-38.63,34.35-57.95,51.52v-.02ZM673.01,182.78c-3.11-.96-6.22-1.89-9.35-2.79-3.02-.87-5.96-1.23-8.77-1.09-2.82.14-5.52.77-8.1,1.87-2.57,1.1-4.95,2.62-7.16,4.53-2.21,1.91-4.29,4.23-6.3,6.93-3.42,4.61-5.27,8.46-5.69,11.48-.42,3.03.74,4.78,3.62,5.36,2.34.47,5.39-.13,9.29-1.7,3.9-1.57,8.98-4.13,15.41-7.54,5.68-5.68,11.36-11.36,17.04-17.04h.01Z"/>
      <path class="st8" d="M667.9,226.57c-.6.38-1.17.68-1.72.91-.54.23-1.11.4-1.7.52-.59.12-1.22.16-1.88.13-.66-.03-1.4-.14-2.2-.33-.77-.18-1.34-.38-1.72-.6-.37-.22-.57-.47-.59-.74s.11-.56.38-.87c.28-.31.7-.66,1.27-1.07,47.53-33.85,95.07-67.7,142.6-101.54.57-.41,1.18-.7,1.84-.87.66-.18,1.44-.19,2.36-.05.91.15,1.97.46,3.17.95,1.2.49,2.59,1.19,4.18,2.09,1.65.94,2.92,1.77,3.82,2.47.9.71,1.5,1.33,1.79,1.86s.34,1.02.15,1.46-.59.84-1.19,1.22c-50.19,31.49-100.37,62.98-150.56,94.48v-.02Z"/>
    </g>
    <g>
      <path class="st7" d="M393.96,186.27c5.03,5.66,8.8,10.88,11.5,15.56s4.44,8.74,5.25,12.16.7,6.09-.4,8.06-3.07,3.21-6.06,3.83c-2.09.43-4.39.54-6.95.37-2.56-.18-5.12-.49-7.7-.94-2.58-.45-5-.95-7.24-1.51s-4.02-1.06-5.31-1.52-2.72-1.1-4.3-1.91c-1.58-.82-3.54-1.95-5.87-3.41-1.65-1.04-2.99-1.91-4-2.62-1.01-.71-1.79-1.3-2.31-1.78-.53-.48-.8-.84-.84-1.08-.03-.24.1-.42.4-.53.53-.18,1.92-.04,4.12.47,2.21.51,4.78,1.02,7.69,1.56s6,.97,9.25,1.3c3.26.33,6.17.17,8.82-.53,2.01-.53,3.35-1.41,4.09-2.69.73-1.28.88-2.87.44-4.8-.44-1.92-1.5-4.16-3.21-6.71s-4.06-5.35-7.11-8.37c-3.29-3.26-6.63-5.89-10.1-7.83-3.46-1.94-7.04-3.46-10.75-4.52s-7.58-1.83-11.62-2.3-8.23-.87-12.57-1.2-8.86-.76-13.56-1.27c-4.7-.51-9.6-1.34-14.69-2.48s-10.4-2.73-15.9-4.8-11.24-4.95-17.12-8.73c-6.02-3.87-10.57-7.77-13.5-11.79-2.93-4.02-4.33-7.99-4.15-11.89.18-3.9,1.84-7.69,4.97-11.26,3.12-3.58,7.49-6.75,13.01-9.38,2.82-1.35,5.91-2.47,9.25-3.34,3.33-.88,6.65-1.5,9.93-1.86,3.29-.37,6.36-.49,9.23-.38,2.87.11,4.87.35,6.03.67,1.17.33,2,.62,2.51.88.51.26,1.07.62,1.69,1.09s1.3,1.05,2.05,1.76c.75.71,1.67,1.64,2.75,2.8,1.03,1.1,1.9,2.09,2.6,2.98.71.89,1.24,1.66,1.6,2.31.36.65.5,1.18.43,1.58-.08.4-.33.69-.75.86-.67.26-2.12.25-4.37,0s-4.95-.49-8.1-.65c-3.15-.16-6.62-.04-10.41.39s-7.51,1.49-11.11,3.15c-3.35,1.55-5.78,3.34-7.26,5.3s-2.17,3.97-2.07,6c.09,2.03.92,4.09,2.46,6.17,1.54,2.08,3.63,4.07,6.22,5.98,3.79,2.78,7.75,4.84,11.83,6.23,4.07,1.39,8.24,2.39,12.48,3.02,4.24.63,8.56,1.05,12.95,1.29,4.4.24,8.8.55,13.21.92,4.41.38,8.86,1,13.34,1.86s8.92,2.23,13.32,4.09,8.75,4.38,13.08,7.52,8.57,7.14,12.82,11.93h0Z"/>
      <path class="st7" d="M457.31,158.84c3.15,8.78,5.39,16.75,6.92,23.85,1.52,7.1,2.3,13.17,2.41,18.19.1,5.02-.47,8.94-1.79,11.77s-3.42,4.38-6.52,4.72c-1.32.15-2.69,0-4.13-.43s-3.05-1.16-4.86-2.2c-1.8-1.04-3.81-2.37-6.05-3.99-2.24-1.62-4.78-3.51-7.67-5.67,10.1,15.24,20.19,30.49,30.29,45.73.36.54.62,1.02.8,1.42.17.41.24.75.21,1.02s-.19.47-.48.61c-.29.13-.72.2-1.31.2s-1.08-.07-1.56-.2c-.47-.13-.92-.33-1.34-.59-.42-.26-.82-.59-1.2-.98s-.77-.85-1.16-1.38c-30.97-41.2-61.94-82.4-92.92-123.61-.44-.59-.71-1.09-.81-1.51-.1-.41.02-.84.35-1.26.33-.43.87-.82,1.62-1.17.75-.35,1.71-.71,2.89-1.06,1.23-.37,2.28-.62,3.15-.76.86-.13,1.65-.14,2.36-.03.71.12,1.29.33,1.75.64s.89.77,1.29,1.38c2.75,4.08,5.5,8.17,8.24,12.25.34-3.45.95-6.53,1.77-9.23.83-2.7,1.96-5.06,3.37-7.06s3.13-3.67,5.13-5,4.37-2.31,7.08-2.93c5.89-1.35,11.61-1.04,16.92.92,5.32,1.96,10.18,5.19,14.56,9.64s8.25,9.87,11.68,16.21c3.44,6.34,6.39,13.18,9.01,20.48v.03ZM446.1,162.7c-2.17-5.04-4.52-9.88-7.1-14.49-2.58-4.61-5.35-8.62-8.36-12-3.01-3.38-6.23-5.91-9.67-7.58s-7.02-2.1-10.64-1.29c-1.81.41-3.4,1.15-4.77,2.23-1.36,1.08-2.52,2.55-3.45,4.4-.92,1.85-1.62,4.17-2.06,6.94s-.58,6.08-.38,9.9c8.03,12.13,16.07,24.26,24.1,36.38,6.55,5.05,11.78,8.98,15.93,11.65s7.36,3.88,9.84,3.53c2.3-.32,3.71-1.65,4.36-4.03.64-2.38.69-5.46.15-9.24s-1.49-7.98-2.9-12.58-3.07-9.22-5.05-13.82h0Z"/>
      <path class="st7" d="M529.93,151.41c-.08,3.04-.6,5.2-1.53,6.48-.94,1.28-1.98,1.92-3.15,1.92-13.75,0-27.51.55-41.22,1.65,1.25,5.75,2.72,10.89,4.34,15.44s3.47,8.44,5.49,11.66c2.03,3.22,4.24,5.67,6.64,7.35,2.41,1.68,5.07,2.47,8.09,2.38,2.39-.07,4.47-.53,6.3-1.38s3.42-1.79,4.79-2.82c1.36-1.03,2.51-1.95,3.41-2.77.91-.82,1.61-1.23,2.08-1.23.27,0,.52.14.73.41.22.27.38.68.49,1.23s.19,1.31.24,2.28c.05.98.06,2.16.05,3.57-.01,1.01-.04,1.89-.08,2.63-.04.74-.1,1.4-.16,1.99-.06.58-.15,1.11-.28,1.58-.13.47-.29.92-.49,1.34-.2.43-.78,1.13-1.71,2.11s-2.13,1.94-3.57,2.88c-1.44.95-3.09,1.8-4.93,2.57-1.85.77-3.82,1.18-5.95,1.23-3.7.09-7.09-1-10.38-3.26s-6.51-5.65-9.72-10.18c-3.2-4.52-6.38-10.21-9.48-17.08-3.09-6.88-6.05-14.9-8.68-24.14-2.49-8.78-4.02-16.75-4.34-23.95-.33-7.2.51-13.44,2.57-18.71s5.29-9.47,9.61-12.54c4.32-3.07,9.63-4.82,15.7-5.16,6.5-.37,12.18.76,16.82,3.29,4.64,2.54,8.39,6.07,11.2,10.54,2.82,4.47,4.74,9.75,5.86,15.8s1.52,12.51,1.35,19.37c-.03,1.17-.06,2.34-.09,3.51h0ZM517.66,145.71c-.2-10.13-1.96-18.07-5.68-23.75-3.7-5.68-9.2-8.39-16.12-8.01-3.54.2-6.53,1.3-8.87,3.26-2.35,1.97-4.1,4.49-5.26,7.56-1.16,3.07-1.77,6.58-1.85,10.53-.09,3.95.31,8.04,1.13,12.26,12.19-1.06,24.42-1.67,36.65-1.85h0Z"/>
      <path class="st7" d="M580.62,195.44c-.46,1.26-.88,2.36-1.26,3.28-.38.93-.73,1.7-1.05,2.32-.32.62-.63,1.17-.94,1.64-.3.47-.85,1.15-1.63,2.04s-1.94,1.98-3.46,3.28-3.09,2.45-4.7,3.44c-1.62,1-3.25,1.79-4.92,2.39-1.66.59-3.26.85-4.82.76-3.22-.17-5.8-1.52-7.93-4.1-2.12-2.57-3.78-6.27-5.02-11.1s-2.07-10.74-2.45-17.73c-.37-6.99-.24-15.03.6-24.13.96-10.34,2.56-19.19,5.08-26.53,2.51-7.34,5.72-13.29,9.64-17.81,3.92-4.52,8.45-7.73,13.49-9.6,5.04-1.87,10.37-2.49,15.8-1.86,2.62.3,5.09.92,7.38,1.85s4.3,2.03,6.04,3.3c1.73,1.27,3.17,2.66,4.31,4.17s1.88,2.77,2.27,3.77c.38,1,.61,1.79.68,2.35.07.56.07,1.21-.02,1.94-.09.74-.26,1.55-.53,2.45s-.65,2.02-1.13,3.36c-1.06,2.9-2.04,4.89-2.94,5.97s-1.7,1.57-2.4,1.46c-.81-.12-1.52-.87-2.16-2.26-.64-1.39-1.55-2.94-2.73-4.68-1.19-1.73-2.8-3.38-4.84-4.93-2.04-1.55-4.75-2.53-8.06-2.9-6.81-.75-12.83,2.3-17.56,9.08-4.76,6.78-7.94,16.95-10.02,30.39-1.05,6.72-1.59,12.64-1.7,17.73-.11,5.1.17,9.37.83,12.83.66,3.46,1.68,6.06,3.1,7.82,1.42,1.76,3.2,2.7,5.44,2.86,2.12.15,4.16-.39,6.18-1.62s3.9-2.59,5.64-4.09,3.27-2.85,4.57-4.07,2.21-1.8,2.7-1.74c.28.03.47.21.57.53.09.32.08.84-.03,1.56-.12.72-.34,1.63-.68,2.71-.33,1.08-.78,2.37-1.32,3.86h-.02Z"/>
      <path class="st7" d="M664.89,85.34c-2.22,4.1-4.46,6.7-6.68,7.83-2.22,1.14-5.21,1.25-9.01.37-3.74-.86-5.96-2.15-6.68-3.94s-.17-4.75,1.69-8.9c1.89-4.21,3.94-6.92,6.17-8.1s5.43-1.29,9.56-.3c4.06.98,6.45,2.42,7.17,4.25s-.04,4.76-2.22,8.78h0ZM594.79,212.75c-.3.57-.63,1.04-.97,1.41-.34.37-.74.69-1.19.93-.45.25-.98.41-1.59.5-.61.08-1.33.08-2.16,0-.8-.09-1.43-.23-1.9-.43-.47-.2-.79-.46-.98-.78-.19-.32-.25-.69-.18-1.1.06-.41.23-.91.5-1.49,14.96-32.61,29.91-65.22,44.87-97.82.23-.51.55-.96.96-1.35.41-.39.96-.67,1.66-.85.7-.17,1.57-.23,2.59-.17s2.26.24,3.69.56c1.49.33,2.68.68,3.56,1.04s1.51.75,1.9,1.15c.39.41.58.85.59,1.33,0,.48-.12.97-.38,1.46-16.99,31.87-33.98,63.74-50.97,95.6h0Z"/>
      <path class="st7" d="M644.56,221.14c-.76.68-1.47,1.16-2.11,1.45s-1.29.47-1.94.55-1.41.03-2.29-.14c-.85-.17-1.44-.38-1.76-.66-.33-.27-.42-.61-.29-1.01s.56-.95,1.27-1.66c2.7-2.66,5.4-5.32,8.11-7.98-5.9,3.24-11,5.74-15.41,7.44s-7.83,2.4-10.47,1.98c-2.32-.37-3.93-1.28-4.93-2.78s-1.37-3.53-1.14-6.09,1.06-5.65,2.52-9.25,3.58-7.62,6.47-12.05c3.37-5.17,6.93-9.53,10.82-13.02s8.03-6.15,12.46-7.95,9.14-2.75,14.06-2.84,9.94.65,14.91,2.2c2.94.91,5.87,1.86,8.79,2.83,2.08-2.08,4.16-4.16,6.25-6.25,3.09-3.09,5.56-5.92,7.36-8.51s2.84-4.91,3.08-6.98c.24-2.06-.31-3.9-1.67-5.47-1.35-1.58-3.61-2.92-6.74-3.97-3.35-1.13-6.76-1.65-10.16-1.55-3.4.1-6.52.44-9.36,1-2.84.56-5.24,1.16-7.24,1.75-2,.6-3.3.82-3.94.64-.43-.12-.7-.35-.84-.71-.14-.35-.14-.83-.02-1.44.12-.6.42-1.34.88-2.21.46-.87,1.03-1.81,1.72-2.83,1.14-1.68,2.13-2.99,2.99-3.91s1.96-1.71,3.33-2.37c1.36-.65,3.39-1.3,6.12-1.9,2.72-.6,5.69-1,8.9-1.16,3.21-.17,6.56-.06,10.03.32,3.47.39,6.75,1.13,9.78,2.21,5.66,2.01,9.84,4.51,12.44,7.33s3.76,5.96,3.46,9.36-1.96,7.08-4.95,11.06c-2.98,3.98-7.2,8.32-12.54,13.07-19.32,17.17-38.63,34.35-57.95,51.52v-.02ZM673.01,182.78c-3.11-.96-6.22-1.89-9.35-2.79-3.02-.87-5.96-1.23-8.77-1.09-2.82.14-5.52.77-8.1,1.87-2.57,1.1-4.95,2.62-7.16,4.53-2.21,1.91-4.29,4.23-6.3,6.93-3.42,4.61-5.27,8.46-5.69,11.48-.42,3.03.74,4.78,3.62,5.36,2.34.47,5.39-.13,9.29-1.7,3.9-1.57,8.98-4.13,15.41-7.54,5.68-5.68,11.36-11.36,17.04-17.04h.01Z"/>
      <path class="st7" d="M667.9,226.57c-.6.38-1.17.68-1.72.91-.54.23-1.11.4-1.7.52-.59.12-1.22.16-1.88.13-.66-.03-1.4-.14-2.2-.33-.77-.18-1.34-.38-1.72-.6-.37-.22-.57-.47-.59-.74s.11-.56.38-.87c.28-.31.7-.66,1.27-1.07,47.53-33.85,95.07-67.7,142.6-101.54.57-.41,1.18-.7,1.84-.87.66-.18,1.44-.19,2.36-.05.91.15,1.97.46,3.17.95,1.2.49,2.59,1.19,4.18,2.09,1.65.94,2.92,1.77,3.82,2.47.9.71,1.5,1.33,1.79,1.86s.34,1.02.15,1.46-.59.84-1.19,1.22c-50.19,31.49-100.37,62.98-150.56,94.48v-.02Z"/>
    </g>
    <g>
      <path class="st0" d="M393.96,186.27c5.03,5.66,8.8,10.88,11.5,15.56s4.44,8.74,5.25,12.16.7,6.09-.4,8.06-3.07,3.21-6.06,3.83c-2.09.43-4.39.54-6.95.37-2.56-.18-5.12-.49-7.7-.94-2.58-.45-5-.95-7.24-1.51s-4.02-1.06-5.31-1.52-2.72-1.1-4.3-1.91c-1.58-.82-3.54-1.95-5.87-3.41-1.65-1.04-2.99-1.91-4-2.62-1.01-.71-1.79-1.3-2.31-1.78-.53-.48-.8-.84-.84-1.08-.03-.24.1-.42.4-.53.53-.18,1.92-.04,4.12.47,2.21.51,4.78,1.02,7.69,1.56s6,.97,9.25,1.3c3.26.33,6.17.17,8.82-.53,2.01-.53,3.35-1.41,4.09-2.69.73-1.28.88-2.87.44-4.8-.44-1.92-1.5-4.16-3.21-6.71s-4.06-5.35-7.11-8.37c-3.29-3.26-6.63-5.89-10.1-7.83-3.46-1.94-7.04-3.46-10.75-4.52s-7.58-1.83-11.62-2.3-8.23-.87-12.57-1.2-8.86-.76-13.56-1.27c-4.7-.51-9.6-1.34-14.69-2.48s-10.4-2.73-15.9-4.8-11.24-4.95-17.12-8.73c-6.02-3.87-10.57-7.77-13.5-11.79-2.93-4.02-4.33-7.99-4.15-11.89.18-3.9,1.84-7.69,4.97-11.26,3.12-3.58,7.49-6.75,13.01-9.38,2.82-1.35,5.91-2.47,9.25-3.34,3.33-.88,6.65-1.5,9.93-1.86,3.29-.37,6.36-.49,9.23-.38,2.87.11,4.87.35,6.03.67,1.17.33,2,.62,2.51.88.51.26,1.07.62,1.69,1.09s1.3,1.05,2.05,1.76c.75.71,1.67,1.64,2.75,2.8,1.03,1.1,1.9,2.09,2.6,2.98.71.89,1.24,1.66,1.6,2.31.36.65.5,1.18.43,1.58-.08.4-.33.69-.75.86-.67.26-2.12.25-4.37,0s-4.95-.49-8.1-.65c-3.15-.16-6.62-.04-10.41.39s-7.51,1.49-11.11,3.15c-3.35,1.55-5.78,3.34-7.26,5.3s-2.17,3.97-2.07,6c.09,2.03.92,4.09,2.46,6.17,1.54,2.08,3.63,4.07,6.22,5.98,3.79,2.78,7.75,4.84,11.83,6.23,4.07,1.39,8.24,2.39,12.48,3.02,4.24.63,8.56,1.05,12.95,1.29,4.4.24,8.8.55,13.21.92,4.41.38,8.86,1,13.34,1.86s8.92,2.23,13.32,4.09,8.75,4.38,13.08,7.52,8.57,7.14,12.82,11.93h0Z"/>
      <path class="st0" d="M457.31,158.84c3.15,8.78,5.39,16.75,6.92,23.85,1.52,7.1,2.3,13.17,2.41,18.19.1,5.02-.47,8.94-1.79,11.77s-3.42,4.38-6.52,4.72c-1.32.15-2.69,0-4.13-.43s-3.05-1.16-4.86-2.2c-1.8-1.04-3.81-2.37-6.05-3.99-2.24-1.62-4.78-3.51-7.67-5.67,10.1,15.24,20.19,30.49,30.29,45.73.36.54.62,1.02.8,1.42.17.41.24.75.21,1.02s-.19.47-.48.61c-.29.13-.72.2-1.31.2s-1.08-.07-1.56-.2c-.47-.13-.92-.33-1.34-.59-.42-.26-.82-.59-1.2-.98s-.77-.85-1.16-1.38c-30.97-41.2-61.94-82.4-92.92-123.61-.44-.59-.71-1.09-.81-1.51-.1-.41.02-.84.35-1.26.33-.43.87-.82,1.62-1.17.75-.35,1.71-.71,2.89-1.06,1.23-.37,2.28-.62,3.15-.76.86-.13,1.65-.14,2.36-.03.71.12,1.29.33,1.75.64s.89.77,1.29,1.38c2.75,4.08,5.5,8.17,8.24,12.25.34-3.45.95-6.53,1.77-9.23.83-2.7,1.96-5.06,3.37-7.06s3.13-3.67,5.13-5,4.37-2.31,7.08-2.93c5.89-1.35,11.61-1.04,16.92.92,5.32,1.96,10.18,5.19,14.56,9.64s8.25,9.87,11.68,16.21c3.44,6.34,6.39,13.18,9.01,20.48v.03ZM446.1,162.7c-2.17-5.04-4.52-9.88-7.1-14.49-2.58-4.61-5.35-8.62-8.36-12-3.01-3.38-6.23-5.91-9.67-7.58s-7.02-2.1-10.64-1.29c-1.81.41-3.4,1.15-4.77,2.23-1.36,1.08-2.52,2.55-3.45,4.4-.92,1.85-1.62,4.17-2.06,6.94s-.58,6.08-.38,9.9c8.03,12.13,16.07,24.26,24.1,36.38,6.55,5.05,11.78,8.98,15.93,11.65s7.36,3.88,9.84,3.53c2.3-.32,3.71-1.65,4.36-4.03.64-2.38.69-5.46.15-9.24s-1.49-7.98-2.9-12.58-3.07-9.22-5.05-13.82h0Z"/>
      <path class="st0" d="M529.93,151.41c-.08,3.04-.6,5.2-1.53,6.48-.94,1.28-1.98,1.92-3.15,1.92-13.75,0-27.51.55-41.22,1.65,1.25,5.75,2.72,10.89,4.34,15.44s3.47,8.44,5.49,11.66c2.03,3.22,4.24,5.67,6.64,7.35,2.41,1.68,5.07,2.47,8.09,2.38,2.39-.07,4.47-.53,6.3-1.38s3.42-1.79,4.79-2.82c1.36-1.03,2.51-1.95,3.41-2.77.91-.82,1.61-1.23,2.08-1.23.27,0,.52.14.73.41.22.27.38.68.49,1.23s.19,1.31.24,2.28c.05.98.06,2.16.05,3.57-.01,1.01-.04,1.89-.08,2.63-.04.74-.1,1.4-.16,1.99-.06.58-.15,1.11-.28,1.58-.13.47-.29.92-.49,1.34-.2.43-.78,1.13-1.71,2.11s-2.13,1.94-3.57,2.88c-1.44.95-3.09,1.8-4.93,2.57-1.85.77-3.82,1.18-5.95,1.23-3.7.09-7.09-1-10.38-3.26s-6.51-5.65-9.72-10.18c-3.2-4.52-6.38-10.21-9.48-17.08-3.09-6.88-6.05-14.9-8.68-24.14-2.49-8.78-4.02-16.75-4.34-23.95-.33-7.2.51-13.44,2.57-18.71s5.29-9.47,9.61-12.54c4.32-3.07,9.63-4.82,15.7-5.16,6.5-.37,12.18.76,16.82,3.29,4.64,2.54,8.39,6.07,11.2,10.54,2.82,4.47,4.74,9.75,5.86,15.8s1.52,12.51,1.35,19.37c-.03,1.17-.06,2.34-.09,3.51h0ZM517.66,145.71c-.2-10.13-1.96-18.07-5.68-23.75-3.7-5.68-9.2-8.39-16.12-8.01-3.54.2-6.53,1.3-8.87,3.26-2.35,1.97-4.1,4.49-5.26,7.56-1.16,3.07-1.77,6.58-1.85,10.53-.09,3.95.31,8.04,1.13,12.26,12.19-1.06,24.42-1.67,36.65-1.85h0Z"/>
      <path class="st0" d="M580.62,195.44c-.46,1.26-.88,2.36-1.26,3.28-.38.93-.73,1.7-1.05,2.32-.32.62-.63,1.17-.94,1.64-.3.47-.85,1.15-1.63,2.04s-1.94,1.98-3.46,3.28-3.09,2.45-4.7,3.44c-1.62,1-3.25,1.79-4.92,2.39-1.66.59-3.26.85-4.82.76-3.22-.17-5.8-1.52-7.93-4.1-2.12-2.57-3.78-6.27-5.02-11.1s-2.07-10.74-2.45-17.73c-.37-6.99-.24-15.03.6-24.13.96-10.34,2.56-19.19,5.08-26.53,2.51-7.34,5.72-13.29,9.64-17.81,3.92-4.52,8.45-7.73,13.49-9.6,5.04-1.87,10.37-2.49,15.8-1.86,2.62.3,5.09.92,7.38,1.85s4.3,2.03,6.04,3.3c1.73,1.27,3.17,2.66,4.31,4.17s1.88,2.77,2.27,3.77c.38,1,.61,1.79.68,2.35.07.56.07,1.21-.02,1.94-.09.74-.26,1.55-.53,2.45s-.65,2.02-1.13,3.36c-1.06,2.9-2.04,4.89-2.94,5.97s-1.7,1.57-2.4,1.46c-.81-.12-1.52-.87-2.16-2.26-.64-1.39-1.55-2.94-2.73-4.68-1.19-1.73-2.8-3.38-4.84-4.93-2.04-1.55-4.75-2.53-8.06-2.9-6.81-.75-12.83,2.3-17.56,9.08-4.76,6.78-7.94,16.95-10.02,30.39-1.05,6.72-1.59,12.64-1.7,17.73-.11,5.1.17,9.37.83,12.83.66,3.46,1.68,6.06,3.1,7.82,1.42,1.76,3.2,2.7,5.44,2.86,2.12.15,4.16-.39,6.18-1.62s3.9-2.59,5.64-4.09,3.27-2.85,4.57-4.07,2.21-1.8,2.7-1.74c.28.03.47.21.57.53.09.32.08.84-.03,1.56-.12.72-.34,1.63-.68,2.71-.33,1.08-.78,2.37-1.32,3.86h-.02Z"/>
      <path class="st0" d="M664.89,85.34c-2.22,4.1-4.46,6.7-6.68,7.83-2.22,1.14-5.21,1.25-9.01.37-3.74-.86-5.96-2.15-6.68-3.94s-.17-4.75,1.69-8.9c1.89-4.21,3.94-6.92,6.17-8.1s5.43-1.29,9.56-.3c4.06.98,6.45,2.42,7.17,4.25s-.04,4.76-2.22,8.78h0ZM594.79,212.75c-.3.57-.63,1.04-.97,1.41-.34.37-.74.69-1.19.93-.45.25-.98.41-1.59.5-.61.08-1.33.08-2.16,0-.8-.09-1.43-.23-1.9-.43-.47-.2-.79-.46-.98-.78-.19-.32-.25-.69-.18-1.1.06-.41.23-.91.5-1.49,14.96-32.61,29.91-65.22,44.87-97.82.23-.51.55-.96.96-1.35.41-.39.96-.67,1.66-.85.7-.17,1.57-.23,2.59-.17s2.26.24,3.69.56c1.49.33,2.68.68,3.56,1.04s1.51.75,1.9,1.15c.39.41.58.85.59,1.33,0,.48-.12.97-.38,1.46-16.99,31.87-33.98,63.74-50.97,95.6h0Z"/>
      <path class="st0" d="M644.56,221.14c-.76.68-1.47,1.16-2.11,1.45s-1.29.47-1.94.55-1.41.03-2.29-.14c-.85-.17-1.44-.38-1.76-.66-.33-.27-.42-.61-.29-1.01s.56-.95,1.27-1.66c2.7-2.66,5.4-5.32,8.11-7.98-5.9,3.24-11,5.74-15.41,7.44s-7.83,2.4-10.47,1.98c-2.32-.37-3.93-1.28-4.93-2.78s-1.37-3.53-1.14-6.09,1.06-5.65,2.52-9.25,3.58-7.62,6.47-12.05c3.37-5.17,6.93-9.53,10.82-13.02s8.03-6.15,12.46-7.95,9.14-2.75,14.06-2.84,9.94.65,14.91,2.2c2.94.91,5.87,1.86,8.79,2.83,2.08-2.08,4.16-4.16,6.25-6.25,3.09-3.09,5.56-5.92,7.36-8.51s2.84-4.91,3.08-6.98c.24-2.06-.31-3.9-1.67-5.47-1.35-1.58-3.61-2.92-6.74-3.97-3.35-1.13-6.76-1.65-10.16-1.55-3.4.1-6.52.44-9.36,1-2.84.56-5.24,1.16-7.24,1.75-2,.6-3.3.82-3.94.64-.43-.12-.7-.35-.84-.71-.14-.35-.14-.83-.02-1.44.12-.6.42-1.34.88-2.21.46-.87,1.03-1.81,1.72-2.83,1.14-1.68,2.13-2.99,2.99-3.91s1.96-1.71,3.33-2.37c1.36-.65,3.39-1.3,6.12-1.9,2.72-.6,5.69-1,8.9-1.16,3.21-.17,6.56-.06,10.03.32,3.47.39,6.75,1.13,9.78,2.21,5.66,2.01,9.84,4.51,12.44,7.33s3.76,5.96,3.46,9.36-1.96,7.08-4.95,11.06c-2.98,3.98-7.2,8.32-12.54,13.07-19.32,17.17-38.63,34.35-57.95,51.52v-.02ZM673.01,182.78c-3.11-.96-6.22-1.89-9.35-2.79-3.02-.87-5.96-1.23-8.77-1.09-2.82.14-5.52.77-8.1,1.87-2.57,1.1-4.95,2.62-7.16,4.53-2.21,1.91-4.29,4.23-6.3,6.93-3.42,4.61-5.27,8.46-5.69,11.48-.42,3.03.74,4.78,3.62,5.36,2.34.47,5.39-.13,9.29-1.7,3.9-1.57,8.98-4.13,15.41-7.54,5.68-5.68,11.36-11.36,17.04-17.04h.01Z"/>
      <path class="st0" d="M667.9,226.57c-.6.38-1.17.68-1.72.91-.54.23-1.11.4-1.7.52-.59.12-1.22.16-1.88.13-.66-.03-1.4-.14-2.2-.33-.77-.18-1.34-.38-1.72-.6-.37-.22-.57-.47-.59-.74s.11-.56.38-.87c.28-.31.7-.66,1.27-1.07,47.53-33.85,95.07-67.7,142.6-101.54.57-.41,1.18-.7,1.84-.87.66-.18,1.44-.19,2.36-.05.91.15,1.97.46,3.17.95,1.2.49,2.59,1.19,4.18,2.09,1.65.94,2.92,1.77,3.82,2.47.9.71,1.5,1.33,1.79,1.86s.34,1.02.15,1.46-.59.84-1.19,1.22c-50.19,31.49-100.37,62.98-150.56,94.48v-.02Z"/>
    </g>
  </g>
</svg>